<svg width="44" height="44" viewBox="0 0 44 44" fill="none" xmlns="http://www.w3.org/2000/svg">
<rect width="44" height="44" rx="22" fill="white" fill-opacity="0.3"/>
<path d="M22.7506 13.0305V13.5985C22.7506 13.9325 22.8986 14.2485 23.1556 14.4625L24.2236 15.3525C24.6656 15.7215 24.7586 16.3625 24.4396 16.8425L23.9296 17.6085C23.6519 18.0247 23.2434 18.3365 22.7686 18.4945L22.6256 18.5425C22.4643 18.5965 22.3175 18.6869 22.1968 18.8068C22.076 18.9266 21.9845 19.0727 21.9294 19.2337C21.8743 19.3946 21.857 19.5661 21.8789 19.7348C21.9008 19.9036 21.9613 20.065 22.0556 20.2065C22.4246 20.7615 22.2246 21.5135 21.6286 21.8115L19.0006 23.1255L19.4236 24.1845C19.509 24.3996 19.5134 24.6383 19.436 24.8564C19.3587 25.0745 19.2049 25.2572 19.0032 25.3705C18.8015 25.4838 18.5655 25.5201 18.339 25.4727C18.1125 25.4253 17.9109 25.2973 17.7716 25.1125L17.0926 24.2065C16.9776 24.0532 16.8252 23.9318 16.65 23.8539C16.4748 23.7759 16.2827 23.7441 16.0917 23.7613C15.9008 23.7785 15.7174 23.8443 15.559 23.9523C15.4006 24.0603 15.2724 24.207 15.1866 24.3785L14.5006 25.7505L13.8886 25.9035M22.7506 13.0305C21.1697 12.8979 19.5818 13.1865 18.1478 13.8652C16.7138 14.5439 15.4847 15.5896 14.585 16.8964C13.6854 18.2031 13.1471 19.7245 13.0248 21.3062C12.9025 22.888 13.2005 24.474 13.8886 25.9035M22.7506 13.0305C24.3183 13.1613 25.8244 13.7017 27.1186 14.5959C28.4129 15.4901 29.4501 16.708 30.127 18.1281C30.8038 19.5481 31.0966 21.1208 30.9762 22.6893C30.8558 24.2579 30.3263 25.7674 29.4406 27.0675L29.2636 26.5385C29.1142 26.0905 28.8276 25.7009 28.4444 25.4249C28.0612 25.1489 27.6009 25.0004 27.1286 25.0005H26.5006L26.1766 24.6765C26.0139 24.5135 25.8147 24.3915 25.5955 24.3206C25.3764 24.2497 25.1435 24.232 24.9161 24.2688C24.6887 24.3056 24.4733 24.396 24.2877 24.5324C24.1021 24.6689 23.9516 24.8475 23.8486 25.0535L23.8126 25.1265C23.7144 25.3232 23.5764 25.4972 23.4074 25.6377C23.2383 25.7782 23.0419 25.882 22.8306 25.9425L21.8406 26.2245C21.2906 26.3815 20.9466 26.9265 21.0406 27.4915L21.1136 27.9295C21.1936 28.4035 21.6036 28.7505 22.0836 28.7505C22.9296 28.7505 23.6816 29.2925 23.9486 30.0955L24.1636 30.7385M13.8886 25.9035C14.785 27.7673 16.296 29.2655 18.1673 30.1461C20.0387 31.0267 22.1562 31.2359 24.1636 30.7385M24.1636 30.7385C26.3136 30.2052 28.1918 28.8987 29.4396 27.0685M25.7506 19.0005C25.7506 19.8965 25.3576 20.7005 24.7346 21.2505" stroke="#231F20" stroke-width="1.5" stroke-linecap="round" stroke-linejoin="round"/>
</svg>
