<svg width="225" height="80" viewBox="0 0 225 80" fill="none" xmlns="http://www.w3.org/2000/svg">
<g clip-path="url(#clip0_2984_522)">
<path d="M51.2914 59.5269L51.2914 40.3621C51.2914 39.815 51.2445 39.2679 51.1585 38.7442C50.5957 39.4477 49.9548 40.1042 49.2358 40.6826L45.9062 43.3869L44.1319 44.8172V59.5113L44.171 59.5191C44.171 61.2386 42.7563 62.6533 41.0368 62.6533L11.7738 62.6533C10.0543 62.6533 8.63959 61.2386 8.63959 59.5191L8.63959 40.3543C8.63959 39.4164 9.06166 38.5254 9.79636 37.9157L12.8055 35.4693L24.4044 26.0433C24.9906 25.5821 25.6784 25.3477 26.3897 25.3398C27.0931 25.3398 27.7887 25.5821 28.3749 26.0433L37.7932 33.6951L38.2309 33.3356L41.2322 30.897C41.2947 30.8501 41.3885 30.7407 41.3885 30.6L41.3885 27.458L32.8691 20.533C30.9933 19.0167 28.6954 18.2508 26.4053 18.2429C24.1152 18.2508 21.8173 19.0167 19.9415 20.533L8.64741 29.7168L5.31781 32.4211C4.24702 33.2731 3.41071 34.3282 2.77761 35.4928C1.98038 36.9622 1.55051 38.627 1.55051 40.3621L1.55832 59.5191C1.55832 65.1779 6.1463 69.7658 11.7972 69.758L41.0524 69.7658C46.6956 69.7658 51.2914 65.17 51.2914 59.5269ZM44.1554 29.709L44.1554 30.6C44.1476 31.5457 43.7177 32.4289 42.9908 33.0308L39.9816 35.4772L38.8093 36.4307L42.0529 39.0647C42.4359 39.3851 42.6625 39.8619 42.6703 40.3543L42.6625 42.4412L44.1319 41.2375L44.1319 41.2688L44.1632 41.2375L47.4928 38.5332C48.5401 37.6734 49.4077 36.6339 50.033 35.4772C50.1815 35.2036 50.3222 34.9222 50.4394 34.633C50.5645 34.3673 50.6661 34.0937 50.7599 33.8124L50.7521 33.8045C50.119 32.8588 49.3374 31.999 48.4229 31.2722L44.171 27.8175L44.171 29.7246L44.1554 29.709Z" fill="#231F20"/>
<path d="M47.4918 38.5357L44.1622 41.24L41.1999 43.6395L32.8603 50.416C30.9923 51.9401 28.6866 52.6983 26.3887 52.6983C24.0908 52.6983 21.8007 51.9401 19.9327 50.416L12.8436 44.64C12.7732 44.5853 12.7185 44.5306 12.656 44.468C12.2496 44.0616 11.9447 43.5692 11.7728 42.9908C11.765 42.9674 11.7572 42.9439 11.7493 42.9205C11.7259 42.8501 11.6946 42.7563 11.6868 42.686C11.679 42.6313 11.6712 42.5922 11.6712 42.5297C11.6087 42.1232 11.6165 41.7246 11.679 41.3338C11.9369 39.9504 12.9921 38.7858 14.4537 38.4966C15.3994 38.3012 16.3451 38.4966 17.0877 38.989C17.1815 39.0516 17.2752 39.1141 17.369 39.1923L24.419 44.9136C25.5758 45.8515 27.2328 45.8515 28.3817 44.9214L37.6358 37.3868L39.9806 35.4797L42.9898 33.0333C43.7167 32.4314 44.1466 31.5482 44.1544 30.6025L44.1466 11.4456C44.1544 10.578 43.7948 9.79638 43.2243 9.22582C42.6537 8.65525 41.8799 8.30353 41.0123 8.31135L11.7728 8.2879C10.0533 8.2879 8.63859 9.70259 8.63859 11.4221L8.63859 24.6936C8.63859 25.444 8.3025 26.1708 7.70849 26.6398L5.39496 28.5313L3.44878 30.1023C3.32373 30.2117 3.19867 30.3055 3.09707 30.4071L2.96419 30.54L1.53387 31.6733C1.53387 31.2981 1.5495 30.9386 1.54169 30.5869L1.54169 11.4221C1.54169 5.77898 6.13748 1.18318 11.7806 1.18318L41.028 1.19882C43.8495 1.191 46.421 2.33995 48.2734 4.19233C50.1258 6.04472 51.2591 8.60054 51.2591 11.4299L51.2669 30.5869C51.2591 31.0324 51.2278 31.4857 51.1809 31.9234C51.009 33.174 50.626 34.3854 50.032 35.4797C49.4067 36.6364 48.5391 37.676 47.4918 38.5357Z" fill="#231F20"/>
<path d="M50.7578 33.8135L50.75 33.8057C50.6562 34.087 50.5546 34.3606 50.4374 34.6342C50.5624 34.3684 50.664 34.0949 50.7578 33.8135ZM50.7578 33.8135L50.75 33.8057C50.6562 34.087 50.5546 34.3606 50.4374 34.6342C50.5624 34.3684 50.664 34.0949 50.7578 33.8135Z" fill="#231F20"/>
<path d="M47.4918 38.5357L44.1622 41.24L44.1309 41.2713L41.1999 43.6395L32.8603 50.416C30.9923 51.9401 28.6866 52.6983 26.3887 52.6983C24.0908 52.6983 21.8007 51.9401 19.9327 50.416L12.8436 44.64C12.7732 44.5853 12.7185 44.5306 12.656 44.468C12.2496 44.0616 11.9447 43.5692 11.7728 42.9908C11.765 42.9674 11.7572 42.9439 11.7493 42.9205C11.7259 42.8501 11.6946 42.7563 11.6868 42.686C11.679 42.6313 11.6712 42.5922 11.6712 42.5297C11.6087 42.1232 11.6165 41.7246 11.679 41.3338C11.9369 39.9504 12.9921 38.7858 14.4537 38.4966C15.3994 38.3012 16.3451 38.4966 17.0877 38.989C17.1815 39.0516 17.2752 39.1141 17.369 39.1923L24.419 44.9136C25.5758 45.8515 27.2328 45.8515 28.3817 44.9214L37.6358 37.3868L39.9806 35.4797L42.9898 33.0333C43.7167 32.4314 44.1466 31.5482 44.1544 30.6025L44.1544 29.7115L44.1466 11.4456C44.1544 10.578 43.7948 9.79638 43.2243 9.22582C42.6537 8.65525 41.8799 8.30353 41.0123 8.31135L11.7728 8.2879C10.0533 8.2879 8.63859 9.70259 8.63859 11.4221L8.63859 24.6936C8.63859 25.444 8.3025 26.1708 7.70849 26.6398L5.39496 28.5313L3.44878 30.1023C3.32373 30.2117 3.19867 30.3055 3.09707 30.4071L2.96419 30.54L1.53387 31.6733C1.53387 31.2981 1.5495 30.9386 1.54169 30.5869L1.54169 11.4221C1.54169 5.77898 6.13748 1.18318 11.7806 1.18318L41.028 1.19882C43.8495 1.191 46.421 2.33995 48.2734 4.19233C50.1258 6.04472 51.2591 8.60054 51.2591 11.4299L51.2669 30.5869C51.2591 31.0324 51.2278 31.4857 51.1809 31.9234C51.0871 32.5643 50.9543 33.1974 50.7511 33.8071L50.7589 33.8149C50.6651 34.0962 50.5635 34.3698 50.4384 34.6355C50.3212 34.9247 50.1805 35.2061 50.032 35.4797C49.4067 36.6364 48.5391 37.676 47.4918 38.5357Z" fill="#F74DF4"/>
</g>
<g clip-path="url(#clip1_2984_522)">
<path d="M71.3892 30.1509C70.3132 30.1509 69.7751 29.6465 69.7751 28.6376V2.73099C69.7751 1.72217 70.3132 1.21775 71.3892 1.21775H78.2493C83.4144 1.21775 86.8983 1.85668 88.7007 3.13452C90.5166 4.39892 91.4245 6.34931 91.4245 8.98571C91.4245 10.8285 90.7452 12.2543 89.3867 13.2631C88.0416 14.272 86.7368 14.8571 85.4724 15.0185V15.079C86.6965 15.1597 88.1357 15.7785 89.7902 16.9353C91.4447 18.092 92.2719 19.7263 92.2719 21.8382C92.2719 24.3131 91.2631 26.3173 89.2455 27.8508C87.2278 29.3842 83.8987 30.1509 79.2581 30.1509H71.3892ZM75.6667 25.2278H78.6124C81.464 25.2278 83.401 24.979 84.4233 24.4813C85.459 23.9836 85.9769 22.9748 85.9769 21.4548C85.9769 20.029 85.3783 19.0471 84.1812 18.509C82.9975 17.9575 81.1412 17.6818 78.6124 17.6818H75.6667V25.2278ZM75.6667 12.9201H78.3098C80.045 12.9201 81.6658 12.6175 83.1723 12.0122C84.6923 11.4069 85.4523 10.4653 85.4523 9.18748C85.4523 8.1921 85.0286 7.43885 84.1812 6.92771C83.3472 6.40312 81.3901 6.14082 78.3098 6.14082H75.6667V12.9201ZM96.0046 24.5015C96.0046 21.8113 97.2892 19.8609 99.8583 18.6503C102.427 17.4397 105.36 16.794 108.655 16.7133V15.9063C108.655 14.6688 108.346 13.7944 107.727 13.2833C107.108 12.7722 106.248 12.5166 105.145 12.5166C104.364 12.5166 103.672 12.6309 103.066 12.8596C102.475 13.0748 101.957 13.3304 101.513 13.6263C101.082 13.9088 100.692 14.198 100.343 14.4939C99.7238 15.0319 99.2127 15.0588 98.8091 14.5746L97.1345 12.5166C96.7175 12.0055 96.8184 11.4809 97.4371 10.9428C97.9079 10.5259 98.4527 10.1627 99.0714 9.8533C99.7036 9.54393 100.538 9.25473 101.573 8.98571C102.609 8.70324 103.954 8.56201 105.609 8.56201C108.406 8.56201 110.552 9.20765 112.045 10.499C113.551 11.7902 114.305 13.6936 114.305 16.2089V28.9403C114.305 29.7473 113.901 30.1509 113.094 30.1509H109.785C109.059 30.1509 108.696 29.7473 108.696 28.9403V28.335H108.655C107.862 29.1017 106.907 29.6666 105.79 30.0298C104.687 30.3795 103.672 30.5544 102.744 30.5544C100.538 30.5544 98.8629 30.0164 97.7196 28.9403C96.5763 27.8508 96.0046 26.3711 96.0046 24.5015ZM101.977 24.3804C101.977 24.8512 102.071 25.2614 102.259 25.6112C102.448 25.9474 102.744 26.1963 103.147 26.3577C103.551 26.5191 104.001 26.5998 104.499 26.5998C105.185 26.5998 105.851 26.5057 106.496 26.3173C107.142 26.129 107.862 25.6851 108.655 24.9857V20.6074C106.395 20.863 104.882 21.1925 104.116 21.596C103.349 21.9996 102.797 22.4165 102.461 22.847C102.138 23.2774 101.977 23.7886 101.977 24.3804ZM121.023 30.1509C120.216 30.1509 119.813 29.7473 119.813 28.9403V5.11182C119.813 4.50653 119.954 3.95503 120.237 3.45735L121.79 0.733517C122.086 0.222379 122.436 -0.0331903 122.839 -0.0331903H124.252C125.059 -0.0331903 125.462 0.37034 125.462 1.1774V28.9403C125.462 29.7473 125.059 30.1509 124.252 30.1509H121.023ZM132.161 30.1509C131.354 30.1509 130.95 29.7473 130.95 28.9403V10.1761C130.95 9.36907 131.354 8.96554 132.161 8.96554H135.389C136.196 8.96554 136.6 9.36907 136.6 10.1761V28.9403C136.6 29.7473 136.196 30.1509 135.389 30.1509H132.161ZM132.161 5.85835C131.354 5.85835 130.95 5.45482 130.95 4.64776V2.06517C130.95 1.25811 131.354 0.854576 132.161 0.854576H135.389C136.196 0.854576 136.6 1.25811 136.6 2.06517V4.64776C136.6 5.45482 136.196 5.85835 135.389 5.85835H132.161Z" fill="#231F20"/>
<path d="M71.1875 68.1909C70.2459 68.1909 69.7751 67.6865 69.7751 66.6777V40.771C69.7751 39.7622 70.2459 39.2578 71.1875 39.2578H74.4561C75.2631 39.2578 75.6667 39.7622 75.6667 40.771V63.1871H87.4296C88.4384 63.1871 88.9428 63.6243 88.9428 64.4986V66.8794C88.9428 67.7538 88.4384 68.1909 87.4296 68.1909H71.1875ZM93.9466 68.1909C93.1395 68.1909 92.736 67.7874 92.736 66.9803V48.2162C92.736 47.4091 93.1395 47.0056 93.9466 47.0056H97.1748C97.9819 47.0056 98.3854 47.4091 98.3854 48.2162V66.9803C98.3854 67.7874 97.9819 68.1909 97.1748 68.1909H93.9466ZM93.9466 43.8984C93.1395 43.8984 92.736 43.4949 92.736 42.6878V40.1052C92.736 39.2981 93.1395 38.8946 93.9466 38.8946H97.1748C97.9819 38.8946 98.3854 39.2981 98.3854 40.1052V42.6878C98.3854 43.4949 97.9819 43.8984 97.1748 43.8984H93.9466ZM103.45 66.7786C102.791 66.3078 102.609 65.8034 102.905 65.2653L103.934 63.3889C104.297 62.7164 104.862 62.6357 105.629 63.1468C106.395 63.6579 107.297 64.0346 108.332 64.2767C109.382 64.5188 110.337 64.6399 111.198 64.6399C111.803 64.6399 112.368 64.5793 112.892 64.4583C113.417 64.3372 113.861 64.1018 114.224 63.7521C114.587 63.4024 114.769 62.8912 114.769 62.2187C114.769 61.8151 114.661 61.4721 114.446 61.1897C114.231 60.9072 113.955 60.692 113.619 60.544C113.282 60.3961 112.926 60.275 112.549 60.1808C112.052 60.0598 111.332 59.858 110.39 59.5755C109.462 59.2931 108.568 58.9635 107.707 58.5869C106.994 58.2775 106.295 57.8471 105.609 57.2956C104.936 56.7307 104.438 56.1052 104.116 55.4192C103.806 54.7332 103.651 53.8858 103.651 52.8769C103.651 51.5184 104.042 50.328 104.822 49.3057C105.615 48.2834 106.638 47.5772 107.889 47.1872C109.14 46.7971 110.7 46.602 112.57 46.602C113.834 46.602 115.065 46.7836 116.262 47.1468C117.459 47.51 118.313 47.853 118.824 48.1758C119.631 48.687 119.833 49.2317 119.43 49.8101L118.199 51.6058C117.822 52.1439 117.217 52.1842 116.383 51.7269C115.751 51.3772 115.125 51.0947 114.506 50.8795C113.901 50.6643 113.222 50.5566 112.469 50.5566C111.957 50.5566 111.467 50.6104 110.996 50.7181C110.525 50.8257 110.121 51.0274 109.785 51.3233C109.462 51.6193 109.301 52.0094 109.301 52.4936C109.301 53.0047 109.449 53.4083 109.745 53.7042C110.054 53.9867 110.404 54.1951 110.794 54.3297C111.198 54.4642 111.581 54.5919 111.944 54.713C112.697 54.9551 113.457 55.1905 114.224 55.4192C114.991 55.6344 115.771 55.8967 116.564 56.2061C117.25 56.4751 117.916 56.8584 118.562 57.3561C119.208 57.8538 119.678 58.486 119.974 59.2527C120.27 60.0194 120.418 60.8937 120.418 61.8757C120.418 63.1804 120.028 64.391 119.248 65.5074C118.468 66.6239 117.439 67.4175 116.161 67.8883C114.883 68.3591 113.397 68.5944 111.702 68.5944C109.805 68.5944 108.191 68.4599 106.86 68.1909C105.528 67.9219 104.391 67.4511 103.45 66.7786ZM123.465 51.0409C122.671 51.0409 122.274 50.7046 122.274 50.0321V48.0144C122.274 47.3419 122.671 47.0056 123.465 47.0056H124.837V46.2994C124.837 45.6941 124.978 45.1426 125.261 44.6449L126.814 41.9211C127.11 41.41 127.46 41.1544 127.863 41.1544H129.276C130.083 41.1544 130.486 41.5579 130.486 42.365V47.0056H133.755C134.548 47.0056 134.945 47.3419 134.945 48.0144V50.0321C134.945 50.7046 134.548 51.0409 133.755 51.0409H130.486V61.0484C130.486 62.4204 130.58 63.4091 130.769 64.0144C130.97 64.6062 131.482 64.9021 132.302 64.9021C132.719 64.9021 133.19 64.8349 133.714 64.7004C134.239 64.5524 134.649 64.4112 134.945 64.2767C135.416 64.0615 135.725 64.2161 135.873 64.7407L136.479 67.0409C136.6 67.4982 136.425 67.8345 135.954 68.0497C135.51 68.2514 134.898 68.433 134.118 68.5944C133.351 68.7693 132.578 68.8567 131.798 68.8567C129.874 68.8567 128.233 68.4599 126.875 67.6663C125.516 66.8727 124.837 65.2384 124.837 62.7634V51.0409H123.465ZM141.482 68.1909C140.675 68.1909 140.272 67.7874 140.272 66.9803V48.2162C140.272 47.4091 140.675 47.0056 141.482 47.0056H144.711C145.518 47.0056 145.921 47.4091 145.921 48.2162V66.9803C145.921 67.7874 145.518 68.1909 144.711 68.1909H141.482ZM141.482 43.8984C140.675 43.8984 140.272 43.4949 140.272 42.6878V40.1052C140.272 39.2981 140.675 38.8946 141.482 38.8946H144.711C145.518 38.8946 145.921 39.2981 145.921 40.1052V42.6878C145.921 43.4949 145.518 43.8984 144.711 43.8984H141.482ZM152.62 68.1909C151.813 68.1909 151.409 67.7874 151.409 66.9803V48.2162C151.409 47.4091 151.813 47.0056 152.62 47.0056H155.808C156.615 47.0056 157.018 47.4091 157.018 48.2162V49.3864H157.099C157.718 48.3238 158.505 47.5974 159.46 47.2073C160.415 46.8038 161.565 46.602 162.91 46.602C165.008 46.602 166.743 47.2611 168.115 48.5793C169.487 49.8975 170.173 52.3053 170.173 55.8025V66.9803C170.173 67.7874 169.77 68.1909 168.963 68.1909H165.735C164.928 68.1909 164.524 67.7874 164.524 66.9803V57.2552C164.524 54.3229 164.322 52.4734 163.919 51.7067C163.515 50.94 162.648 50.5566 161.316 50.5566C159.904 50.5566 158.841 51.1081 158.128 52.2111C157.415 53.3006 157.059 55.5739 157.059 59.0308V66.9803C157.059 67.7874 156.655 68.1909 155.848 68.1909H152.62ZM174.491 57.5982C174.491 54.639 175.13 52.0699 176.408 49.8908C177.699 47.6983 179.925 46.602 183.086 46.602C184.297 46.602 185.333 46.7769 186.194 47.1266C187.054 47.4764 187.835 48.2296 188.534 49.3864H188.615L188.696 48.2162C188.749 47.4091 189.112 47.0056 189.785 47.0056H192.973C193.78 47.0056 194.184 47.4091 194.184 48.2162V67.969C194.184 71.2645 193.296 73.5377 191.52 74.7886C189.745 76.0396 187.176 76.6651 183.813 76.6651C182.387 76.6651 181.069 76.5911 179.858 76.4431C178.648 76.2952 177.424 75.9252 176.186 75.3334C175.54 75.024 175.433 74.4389 175.863 73.578L176.59 72.1253C176.886 71.5335 177.376 71.399 178.062 71.7218C178.614 71.9774 179.293 72.206 180.1 72.4078C180.921 72.6096 181.957 72.7105 183.207 72.7105C184.929 72.7105 186.247 72.3876 187.162 71.742C188.077 71.1098 188.534 69.7176 188.534 67.5654V67.2224C188.534 66.6844 188.561 66.1464 188.615 65.6083H188.534C187.835 66.7651 187.054 67.5184 186.194 67.8681C185.333 68.2178 184.297 68.3927 183.086 68.3927C179.925 68.3927 177.699 67.3032 176.408 65.1241C175.13 62.9316 174.491 60.423 174.491 57.5982ZM180.463 57.5982C180.463 59.6159 180.739 61.2636 181.291 62.5415C181.856 63.8059 183.046 64.4381 184.862 64.4381C185.871 64.4381 186.732 63.8731 187.445 62.7433C188.171 61.5999 188.534 60.1203 188.534 58.3044V56.6903C188.534 54.8744 188.171 53.4015 187.445 52.2716C186.732 51.1283 185.871 50.5566 184.862 50.5566C183.046 50.5566 181.856 51.1956 181.291 52.4734C180.739 53.7378 180.463 55.4461 180.463 57.5982ZM199.248 66.7786C198.589 66.3078 198.407 65.8034 198.703 65.2653L199.732 63.3889C200.095 62.7164 200.66 62.6357 201.427 63.1468C202.194 63.6579 203.095 64.0346 204.131 64.2767C205.18 64.5188 206.135 64.6399 206.996 64.6399C207.601 64.6399 208.166 64.5793 208.69 64.4583C209.215 64.3372 209.659 64.1018 210.022 63.7521C210.385 63.4024 210.567 62.8912 210.567 62.2187C210.567 61.8151 210.459 61.4721 210.244 61.1897C210.029 60.9072 209.753 60.692 209.417 60.544C209.081 60.3961 208.724 60.275 208.347 60.1808C207.85 60.0598 207.13 59.858 206.189 59.5755C205.26 59.2931 204.366 58.9635 203.505 58.5869C202.792 58.2775 202.093 57.8471 201.407 57.2956C200.734 56.7307 200.236 56.1052 199.914 55.4192C199.604 54.7332 199.45 53.8858 199.45 52.8769C199.45 51.5184 199.84 50.328 200.62 49.3057C201.413 48.2834 202.436 47.5772 203.687 47.1872C204.938 46.7971 206.498 46.602 208.368 46.602C209.632 46.602 210.863 46.7836 212.06 47.1468C213.257 47.51 214.111 47.853 214.622 48.1758C215.429 48.687 215.631 49.2317 215.228 49.8101L213.997 51.6058C213.62 52.1439 213.015 52.1842 212.181 51.7269C211.549 51.3772 210.923 51.0947 210.305 50.8795C209.699 50.6643 209.02 50.5566 208.267 50.5566C207.756 50.5566 207.265 50.6104 206.794 50.7181C206.323 50.8257 205.92 51.0274 205.583 51.3233C205.26 51.6193 205.099 52.0094 205.099 52.4936C205.099 53.0047 205.247 53.4083 205.543 53.7042C205.852 53.9867 206.202 54.1951 206.592 54.3297C206.996 54.4642 207.379 54.5919 207.742 54.713C208.495 54.9551 209.255 55.1905 210.022 55.4192C210.789 55.6344 211.569 55.8967 212.363 56.2061C213.049 56.4751 213.714 56.8584 214.36 57.3561C215.006 57.8538 215.476 58.486 215.772 59.2527C216.068 60.0194 216.216 60.8937 216.216 61.8757C216.216 63.1804 215.826 64.391 215.046 65.5074C214.266 66.6239 213.237 67.4175 211.959 67.8883C210.681 68.3591 209.195 68.5944 207.5 68.5944C205.603 68.5944 203.989 68.4599 202.658 68.1909C201.326 67.9219 200.189 67.4511 199.248 66.7786Z" fill="#231F20"/>
</g>
<defs>
<clipPath id="clip0_2984_522">
<rect width="51.334" height="70.2466" fill="white" transform="translate(0.117188 0.26416)"/>
</clipPath>
<clipPath id="clip1_2984_522">
<rect width="155.989" height="79.5439" fill="white" transform="translate(68.6172 0.26416)"/>
</clipPath>
</defs>
</svg>
