<svg width="50" height="50" viewBox="0 0 50 50" fill="none" xmlns="http://www.w3.org/2000/svg">
<path d="M0.929151 32.028C0.755714 32.028 0.582276 31.971 0.436964 31.853C0.101808 31.5803 0.0518075 31.0881 0.322901 30.7538L11.7487 16.6913C12.0221 16.3569 12.5135 16.3069 12.8479 16.5772C13.1831 16.8499 13.2331 17.3421 12.962 17.6764L1.53618 31.7389C1.38228 31.9296 1.1565 32.028 0.929151 32.028Z" fill="#231F20"/>
<path d="M23.7857 32.028C23.5584 32.028 23.3334 31.9296 23.1787 31.7397L11.7529 17.6772C11.481 17.3421 11.5318 16.8499 11.867 16.578C12.2037 16.3069 12.6943 16.3577 12.9662 16.6921L24.392 30.7546C24.6639 31.0897 24.6131 31.5819 24.2779 31.8538C24.1334 31.971 23.9592 32.028 23.7857 32.028Z" fill="#231F20"/>
<path d="M2.20259 34.3713C2.02915 34.3713 1.85571 34.3143 1.7104 34.1963C1.37525 33.9237 1.32525 33.4315 1.59634 33.0971L11.7526 20.5971C12.026 20.262 12.5174 20.212 12.8518 20.4831C13.187 20.7557 13.237 21.2479 12.9659 21.5823L2.80962 34.0823C2.65571 34.2729 2.42993 34.3713 2.20259 34.3713Z" fill="#231F20"/>
<path d="M22.5162 34.3714C22.2889 34.3714 22.0639 34.2729 21.9092 34.0831L11.7529 21.5831C11.481 21.2479 11.5318 20.7557 11.867 20.4839C12.2037 20.212 12.6943 20.2628 12.9662 20.5979L23.1224 33.0979C23.3943 33.4331 23.3435 33.9253 23.0084 34.1972C22.8639 34.3143 22.6896 34.3714 22.5162 34.3714Z" fill="#231F20"/>
<path d="M43.606 32.028C43.3787 32.028 43.1537 31.9296 42.999 31.7397L31.5732 17.6772C31.3014 17.3421 31.3521 16.8499 31.6873 16.578C32.0232 16.3069 32.5146 16.3577 32.7865 16.6921L44.2123 30.7546C44.4842 31.0897 44.4334 31.5819 44.0982 31.8538C43.9529 31.971 43.7787 32.028 43.606 32.028Z" fill="#231F20"/>
<path d="M32.1797 17.9653H12.3594C11.9273 17.9653 11.5781 17.6161 11.5781 17.1841C11.5781 16.7521 11.9273 16.4028 12.3594 16.4028H32.1797C32.6117 16.4028 32.9609 16.7521 32.9609 17.1841C32.9609 17.6161 32.6109 17.9653 32.1797 17.9653Z" fill="#231F20"/>
<path d="M43.6016 32.0278H23.7812C23.3492 32.0278 23 31.6786 23 31.2466C23 30.8146 23.3492 30.4653 23.7812 30.4653H43.6016C44.0336 30.4653 44.3828 30.8146 44.3828 31.2466C44.3828 31.6786 44.0328 32.0278 43.6016 32.0278Z" fill="#231F20"/>
<path d="M43.6063 34.3716H22.5156C22.0836 34.3716 21.7344 34.0224 21.7344 33.5903C21.7344 33.1583 22.0836 32.8091 22.5156 32.8091H43.6055C44.0375 32.8091 44.3867 33.1583 44.3867 33.5903C44.3867 34.0224 44.0375 34.3716 43.6063 34.3716Z" fill="#231F20"/>
<path d="M43.6016 34.3716C43.1695 34.3716 42.8203 34.0224 42.8203 33.5903V31.2466C42.8203 30.8146 43.1695 30.4653 43.6016 30.4653C44.0336 30.4653 44.3828 30.8146 44.3828 31.2466V33.5903C44.3828 34.0224 44.0328 34.3716 43.6016 34.3716Z" fill="#231F20"/>
<path d="M3.76562 48.4339C3.33359 48.4339 2.98438 48.0847 2.98438 47.6526V31.6675C2.98438 31.2354 3.33359 30.8862 3.76562 30.8862C4.19766 30.8862 4.54688 31.2354 4.54688 31.6675V47.6526C4.54688 48.0847 4.19766 48.4339 3.76562 48.4339Z" fill="#231F20"/>
<path d="M20.9531 48.4341C20.5211 48.4341 20.1719 48.0849 20.1719 47.6528V31.6372C20.1719 31.2052 20.5211 30.856 20.9531 30.856C21.3852 30.856 21.7344 31.2052 21.7344 31.6372V47.6528C21.7344 48.0849 21.3852 48.4341 20.9531 48.4341Z" fill="#231F20"/>
<path d="M42.825 48.4341H3.76563C3.33359 48.4341 2.98438 48.0849 2.98438 47.6528C2.98438 47.2208 3.33359 46.8716 3.76563 46.8716H42.8242C43.2563 46.8716 43.6055 47.2208 43.6055 47.6528C43.6055 48.0849 43.2563 48.4341 42.825 48.4341Z" fill="#231F20"/>
<path d="M42.8203 48.4341C42.3883 48.4341 42.0391 48.0849 42.0391 47.6528V33.5903C42.0391 33.1583 42.3883 32.8091 42.8203 32.8091C43.2523 32.8091 43.6016 33.1583 43.6016 33.5903V47.6528C43.6016 48.0849 43.2516 48.4341 42.8203 48.4341Z" fill="#231F20"/>
<path d="M2.20034 34.3714C1.92299 34.3714 1.65424 34.2238 1.51284 33.9628L0.243306 31.6191C0.0370564 31.2394 0.178463 30.7652 0.557369 30.5605C0.936275 30.3558 1.41128 30.4956 1.61596 30.8745L2.88549 33.2183C3.09174 33.598 2.95034 34.0722 2.57143 34.2769C2.45424 34.341 2.3269 34.3714 2.20034 34.3714Z" fill="#231F20"/>
<path d="M10.0156 48.4341C9.58359 48.4341 9.23438 48.0849 9.23438 47.6528V39.0591C9.23438 38.6271 9.58359 38.2778 10.0156 38.2778C10.4477 38.2778 10.7969 38.6271 10.7969 39.0591V47.6528C10.7969 48.0849 10.4477 48.4341 10.0156 48.4341Z" fill="#231F20"/>
<path d="M14.7031 39.8403H10.0156C9.58359 39.8403 9.23438 39.4911 9.23438 39.0591C9.23438 38.6271 9.58359 38.2778 10.0156 38.2778H14.7031C15.1352 38.2778 15.4844 38.6271 15.4844 39.0591C15.4844 39.4911 15.1352 39.8403 14.7031 39.8403Z" fill="#231F20"/>
<path d="M14.7031 48.4341C14.2711 48.4341 13.9219 48.0849 13.9219 47.6528V39.0591C13.9219 38.6271 14.2711 38.2778 14.7031 38.2778C15.1352 38.2778 15.4844 38.6271 15.4844 39.0591V47.6528C15.4844 48.0849 15.1352 48.4341 14.7031 48.4341Z" fill="#231F20"/>
<path d="M12.3594 35.1528C10.6359 35.1528 9.23438 33.7513 9.23438 32.0278C9.23438 30.3044 10.6359 28.9028 12.3594 28.9028C14.0828 28.9028 15.4844 30.3044 15.4844 32.0278C15.4844 33.7513 14.0828 35.1528 12.3594 35.1528ZM12.3594 30.4653C11.4977 30.4653 10.7969 31.1661 10.7969 32.0278C10.7969 32.8896 11.4977 33.5903 12.3594 33.5903C13.2211 33.5903 13.9219 32.8896 13.9219 32.0278C13.9219 31.1661 13.2211 30.4653 12.3594 30.4653Z" fill="#231F20"/>
<path d="M30.3266 43.7466H24.8594C24.4273 43.7466 24.0781 43.3974 24.0781 42.9653V37.4966C24.0781 37.0646 24.4273 36.7153 24.8594 36.7153H30.3266C30.7586 36.7153 31.1078 37.0646 31.1078 37.4966V42.9653C31.1078 43.3974 30.7586 43.7466 30.3266 43.7466ZM25.6406 42.1841H29.5453V38.2778H25.6406V42.1841Z" fill="#231F20"/>
<path d="M38.9125 43.7466H33.4453C33.0133 43.7466 32.6641 43.3974 32.6641 42.9653V37.4966C32.6641 37.0646 33.0133 36.7153 33.4453 36.7153H38.9125C39.3445 36.7153 39.6938 37.0646 39.6938 37.4966V42.9653C39.6938 43.3974 39.3438 43.7466 38.9125 43.7466ZM34.2258 42.1841H38.1305V38.2778H34.2258V42.1841Z" fill="#231F20"/>
<path d="M42.8203 31.0515C42.3883 31.0515 42.0391 30.7022 42.0391 30.2702V5.45459C42.0391 5.02256 42.3883 4.67334 42.8203 4.67334C43.2523 4.67334 43.6016 5.02256 43.6016 5.45459V30.2702C43.6016 30.7022 43.2516 31.0515 42.8203 31.0515Z" fill="#231F20"/>
<path d="M17.8125 6.25146C17.3805 6.25146 17.0312 5.90225 17.0312 5.47021C17.0312 3.31631 18.7836 1.56396 20.9375 1.56396C21.3695 1.56396 21.7188 1.91318 21.7188 2.34521C21.7188 2.77725 21.3695 3.12646 20.9375 3.12646C19.6453 3.12646 18.5938 4.17803 18.5938 5.47021C18.5938 5.90225 18.2445 6.25146 17.8125 6.25146Z" fill="#231F20"/>
<path d="M49.0625 6.25146C48.6305 6.25146 48.2812 5.90225 48.2812 5.47021C48.2812 4.17803 47.2297 3.12646 45.9375 3.12646C45.5055 3.12646 45.1562 2.77725 45.1562 2.34521C45.1562 1.91318 45.5055 1.56396 45.9375 1.56396C48.0914 1.56396 49.8438 3.31631 49.8438 5.47021C49.8438 5.90225 49.4945 6.25146 49.0625 6.25146Z" fill="#231F20"/>
<path d="M49.0656 6.25146H42.8125C42.3805 6.25146 42.0312 5.90225 42.0312 5.47021C42.0312 5.03818 42.3805 4.68896 42.8125 4.68896H49.0656C49.4977 4.68896 49.8469 5.03818 49.8469 5.47021C49.8469 5.90225 49.4977 6.25146 49.0656 6.25146Z" fill="#231F20"/>
<path d="M45.9383 3.12646H20.9375C20.5055 3.12646 20.1562 2.77725 20.1562 2.34521C20.1562 1.91318 20.5055 1.56396 20.9375 1.56396H45.9383C46.3703 1.56396 46.7195 1.91318 46.7195 2.34521C46.7195 2.77725 46.3703 3.12646 45.9383 3.12646Z" fill="#231F20"/>
<path d="M42.8125 6.25459C42.3805 6.25459 42.0312 5.90537 42.0312 5.47334C42.0312 3.31787 43.7852 1.56396 45.9406 1.56396C46.3727 1.56396 46.7219 1.91318 46.7219 2.34521C46.7219 2.77725 46.3727 3.12646 45.9406 3.12646C44.6469 3.12646 43.5938 4.17959 43.5938 5.47334C43.5938 5.90537 43.2445 6.25459 42.8125 6.25459Z" fill="#231F20"/>
<path d="M17.8125 17.9655C17.3805 17.9655 17.0312 17.6163 17.0312 17.1843V5.47021C17.0312 5.03818 17.3805 4.68896 17.8125 4.68896C18.2445 4.68896 18.5938 5.03818 18.5938 5.47021V17.1843C18.5938 17.6163 18.2445 17.9655 17.8125 17.9655Z" fill="#231F20"/>
<path d="M49.0703 48.4358C48.6383 48.4358 48.2891 48.0866 48.2891 47.6546V11.7124C48.2891 11.2804 48.6383 10.9312 49.0703 10.9312C49.5023 10.9312 49.8516 11.2804 49.8516 11.7124V47.6546C49.8516 48.0866 49.5016 48.4358 49.0703 48.4358Z" fill="#231F20"/>
<path d="M49.0703 48.436H45.9453C45.5133 48.436 45.1641 48.0868 45.1641 47.6548C45.1641 47.2228 45.5133 46.8735 45.9453 46.8735H49.0703C49.5023 46.8735 49.8516 47.2228 49.8516 47.6548C49.8516 48.0868 49.5016 48.436 49.0703 48.436Z" fill="#231F20"/>
<path d="M45.9453 48.4358C45.5133 48.4358 45.1641 48.0866 45.1641 47.6546V11.7124C45.1641 11.2804 45.5133 10.9312 45.9453 10.9312C46.3773 10.9312 46.7266 11.2804 46.7266 11.7124V47.6546C46.7266 48.0866 46.3766 48.4358 45.9453 48.4358Z" fill="#231F20"/>
<path d="M45.9444 12.494C45.8272 12.494 45.7077 12.4674 45.596 12.4119C45.21 12.219 45.0538 11.7494 45.2468 11.3635L46.8093 8.2385C47.003 7.85256 47.4725 7.69865 47.8577 7.88928C48.2436 8.08225 48.3999 8.55178 48.2069 8.93772L46.6444 12.0627C46.5061 12.3362 46.2311 12.494 45.9444 12.494Z" fill="#231F20"/>
<path d="M49.0718 12.4938C48.785 12.4938 48.5093 12.336 48.3718 12.0617L46.8093 8.93674C46.6163 8.5508 46.7725 8.08127 47.1585 7.8883C47.5444 7.69768 48.0132 7.85158 48.2069 8.23752L49.7694 11.3625C49.9624 11.7485 49.8061 12.218 49.4202 12.411C49.3077 12.4672 49.1889 12.4938 49.0718 12.4938Z" fill="#231F20"/>
<path d="M49.0703 45.311H45.9453C45.5133 45.311 45.1641 44.9618 45.1641 44.5298C45.1641 44.0978 45.5133 43.7485 45.9453 43.7485H49.0703C49.5023 43.7485 49.8516 44.0978 49.8516 44.5298C49.8516 44.9618 49.5016 45.311 49.0703 45.311Z" fill="#231F20"/>
<path d="M49.0703 42.186H45.9453C45.5133 42.186 45.1641 41.8368 45.1641 41.4048C45.1641 40.9728 45.5133 40.6235 45.9453 40.6235H49.0703C49.5023 40.6235 49.8516 40.9728 49.8516 41.4048C49.8516 41.8368 49.5016 42.186 49.0703 42.186Z" fill="#231F20"/>
<path d="M38.1234 11.7153H22.5156C22.0836 11.7153 21.7344 11.3661 21.7344 10.9341C21.7344 10.5021 22.0836 10.1528 22.5156 10.1528H38.1234C38.5555 10.1528 38.9047 10.5021 38.9047 10.9341C38.9047 11.3661 38.5555 11.7153 38.1234 11.7153Z" fill="#231F20"/>
<path d="M36.5627 13.278C36.3627 13.278 36.1627 13.2015 36.0104 13.0491C35.7049 12.7437 35.7049 12.2499 36.0104 11.9444L37.5729 10.3819C37.8783 10.0765 38.3721 10.0765 38.6775 10.3819C38.983 10.6874 38.983 11.1812 38.6775 11.4866L37.115 13.0491C36.9627 13.2015 36.7627 13.278 36.5627 13.278Z" fill="#231F20"/>
<path d="M38.1252 11.7155C37.9252 11.7155 37.7252 11.639 37.5729 11.4866L36.0104 9.92412C35.7049 9.61865 35.7049 9.1249 36.0104 8.81943C36.3158 8.51396 36.8096 8.51396 37.115 8.81943L38.6775 10.3819C38.983 10.6874 38.983 11.1812 38.6775 11.4866C38.5252 11.639 38.3252 11.7155 38.1252 11.7155Z" fill="#231F20"/>
<path d="M24.0041 13.203C23.8041 13.203 23.6041 13.1265 23.4518 12.9741L21.9635 11.4866C21.658 11.1812 21.658 10.6874 21.9635 10.3819C22.2689 10.0765 22.7627 10.0765 23.0682 10.3819L24.5564 11.8694C24.8619 12.1749 24.8619 12.6687 24.5564 12.9741C24.4033 13.1272 24.2033 13.203 24.0041 13.203Z" fill="#231F20"/>
<path d="M22.5158 11.7153C22.3158 11.7153 22.1158 11.6388 21.9635 11.4864C21.658 11.181 21.658 10.6872 21.9635 10.3817L23.4518 8.89268C23.7572 8.58721 24.251 8.58721 24.5564 8.89268C24.8619 9.19814 24.8619 9.69189 24.5564 9.99736L23.0682 11.4864C22.9158 11.6388 22.7158 11.7153 22.5158 11.7153Z" fill="#231F20"/>
</svg>
