<svg width="50" height="50" viewBox="0 0 50 50" fill="none" xmlns="http://www.w3.org/2000/svg">
<g clip-path="url(#clip0_2434_1246)">
<path d="M8.06563 44.9447L6.16181 42.7746L3.4556 39.0856C2.64232 37.8303 1.94937 36.4989 1.37148 35.1196C0.971423 34.1647 -0.152017 31.0336 0.301244 30.0415C0.640294 29.2995 1.31149 29.6235 1.91876 29.6772C4.9911 29.949 8.24748 28.9383 11.0997 27.9332L15.8749 26.1229L15.858 25.8057C15.8444 25.1451 16.1191 24.5729 16.5786 24.108C17.8539 22.818 19.4549 23.612 19.6191 23.5364C19.72 23.49 19.8724 23.3105 19.9622 23.2327L20.5845 22.7417C21.9425 21.7713 23.4781 21.3696 25.1196 21.3545C25.0667 19.8826 27.0767 18.3167 28.008 18.9737L28.0345 18.9928C28.0948 18.9548 28.1455 18.8347 28.1928 18.7748C28.4752 18.418 28.8389 18.0912 29.1645 17.7723L44.3076 2.71901C45.1085 1.90519 45.7491 1.0599 46.9612 0.912288C48.3562 0.608574 49.7432 2.0787 49.6578 3.51312C49.59 4.65032 48.6556 5.43641 47.9024 6.18032L35.3531 18.6402C34.129 19.8576 32.955 21.1079 31.6582 22.25L32.0633 22.7168C32.9137 23.8772 31.5902 24.9068 30.7361 25.49C30.2805 25.801 30.1178 25.7026 30.2605 26.1364C30.9296 28.17 30.4209 30.6524 29.0076 32.2524C28.5588 32.7605 28.7107 32.4352 28.9178 33.0839C29.4555 34.7688 28.1022 36.6019 26.2651 36.4454C26.2201 36.6969 26.1094 36.9526 26.0226 37.1936L25.5577 38.4521C24.8241 40.3897 24.0026 42.2714 22.9639 44.0658C20.9649 47.5187 19.0286 49.4108 14.8846 49.1524C14.3316 49.1179 13.7654 49.005 13.2158 48.9294L12.4743 48.8353C12.0505 48.7881 11.8388 48.7439 11.5155 48.4657L8.06563 44.9447ZM47.0659 2.45033C46.4125 2.54153 45.9662 3.1643 45.5306 3.60399L30.7588 18.3309C30.2481 18.8389 29.7099 19.326 29.2283 19.8619L30.5152 21.0261L30.6619 21.1713L46.6159 5.25647C47.0096 4.85443 47.4517 4.46993 47.8156 4.04215C48.4666 3.27691 47.963 2.49353 47.0659 2.45033ZM27.3835 20.398C27.116 20.5653 26.4208 21.2198 26.6613 21.5691C26.9031 21.9202 27.256 22.2239 27.5594 22.5232L29.5759 24.5096L29.7546 24.3448L30.753 23.4959L27.9046 20.682C27.7721 20.5693 27.6231 20.4392 27.4547 20.3854L27.3835 20.398ZM24.6465 22.8329C23.1484 22.9519 21.8708 23.5571 20.7221 24.5331L20.7148 24.5556C20.9654 24.878 21.265 25.1604 21.5532 25.4487L26.4644 30.2088L27.7859 31.4339C27.8776 31.3625 27.9585 31.208 28.0248 31.1104C29.3024 29.2315 29.5335 27.0525 28.0524 25.177C27.7006 24.7314 26.1779 23.1649 25.6426 22.8882L25.6163 22.8739C25.4225 22.7758 24.8868 22.8037 24.6465 22.8329ZM18.2572 24.8591C17.4444 25.0909 16.9896 25.7558 17.689 26.4631L25.7895 34.2962C25.966 34.4722 26.1499 34.6792 26.3804 34.7848L26.5796 34.8487C27.4937 34.7937 27.7399 33.6625 27.176 33.026C26.7073 32.4969 26.1491 32.0234 25.6404 31.532L20.3135 26.3289C19.7971 25.808 19.0938 24.7648 18.2572 24.8591ZM16.572 27.5269L12.3692 29.104C9.59421 30.1394 4.74243 31.7204 1.70844 31.1414C2.01954 32.4191 2.13619 32.4502 3.47153 32.4538C4.9038 32.4577 6.31429 32.244 7.70168 31.8921L9.19737 31.4429C9.58412 31.3141 10.0166 31.1216 10.4208 31.0812C11.1894 31.0042 11.5813 32.0423 10.8759 32.4544C10.5708 32.6326 10.2018 32.7362 9.86602 32.8456C8.33471 33.3452 3.96394 34.3911 2.38539 33.8494C2.92193 34.9487 3.34638 36.1018 4.03375 37.1193L6.22236 36.6116C6.76362 36.5171 7.07498 37.3819 6.77836 37.7718C6.42888 38.2311 5.53967 38.4236 5.00911 38.5529C5.79132 39.7717 6.78893 40.4517 8.33989 40.2101C8.83799 40.1325 9.70503 39.6698 10.0665 40.2618C10.8298 41.5117 8.533 42.0912 7.77206 42.3794C9.79883 44.0205 12.6334 43.3108 14.3824 41.6077C14.6087 41.3777 14.8429 41.0596 15.1926 41.0548C15.6715 41.0484 16.0203 41.4096 16.0066 41.8824C15.9947 42.2929 15.5852 42.6343 15.2964 42.8862C13.9118 44.0939 11.9857 44.9608 10.1174 44.8317C10.0483 44.8269 9.98174 44.8101 9.91241 44.8117L11.4873 46.3588C11.8346 46.7045 12.198 47.1081 12.608 47.3772C14.769 46.9019 16.5275 44.9919 17.6633 43.2091C17.8381 42.9346 18.0207 42.5126 18.3703 42.4371C18.7903 42.3464 19.2599 42.5392 19.3228 43.0005C19.3629 43.2949 19.1405 43.6469 18.9997 43.8944C18.1343 45.4142 16.9778 46.667 15.5484 47.6801C18.5655 47.6062 19.8244 46.2917 21.3819 43.7368C22.9412 41.1788 23.9395 38.4137 24.9818 35.6153L17.437 28.2773C17.2657 28.108 16.8091 27.5091 16.572 27.5269Z" fill="#4D4D4D"/>
<path d="M8.06563 44.9447L6.16181 42.7746L3.4556 39.0856C2.64232 37.8303 1.94937 36.4989 1.37148 35.1196C0.971423 34.1647 -0.152017 31.0336 0.301244 30.0415C0.640294 29.2995 1.31149 29.6235 1.91876 29.6772C4.9911 29.949 8.24748 28.9383 11.0997 27.9332L15.8749 26.1229L15.858 25.8057C15.8444 25.1451 16.1191 24.5729 16.5786 24.108C17.8539 22.818 19.4549 23.612 19.6191 23.5364C19.72 23.49 19.8724 23.3105 19.9622 23.2327L20.5845 22.7417C21.9425 21.7713 23.4781 21.3696 25.1196 21.3545C25.0667 19.8826 27.0767 18.3167 28.008 18.9737L28.0345 18.9928C28.0948 18.9548 28.1455 18.8347 28.1928 18.7748C28.4752 18.418 28.8389 18.0912 29.1645 17.7723L44.3076 2.71901C45.1085 1.90519 45.7491 1.0599 46.9612 0.912288C48.3562 0.608574 49.7432 2.0787 49.6578 3.51312C49.59 4.65032 48.6556 5.43641 47.9024 6.18032L35.3531 18.6402C34.129 19.8576 32.955 21.1079 31.6582 22.25L32.0633 22.7168C32.9137 23.8772 31.5902 24.9068 30.7361 25.49C30.2805 25.801 30.1178 25.7026 30.2605 26.1364C30.9296 28.17 30.4209 30.6524 29.0076 32.2524C28.5588 32.7605 28.7107 32.4352 28.9178 33.0839C29.4555 34.7688 28.1022 36.6019 26.2651 36.4454C26.2201 36.6969 26.1094 36.9526 26.0226 37.1936L25.5577 38.4521C24.8241 40.3897 24.0026 42.2714 22.9639 44.0658C20.9649 47.5187 19.0286 49.4108 14.8846 49.1524C14.3316 49.1179 13.7654 49.005 13.2158 48.9294L12.4743 48.8353C12.0505 48.7881 11.8388 48.7439 11.5155 48.4657L8.06563 44.9447ZM47.0659 2.45033C46.4125 2.54153 45.9662 3.1643 45.5306 3.60399L30.7588 18.3309C30.2481 18.8389 29.7099 19.326 29.2283 19.8619L30.5152 21.0261L30.6619 21.1713L46.6159 5.25647C47.0096 4.85443 47.4517 4.46993 47.8156 4.04215C48.4666 3.27691 47.963 2.49353 47.0659 2.45033ZM27.3835 20.398C27.116 20.5653 26.4208 21.2198 26.6613 21.5691C26.9031 21.9202 27.256 22.2239 27.5594 22.5232L29.5759 24.5096L29.7546 24.3448L30.753 23.4959L27.9046 20.682C27.7721 20.5693 27.6231 20.4392 27.4547 20.3854L27.3835 20.398ZM24.6465 22.8329C23.1484 22.9519 21.8708 23.5571 20.7221 24.5331L20.7148 24.5556C20.9654 24.878 21.265 25.1604 21.5532 25.4487L26.4644 30.2088L27.7859 31.4339C27.8776 31.3625 27.9585 31.208 28.0248 31.1104C29.3024 29.2315 29.5335 27.0525 28.0524 25.177C27.7006 24.7314 26.1779 23.1649 25.6426 22.8882L25.6163 22.8739C25.4225 22.7758 24.8868 22.8037 24.6465 22.8329ZM18.2572 24.8591C17.4444 25.0909 16.9896 25.7558 17.689 26.4631L25.7895 34.2962C25.966 34.4722 26.1499 34.6792 26.3804 34.7848L26.5796 34.8487C27.4937 34.7937 27.7399 33.6625 27.176 33.026C26.7073 32.4969 26.1491 32.0234 25.6404 31.532L20.3135 26.3289C19.7971 25.808 19.0938 24.7648 18.2572 24.8591ZM16.572 27.5269L12.3692 29.104C9.59421 30.1394 4.74243 31.7204 1.70844 31.1414C2.01954 32.4191 2.13619 32.4502 3.47153 32.4538C4.9038 32.4577 6.31429 32.244 7.70168 31.8921L9.19737 31.4429C9.58412 31.3141 10.0166 31.1216 10.4208 31.0812C11.1894 31.0042 11.5813 32.0423 10.8759 32.4544C10.5708 32.6326 10.2018 32.7362 9.86602 32.8456C8.33471 33.3452 3.96394 34.3911 2.38539 33.8494C2.92193 34.9487 3.34638 36.1018 4.03375 37.1193L6.22236 36.6116C6.76362 36.5171 7.07498 37.3819 6.77836 37.7718C6.42888 38.2311 5.53967 38.4236 5.00911 38.5529C5.79132 39.7717 6.78893 40.4517 8.33989 40.2101C8.83799 40.1325 9.70503 39.6698 10.0665 40.2618C10.8298 41.5117 8.533 42.0912 7.77206 42.3794C9.79883 44.0205 12.6334 43.3108 14.3824 41.6077C14.6087 41.3777 14.8429 41.0596 15.1926 41.0548C15.6715 41.0484 16.0203 41.4096 16.0066 41.8824C15.9947 42.2929 15.5852 42.6343 15.2964 42.8862C13.9118 44.0939 11.9857 44.9608 10.1174 44.8317C10.0483 44.8269 9.98174 44.8101 9.91241 44.8117L11.4873 46.3588C11.8346 46.7045 12.198 47.1081 12.608 47.3772C14.769 46.9019 16.5275 44.9919 17.6633 43.2091C17.8381 42.9346 18.0207 42.5126 18.3703 42.4371C18.7903 42.3464 19.2599 42.5392 19.3228 43.0005C19.3629 43.2949 19.1405 43.6469 18.9997 43.8944C18.1343 45.4142 16.9778 46.667 15.5484 47.6801C18.5655 47.6062 19.8244 46.2917 21.3819 43.7368C22.9412 41.1788 23.9395 38.4137 24.9818 35.6153L17.437 28.2773C17.2657 28.108 16.8091 27.5091 16.572 27.5269Z" fill="black" fill-opacity="0.2"/>
</g>
<defs>
<clipPath id="clip0_2434_1246">
<rect width="50" height="50" fill="white"/>
</clipPath>
</defs>
</svg>
