<svg width="40" height="40" viewBox="0 0 40 40" fill="none" xmlns="http://www.w3.org/2000/svg">
<path d="M24.9719 32.5781L20 37.4453C11.8633 37.4453 8.20312 40 8.20312 40H3.125C2.47813 40 1.95312 39.475 1.95312 38.8281V32.8453C1.95312 29.5 3.95391 26.5195 7.05 25.2531L10.0781 24.0141C10.0781 24.0141 11.6273 25.8203 12.4219 23.0555L16.4313 21.4156C16.5719 21.3578 16.7227 21.3281 16.875 21.3281H20L24.9719 32.5781Z" fill="#A7EBE8"/>
<path d="M38.0469 32.8453V38.8281C38.0469 39.475 37.5219 40 36.875 40H31.7969C31.7969 40 28.1367 37.4453 20 37.4453V21.3281H23.125C23.2773 21.3281 23.4281 21.3578 23.5687 21.4156L26.9531 22.8C26.9531 22.8 26.9531 22.8 26.9539 22.8008C26.9688 22.8407 27.4594 24.1071 28.125 24.1071C28.8016 24.1071 29.2969 23.7587 29.2969 23.7587L32.95 25.2532C36.0461 26.5195 38.0469 29.5 38.0469 32.8453Z" fill="#55DAD3"/>
<path d="M12.4219 23.0554V31.875C12.4219 32.5218 11.8969 33.0468 11.25 33.0468C10.6031 33.0468 10.0781 32.5218 10.0781 31.875V24.014L12.4219 23.0554Z" fill="#FD8030"/>
<path d="M29.2969 23.7586V31.875C29.2969 32.5219 28.7719 33.0469 28.125 33.0469C27.4781 33.0469 26.9531 32.5219 26.9531 31.875V22.8L29.2969 23.7586Z" fill="#E16928"/>
<path d="M23.6484 36.2281L20 40H8.20312V34.2188C8.20312 32.2773 9.77734 30.7031 11.7188 30.7031H20L23.6484 36.2281Z" fill="#FDA95A"/>
<path d="M31.7969 34.2188V40H20V30.7031H28.2812C30.2227 30.7031 31.7969 32.2773 31.7969 34.2188Z" fill="#FD8030"/>
<path d="M22.1484 25.6367L20 29.2969C17.6305 29.2969 15.7031 27.3695 15.7031 25V21.25C15.7031 20.6031 16.2281 20.0781 16.875 20.0781H20L22.1484 25.6367Z" fill="#FDBBA7"/>
<path d="M24.2969 21.25V25C24.2969 27.3695 22.3695 29.2969 20 29.2969V20.0781H23.125C23.7719 20.0781 24.2969 20.6031 24.2969 21.25Z" fill="#FDA38A"/>
<path d="M25.1445 7.26562L20 15.5469H9.375C8.72813 15.5469 8.20312 15.0219 8.20312 14.375V8.125C8.20312 5.27656 10.3609 2.92266 13.1281 2.6125L13.3672 2.28437C14.407 0.853906 16.0844 0 17.8531 0H20L25.1445 7.26562Z" fill="#46646E"/>
<path d="M31.7969 1.17188V9.6875C31.7969 12.9187 29.168 15.5469 25.9375 15.5469H20V0H30.625C31.2719 0 31.7969 0.525 31.7969 1.17188Z" fill="#324650"/>
<path d="M14.2969 11.875V16.875C14.2969 17.5219 13.7719 18.0469 13.125 18.0469H10.625C8.6 18.0469 6.95312 16.4 6.95312 14.375C6.95312 12.35 8.6 10.7031 10.625 10.7031H13.125C13.7719 10.7031 14.2969 11.2281 14.2969 11.875Z" fill="#FDBBA7"/>
<path d="M33.0469 14.375C33.0469 16.4 31.4 18.0469 29.375 18.0469H26.875C26.2281 18.0469 25.7031 17.5219 25.7031 16.875V11.875C25.7031 11.2281 26.2281 10.7031 26.875 10.7031H29.375C31.4 10.7031 33.0469 12.35 33.0469 14.375Z" fill="#FDA38A"/>
<path d="M23.3492 17.1875L20 24.9219C15.5633 24.9219 11.9531 21.3117 11.9531 16.875V10.4125C11.9531 9.19375 12.9437 8.20312 14.1625 8.20312C14.832 8.20312 15.4977 8.30078 16.1391 8.49297L17.2312 8.82109C18.1359 9.09219 19.0664 9.24766 20 9.2875L23.3492 17.1875Z" fill="#FCCABB"/>
<path d="M28.0469 10.4125V16.875C28.0469 21.3117 24.4367 24.9219 20 24.9219V9.2875C21.6922 9.36094 23.393 9.05703 24.968 8.38203C25.2445 8.26328 25.5367 8.20312 25.8375 8.20312C27.0563 8.20312 28.0469 9.19375 28.0469 10.4125Z" fill="#FDBBA7"/>
<path d="M21.2113 20.9022L20.0003 22.0897C19.391 22.0897 18.7816 21.9506 18.2261 21.6733C17.6472 21.3835 17.4128 20.6795 17.7019 20.1006C17.9918 19.5217 18.6957 19.2874 19.2746 19.5764C19.5019 19.6905 19.7511 19.7467 20.0003 19.7467L21.2113 20.9022Z" fill="#FDBBA7"/>
<path d="M21.7742 21.6735C21.2187 21.9509 20.6094 22.0899 20 22.0899V19.747C20.2492 19.747 20.4984 19.6907 20.7258 19.5767C21.3047 19.2876 22.0086 19.522 22.2984 20.1009C22.5875 20.6798 22.3531 21.3837 21.7742 21.6735Z" fill="#FDA38A"/>
</svg>
