<svg width="50" height="50" viewBox="0 0 50 50" fill="none" xmlns="http://www.w3.org/2000/svg">
<path d="M20.9288 2.46875C20.4897 2.04135 19.9347 1.75246 19.3328 1.63801C18.7308 1.52356 18.1085 1.58859 17.5432 1.82503C16.9779 2.06147 16.4946 2.45887 16.1534 2.96781C15.8122 3.47675 15.6281 4.07477 15.6241 4.6875V15.1484H13.7804C13.0662 15.1344 12.3688 15.3654 11.8042 15.803C11.2397 16.2406 10.8421 16.8584 10.6777 17.5535C10.5132 18.2486 10.5919 18.9791 10.9006 19.6233C11.2093 20.2674 11.7293 20.7864 12.3741 21.0937V28.0391C12.383 30.0599 12.9617 32.0372 14.0438 33.7439C15.1258 35.4506 16.6674 36.8175 18.4913 37.6875C18.4194 37.963 18.3827 38.2465 18.3819 38.5312V40.2891C18.3857 41.1896 18.7403 42.0531 19.3705 42.6964C20.0006 43.3397 20.8567 43.712 21.7569 43.7344V45.7031C21.7692 46.434 22.0688 47.1306 22.5907 47.6423C23.1127 48.154 23.8151 48.4397 24.546 48.4375H25.4601C26.1956 48.4375 26.9011 48.1453 27.4212 47.6252C27.9413 47.1051 28.2335 46.3996 28.2335 45.6641V43.7031C29.1433 43.6929 30.0124 43.3248 30.6528 42.6785C31.2932 42.0323 31.6534 41.1598 31.6554 40.25V38.4922C31.6546 38.1751 31.6099 37.8596 31.5226 37.5547C33.3043 36.6751 34.8038 35.3136 35.8505 33.6246C36.8973 31.9357 37.4495 29.987 37.4444 28V21.1484C38.1073 20.8661 38.6521 20.3634 38.9869 19.7254C39.3216 19.0874 39.4257 18.3534 39.2814 17.6475C39.1371 16.9417 38.7533 16.3074 38.1951 15.852C37.6368 15.3965 36.9383 15.148 36.2179 15.1484H34.0538V4.6875C33.9606 3.93057 33.5938 3.23387 33.0225 2.72863C32.4512 2.2234 31.7149 1.94451 30.9522 1.94451C30.1896 1.94451 29.4533 2.2234 28.882 2.72863C28.3107 3.23387 27.9439 3.93057 27.8507 4.6875V15.1484H21.8741V4.6875C21.8714 4.27349 21.7864 3.86415 21.6241 3.48325C21.4618 3.10236 21.2255 2.75752 20.9288 2.46875ZM17.1866 4.6875C17.1966 4.38702 17.293 4.09578 17.4643 3.84873C17.6356 3.60167 17.8746 3.40929 18.1525 3.29465C18.4304 3.18002 18.7355 3.148 19.0312 3.20243C19.3269 3.25687 19.6006 3.39546 19.8194 3.60156C20.1206 3.88426 20.2975 4.27469 20.3116 4.6875V15.1484H17.1866V4.6875ZM26.671 45.6641C26.6689 45.9846 26.5407 46.2914 26.3141 46.5181C26.0874 46.7447 25.7806 46.873 25.4601 46.875H24.546C24.3859 46.876 24.2273 46.8455 24.079 46.7852C23.9307 46.7249 23.7958 46.636 23.6819 46.5236C23.568 46.4111 23.4774 46.2773 23.4152 46.1299C23.353 45.9824 23.3205 45.8241 23.3194 45.6641V43.7031H26.671V45.6641ZM30.0929 40.25C30.0908 40.7508 29.891 41.2305 29.5368 41.5846C29.1827 41.9387 28.703 42.1386 28.2022 42.1406H21.8741C21.3733 42.1386 20.8936 41.9387 20.5395 41.5846C20.1854 41.2305 19.9856 40.7508 19.9835 40.25V38.4922C19.9759 38.4012 19.9759 38.3097 19.9835 38.2187C20.9791 38.5208 22.0134 38.6761 23.0538 38.6797H26.7647C27.8797 38.6774 28.9873 38.4981 30.046 38.1484C30.0731 38.2612 30.0888 38.3763 30.0929 38.4922V40.25ZM35.8819 28C35.8845 29.8094 35.3467 31.5783 34.3376 33.0801C33.3285 34.5819 31.894 35.7483 30.2179 36.4297C29.1234 36.8844 27.9499 37.118 26.7647 37.1172H23.0538C20.6364 37.1151 18.3186 36.1539 16.6093 34.4445C14.8999 32.7352 13.9387 30.4174 13.9366 28V21.3984H35.8819V28ZM29.4132 4.6875C29.4766 4.32537 29.6657 3.9972 29.9472 3.76073C30.2287 3.52425 30.5846 3.39461 30.9522 3.39461C31.3199 3.39461 31.6758 3.52425 31.9573 3.76073C32.2388 3.9972 32.4279 4.32537 32.4913 4.6875V15.1484H29.4132V4.6875ZM28.6319 16.7344H36.2335C36.6479 16.7344 37.0453 16.899 37.3383 17.192C37.6314 17.485 37.796 17.8825 37.796 18.2969C37.796 18.7113 37.6314 19.1087 37.3383 19.4017C37.0453 19.6948 36.6479 19.8594 36.2335 19.8594H13.7804C13.366 19.8594 12.9685 19.6948 12.6755 19.4017C12.3825 19.1087 12.2179 18.7113 12.2179 18.2969C12.2179 17.8825 12.3825 17.485 12.6755 17.192C12.9685 16.899 13.366 16.7344 13.7804 16.7344H28.6241H28.6319ZM22.2022 28.3828C22.0651 28.1453 21.9929 27.8758 21.9929 27.6016C21.9929 27.3273 22.0651 27.0578 22.2022 26.8203L24.421 23.1562C24.4746 23.0683 24.5451 22.9918 24.6284 22.9311C24.7117 22.8705 24.8062 22.827 24.9064 22.803C25.0066 22.779 25.1106 22.7751 25.2123 22.7915C25.314 22.8079 25.4115 22.8442 25.4991 22.8984C25.6703 23.0025 25.7949 23.1684 25.8473 23.3618C25.8996 23.5552 25.8757 23.7613 25.7804 23.9375L23.5616 27.6016H26.1241C26.4053 27.5968 26.6825 27.6679 26.9266 27.8075C27.1707 27.9472 27.3726 28.1501 27.511 28.3948C27.6494 28.6396 27.7192 28.9172 27.7129 29.1984C27.7067 29.4795 27.6248 29.7538 27.4757 29.9922L24.5851 34.7891C24.5149 34.9042 24.4162 34.9993 24.2985 35.065C24.1808 35.1307 24.048 35.1648 23.9132 35.1641C23.773 35.164 23.6353 35.1262 23.5147 35.0547C23.3379 34.9477 23.2106 34.775 23.1609 34.5744C23.1111 34.3738 23.1428 34.1616 23.2491 33.9844L26.1397 29.1875H23.5772C23.297 29.189 23.0214 29.1151 22.7795 28.9736C22.5376 28.832 22.3382 28.6279 22.2022 28.3828Z" fill="#231F20"/>
</svg>
