<svg width="18" height="18" viewBox="0 0 18 18" fill="none" xmlns="http://www.w3.org/2000/svg">
<path d="M1.52319 9.2415C1.47144 9.08594 1.47144 8.91781 1.52319 8.76225C2.56344 5.6325 5.51619 3.375 8.99619 3.375C12.4747 3.375 15.4259 5.63025 16.4684 8.7585C16.5209 8.91375 16.5209 9.08175 16.4684 9.23775C15.4289 12.3675 12.4762 14.625 8.99619 14.625C5.51769 14.625 2.56569 12.3697 1.52319 9.2415Z" stroke="#1D1D1D" stroke-width="1.5" stroke-linecap="round" stroke-linejoin="round"/>
<path d="M11.25 9C11.25 9.59674 11.0129 10.169 10.591 10.591C10.169 11.0129 9.59674 11.25 9 11.25C8.40326 11.25 7.83097 11.0129 7.40901 10.591C6.98705 10.169 6.75 9.59674 6.75 9C6.75 8.40326 6.98705 7.83097 7.40901 7.40901C7.83097 6.98705 8.40326 6.75 9 6.75C9.59674 6.75 10.169 6.98705 10.591 7.40901C11.0129 7.83097 11.25 8.40326 11.25 9Z" stroke="#1D1D1D" stroke-width="1.5" stroke-linecap="round" stroke-linejoin="round"/>
</svg>
