<svg width="50" height="50" viewBox="0 0 50 50" fill="none" xmlns="http://www.w3.org/2000/svg">
<g clip-path="url(#clip0_2434_1292)">
<path d="M44.1667 19.9999V19.2408C44.4425 18.8791 45.9292 18.3333 46.6667 18.3333H47.5C47.9608 18.3333 48.3333 17.9608 48.3333 17.4999C48.3333 17.0391 47.9608 16.6666 47.5 16.6666H46.6667H35H34.1667C33.7058 16.6666 33.3333 17.0391 33.3333 17.4999C33.3333 17.9608 33.7058 18.3333 34.1667 18.3333H35C35.7375 18.3333 37.2242 18.8791 37.5 19.2408V19.9999H26.6667V18.3333H28.3333V13.3333H26.6667V9.99992H15V14.9999H16.6667V16.6666H15V19.9999H10.8867C11.8792 18.5049 12.5 16.1241 12.5 13.3333C12.5 11.3874 12.1758 9.50159 11.5867 8.02492L11.3775 7.49992H9.25083C9.63833 5.60075 11.3217 4.16659 13.3333 4.16659C13.7942 4.16659 14.1667 3.79409 14.1667 3.33325C14.1667 2.87242 13.7942 2.49992 13.3333 2.49992C11.7017 2.49992 10.2267 3.17492 9.16667 4.25909V1.66659C9.16667 1.20575 8.79417 0.833252 8.33333 0.833252C7.8725 0.833252 7.5 1.20575 7.5 1.66659V4.25909C6.44 3.17492 4.965 2.49992 3.33333 2.49992C2.8725 2.49992 2.5 2.87242 2.5 3.33325C2.5 3.79409 2.8725 4.16659 3.33333 4.16659C5.345 4.16659 7.02833 5.60075 7.41583 7.49992H5.28917L5.08 8.02492C4.49083 9.50159 4.16667 11.3874 4.16667 13.3333C4.16667 16.1241 4.7875 18.5049 5.78 19.9999H0V44.9999H1.66667V48.3333C1.66667 48.7941 2.03917 49.1666 2.5 49.1666H5C5.34083 49.1666 5.64667 48.9591 5.77417 48.6424L7.23083 44.9999H8.33333H10H16.6667H18.3333H25H26.6667H42.7692L44.2258 48.6424C44.3533 48.9591 44.6592 49.1666 45 49.1666H47.5C47.9608 49.1666 48.3333 48.7941 48.3333 48.3333V44.9999H50V33.3333V31.6666V19.9999H44.1667ZM38.8917 18.3333H42.775C42.6025 18.5816 42.5 18.8591 42.5 19.1666V19.9999H39.1667V19.1666C39.1667 18.8591 39.0642 18.5816 38.8917 18.3333ZM16.6667 11.6666H25V13.3333H16.6667V11.6666ZM18.3333 14.9999H26.6667V16.6666H18.3333V14.9999ZM16.6667 18.3333H25V19.9999H18.3333H16.6667V18.3333ZM5.83333 13.3333C5.83333 11.8224 6.04667 10.3649 6.43833 9.16658H10.2292C10.62 10.3649 10.8333 11.8224 10.8333 13.3333C10.8333 17.4033 9.35333 19.9999 8.33333 19.9999C7.31333 19.9999 5.83333 17.4033 5.83333 13.3333ZM4.43583 47.4999H3.33333V44.9999H5.43583L4.43583 47.4999ZM6.66667 43.3333H2.5H1.66667V21.6666H8.33333V43.3333H6.66667ZM10 43.3333V21.6666H15H16.6667V43.3333H10ZM18.3333 43.3333V21.6666H25V31.6666V33.3333V43.3333H18.3333ZM46.6667 47.4999H45.5642L44.5642 44.9999H46.6667V47.4999ZM48.3333 43.3333H47.5H43.3333H26.6667V33.3333H48.3333V43.3333ZM26.6667 31.6666V21.6666H37.5H44.1667H48.3333V31.6666H26.6667Z" fill="#4D4D4D"/>
<path d="M44.1667 19.9999V19.2408C44.4425 18.8791 45.9292 18.3333 46.6667 18.3333H47.5C47.9608 18.3333 48.3333 17.9608 48.3333 17.4999C48.3333 17.0391 47.9608 16.6666 47.5 16.6666H46.6667H35H34.1667C33.7058 16.6666 33.3333 17.0391 33.3333 17.4999C33.3333 17.9608 33.7058 18.3333 34.1667 18.3333H35C35.7375 18.3333 37.2242 18.8791 37.5 19.2408V19.9999H26.6667V18.3333H28.3333V13.3333H26.6667V9.99992H15V14.9999H16.6667V16.6666H15V19.9999H10.8867C11.8792 18.5049 12.5 16.1241 12.5 13.3333C12.5 11.3874 12.1758 9.50159 11.5867 8.02492L11.3775 7.49992H9.25083C9.63833 5.60075 11.3217 4.16659 13.3333 4.16659C13.7942 4.16659 14.1667 3.79409 14.1667 3.33325C14.1667 2.87242 13.7942 2.49992 13.3333 2.49992C11.7017 2.49992 10.2267 3.17492 9.16667 4.25909V1.66659C9.16667 1.20575 8.79417 0.833252 8.33333 0.833252C7.8725 0.833252 7.5 1.20575 7.5 1.66659V4.25909C6.44 3.17492 4.965 2.49992 3.33333 2.49992C2.8725 2.49992 2.5 2.87242 2.5 3.33325C2.5 3.79409 2.8725 4.16659 3.33333 4.16659C5.345 4.16659 7.02833 5.60075 7.41583 7.49992H5.28917L5.08 8.02492C4.49083 9.50159 4.16667 11.3874 4.16667 13.3333C4.16667 16.1241 4.7875 18.5049 5.78 19.9999H0V44.9999H1.66667V48.3333C1.66667 48.7941 2.03917 49.1666 2.5 49.1666H5C5.34083 49.1666 5.64667 48.9591 5.77417 48.6424L7.23083 44.9999H8.33333H10H16.6667H18.3333H25H26.6667H42.7692L44.2258 48.6424C44.3533 48.9591 44.6592 49.1666 45 49.1666H47.5C47.9608 49.1666 48.3333 48.7941 48.3333 48.3333V44.9999H50V33.3333V31.6666V19.9999H44.1667ZM38.8917 18.3333H42.775C42.6025 18.5816 42.5 18.8591 42.5 19.1666V19.9999H39.1667V19.1666C39.1667 18.8591 39.0642 18.5816 38.8917 18.3333ZM16.6667 11.6666H25V13.3333H16.6667V11.6666ZM18.3333 14.9999H26.6667V16.6666H18.3333V14.9999ZM16.6667 18.3333H25V19.9999H18.3333H16.6667V18.3333ZM5.83333 13.3333C5.83333 11.8224 6.04667 10.3649 6.43833 9.16658H10.2292C10.62 10.3649 10.8333 11.8224 10.8333 13.3333C10.8333 17.4033 9.35333 19.9999 8.33333 19.9999C7.31333 19.9999 5.83333 17.4033 5.83333 13.3333ZM4.43583 47.4999H3.33333V44.9999H5.43583L4.43583 47.4999ZM6.66667 43.3333H2.5H1.66667V21.6666H8.33333V43.3333H6.66667ZM10 43.3333V21.6666H15H16.6667V43.3333H10ZM18.3333 43.3333V21.6666H25V31.6666V33.3333V43.3333H18.3333ZM46.6667 47.4999H45.5642L44.5642 44.9999H46.6667V47.4999ZM48.3333 43.3333H47.5H43.3333H26.6667V33.3333H48.3333V43.3333ZM26.6667 31.6666V21.6666H37.5H44.1667H48.3333V31.6666H26.6667Z" fill="black" fill-opacity="0.2"/>
<path d="M39.1667 25.8333H35.8333C35.3725 25.8333 35 26.2058 35 26.6666C35 27.1274 35.3725 27.4999 35.8333 27.4999H39.1667C39.6275 27.4999 40 27.1274 40 26.6666C40 26.2058 39.6275 25.8333 39.1667 25.8333Z" fill="#4D4D4D"/>
<path d="M39.1667 25.8333H35.8333C35.3725 25.8333 35 26.2058 35 26.6666C35 27.1274 35.3725 27.4999 35.8333 27.4999H39.1667C39.6275 27.4999 40 27.1274 40 26.6666C40 26.2058 39.6275 25.8333 39.1667 25.8333Z" fill="black" fill-opacity="0.2"/>
<path d="M22.4974 23.3323C22.0366 23.3323 21.6641 23.7048 21.6641 24.1656V27.4989C21.6641 27.9598 22.0366 28.3323 22.4974 28.3323C22.9582 28.3323 23.3307 27.9598 23.3307 27.4989V24.1656C23.3307 23.7048 22.9582 23.3323 22.4974 23.3323Z" fill="#4D4D4D"/>
<path d="M22.4974 23.3323C22.0366 23.3323 21.6641 23.7048 21.6641 24.1656V27.4989C21.6641 27.9598 22.0366 28.3323 22.4974 28.3323C22.9582 28.3323 23.3307 27.9598 23.3307 27.4989V24.1656C23.3307 23.7048 22.9582 23.3323 22.4974 23.3323Z" fill="black" fill-opacity="0.2"/>
<path d="M14.1615 23.3323C13.7006 23.3323 13.3281 23.7048 13.3281 24.1656V27.4989C13.3281 27.9598 13.7006 28.3323 14.1615 28.3323C14.6223 28.3323 14.9948 27.9598 14.9948 27.4989V24.1656C14.9948 23.7048 14.6223 23.3323 14.1615 23.3323Z" fill="#4D4D4D"/>
<path d="M14.1615 23.3323C13.7006 23.3323 13.3281 23.7048 13.3281 24.1656V27.4989C13.3281 27.9598 13.7006 28.3323 14.1615 28.3323C14.6223 28.3323 14.9948 27.9598 14.9948 27.4989V24.1656C14.9948 23.7048 14.6223 23.3323 14.1615 23.3323Z" fill="black" fill-opacity="0.2"/>
<path d="M5.83333 23.3323C5.3725 23.3323 5 23.7048 5 24.1656V27.4989C5 27.9598 5.3725 28.3323 5.83333 28.3323C6.29417 28.3323 6.66667 27.9598 6.66667 27.4989V24.1656C6.66667 23.7048 6.29417 23.3323 5.83333 23.3323Z" fill="#4D4D4D"/>
<path d="M5.83333 23.3323C5.3725 23.3323 5 23.7048 5 24.1656V27.4989C5 27.9598 5.3725 28.3323 5.83333 28.3323C6.29417 28.3323 6.66667 27.9598 6.66667 27.4989V24.1656C6.66667 23.7048 6.29417 23.3323 5.83333 23.3323Z" fill="black" fill-opacity="0.2"/>
<path d="M35.8333 39.1672H39.1667C39.6275 39.1672 40 38.7947 40 38.3338C40 37.873 39.6275 37.5005 39.1667 37.5005H35.8333C35.3725 37.5005 35 37.873 35 38.3338C35 38.7947 35.3725 39.1672 35.8333 39.1672Z" fill="#4D4D4D"/>
<path d="M35.8333 39.1672H39.1667C39.6275 39.1672 40 38.7947 40 38.3338C40 37.873 39.6275 37.5005 39.1667 37.5005H35.8333C35.3725 37.5005 35 37.873 35 38.3338C35 38.7947 35.3725 39.1672 35.8333 39.1672Z" fill="black" fill-opacity="0.2"/>
</g>
<defs>
<clipPath id="clip0_2434_1292">
<rect width="50" height="50" fill="white"/>
</clipPath>
</defs>
</svg>
