<svg width="44" height="32" viewBox="0 0 44 32" fill="none" xmlns="http://www.w3.org/2000/svg">
<path d="M43.0938 0.375H0.90625C0.69905 0.375 0.500336 0.45731 0.353823 0.603823C0.20731 0.750336 0.125 0.94905 0.125 1.15625V30.8438C0.125 31.051 0.20731 31.2497 0.353823 31.3962C0.500336 31.5427 0.69905 31.625 0.90625 31.625H43.0938C43.3009 31.625 43.4997 31.5427 43.6462 31.3962C43.7927 31.2497 43.875 31.051 43.875 30.8438V1.15625C43.875 0.94905 43.7927 0.750336 43.6462 0.603823C43.4997 0.45731 43.3009 0.375 43.0938 0.375ZM42.3125 30.0625H1.6875V1.9375H42.3125V30.0625Z" fill="#231F20"/>
<path d="M29.1641 21.8204L28.3437 23.0313L27.3828 21.1095C27.2892 20.9255 27.1265 20.786 26.9303 20.7216C26.7341 20.6572 26.5204 20.6731 26.3359 20.7657C24.3437 21.7579 24.3438 24.4767 24.3438 24.5938C24.3438 24.801 24.4261 24.9998 24.5726 25.1463C24.7191 25.2928 24.9178 25.3751 25.125 25.3751C25.3322 25.3751 25.5309 25.2928 25.6774 25.1463C25.8239 24.9998 25.9062 24.801 25.9062 24.5938C25.9267 23.9347 26.1091 23.2907 26.4375 22.7188L27.5547 24.9454C27.6158 25.0674 27.7079 25.1713 27.8216 25.2467C27.9354 25.3221 28.0669 25.3664 28.2031 25.3751C28.3396 25.3825 28.4757 25.3539 28.5977 25.2922C28.7197 25.2305 28.8234 25.1379 28.8984 25.0235L29.7188 23.8126L29.8984 24.172C29.9644 24.2994 30.0642 24.4061 30.1869 24.4805C30.3095 24.5549 30.4503 24.5941 30.5938 24.5938H32.9375C33.1447 24.5938 33.3434 24.5115 33.4899 24.365C33.6364 24.2185 33.7188 24.0198 33.7188 23.8126C33.7188 23.6054 33.6364 23.4067 33.4899 23.2602C33.3434 23.1137 33.1447 23.0313 32.9375 23.0313H31.0781L30.5078 21.8985C30.4457 21.7776 30.3531 21.675 30.2392 21.6008C30.1253 21.5267 29.994 21.4835 29.8583 21.4756C29.7225 21.4677 29.5871 21.4954 29.4654 21.5559C29.3436 21.6163 29.2398 21.7075 29.1641 21.8204Z" fill="#231F20"/>
<path d="M11.0625 22.25H14.1875C14.3947 22.25 14.5934 22.1677 14.7399 22.0212C14.8864 21.8747 14.9688 21.676 14.9688 21.4688C14.9688 21.2615 14.8864 21.0628 14.7399 20.9163C14.5934 20.7698 14.3947 20.6875 14.1875 20.6875H11.0625C10.8553 20.6875 10.6566 20.7698 10.5101 20.9163C10.3636 21.0628 10.2812 21.2615 10.2812 21.4688C10.2812 21.676 10.3636 21.8747 10.5101 22.0212C10.6566 22.1677 10.8553 22.25 11.0625 22.25Z" fill="#231F20"/>
<path d="M11.0625 25.375H22C22.2072 25.375 22.4059 25.2927 22.5524 25.1462C22.6989 24.9997 22.7812 24.801 22.7812 24.5938C22.7812 24.3865 22.6989 24.1878 22.5524 24.0413C22.4059 23.8948 22.2072 23.8125 22 23.8125H11.0625C10.8553 23.8125 10.6566 23.8948 10.5101 24.0413C10.3636 24.1878 10.2812 24.3865 10.2812 24.5938C10.2812 24.801 10.3636 24.9997 10.5101 25.1462C10.6566 25.2927 10.8553 25.375 11.0625 25.375Z" fill="#231F20"/>
<path d="M22.7812 20.6875H17.3125C17.1053 20.6875 16.9066 20.7698 16.7601 20.9163C16.6136 21.0628 16.5312 21.2615 16.5312 21.4688C16.5312 21.676 16.6136 21.8747 16.7601 22.0212C16.9066 22.1677 17.1053 22.25 17.3125 22.25H22.7812C22.9885 22.25 23.1872 22.1677 23.3337 22.0212C23.4802 21.8747 23.5625 21.676 23.5625 21.4688C23.5625 21.2615 23.4802 21.0628 23.3337 20.9163C23.1872 20.7698 22.9885 20.6875 22.7812 20.6875Z" fill="#231F20"/>
<path d="M4.03125 25.375C4.65285 25.375 5.24899 25.6219 5.68853 26.0615C6.12807 26.501 6.375 27.0971 6.375 27.7188C6.375 27.926 6.45731 28.1247 6.60382 28.2712C6.75034 28.4177 6.94905 28.5 7.15625 28.5H36.8438C37.0509 28.5 37.2497 28.4177 37.3962 28.2712C37.5427 28.1247 37.625 27.926 37.625 27.7188C37.625 27.0971 37.8719 26.501 38.3115 26.0615C38.751 25.6219 39.3471 25.375 39.9688 25.375C40.1759 25.375 40.3747 25.2927 40.5212 25.1462C40.6677 24.9997 40.75 24.801 40.75 24.5938V7.40625C40.75 7.19905 40.6677 7.00033 40.5212 6.85382C40.3747 6.70731 40.1759 6.625 39.9688 6.625C39.3471 6.625 38.751 6.37807 38.3115 5.93853C37.8719 5.49899 37.625 4.90285 37.625 4.28125C37.625 4.07405 37.5427 3.87534 37.3962 3.72882C37.2497 3.58231 37.0509 3.5 36.8438 3.5H7.15625C6.94905 3.5 6.75034 3.58231 6.60382 3.72882C6.45731 3.87534 6.375 4.07405 6.375 4.28125C6.375 4.90285 6.12807 5.49899 5.68853 5.93853C5.24899 6.37807 4.65285 6.625 4.03125 6.625C3.82405 6.625 3.62534 6.70731 3.47882 6.85382C3.33231 7.00033 3.25 7.19905 3.25 7.40625V24.5938C3.25 24.801 3.33231 24.9997 3.47882 25.1462C3.62534 25.2927 3.82405 25.375 4.03125 25.375ZM4.8125 8.10937C5.5632 7.95627 6.2523 7.5858 6.79405 7.04405C7.3358 6.5023 7.70627 5.8132 7.85937 5.0625H36.1406C36.2937 5.8132 36.6642 6.5023 37.206 7.04405C37.7477 7.5858 38.4368 7.95627 39.1875 8.10937V23.8906C38.4368 24.0437 37.7477 24.4142 37.206 24.956C36.6642 25.4977 36.2937 26.1868 36.1406 26.9375H7.85937C7.70627 26.1868 7.3358 25.4977 6.79405 24.956C6.2523 24.4142 5.5632 24.0437 4.8125 23.8906V8.10937Z" fill="#231F20"/>
<path d="M14.9688 19.125H29.0312C29.2385 19.125 29.4372 19.0427 29.5837 18.8962C29.7302 18.7497 29.8125 18.551 29.8125 18.3438V12.0938C29.8118 11.9715 29.7823 11.851 29.7266 11.7422L27.3828 7.05469C27.3179 6.92585 27.2186 6.8175 27.0958 6.74166C26.9731 6.66581 26.8318 6.62544 26.6875 6.625H17.3125C17.1682 6.62544 17.0269 6.66581 16.9042 6.74166C16.7814 6.8175 16.6821 6.92585 16.6172 7.05469L14.2734 11.7422C14.2177 11.851 14.1882 11.9715 14.1875 12.0938V18.3438C14.1875 18.551 14.2698 18.7497 14.4163 18.8962C14.5628 19.0427 14.7615 19.125 14.9688 19.125ZM25.125 17.5625H23.5625V16H25.125V17.5625ZM28.25 17.5625H26.6875V15.2188C26.6875 15.0115 26.6052 14.8128 26.4587 14.6663C26.3122 14.5198 26.1135 14.4375 25.9062 14.4375H22.7812C22.574 14.4375 22.3753 14.5198 22.2288 14.6663C22.0823 14.8128 22 15.0115 22 15.2188V17.5625H20.4375V12.875H28.25V17.5625ZM26.2031 8.1875L27.7656 11.3125H20.1406L18.5781 8.1875H26.2031ZM15.75 12.2812L17.3125 9.15625L18.875 12.2812V17.5625H15.75V12.2812Z" fill="#231F20"/>
</svg>
