<svg width="50" height="50" viewBox="0 0 50 50" fill="none" xmlns="http://www.w3.org/2000/svg">
<path d="M49.1972 44.1406H0.888591C0.646501 44.1406 0.41818 43.9612 0.270719 43.7693C0.123161 43.5774 0.0733562 43.2943 0.135661 43.0604L6.36906 19.6533C6.46007 19.3122 6.76896 19.043 7.12189 19.043H20.7574C21.1878 19.043 21.5366 19.3938 21.5366 19.8242C21.5366 20.2546 21.1878 20.6055 20.7574 20.6055H7.72062L1.90275 42.4805H48.183L42.3652 20.6055H29.3283C28.8981 20.6055 28.5491 20.2546 28.5491 19.8242C28.5491 19.3938 28.8981 19.043 29.3283 19.043H42.9639C43.3168 19.043 43.6258 19.2955 43.7167 19.6366L49.9501 43.0194C50.0125 43.2533 49.9627 43.5736 49.8152 43.7656C49.6677 43.9574 49.4393 44.1406 49.1972 44.1406Z" fill="#231F20"/>
<path d="M18.81 26.8555H5.4667C5.03633 26.8555 4.6875 26.5045 4.6875 26.0742C4.6875 25.6439 5.03633 25.293 5.4667 25.293H18.8101C19.2404 25.293 19.5893 25.6439 19.5893 26.0742C19.5893 26.5045 19.2403 26.8555 18.81 26.8555Z" fill="#231F20"/>
<path d="M39.0625 36.9944C38.6322 36.9944 38.2812 36.6455 38.2812 36.2152V30.761C38.2812 30.3308 38.6416 29.9805 39.0719 29.9805H45.8896C46.3199 29.9805 46.6688 30.3314 46.6688 30.7617C46.6688 31.192 46.3199 31.543 45.8896 31.543H39.8437V36.2152C39.8437 36.6455 39.4928 36.9944 39.0625 36.9944Z" fill="#231F20"/>
<path d="M15.6237 39.3319C15.1934 39.3319 14.8425 38.983 14.8425 38.5527V34.668H3.32607C2.8957 34.668 2.54688 34.317 2.54688 33.8867C2.54688 33.4564 2.8957 33.1055 3.32607 33.1055H15.6954C16.1258 33.1055 16.405 33.4474 16.405 33.8777V38.5527C16.405 38.983 16.0541 39.3319 15.6237 39.3319Z" fill="#231F20"/>
<path d="M35.9552 28.4178H32.8385C32.4082 28.4178 32.0312 28.0744 32.0312 27.6441V19.8524C32.0312 19.4221 32.3822 19.0732 32.8125 19.0732C33.2428 19.0732 33.5938 19.4221 33.5938 19.8524V26.8553H35.9552C36.3854 26.8553 36.7344 27.2063 36.7344 27.6365C36.7344 28.0668 36.3854 28.4178 35.9552 28.4178Z" fill="#231F20"/>
<path d="M25.0417 26.0856C24.8204 26.0856 24.6096 25.9916 24.4618 25.8269C24.3891 25.7458 22.6604 23.8139 20.9029 21.3699C18.479 17.9995 17.25 15.3916 17.25 13.6188C17.25 9.32246 20.7453 5.82715 25.0417 5.82715C29.3381 5.82715 32.8334 9.32246 32.8334 13.6188C32.8334 15.3916 31.6044 17.9994 29.1806 21.3699C27.423 23.8138 25.6943 25.7458 25.6216 25.8269C25.4738 25.9916 25.263 26.0856 25.0417 26.0856ZM25.0417 7.38555C21.6046 7.38555 18.8083 10.1818 18.8083 13.6189C18.8083 16.2872 22.8803 21.597 25.0416 24.1229C27.2029 21.5961 31.2751 16.2851 31.2751 13.6189C31.2751 10.1818 28.4788 7.38555 25.0417 7.38555Z" fill="#231F20"/>
<path d="M25.0422 18.2934C22.4644 18.2934 20.3672 16.1962 20.3672 13.6184C20.3672 11.0405 22.4644 8.94336 25.0422 8.94336C27.62 8.94336 29.7172 11.0405 29.7172 13.6184C29.7172 16.1962 27.62 18.2934 25.0422 18.2934ZM25.0422 10.5017C23.3236 10.5017 21.9255 11.8998 21.9255 13.6184C21.9255 15.3369 23.3236 16.7351 25.0422 16.7351C26.7607 16.7351 28.1589 15.3369 28.1589 13.6184C28.1589 11.8998 26.7607 10.5017 25.0422 10.5017Z" fill="#231F20"/>
</svg>
