<svg width="50" height="50" viewBox="0 0 50 50" fill="none" xmlns="http://www.w3.org/2000/svg">
<g clip-path="url(#clip0_2434_1286)">
<path d="M30.4677 27.0322V38.5947C30.4677 39.0635 30.7802 39.376 31.2489 39.376H43.3583C43.8271 39.376 44.1396 39.0635 44.1396 38.5947V27.0322C44.1396 26.5635 43.8271 26.251 43.3583 26.251H31.2489C30.7802 26.251 30.4677 26.6416 30.4677 27.0322ZM32.0302 33.5947H36.4833V37.8135H32.0302V33.5947ZM38.0458 37.8135V33.5947H42.4989V37.8135H38.0458ZM42.4989 32.0322H38.0458V27.8135H42.4989V32.0322ZM36.4833 27.8135V32.0322H32.0302V27.8135H36.4833ZM49.2177 41.7197H47.9677V21.7979H49.2177C49.4521 21.7979 49.6864 21.7197 49.8427 21.4854C49.9989 21.251 49.9989 21.0166 49.9989 20.7822L47.2646 11.5635C47.1864 11.251 46.8739 11.0166 46.4833 11.0166H21.4052L17.5771 7.50098C16.5614 6.56348 14.9208 6.56348 13.9052 7.50098L0.858309 19.5322C-0.547941 20.8604 -0.235442 23.2041 1.63956 23.9854C2.18643 24.2197 2.81143 24.2979 3.35831 24.1416V41.7197H0.780184C0.311433 41.7197 -0.00106643 42.0322 -0.00106643 42.501C-0.00106643 42.9697 0.311433 43.2822 0.780184 43.2822H49.2177C49.6864 43.2822 49.9989 42.9697 49.9989 42.501C49.9989 42.0322 49.6083 41.7197 49.2177 41.7197ZM45.9364 12.5791L48.2021 20.2354C38.0458 20.2354 31.3271 20.2354 31.0927 20.2354C30.9364 20.001 30.7802 19.7666 30.5458 19.5322C24.1396 13.5947 23.1239 12.6572 23.0458 12.5791H45.9364ZM21.8739 41.7197H9.53018V27.8135H21.8739V41.7197ZM9.68643 26.251C9.76456 26.0947 9.84268 25.9385 9.99893 25.8603L14.5302 21.5635C15.1552 20.9385 16.1708 20.9385 16.7958 21.5635L21.3271 25.8603C21.4833 26.0166 21.5614 26.0947 21.6396 26.251H9.68643ZM26.4833 41.7197H23.4364V27.0322C23.4364 26.1728 23.0458 25.3135 22.4208 24.6885L17.8896 20.3916C16.6396 19.2197 14.7646 19.2197 13.5146 20.3916L8.98331 24.6885C8.35831 25.3135 7.96768 26.1728 7.96768 27.0322V41.6416H4.92081V23.126L15.7802 13.0479L26.5614 23.0479L26.4833 41.7197ZM16.2489 11.4854C16.0927 11.3291 15.9364 11.251 15.7021 11.251C15.5458 11.251 15.3114 11.3291 15.1552 11.4854L3.43643 22.3447C3.12393 22.6572 2.65518 22.7354 2.18643 22.5791C1.40518 22.2666 1.32706 21.251 1.87393 20.7041L14.9208 8.59473C15.3896 8.2041 16.0146 8.2041 16.4833 8.59473L29.4521 20.626C29.6864 20.8604 29.8427 21.1729 29.8427 21.4854C29.8427 21.9541 29.6083 22.3447 29.1396 22.501C28.7489 22.6572 28.2802 22.5791 27.8896 22.2666L16.2489 11.4854ZM46.4052 41.7197H28.0458V24.1416C28.2802 24.2197 28.4364 24.2197 28.6708 24.2197C29.0614 24.2197 29.3739 24.1416 29.7646 23.9854C30.7021 23.5947 31.2489 22.7354 31.3271 21.7979H46.3271L46.4052 41.7197ZM19.6864 36.4854C20.1552 36.4854 20.4677 36.1729 20.4677 35.7041V33.8291C20.4677 33.3603 20.1552 33.0478 19.6864 33.0478C19.2177 33.0478 18.9052 33.3603 18.9052 33.8291V35.7041C18.9052 36.1729 19.2177 36.4854 19.6864 36.4854Z" fill="#4D4D4D"/>
<path d="M30.4677 27.0322V38.5947C30.4677 39.0635 30.7802 39.376 31.2489 39.376H43.3583C43.8271 39.376 44.1396 39.0635 44.1396 38.5947V27.0322C44.1396 26.5635 43.8271 26.251 43.3583 26.251H31.2489C30.7802 26.251 30.4677 26.6416 30.4677 27.0322ZM32.0302 33.5947H36.4833V37.8135H32.0302V33.5947ZM38.0458 37.8135V33.5947H42.4989V37.8135H38.0458ZM42.4989 32.0322H38.0458V27.8135H42.4989V32.0322ZM36.4833 27.8135V32.0322H32.0302V27.8135H36.4833ZM49.2177 41.7197H47.9677V21.7979H49.2177C49.4521 21.7979 49.6864 21.7197 49.8427 21.4854C49.9989 21.251 49.9989 21.0166 49.9989 20.7822L47.2646 11.5635C47.1864 11.251 46.8739 11.0166 46.4833 11.0166H21.4052L17.5771 7.50098C16.5614 6.56348 14.9208 6.56348 13.9052 7.50098L0.858309 19.5322C-0.547941 20.8604 -0.235442 23.2041 1.63956 23.9854C2.18643 24.2197 2.81143 24.2979 3.35831 24.1416V41.7197H0.780184C0.311433 41.7197 -0.00106643 42.0322 -0.00106643 42.501C-0.00106643 42.9697 0.311433 43.2822 0.780184 43.2822H49.2177C49.6864 43.2822 49.9989 42.9697 49.9989 42.501C49.9989 42.0322 49.6083 41.7197 49.2177 41.7197ZM45.9364 12.5791L48.2021 20.2354C38.0458 20.2354 31.3271 20.2354 31.0927 20.2354C30.9364 20.001 30.7802 19.7666 30.5458 19.5322C24.1396 13.5947 23.1239 12.6572 23.0458 12.5791H45.9364ZM21.8739 41.7197H9.53018V27.8135H21.8739V41.7197ZM9.68643 26.251C9.76456 26.0947 9.84268 25.9385 9.99893 25.8603L14.5302 21.5635C15.1552 20.9385 16.1708 20.9385 16.7958 21.5635L21.3271 25.8603C21.4833 26.0166 21.5614 26.0947 21.6396 26.251H9.68643ZM26.4833 41.7197H23.4364V27.0322C23.4364 26.1728 23.0458 25.3135 22.4208 24.6885L17.8896 20.3916C16.6396 19.2197 14.7646 19.2197 13.5146 20.3916L8.98331 24.6885C8.35831 25.3135 7.96768 26.1728 7.96768 27.0322V41.6416H4.92081V23.126L15.7802 13.0479L26.5614 23.0479L26.4833 41.7197ZM16.2489 11.4854C16.0927 11.3291 15.9364 11.251 15.7021 11.251C15.5458 11.251 15.3114 11.3291 15.1552 11.4854L3.43643 22.3447C3.12393 22.6572 2.65518 22.7354 2.18643 22.5791C1.40518 22.2666 1.32706 21.251 1.87393 20.7041L14.9208 8.59473C15.3896 8.2041 16.0146 8.2041 16.4833 8.59473L29.4521 20.626C29.6864 20.8604 29.8427 21.1729 29.8427 21.4854C29.8427 21.9541 29.6083 22.3447 29.1396 22.501C28.7489 22.6572 28.2802 22.5791 27.8896 22.2666L16.2489 11.4854ZM46.4052 41.7197H28.0458V24.1416C28.2802 24.2197 28.4364 24.2197 28.6708 24.2197C29.0614 24.2197 29.3739 24.1416 29.7646 23.9854C30.7021 23.5947 31.2489 22.7354 31.3271 21.7979H46.3271L46.4052 41.7197ZM19.6864 36.4854C20.1552 36.4854 20.4677 36.1729 20.4677 35.7041V33.8291C20.4677 33.3603 20.1552 33.0478 19.6864 33.0478C19.2177 33.0478 18.9052 33.3603 18.9052 33.8291V35.7041C18.9052 36.1729 19.2177 36.4854 19.6864 36.4854Z" fill="black" fill-opacity="0.2"/>
</g>
<defs>
<clipPath id="clip0_2434_1286">
<rect width="50" height="50" fill="white"/>
</clipPath>
</defs>
</svg>
