<svg width="50" height="50" viewBox="0 0 50 50" fill="none" xmlns="http://www.w3.org/2000/svg">
<path d="M1.46191 30.5098C1.3664 38.7203 7.9661 45.5284 16.1758 45.6755C18.5767 45.7186 20.8516 45.1973 22.8763 44.2353C27.1749 42.1931 31.9112 41.1815 36.6531 41.5854C37.0015 41.6151 37.3544 41.6284 37.7113 41.6247C43.6172 41.5625 48.448 36.7491 48.5302 30.8434C48.6151 24.7311 43.6865 19.7503 37.5937 19.7503C37.2692 19.7503 36.9479 19.7645 36.6306 19.7921C31.9233 20.2029 27.2183 19.2375 22.9637 17.1821C20.9943 16.2307 18.7851 15.6975 16.4512 15.6975C8.23124 15.6976 1.55732 22.3125 1.46191 30.5098Z" stroke="#4D4D4D" stroke-width="2" stroke-miterlimit="10" stroke-linecap="round" stroke-linejoin="round"/>
<path d="M1.46191 30.5098C1.3664 38.7203 7.9661 45.5284 16.1758 45.6755C18.5767 45.7186 20.8516 45.1973 22.8763 44.2353C27.1749 42.1931 31.9112 41.1815 36.6531 41.5854C37.0015 41.6151 37.3544 41.6284 37.7113 41.6247C43.6172 41.5625 48.448 36.7491 48.5302 30.8434C48.6151 24.7311 43.6865 19.7503 37.5937 19.7503C37.2692 19.7503 36.9479 19.7645 36.6306 19.7921C31.9233 20.2029 27.2183 19.2375 22.9637 17.1821C20.9943 16.2307 18.7851 15.6975 16.4512 15.6975C8.23124 15.6976 1.55732 22.3125 1.46191 30.5098Z" stroke="black" stroke-opacity="0.2" stroke-width="2" stroke-miterlimit="10" stroke-linecap="round" stroke-linejoin="round"/>
<path d="M20.3125 9.79004H11.6353" stroke="#4D4D4D" stroke-width="2" stroke-miterlimit="10" stroke-linecap="round" stroke-linejoin="round"/>
<path d="M20.3125 9.79004H11.6353" stroke="black" stroke-opacity="0.2" stroke-width="2" stroke-miterlimit="10" stroke-linecap="round" stroke-linejoin="round"/>
<path d="M20.3125 20.0439V7.25098C20.3125 5.63291 19.0009 4.32129 17.3828 4.32129" stroke="#4D4D4D" stroke-width="2" stroke-miterlimit="10" stroke-linecap="round" stroke-linejoin="round"/>
<path d="M20.3125 20.0439V7.25098C20.3125 5.63291 19.0009 4.32129 17.3828 4.32129" stroke="black" stroke-opacity="0.2" stroke-width="2" stroke-miterlimit="10" stroke-linecap="round" stroke-linejoin="round"/>
<path d="M11.5156 20.0439V7.25098C11.5156 5.63291 10.204 4.32129 8.58594 4.32129H8.48828" stroke="#4D4D4D" stroke-width="2" stroke-miterlimit="10" stroke-linecap="round" stroke-linejoin="round"/>
<path d="M11.5156 20.0439V7.25098C11.5156 5.63291 10.204 4.32129 8.58594 4.32129H8.48828" stroke="black" stroke-opacity="0.2" stroke-width="2" stroke-miterlimit="10" stroke-linecap="round" stroke-linejoin="round"/>
<path d="M34.6641 35.2058C33.7905 35.2025 32.9175 34.855 32.2565 34.1751C30.9153 32.7886 28.6834 32.8531 27.4124 34.2066C25.5573 35.9955 23.4982 35.1433 21.8569 33.6001C20.5509 32.8499 18.8415 33.0577 17.7477 34.2099C17.1021 34.8585 16.2659 35.1897 15.4257 35.2067" stroke="#4D4D4D" stroke-width="2" stroke-miterlimit="10" stroke-linecap="round" stroke-linejoin="round"/>
<path d="M34.6641 35.2058C33.7905 35.2025 32.9175 34.855 32.2565 34.1751C30.9153 32.7886 28.6834 32.8531 27.4124 34.2066C25.5573 35.9955 23.4982 35.1433 21.8569 33.6001C20.5509 32.8499 18.8415 33.0577 17.7477 34.2099C17.1021 34.8585 16.2659 35.1897 15.4257 35.2067" stroke="black" stroke-opacity="0.2" stroke-width="2" stroke-miterlimit="10" stroke-linecap="round" stroke-linejoin="round"/>
<path d="M34.6641 28.2175C33.7905 28.2142 32.9175 27.8667 32.2565 27.1869C30.9153 25.8003 28.6834 25.8648 27.4124 27.2183C25.5573 29.0072 23.4982 28.155 21.8569 26.6119C20.5509 25.8617 18.8415 26.0694 17.7477 27.2216C17.1021 27.8703 16.2659 28.2014 15.4257 28.2184" stroke="#4D4D4D" stroke-width="2" stroke-miterlimit="10" stroke-linecap="round" stroke-linejoin="round"/>
<path d="M34.6641 28.2175C33.7905 28.2142 32.9175 27.8667 32.2565 27.1869C30.9153 25.8003 28.6834 25.8648 27.4124 27.2183C25.5573 29.0072 23.4982 28.155 21.8569 26.6119C20.5509 25.8617 18.8415 26.0694 17.7477 27.2216C17.1021 27.8703 16.2659 28.2014 15.4257 28.2184" stroke="black" stroke-opacity="0.2" stroke-width="2" stroke-miterlimit="10" stroke-linecap="round" stroke-linejoin="round"/>
</svg>
