<svg width="40" height="40" viewBox="0 0 40 40" fill="none" xmlns="http://www.w3.org/2000/svg">
<g clip-path="url(#clip0_2984_571)">
<path d="M2.60898 18.6507L8.54305 16.3787H13.308L19.2421 18.6507C20.8039 19.1922 21.8511 20.6637 21.8511 22.3167L19.3205 30.988H1.17188C0.524687 30.988 0 30.4633 0 29.8162V22.3167C0 20.6637 1.04727 19.1923 2.60898 18.6507Z" fill="#B9E1FC"/>
<path d="M19.2387 18.6509L13.3046 16.3789H10.9219V30.9883H19.3172L21.8477 22.317C21.8477 20.664 20.8005 19.1925 19.2387 18.6509Z" fill="#7DC6EF"/>
<path d="M7.77344 15.1626H14.0714V18.1319C14.0714 19.871 12.6616 21.2809 10.9224 21.2809C9.18328 21.2809 7.77344 19.871 7.77344 18.1319V15.1626Z" fill="#F5C1AD"/>
<path d="M20.7574 18.6509L26.6915 16.3789H31.4565L37.3905 18.6509C38.9523 19.1925 39.9996 20.664 39.9996 22.317V29.8164C39.9996 30.4636 39.4749 30.9883 38.8277 30.9883H19.3203C18.6731 30.9883 18.1484 30.4636 18.1484 29.8164V22.317C18.1484 20.664 19.1956 19.1925 20.7574 18.6509Z" fill="#FF5F72"/>
<path d="M37.3945 18.6509L31.4604 16.3789H29.0781V30.9883H38.8316C39.4787 30.9883 40.0034 30.4636 40.0034 29.8164V22.317C40.0034 20.664 38.9562 19.1925 37.3945 18.6509Z" fill="#EF0A52"/>
<path d="M25.9219 15.1626H32.2198V18.1319C32.2198 19.871 30.81 21.2809 29.0709 21.2809C27.3317 21.2809 25.9219 19.871 25.9219 18.1319V15.1626Z" fill="#885345"/>
<path d="M29.0781 21.2809C30.8172 21.2808 32.2269 19.871 32.2269 18.1319V15.1626H29.0781V21.2809Z" fill="#5E342D"/>
<path d="M22.8985 9.98371C22.8985 13.3963 25.665 16.1628 29.0776 16.1628C32.4902 16.1628 35.2566 13.3963 35.2566 9.98371V6.2466L29.0775 0.666992L22.8984 6.2466V9.98371H22.8985Z" fill="#B77465"/>
<path d="M29.0781 16.1625C32.4906 16.1625 35.257 13.3961 35.257 9.98348V6.24645L29.0781 0.666992V16.1625Z" fill="#885345"/>
<path d="M29.0732 0V0.000703125L29.0728 0C25.1983 7.8125e-05 23.1338 2.52438 22.8984 5.72555V6.25547H25.6001C27.5181 6.25547 29.073 4.70336 29.073 2.78867C29.0731 4.70336 30.628 6.25547 32.546 6.25547H35.2477V5.72555C35.0123 2.52438 32.9477 7.8125e-05 29.0732 0Z" fill="#483B89"/>
<path d="M32.5509 6.25547H35.2526V5.72555C35.0172 2.52438 32.9527 7.8125e-05 29.0781 0V0.000703125V2.79703C29.0828 4.70789 30.6357 6.25547 32.5509 6.25547Z" fill="#21104C"/>
<path d="M10.9219 21.2809H10.9221C12.6613 21.2809 14.0711 19.871 14.0711 18.1319V15.1626H10.9219V21.2809Z" fill="#EEAA93"/>
<path d="M4.75 9.98371C4.75 13.3963 7.51649 16.1628 10.9291 16.1628C14.3416 16.1628 17.1081 13.3963 17.1081 9.98371V6.2466L10.9291 0.666992L4.75 6.2466V9.98371Z" fill="#F7CFC0"/>
<path d="M10.9219 0.667148V16.1627H10.9221C14.3347 16.1627 17.1012 13.3962 17.1012 9.98363V6.2466L10.9221 0.666992L10.9219 0.667148Z" fill="#F5C1AD"/>
<path d="M10.9248 0V0.000703125L10.9244 0C7.04984 7.8125e-05 4.98531 2.52438 4.75 5.72555V6.25547H7.45164C9.36969 6.25547 10.9246 4.35117 10.9246 4.35117C10.9246 4.35117 12.4796 6.25547 14.3976 6.25547H17.0992V5.72555C16.8639 2.52438 14.7994 7.8125e-05 10.9248 0Z" fill="#F4B765"/>
<path d="M10.9221 0V0.000703125L10.9219 0.0003125V4.35109C10.9219 4.35109 12.4769 6.25539 14.3948 6.25539H17.0965V5.72547C16.8613 2.52438 14.7967 7.8125e-05 10.9221 0Z" fill="#F48C67"/>
<path d="M12.3227 28.6104L17.8009 26.5129H22.1998L27.678 28.6104C29.1198 29.1104 30.0866 30.4688 30.0866 31.9947V38.918C30.0866 39.5155 29.6022 39.9999 29.0047 39.9999H10.9959C10.3984 39.9999 9.91406 39.5155 9.91406 38.918V31.9947C9.91414 30.4688 10.8809 29.1104 12.3227 28.6104Z" fill="#68E188"/>
<path d="M27.6774 28.6107L22.1992 26.5132H20V40.0001H29.0041C29.6016 40.0001 30.086 39.5158 30.086 38.9183V31.995C30.0859 30.469 29.1191 29.1106 27.6774 28.6107Z" fill="#00B46D"/>
<path d="M17.0938 25.3906H22.9079V28.1318C22.9079 29.7373 21.6063 31.0388 20.0009 31.0388C18.3953 31.0388 17.0938 29.7373 17.0938 28.1318V25.3906H17.0938Z" fill="#F5C1AD"/>
<path d="M20 31.0388C21.6054 31.0387 22.9069 29.7373 22.9069 28.1318V25.3906H20V31.0388Z" fill="#EEAA93"/>
<path d="M13.948 17.7468L13.9453 20.349C13.9453 23.6906 16.6561 26.3995 20 26.3995C23.3439 26.3995 26.0547 23.6906 26.0547 20.349L26.0503 16.1796C25.912 14.2982 25.1278 12.6556 23.702 11.6428L13.948 17.7468Z" fill="#F7CFC0"/>
<path d="M23.7018 11.6428L20 13.9594V26.3995C23.3438 26.3994 26.0545 23.6905 26.0545 20.349L26.0501 16.1796C25.9117 14.2982 25.1276 12.6556 23.7018 11.6428Z" fill="#F5C1AD"/>
<path d="M19.9971 10.5732C16.2005 10.5733 14.1776 13.0451 13.947 16.1796L13.9453 17.7468C14.942 18.3996 16.1332 18.7807 17.4141 18.7807C20.9139 18.7807 23.7511 15.9454 23.7511 12.4481C23.7511 12.1754 23.7319 11.9073 23.6984 11.6437C22.7487 10.9692 21.5153 10.5733 19.9976 10.5733H19.9971V10.5732Z" fill="#F9DA62"/>
<path d="M20 10.5732V18.2302C22.2116 17.2418 23.7535 15.0256 23.7535 12.448C23.7535 12.1753 23.7343 11.9072 23.7009 11.6436C22.7512 10.9692 21.5177 10.5733 20 10.5732Z" fill="#F4B765"/>
</g>
<defs>
<clipPath id="clip0_2984_571">
<rect width="40" height="40" fill="white"/>
</clipPath>
</defs>
</svg>
