<svg width="23" height="26" viewBox="0 0 23 26" fill="none" xmlns="http://www.w3.org/2000/svg">
<path d="M10.25 2.7325C10.1688 2.995 10.125 3.27375 10.125 3.5625C10.125 4.08 10.545 4.5 11.0625 4.5H16.6875C16.9361 4.5 17.1746 4.40123 17.3504 4.22541C17.5262 4.0496 17.625 3.81114 17.625 3.5625C17.6251 3.28114 17.5829 3.00136 17.5 2.7325M10.25 2.7325C10.4275 2.15837 10.7842 1.65617 11.2678 1.29942C11.7514 0.942681 12.3366 0.750141 12.9375 0.75H14.8125C16.0775 0.75 17.1462 1.585 17.5 2.7325M10.25 2.7325C9.78 2.76125 9.3125 2.795 8.845 2.8325C7.43125 2.95 6.375 4.15375 6.375 5.5725V8.25M17.5 2.7325C17.97 2.76125 18.4375 2.795 18.905 2.8325C20.3188 2.95 21.375 4.15375 21.375 5.5725V18.5625C21.375 19.3084 21.0787 20.0238 20.5512 20.5512C20.0238 21.0787 19.3084 21.375 18.5625 21.375H15.75M6.375 8.25H2.15625C1.38 8.25 0.75 8.88 0.75 9.65625V23.7188C0.75 24.495 1.38 25.125 2.15625 25.125H14.3438C15.12 25.125 15.75 24.495 15.75 23.7188V21.375M6.375 8.25H14.3438C15.12 8.25 15.75 8.88 15.75 9.65625V21.375M5.4375 17.625L7.3125 19.5L11.0625 14.8125" stroke="#F74DF4" stroke-width="1.5" stroke-linecap="round" stroke-linejoin="round"/>
</svg>
