<svg width="24" height="24" viewBox="0 0 24 24" fill="none" xmlns="http://www.w3.org/2000/svg">
<path d="M15.3626 5.21438C17.0875 5.98515 18.4956 7.32444 19.3518 9.00852C20.2081 10.6926 20.4605 12.6195 20.0669 14.4673C19.6734 16.3151 18.6578 17.9719 17.1896 19.161C15.7215 20.35 13.8898 20.9993 12.0006 21.0004C10.3844 21.0005 8.80379 20.5259 7.45498 19.6355C6.10617 18.7451 5.04859 17.4782 4.41355 15.992C3.77851 14.5058 3.59398 12.8658 3.88288 11.2757C4.17178 9.6855 4.92138 8.21522 6.0386 7.04737C6.80803 8.12284 7.82364 8.99856 9.0006 9.60137C9.02122 8.28 9.33313 6.97945 9.91409 5.79246C10.495 4.60548 11.3308 3.5613 12.3616 2.73438C13.1484 3.78957 14.1773 4.64014 15.3616 5.21438H15.3626Z" stroke="white" stroke-width="1.5" stroke-linecap="round" stroke-linejoin="round"/>
<path d="M12.0008 17.9993C12.9535 18.0008 13.8711 17.6397 14.5672 16.9893C15.2634 16.3389 15.6858 15.4479 15.7488 14.4973C15.8118 13.5467 15.5107 12.6077 14.9065 11.8711C14.3023 11.1345 13.4404 10.6554 12.4959 10.5312C11.4632 11.4553 10.7829 12.7088 10.5708 14.0783C9.80046 13.8895 9.07536 13.5492 8.43785 13.0773C8.25251 13.6406 8.20341 14.2398 8.29459 14.8258C8.38577 15.4118 8.61462 15.9678 8.96236 16.4482C9.31011 16.9286 9.76682 17.3196 10.295 17.5892C10.8232 17.8589 11.4078 17.9994 12.0008 17.9993Z" stroke="white" stroke-width="1.5" stroke-linecap="round" stroke-linejoin="round"/>
</svg>
