<svg width="18" height="19" viewBox="0 0 18 19" fill="none" xmlns="http://www.w3.org/2000/svg">
<path d="M1.6875 14.5625C5.68921 14.5592 9.67351 15.0892 13.5353 16.1382C14.0805 16.2867 14.625 15.8817 14.625 15.3162V14.5625M2.8125 3.875V4.4375C2.8125 4.58668 2.75324 4.72976 2.64775 4.83525C2.54226 4.94074 2.39918 5 2.25 5H1.6875M1.6875 5V4.71875C1.6875 4.253 2.0655 3.875 2.53125 3.875H15.1875M1.6875 5V11.75M15.1875 3.875V4.4375C15.1875 4.748 15.4395 5 15.75 5H16.3125M15.1875 3.875H15.4688C15.9345 3.875 16.3125 4.253 16.3125 4.71875V12.0312C16.3125 12.497 15.9345 12.875 15.4688 12.875H15.1875M1.6875 11.75V12.0312C1.6875 12.255 1.77639 12.4696 1.93463 12.6279C2.09286 12.7861 2.30747 12.875 2.53125 12.875H2.8125M1.6875 11.75H2.25C2.39918 11.75 2.54226 11.8093 2.64775 11.9148C2.75324 12.0202 2.8125 12.1633 2.8125 12.3125V12.875M15.1875 12.875V12.3125C15.1875 12.1633 15.2468 12.0202 15.3523 11.9148C15.4577 11.8093 15.6008 11.75 15.75 11.75H16.3125M15.1875 12.875H2.8125M11.25 8.375C11.25 8.97174 11.0129 9.54403 10.591 9.96599C10.169 10.3879 9.59674 10.625 9 10.625C8.40326 10.625 7.83097 10.3879 7.40901 9.96599C6.98705 9.54403 6.75 8.97174 6.75 8.375C6.75 7.77826 6.98705 7.20597 7.40901 6.78401C7.83097 6.36205 8.40326 6.125 9 6.125C9.59674 6.125 10.169 6.36205 10.591 6.78401C11.0129 7.20597 11.25 7.77826 11.25 8.375ZM13.5 8.375H13.506V8.381H13.5V8.375ZM4.5 8.375H4.506V8.381H4.5V8.375Z" stroke="#231F20" stroke-linecap="round" stroke-linejoin="round"/>
</svg>
