<svg width="65" height="75" viewBox="0 0 65 75" fill="none" xmlns="http://www.w3.org/2000/svg">
<path d="M0 0.152344H31.6746V2.43198H22.1798V72.6449H35.7763C35.7763 72.6449 55.6774 73.7087 60.8426 60.7907H64.7164L60.7666 75.0005H0V72.5689H9.95053V2.35599H0C0 2.35599 0.227875 0.152344 0 0.152344Z" fill="#575756"/>
<path d="M42.0799 0H47.9287C47.9287 0 62.4367 0.0759883 64.7914 16.0335C64.7914 16.0335 66.8423 27.5836 54.1572 35.8663C54.1572 35.8663 65.0193 39.2098 64.7914 50.8359H60.7656C60.7656 50.8359 61.0694 36.6262 42.0039 36.7022V34.8785C42.0039 34.8785 53.0938 33.0548 52.9419 17.3253C52.9419 17.3253 53.7015 4.17934 42.0799 2.35563C42.0799 2.27964 42.3077 0 42.0799 0Z" fill="#CA9E67"/>
</svg>
