<svg width="100" height="78" viewBox="0 0 100 78" fill="none" xmlns="http://www.w3.org/2000/svg">
<path d="M99.7372 39.7737C99.5917 38.7149 99.395 36.9834 99.298 35.9246C99.2023 34.8658 98.9651 32.8571 98.7724 31.4619C98.5797 30.0668 98.3439 28.5317 98.2469 28.05C98.1512 27.5684 97.8346 26.2701 97.5462 25.1628C97.2565 24.0556 96.6649 22.2837 96.2311 21.2249C95.7972 20.1674 94.9307 18.3955 94.3041 17.2882C93.6775 16.181 92.7707 14.7253 92.2883 14.0512C91.8059 13.3772 90.7804 12.0385 90.0097 11.0766C89.2389 10.1133 87.4642 8.22435 86.0669 6.87627C84.6682 5.52953 83.2102 4.2689 82.8235 4.07651C82.4381 3.88412 81.7293 3.68769 81.2469 3.63926C80.6971 3.5841 80.1419 3.74689 79.7566 4.07651C79.4197 4.36577 79.0653 4.91738 78.9683 5.30216C78.8726 5.68694 78.754 6.94623 78.7055 8.10192C78.657 9.25626 78.3808 11.0281 78.0924 12.0385C77.8027 13.0489 77.0926 14.7024 76.5145 15.7128C75.9364 16.7245 74.7533 18.2596 73.8855 19.126C73.0177 19.9925 71.836 21.015 71.2565 21.4011C70.6785 21.7859 69.8902 22.2581 69.5048 22.4505C69.1194 22.6429 68.4484 22.9187 68.0145 23.0627C67.5806 23.2066 66.9109 23.4044 66.5255 23.4999C66.1388 23.5968 64.957 23.7152 63.8965 23.7623C63.7941 23.7663 63.6877 23.7703 63.5799 23.7717C62.5679 23.7865 61.3511 23.6735 60.7407 23.4999C60.0669 23.3075 59.0415 22.8353 58.4634 22.4505C57.8543 22.0455 57.1523 21.2706 56.7979 20.6127C56.461 19.9871 56.1053 18.9242 56.0096 18.2502C55.9126 17.5775 55.8344 16.5927 55.8344 16.0639C55.8344 15.5352 56.0312 14.6284 56.2724 14.0512C56.5392 13.4108 56.9839 12.8646 57.411 12.6507C57.7964 12.4583 58.388 12.2619 58.7262 12.2134C59.063 12.165 59.6937 12.2834 60.1276 12.4758C60.5615 12.6682 61.1139 13.1014 61.3551 13.4391C61.5963 13.7754 61.9507 14.2477 62.1434 14.4885L62.4938 14.9257L62.9317 14.401C63.1729 14.1118 63.4492 13.4431 63.5462 12.913C63.5596 12.835 63.5718 12.7516 63.5799 12.6641C63.6055 12.3991 63.6041 12.1004 63.5799 11.8233C63.5569 11.5717 63.5165 11.3389 63.4572 11.164C63.4114 11.0241 63.3387 10.8707 63.2497 10.72C63.0638 10.4052 62.8104 10.1012 62.5814 9.93837C62.2445 9.6989 61.5734 9.54014 61.0924 9.58857C60.61 9.63701 59.9389 9.71638 59.602 9.76347L58.9889 9.85092L59.3393 9.23877C59.532 8.90242 59.8473 8.43019 60.04 8.18937C60.2327 7.94854 60.3513 7.51533 60.3027 7.22607C60.2556 6.93815 59.8608 6.34753 59.4269 5.91431C58.993 5.4811 58.2828 4.96985 57.849 4.77746C57.4164 4.58372 56.5877 4.30926 56.0096 4.16396C55.4315 4.02 54.3657 3.98099 53.6434 4.07651C52.9198 4.17338 51.8162 4.52721 51.1896 4.86491C50.563 5.20125 49.2223 6.30313 48.2103 7.31352C47.1983 8.32525 45.9357 9.62355 45.4062 10.2007C45.2499 10.3702 45.0962 10.5478 44.9548 10.72C44.6111 11.1344 44.3349 11.5192 44.2675 11.6887C44.1705 11.9296 44.1705 12.2444 44.2675 12.3883C44.3632 12.5336 45.0733 12.4933 45.8441 12.3009C46.6149 12.1085 47.325 12.0305 47.422 12.126C47.5177 12.2228 47.4395 12.3412 47.2468 12.3883C47.0542 12.4368 46.6203 12.7516 46.282 13.0893C45.9438 13.427 45.0383 13.8979 44.2675 14.1387C43.2798 14.4468 42.6573 14.8342 42.1641 15.4504C41.7787 15.9321 41.3448 16.6021 41.1993 16.9384C41.016 17.3663 41.0686 17.6555 41.3745 17.9004C41.6157 18.0928 41.7733 18.4076 41.7262 18.6013C41.6776 18.7937 41.3623 19.1086 41.0241 19.3009C40.6872 19.4933 39.5836 19.8472 38.5703 20.088C37.7591 20.2804 36.4588 20.4701 35.3794 20.5629C35.1113 20.5858 34.858 20.6033 34.6275 20.6127C33.4714 20.6611 31.8544 20.5037 31.0351 20.2629C30.2158 20.0221 29.0327 19.5108 28.4061 19.126C27.7796 18.7413 26.8727 17.9529 26.3903 17.3757C25.9079 16.7985 25.3163 15.8137 25.0765 15.1881C24.8353 14.5625 24.5981 13.4996 24.5496 12.8256C24.5024 12.1529 24.6197 11.129 24.8137 10.5519C25.0064 9.97335 25.5185 9.02889 25.9524 8.45172C26.3862 7.87455 27.1355 7.08615 27.6179 6.70136C28.0989 6.31658 28.9667 5.56855 29.5448 5.03981C30.3115 4.33751 30.6201 3.83972 30.6848 3.202C30.7319 2.72036 30.6147 2.0517 30.422 1.714C30.228 1.37766 29.8736 0.983456 29.6324 0.8395C29.3912 0.695543 28.4843 0.538132 27.6179 0.489698C26.5479 0.430501 25.2503 0.655181 23.5861 1.1893C22.2373 1.62252 20.2255 2.44993 19.1165 3.0271C18.0089 3.60428 16.3528 4.62812 15.4365 5.30216C14.5215 5.97485 13.4557 6.84129 13.0703 7.22607C12.6849 7.61219 11.9748 8.43826 11.4937 9.06387C11.0113 9.68948 9.94678 11.2649 9.1275 12.5632C8.30822 13.8629 7.36093 15.4773 7.02406 16.1514C6.68719 16.8241 6.17379 18.1237 5.88543 19.0386C5.59571 19.9521 5.08366 21.6056 4.74544 22.7129C4.40857 23.8201 3.97467 25.3552 3.78198 26.1248C3.58929 26.8957 2.95866 29.2568 2.37924 31.3745C1.80116 33.4921 1.13146 35.8546 0.890254 36.6242C0.649052 37.3937 0.372815 38.497 0.277143 39.0741C0.180123 39.6513 0.0615432 40.5568 0.0143808 41.0868C-0.0341291 41.6156 0.0440257 42.7188 0.189555 43.5368C0.333738 44.3548 0.886211 46.5586 1.41578 48.4354C1.94534 50.3122 2.85356 53.3837 3.43163 55.2605C4.00971 57.1374 4.71984 59.2631 5.0082 59.9855C5.29792 60.7067 5.65231 61.3363 5.79784 61.3848C5.94202 61.4332 6.13875 61.1964 6.23577 60.8601C6.33145 60.5224 6.37187 59.8147 6.32336 59.2846C6.27485 58.7559 5.7628 57.062 5.18338 55.5229C4.6053 53.9824 3.69844 51.4235 3.16887 49.8359C2.63796 48.2484 2.00733 46.2007 1.76613 45.2858C1.52492 44.3723 1.28911 43.0336 1.2406 42.3112C1.19209 41.59 1.39018 39.9756 1.67854 38.7243C1.96825 37.4731 2.5598 35.19 2.9937 33.6495C3.42759 32.1091 4.37353 28.9205 5.09579 26.562C5.8194 24.2049 6.80442 21.2518 7.28682 20.0005C7.76923 18.7493 8.51843 17.2142 8.95233 16.5886C9.38622 15.963 10.2527 15.0576 10.8792 14.5759C11.5058 14.0943 12.6499 13.4256 13.4206 13.0893C14.1927 12.7516 15.4931 12.3587 16.3124 12.2134C17.1316 12.0695 18.2757 12.0305 18.8537 12.126C19.4332 12.2228 20.1824 12.4987 20.5192 12.7381C20.8561 12.979 21.4086 13.5696 21.7455 14.0512C22.0837 14.5329 22.7938 15.7128 23.3234 16.6761C23.8529 17.638 24.5631 18.7009 24.9013 19.0386C25.2382 19.3749 25.9874 19.9656 26.5655 20.3503C27.1435 20.7351 28.169 21.2477 28.8441 21.4885C29.5192 21.728 30.7804 22.0832 31.6482 22.2756C32.516 22.468 34.0926 22.7438 35.1531 22.8878L35.3794 22.9187L37.0813 23.1501L37.3441 23.7623C37.4883 24.1 37.4883 24.809 37.3441 25.3377C37.1999 25.8664 36.6865 27.1271 36.2055 28.1375C35.9117 28.7537 35.6058 29.4344 35.3794 29.9685C35.2353 30.3103 35.1221 30.5928 35.0655 30.7623L34.8027 31.5494L35.3282 31.3745C35.3444 31.3691 35.3619 31.3624 35.3794 31.3529C35.6745 31.2117 36.103 30.6601 36.3806 30.0627C36.669 29.4371 36.9843 28.8061 37.0813 28.6622C37.177 28.5182 37.2956 29.1088 37.3441 29.9753C37.3926 30.8404 37.2349 32.5732 36.9937 33.8244C36.7525 35.0756 36.4372 37.083 36.293 38.2871C36.1475 39.4899 36.0694 40.7492 36.1179 41.0868L36.2055 41.699L37.2565 41.8739C37.8346 41.9694 38.6229 42.0098 39.0096 41.9614C39.395 41.9129 39.9865 41.7945 40.3234 41.699C40.6603 41.6021 41.5685 41.4851 42.3393 41.4366C43.11 41.3882 44.215 41.5456 44.7931 41.7864C45.3711 42.0273 46.0813 42.4605 46.3696 42.7484C46.4572 42.8359 46.5569 42.9421 46.662 43.0592C46.9032 43.3296 47.166 43.6498 47.3344 43.8866C47.5743 44.223 47.93 45.0504 48.1227 45.7231C48.3154 46.3971 48.5121 47.8932 48.5607 49.0489C48.6092 50.2032 48.5297 51.3051 48.3855 51.4975C48.2413 51.6912 48.0432 51.8083 47.9475 51.7612C47.8505 51.7127 47.6929 51.3979 47.5972 51.0602C47.5002 50.7239 47.2644 49.4632 47.0717 48.2605C46.8426 46.837 46.4761 45.7069 46.0193 45.0235C45.6339 44.4463 44.9238 43.7373 44.4427 43.4494C44.2069 43.3081 43.8592 43.1682 43.486 43.0592C43.0979 42.9448 42.6842 42.8601 42.3393 42.8359C41.741 42.7941 41.2087 42.8641 40.6913 43.0592C40.4797 43.1386 40.2709 43.2381 40.0606 43.3606C39.4516 43.7157 38.6404 44.5257 38.1324 45.2858C37.6513 46.0083 37.0988 46.9137 36.9062 47.2985C36.7135 47.6833 36.5949 48.1555 36.6434 48.3479C36.6919 48.5403 36.9668 48.8161 37.2565 48.9614C37.5462 49.1054 37.8211 49.3812 37.8696 49.5736C37.9181 49.766 37.7995 50.1198 37.6069 50.3606C37.4142 50.6014 37.0193 51.0347 36.731 51.3226C36.4413 51.6118 36.126 52.0451 36.0303 52.2859C35.9009 52.6061 35.9952 52.746 36.3806 52.8106C36.669 52.859 37.0247 53.0554 37.1689 53.2478C37.3131 53.4402 37.3131 53.8344 37.1689 54.1223C37.0247 54.4116 36.6299 54.8838 36.293 55.1731C35.9548 55.461 35.6395 55.9346 35.591 56.2225C35.5344 56.5683 35.7136 56.8669 36.1179 57.097C36.4547 57.2907 36.9668 57.5652 37.2565 57.7105C37.588 57.8746 37.7497 58.1666 37.6944 58.4975C37.6298 58.8904 37.2767 59.111 36.293 59.372C35.3404 59.6263 34.7852 59.9627 34.2772 60.5977C33.7234 61.2879 33.3555 61.491 32.5241 61.5597L31.473 61.6471L32.5241 60.5102C33.1035 59.8846 33.6937 59.2146 33.8392 59.0222C34.0279 58.7707 33.6344 58.7222 32.4365 58.8473C31.5216 58.9442 29.6674 59.2187 28.3186 59.4595C26.9684 59.7003 25.1156 60.0151 24.1993 60.1604C23.2843 60.3044 21.6673 60.5802 20.6068 60.7726C19.5463 60.965 17.9698 61.2408 17.102 61.3848C16.2342 61.5287 14.5781 61.8045 13.4206 61.9969C12.2645 62.1893 10.2136 62.5445 8.86474 62.7853C7.51455 63.0248 5.34643 63.419 4.04474 63.6598C2.74306 63.9006 1.60038 64.1764 1.50336 64.272C1.40769 64.3688 1.91974 64.4859 2.642 64.5343C3.36561 64.5827 4.9031 64.5034 6.0606 64.3594C7.21675 64.2155 9.10999 63.9787 10.2661 63.8347C11.4236 63.6908 13.3559 63.454 14.5606 63.31C15.7653 63.1647 18.1315 62.8902 19.8185 62.6965C21.5056 62.5041 23.5956 62.3077 24.462 62.2593C25.3298 62.2122 26.1181 62.1328 26.2151 62.0844C26.3121 62.0359 26.8242 62.0763 27.3537 62.1718L28.3186 62.3467L27.8806 62.9602C27.6394 63.2966 26.9293 63.8872 26.3027 64.272C25.6761 64.6567 24.966 65.129 24.7248 65.3214C24.4849 65.5151 24.3273 65.7115 24.3744 65.76C24.4229 65.807 24.5024 65.807 24.5496 65.76C24.5981 65.7115 24.6776 65.7115 24.7248 65.76C24.7733 65.807 25.1681 65.807 25.602 65.76C26.0359 65.7115 27.2581 65.5541 28.3186 65.4088C29.379 65.2649 30.8775 65.0684 31.6482 64.9716C32.419 64.876 33.3663 64.837 33.7517 64.8841C34.137 64.9325 34.7677 65.2084 35.1531 65.4976C35.5384 65.7855 36.3281 66.1003 36.9062 66.1972C37.4842 66.2927 38.352 66.3721 38.8344 66.3721C39.3168 66.3721 40.2628 66.1743 40.9365 65.9349C41.6116 65.694 42.4794 65.3389 42.8648 65.1465C43.2502 64.9541 44.0385 64.6783 44.6179 64.5343C45.196 64.3904 46.7725 64.1939 48.1227 64.0971C49.4716 64.0002 51.1681 63.9222 51.8903 63.9222C52.6126 63.9222 53.8361 63.8428 54.6069 63.7473C55.379 63.6504 57.0741 63.493 58.3758 63.3975C59.6762 63.3006 61.1746 63.2226 61.7055 63.2226C62.2364 63.2226 63.1028 63.458 63.6338 63.7473C64.1633 64.0352 65.0702 64.3513 65.6483 64.4469C66.2263 64.5437 66.9769 64.5437 67.3138 64.4469C67.6506 64.3513 68.2031 64.1536 68.54 64.0096C68.8782 63.8657 69.4293 63.5898 69.7676 63.3975C70.1044 63.2051 70.5774 62.8499 70.8186 62.6091C71.0598 62.3696 71.4937 62.1328 71.7821 62.0844C72.0718 62.0359 72.3871 62.1153 72.4841 62.2593C72.5798 62.4046 72.4612 62.7584 72.2213 63.0476C71.9801 63.3356 71.5072 63.7688 71.169 64.0096C70.8321 64.2504 70.5168 64.5262 70.4683 64.6218C70.4197 64.7186 71.169 64.6783 72.1338 64.5343C73.0972 64.3904 74.9905 64.0352 76.3393 63.7473C77.6895 63.458 79.8967 62.9858 81.2469 62.6965C82.5957 62.4086 85.3177 61.857 87.2931 61.4722C89.2699 61.0874 91.7533 60.5358 92.8138 60.2479C93.8743 59.9586 94.703 59.6438 94.6545 59.5469C94.606 59.4514 93.9753 59.372 93.2517 59.372C92.5281 59.372 90.9516 59.4904 89.7469 59.6344C88.5422 59.7797 86.8457 59.9371 85.9793 59.9855C85.1115 60.0326 84.047 60.112 83.6131 60.1604C83.1792 60.2075 82.0352 60.2479 81.0717 60.2479C80.1083 60.2479 79.2 60.1685 79.0559 60.073C78.9117 59.9761 78.9508 59.6613 79.1434 59.372C79.3361 59.0841 79.5342 58.7693 79.5814 58.6724C79.6299 58.5769 78.9993 58.4975 78.18 58.4975C77.3607 58.4975 76.3353 58.5366 75.9014 58.585C75.4675 58.6334 74.2844 58.7518 73.2724 58.8473C72.2604 58.9442 71.1959 58.9832 70.9062 58.9348C70.6178 58.8864 70.1435 58.6119 69.8551 58.3226C69.5654 58.0334 69.0534 57.6795 68.7152 57.5356C68.3783 57.3903 67.3138 57.1145 66.3503 56.9221C65.1807 56.6893 64.48 56.3974 64.2469 56.0476C64.0542 55.7583 63.9747 55.2471 64.0717 54.9107L64.2469 54.2972L63.2821 53.5102C62.6743 53.0137 62.2863 52.4648 62.231 52.0235C62.1825 51.6374 62.1825 51.1652 62.231 50.9728C62.2795 50.7804 62.0814 50.3472 61.7931 50.0108C61.4629 49.626 61.2999 49.0731 61.3551 48.5228L61.4427 47.6483L60.3027 46.2491C59.6762 45.4782 58.7693 44.5728 58.2882 44.2364C57.8058 43.8987 56.9771 43.5059 56.4476 43.3606C55.918 43.2166 55.1284 43.1386 54.6945 43.1857C54.2606 43.2341 53.6299 43.5489 53.2931 43.8866C52.9548 44.223 52.5223 44.8526 52.3283 45.2858C52.1356 45.719 51.9388 46.428 51.8903 46.8613C51.8432 47.2945 51.8432 48.0022 51.8903 48.4354C51.9388 48.8686 51.9779 49.8144 51.9779 50.5355C51.9779 51.2567 51.8607 51.8876 51.7151 51.9361C51.571 51.9832 51.2556 51.6683 51.0144 51.2351C50.7732 50.8019 50.497 50.0539 50.4013 49.5736C50.3043 49.0919 50.2262 48.3049 50.2262 47.8232C50.2262 47.3416 50.3434 46.4765 50.4889 45.898C50.6331 45.3208 51.1061 44.3373 51.54 43.7117C51.7017 43.4776 51.8822 43.257 52.0722 43.0592C52.4455 42.669 52.8511 42.3663 53.2055 42.2237C53.6865 42.0313 54.6729 41.8349 55.3965 41.7864C56.1188 41.738 57.0256 41.777 57.411 41.8739C57.7964 41.9694 58.2303 42.0878 58.3758 42.1363C58.52 42.1847 58.8353 42.0663 59.0765 41.8739C59.3177 41.6815 59.594 41.2483 59.6896 40.9119C59.7867 40.5743 59.8257 39.8652 59.7772 39.3365C59.7287 38.8078 59.6506 38.0597 59.602 37.6736C59.5535 37.2888 59.6721 36.8556 59.8648 36.7116C60.1316 36.5125 60.2987 36.6161 60.5655 37.1489C60.7595 37.5337 61.0344 38.6759 61.18 39.6863C61.3241 40.6967 61.6004 41.7999 61.7931 42.1363C61.9858 42.4726 62.262 42.8278 62.4062 42.9233C62.5504 43.0202 62.4722 41.7595 62.231 40.1236C61.9898 38.4876 61.6354 36.4802 61.4427 35.6622C61.1665 34.4904 60.9239 34.0626 60.3027 33.6495C59.8688 33.3603 59.3568 32.81 59.1641 32.4252C58.9714 32.0391 58.6561 30.9762 58.4634 30.0627C58.2707 29.1479 58.1912 28.085 58.2882 27.7002C58.3839 27.3154 58.6601 26.8822 58.9013 26.7369C59.1425 26.593 59.8123 26.4355 60.3903 26.3871C60.9698 26.34 61.7971 26.34 62.231 26.3871C62.4965 26.4167 63.0112 26.4288 63.5799 26.4207C63.9423 26.4181 64.3277 26.4059 64.6848 26.3871C65.6011 26.34 67.0591 26.1826 67.9269 26.0373C68.7947 25.8934 70.1354 25.5395 70.9062 25.2503C71.677 24.961 72.9396 24.2533 73.7103 23.6748C74.4811 23.0976 76.0199 21.4832 77.1276 20.088C78.2366 18.6928 79.5773 17.2358 80.1069 16.851C80.6378 16.4662 81.4261 16.033 81.86 15.889C82.2939 15.7437 83.3975 15.5863 84.3138 15.5379C85.2314 15.4908 86.7662 15.6872 87.731 15.9765C88.6958 16.2644 89.9962 16.855 90.6228 17.2882C91.2494 17.7215 92.0781 18.5085 92.4634 19.0386C92.8488 19.5673 93.4013 20.6302 93.6897 21.4011C93.9794 22.1707 94.4914 24.0206 94.8297 25.5126C95.1665 27.0046 95.5223 28.5397 95.6179 28.9245C95.715 29.3093 95.9508 30.4125 96.1435 31.3745C96.3362 32.3364 96.6124 33.7155 96.7579 34.4366C96.9021 35.1591 97.2565 37.1274 97.5462 38.8118C97.8346 40.4962 98.1108 42.3851 98.1593 43.0108C98.2227 43.8301 98.0502 44.4678 97.5462 45.2858C97.1608 45.9114 96.4898 47.2501 96.0559 48.2605C95.622 49.2709 94.8337 51.3576 94.3041 52.898C93.7732 54.4372 93.2612 56.0126 93.1641 56.3974C93.0415 56.8885 93.121 57.1495 93.4269 57.2732C93.6681 57.3688 94.102 57.3688 94.3917 57.2732C94.6895 57.1737 95.1059 56.6436 95.3552 56.0476C95.5964 55.4704 96.1489 53.895 96.5814 52.5482C97.0153 51.2001 97.6863 49.4283 98.0717 48.6103C98.4571 47.7923 99.0487 46.611 99.3855 45.9854C99.7911 45.2347 100 44.3144 100 43.2731C100 42.408 99.8814 40.8326 99.7372 39.7737ZM60.9172 59.2846C61.0129 59.0438 61.0924 58.2957 61.0924 57.623C61.0924 56.9503 61.2096 56.24 61.3551 56.0476C61.4993 55.8552 61.7365 55.6978 61.8807 55.6978C62.0248 55.6978 62.3402 55.8162 62.5814 55.9601C62.8226 56.1041 63.4532 56.5373 63.9841 56.9221C64.5137 57.3082 65.302 57.6621 65.7358 57.7105C66.1697 57.7576 66.9985 57.9163 67.5765 58.0603C68.1573 58.2056 68.9025 58.6361 69.242 59.0222C69.5789 59.407 69.8942 60.077 69.9427 60.5102C69.9912 60.9435 69.9508 61.5731 69.8551 61.9095C69.7527 62.2646 69.4576 62.5593 69.1544 62.6091C68.7354 62.679 68.5562 62.5001 68.2772 61.7346L67.9269 60.7726L67.8393 61.4722C67.7908 61.857 67.6736 62.4476 67.5765 62.7853C67.4795 63.1217 67.2828 63.3571 67.1386 63.31C66.9944 63.2616 66.7182 62.8284 66.5255 62.3467C66.3328 61.8664 66.0161 61.1184 65.8234 60.6851C65.6307 60.2519 65.434 60.0151 65.3855 60.1604C65.337 60.3044 65.4165 61.0134 65.5607 61.7346C65.7062 62.457 65.7453 63.1647 65.6483 63.31C65.5526 63.454 65.1969 63.454 64.86 63.31C64.5231 63.1647 64.0892 62.7718 63.8965 62.4342C63.7038 62.0978 63.3481 61.4291 63.1069 60.9475C62.7565 60.2479 62.4763 60.038 61.7055 59.8967L60.7407 59.7218L60.9172 59.2846ZM56.7117 32.7844C57.4029 32.4494 57.0539 31.1202 57.3329 30.8874C57.5539 30.7018 57.7034 30.8821 57.9055 31.4391C58.0726 31.9005 58.0457 33.5917 56.8774 33.7989C56.2912 33.9038 55.5555 33.8244 55.2631 33.5136C55.0947 33.3334 54.8696 32.9513 54.8279 32.4104C54.8009 32.0579 54.716 31.7418 54.8413 31.5373C54.9734 31.3207 55.41 31.0852 55.5582 31.4404C55.7792 31.9651 55.9759 33.1396 56.7117 32.7844ZM42.7866 29.4761C42.6384 29.2689 42.4592 28.8465 42.4969 28.2895C42.5198 27.9249 42.6222 27.6504 42.7826 27.4594C42.9524 27.2589 43.2973 27.0221 43.3997 27.4056C43.5507 27.9733 43.3122 29.238 44.1301 28.9824C44.8982 28.7429 45.0033 27.2966 45.3267 27.1002C45.584 26.9428 45.7929 27.1365 45.8401 27.746C45.8791 28.2343 45.0747 29.908 44.4238 30.0035C43.804 30.0937 43.0453 29.8367 42.7866 29.4761ZM42.5616 34.2213C42.0536 34.3276 41.4337 34.0491 41.2249 33.6536C41.105 33.4249 40.9621 32.9593 40.9972 32.3405C41.0201 31.9368 41.1063 31.6314 41.2397 31.4202C41.3798 31.1955 41.6655 30.9305 41.7464 31.3556C41.8649 31.9812 41.6574 33.3845 42.3298 33.0939C42.9618 32.8221 43.0615 31.2184 43.3283 30.9978C43.5412 30.8229 43.7097 31.0354 43.7434 31.7095C43.7703 32.2503 43.0966 34.111 42.5616 34.2213ZM46.2484 24.8036C46.9598 24.6596 47.1889 23.3721 47.4975 23.2268C47.7441 23.1111 47.9112 23.3035 47.8977 23.8537C47.8869 24.2964 47.0083 25.7211 46.4154 25.7454C45.8522 25.7682 45.1946 25.4682 44.9979 25.1211C44.8833 24.9206 44.7634 24.5251 44.8483 24.0286C44.9035 23.7044 45.0208 23.4676 45.1825 23.3116C45.3536 23.1474 45.6851 22.9671 45.7417 23.321C45.8239 23.8443 45.4911 24.9556 46.2484 24.8036ZM45.1003 32.0902C45.1272 31.6866 45.0814 31.3153 45.2552 31.1041C45.4399 30.8821 45.9708 30.6856 46.0813 31.1108C46.2457 31.7391 46.2807 33.0966 47.1687 32.8127C48.0028 32.5463 47.8236 30.9883 48.1753 30.7704C48.4542 30.5968 48.5943 30.8242 48.7331 31.4861C48.8477 32.0337 48.5458 33.9401 47.1916 33.9872C46.5125 34.0101 45.6945 33.8029 45.4142 33.4047C45.2539 33.1746 45.0599 32.7078 45.1003 32.0902ZM46.9854 29.1371C46.8359 28.9057 46.6795 28.4563 46.7981 27.9101C46.8749 27.5522 47.0326 27.2979 47.2482 27.1378C47.4786 26.967 47.9206 26.7921 47.992 27.1917C48.0971 27.7796 47.643 28.9931 48.6523 28.8815C49.5996 28.7779 49.9176 27.3612 50.3299 27.2239C50.6574 27.1136 50.8797 27.3423 50.8554 27.9531C50.8366 28.4442 49.6535 29.9645 48.8652 29.9443C48.116 29.9255 47.2442 29.5394 46.9854 29.1371ZM50.7935 25.9001C50.2329 25.9108 49.5713 25.635 49.3692 25.3256C49.2519 25.148 49.1266 24.7969 49.2034 24.361C49.2533 24.0757 49.3665 23.8685 49.5241 23.734C49.6926 23.5914 50.02 23.438 50.082 23.7515C50.1736 24.213 49.8583 25.1884 50.6115 25.0659C51.319 24.9502 51.5278 23.8188 51.8337 23.6963C52.0763 23.5968 52.2474 23.7703 52.2434 24.256C52.2393 24.6448 51.385 25.888 50.7935 25.9001ZM49.7761 21.0822C49.7667 20.8468 49.8313 20.6611 49.954 20.5239C50.0847 20.3786 50.4337 20.3288 50.4808 20.4324C50.6398 20.7903 50.3582 21.5706 51.226 21.3809C51.8917 21.2343 51.6464 20.723 51.9078 20.567C52.1167 20.4432 52.4455 20.4203 52.5358 20.8064C52.6085 21.1172 52.0628 21.8989 51.5117 22.0186C50.9875 22.133 50.3703 22.0267 50.1197 21.8195C49.9755 21.6998 49.7896 21.4442 49.7761 21.0822ZM51.8256 28.4725C51.8445 28.1079 51.9604 27.8307 52.149 27.6383C52.3485 27.4352 52.7581 27.193 52.8915 27.5764C53.0882 28.1402 52.8295 29.4089 53.8092 29.1411C54.7281 28.8909 54.8198 27.4419 55.2052 27.2414C55.5124 27.0813 55.7671 27.271 55.8398 27.8792C55.8991 28.3675 54.9694 30.0533 54.1865 30.1582C53.444 30.2565 52.5223 30.0116 52.2029 29.6551C52.0183 29.4492 51.7946 29.0308 51.8256 28.4725ZM56.0366 23.8026C56.0891 24.1874 55.4288 25.5436 54.8467 25.6418C54.2929 25.7359 53.5976 25.5597 53.3524 25.2839C53.2095 25.1251 53.033 24.7969 53.0451 24.3542C53.0519 24.065 53.1327 23.843 53.2702 23.6869C53.4157 23.5214 53.7175 23.321 53.824 23.6223C53.983 24.0663 53.8159 25.0767 54.5422 24.844C55.2254 24.626 55.2645 23.477 55.5474 23.3089C55.7738 23.1757 55.9692 23.3223 56.0366 23.8026ZM55.1324 6.96372C55.3413 6.70406 55.8048 6.56279 56.2724 6.61391C56.7063 6.66235 57.3369 6.89914 57.6738 7.13862L58.2882 7.57721L58.0255 8.18937C57.8314 8.64007 57.5997 8.77865 57.1483 8.71407C56.8114 8.66564 56.1403 8.35081 55.6593 8.01447L54.782 7.40097L55.1324 6.96372ZM55.3736 20.0544C55.5784 19.9494 55.7509 20.0692 55.8048 20.4566C55.8493 20.7674 55.2415 21.8531 54.7174 21.9258C54.2215 21.9958 53.6016 21.8464 53.3834 21.6217C53.2594 21.4926 53.1044 21.2262 53.1192 20.8697C53.13 20.6369 53.2055 20.4593 53.3294 20.3355C53.4615 20.2037 53.7337 20.0449 53.8267 20.2885C53.9628 20.6477 53.8024 21.4603 54.456 21.28C55.0691 21.1118 55.1176 20.1862 55.3736 20.0544ZM51.9402 17.1658C52.145 17.6138 51.8364 18.6067 52.8686 18.3444C53.6623 18.1439 53.3483 17.5035 53.6555 17.3003C53.9008 17.1376 54.2956 17.1012 54.4182 17.5869C54.5166 17.9771 53.8927 18.9781 53.2365 19.1435C52.6126 19.3009 51.8688 19.1826 51.5602 18.9256C51.3837 18.7789 51.1492 18.4614 51.1196 18.004C51.1007 17.7067 51.1721 17.4699 51.3136 17.295C51.4632 17.108 51.8795 17.0353 51.9402 17.1658ZM47.1727 13.2009C47.2738 12.8363 47.4099 12.6103 47.6659 12.4825C47.9314 12.3493 48.2804 12.3157 48.2804 12.4973C48.2804 12.8242 47.9664 14.0176 49.3004 13.8292C50.3245 13.6839 50.4067 13.0247 50.8231 12.8108C51.1532 12.6413 51.6532 12.761 51.4766 13.2386C51.3001 13.7162 50.5752 14.8275 49.7276 14.9473C48.9218 15.0603 47.8856 14.8921 47.5339 14.5275C47.3304 14.3176 47.0488 13.649 47.1727 13.2009ZM47.2105 16.8187C47.3883 16.6425 47.7535 16.4299 47.8775 16.7568C48.0621 17.2385 47.8451 18.3296 48.7224 18.0874C49.547 17.8614 49.6117 16.6196 49.9553 16.442C50.2302 16.3007 50.462 16.4622 50.5347 16.9828C50.5927 17.3999 49.7774 18.857 49.0754 18.9552C48.407 19.048 47.5756 18.8489 47.2832 18.5475C47.1161 18.374 46.9086 18.0161 46.9288 17.5371C46.9423 17.2237 47.0434 16.9855 47.2105 16.8187ZM46.662 20.4634C46.8561 20.8495 46.5866 21.724 47.5325 21.4697C48.2602 21.2746 47.9624 20.723 48.2426 20.5374C48.4663 20.3907 48.8288 20.3477 48.9487 20.7688C49.0444 21.1078 48.4838 21.9985 47.8815 22.1586C47.3102 22.3119 46.6243 22.2272 46.3373 22.0106C46.1715 21.8868 45.9519 21.615 45.9182 21.2168C45.8967 20.9571 45.9586 20.7486 46.0867 20.5912C46.2227 20.4243 46.6054 20.3517 46.662 20.4634ZM42.982 16.5173C43.1599 16.3397 43.6019 16.3115 43.6504 16.4554C43.8134 16.9438 43.3782 17.9434 44.4845 17.7874C45.3334 17.6676 45.0787 16.9653 45.4223 16.7878C45.6959 16.6465 46.1109 16.6532 46.1837 17.1725C46.243 17.591 45.4789 18.5637 44.7755 18.6619C44.1085 18.7561 43.3472 18.5475 43.0561 18.2462C42.8877 18.0713 42.6802 17.7147 42.7004 17.2358C42.7152 16.9223 42.8149 16.6842 42.982 16.5173ZM41.8474 20.2427C41.8717 19.9831 41.9687 19.788 42.1223 19.6561C42.2854 19.5162 42.6748 19.5108 42.7112 19.6306C42.8351 20.0449 42.4161 20.8589 43.3917 20.7741C44.1422 20.7096 43.9468 20.1136 44.2554 19.9804C44.5006 19.8741 44.8645 19.8956 44.9089 20.3329C44.944 20.6827 44.2352 21.4603 43.6153 21.5141C43.0251 21.5652 42.3649 21.3607 42.1196 21.097C41.9795 20.9464 41.811 20.6396 41.8474 20.2427ZM40.7209 23.512C40.8139 23.1958 40.9567 22.9739 41.1346 22.838C41.3232 22.694 41.6736 22.5528 41.6884 22.912C41.7113 23.4407 41.2532 24.5063 42.0226 24.4417C42.7462 24.3798 43.1222 23.1272 43.4442 23.0183C43.7016 22.9308 43.8471 23.142 43.7703 23.6869C43.7097 24.1242 42.6734 25.44 42.0819 25.3969C41.5186 25.3552 40.9001 24.9812 40.7438 24.6139C40.6535 24.4027 40.5794 23.9964 40.7209 23.512ZM38.7307 28.2895C38.7495 27.9908 38.8331 27.7661 38.9638 27.6101C39.1039 27.4459 39.3856 27.2509 39.4704 27.5657C39.5944 28.0312 39.3977 29.0671 40.0687 28.8573C40.698 28.6608 40.7843 27.4755 41.0484 27.3154C41.2599 27.1863 41.431 27.3464 41.4701 27.8442C41.5025 28.2451 40.8422 29.6161 40.3086 29.6941C39.8019 29.7681 39.1794 29.5582 38.9678 29.2622C38.8465 29.0927 38.6997 28.7469 38.7307 28.2895ZM39.4233 37.083C38.8829 37.1112 38.2334 36.9094 38.0138 36.5125C37.8871 36.2838 37.7362 35.817 37.7712 35.1994C37.7955 34.7958 37.7618 34.4258 37.902 34.2132C38.0502 33.9899 38.4733 33.7908 38.5582 34.2146C38.6848 34.8415 38.7037 36.199 39.4125 35.9098C40.0782 35.638 39.9448 34.0814 40.225 33.8608C40.4487 33.6859 40.5592 33.9119 40.6643 34.5725C40.7519 35.12 40.4999 37.0278 39.4233 37.083ZM42.2584 40.1881C41.6682 40.1034 40.9945 39.7993 40.8152 39.4118C40.7115 39.1885 40.6172 38.7553 40.7465 38.2292C40.8314 37.8848 40.8503 37.5579 41.0335 37.4032C41.2262 37.239 41.714 37.1516 41.745 37.5364C41.7895 38.1028 41.6089 39.28 42.4188 39.171C43.1801 39.0701 43.2663 37.6978 43.6032 37.5633C43.8714 37.457 43.9563 37.6749 43.9738 38.2669C43.9886 38.7566 43.4334 40.355 42.2584 40.1881ZM45.4722 37.8162C44.8119 37.6722 44.0748 37.2713 43.9037 36.8152C43.8053 36.5529 43.7353 36.0524 43.928 35.4645C44.0533 35.0797 44.1018 34.7097 44.3214 34.5483C44.5559 34.3774 45.1151 34.3182 45.1165 34.7581C45.1191 35.4066 44.8146 36.7305 45.7417 36.674C46.6122 36.6215 46.8251 35.0662 47.2186 34.9425C47.5312 34.8429 47.6093 35.0972 47.5783 35.7726C47.5527 36.3309 46.7887 38.1041 45.4722 37.8162ZM48.0473 40.8541C47.6376 40.8097 47.1714 40.5958 47.0461 40.2998C46.9747 40.1289 46.9086 39.7939 47.0003 39.3769C47.0582 39.1051 47.0717 38.8495 47.1983 38.7216C47.3331 38.5858 47.6713 38.501 47.6929 38.7997C47.7225 39.241 47.5972 40.1679 48.1591 40.0536C48.6873 39.9473 48.748 38.8723 48.9811 38.7553C49.167 38.6625 49.2263 38.8293 49.2384 39.2921C49.2479 39.6742 48.8611 40.9429 48.0473 40.8541ZM43.4779 60.2479C43.4294 60.4403 43.0359 60.7941 42.602 61.0349L41.8137 61.4722L41.6386 63.0476C41.5415 63.9127 41.3044 64.7402 41.1117 64.8841C40.919 65.0294 40.5646 65.0684 40.3234 64.9716C40.0822 64.876 39.8464 64.4818 39.7979 64.0971C39.7494 63.7123 39.6308 63.5159 39.5351 63.6598C39.4381 63.8038 39.2804 64.198 39.1848 64.5343C39.0877 64.872 38.9692 65.2258 38.922 65.3214C38.8735 65.4182 38.6363 65.4572 38.3951 65.4088C38.1553 65.3617 37.8386 65.0469 37.6944 64.7092C37.5503 64.3729 37.3535 63.7822 37.2565 63.3975L37.0813 62.6965L36.9937 63.3975C36.9452 63.7822 36.8267 64.4119 36.731 64.7967L36.5558 65.4976L35.9427 65.1465C35.6045 64.9541 35.1706 64.4038 34.9779 63.9222C34.7852 63.4405 34.6666 62.6925 34.7151 62.2593C34.7636 61.826 34.9213 61.2758 35.0655 61.0349C35.211 60.7941 35.6045 60.4793 35.9427 60.3353C36.2796 60.19 36.9102 59.9546 37.3441 59.8093C37.9572 59.6061 38.2307 59.294 38.5703 58.4101C38.8115 57.7845 39.2063 57.0755 39.4475 56.8346C39.6887 56.5952 39.9636 56.4364 40.0606 56.4848C40.1577 56.5333 40.4326 56.6517 40.6738 56.7472C40.9203 56.8454 41.1885 57.3445 41.2869 57.8854C41.4203 58.6119 41.613 58.8904 42.0765 59.0222C42.4134 59.1191 42.8863 59.3546 43.1275 59.5469C43.3687 59.7393 43.5264 60.0555 43.4779 60.2479ZM50.4889 58.4975C50.7854 58.2608 50.8986 57.7253 50.8393 56.8346C50.7908 56.1135 50.8298 55.2471 50.9269 54.9107C51.0468 54.4923 51.2139 54.3537 51.4524 54.4735C51.6451 54.569 51.9604 55.1596 52.1531 55.7852C52.3458 56.4108 52.6624 57.2383 52.8551 57.623L53.2055 58.3226L53.9938 58.2352C54.6109 58.1666 54.8023 58.0145 54.8696 57.5356C54.9181 57.1979 55.0758 56.7257 55.22 56.4848C55.3655 56.244 55.6808 56.0866 55.922 56.135C56.1673 56.1848 56.4745 56.6059 56.6227 57.097C56.7669 57.5786 57.0432 58.0912 57.2358 58.2352C57.469 58.4087 57.8813 58.2917 58.4634 57.8854C58.9593 57.5383 59.5293 57.3486 59.7772 57.4481C60.0777 57.5679 60.1599 57.8154 60.04 58.2352C59.9443 58.5715 59.4713 59.0841 58.9889 59.372C58.5065 59.6613 57.4029 59.9761 56.5351 60.073C55.6674 60.1685 54.6028 60.2869 54.1689 60.3353C53.735 60.3824 52.8673 60.4228 52.2407 60.4228C51.6141 60.4228 50.7476 60.4618 50.3138 60.5102C49.8799 60.5573 48.4596 60.5573 47.1593 60.5102C45.3199 60.4416 44.6947 60.3057 44.3551 59.8967C44.1139 59.6088 43.5614 59.1756 43.1275 58.9348C42.6937 58.694 42.3002 58.3011 42.2517 58.0603C42.1856 57.7347 42.2975 57.6446 42.6896 57.7105C42.9793 57.7576 43.4119 57.6795 43.6531 57.5356C43.9212 57.3741 44.091 56.8992 44.091 56.3099C44.091 55.7812 44.2096 55.0722 44.3551 54.7358C44.4993 54.3981 44.7351 54.1223 44.8806 54.1223C45.0262 54.1223 45.3011 54.3201 45.4938 54.5609C45.6864 54.8004 45.805 55.7059 45.7565 56.5723C45.708 57.4387 45.8266 58.3442 46.0193 58.585C46.2187 58.8325 46.5596 58.9469 46.8076 58.8473C47.0959 58.733 47.3061 58.1908 47.422 57.2732C47.5177 56.5023 47.7158 55.5969 47.86 55.2605C48.0257 54.8731 48.2844 54.6807 48.5607 54.7358C48.8814 54.7991 49.0458 55.2942 49.1738 56.5723C49.2708 57.5356 49.5066 58.441 49.7006 58.585C49.8947 58.7303 50.2464 58.6913 50.4889 58.4975ZM50.7167 38.0072C50.245 38.1404 49.636 38.1351 49.3718 37.9037C49.2196 37.7705 49.0026 37.4758 48.9258 37.0359C48.8746 36.7493 48.779 36.4964 48.8652 36.3188C48.9555 36.1318 49.2937 35.9031 49.4446 36.1816C49.6683 36.5946 49.9257 37.5404 50.4997 37.1893C51.0387 36.8596 50.6439 35.7981 50.8527 35.5842C51.0198 35.4147 51.1559 35.5506 51.3675 35.9905C51.5413 36.3551 51.6572 37.7422 50.7167 38.0072ZM50.7396 33.7948C50.5698 33.6172 50.342 33.2365 50.2976 32.6956C50.2693 32.3418 50.183 32.027 50.307 31.8211C50.4377 31.6045 50.873 31.3664 51.0239 31.7216C51.2462 32.2449 51.4497 33.4181 52.1841 33.0589C52.8726 32.7212 52.5183 31.3933 52.7945 31.1592C53.0155 30.9735 53.1651 31.1525 53.3699 31.7081C53.5397 32.1683 53.5221 33.8594 52.3539 34.0733C51.769 34.181 51.0333 34.1056 50.7396 33.7948ZM52.653 41.1743C52.2434 41.1299 51.7771 40.916 51.6518 40.62C51.5804 40.4491 51.5144 40.1141 51.6047 39.6971C51.6639 39.4253 51.6774 39.1697 51.8041 39.0419C51.9388 38.906 52.2771 38.8212 52.2973 39.1199C52.3283 39.5612 52.2029 40.4881 52.7648 40.3751C53.2931 40.2689 53.3537 39.1925 53.5868 39.0755C53.7728 38.9827 53.8321 39.1495 53.8442 39.6123C53.8536 39.9944 53.4669 41.2644 52.653 41.1743ZM55.092 38.0557C54.6042 38.0005 54.0423 37.7664 53.8846 37.4516C53.7943 37.2713 53.7054 36.9161 53.7997 36.4802C53.8617 36.195 53.8684 35.9246 54.0153 35.7927C54.1716 35.6542 54.5705 35.5694 54.6042 35.8856C54.6554 36.3511 54.5355 37.3238 55.1998 37.2148C55.8237 37.1139 55.86 35.9824 56.1349 35.864C56.3532 35.7699 56.4287 35.9461 56.457 36.4331C56.4799 36.8368 56.0622 38.1647 55.092 38.0557ZM58.3799 38.8616C58.6062 39.1697 59.0186 40.4303 58.299 40.8232C57.9392 41.0209 57.4326 41.1124 57.1604 40.9402C57.0041 40.842 56.7588 40.6052 56.5931 40.211C56.4866 39.9554 56.3492 39.7374 56.3802 39.5598C56.4125 39.3728 56.6416 39.1091 56.8302 39.3419C57.1092 39.6863 57.5363 40.5177 57.9325 40.1034C58.3044 39.7146 57.7358 38.7983 57.8611 38.5683C57.9608 38.3853 58.105 38.4889 58.3799 38.8616Z" fill="#E63822"/>
<path d="M73.7975 30.676C74.1182 30.8038 74.2597 30.7109 74.323 30.3262C74.3715 30.0369 74.2139 29.2889 73.9727 28.6633C73.7315 28.0377 73.338 27.447 73.0968 27.3515C72.7491 27.2129 72.64 27.3206 72.5713 27.8762C72.5228 28.261 72.6804 29.009 72.9216 29.5391C73.1628 30.0692 73.5563 30.5804 73.7975 30.676Z" fill="#E63822"/>
<path d="M73.7103 43.8006C73.903 44.3778 74.1793 44.9684 74.3235 45.1124C74.4919 45.2806 74.6172 44.9334 74.6738 44.1504C74.7223 43.4764 74.4461 41.8229 74.0607 40.4762C73.6753 39.1294 73.2023 37.3966 73.0096 36.627C72.817 35.8574 72.5016 34.8726 72.3089 34.4394C72.1163 34.0062 71.9195 33.6523 71.871 33.6523C71.8225 33.6523 71.7443 34.1246 71.6958 34.7017C71.6473 35.2789 72.0031 37.3266 72.4841 39.2519C72.9652 41.1771 73.5177 43.2234 73.7103 43.802V43.8006Z" fill="#E63822"/>
<path d="M71.783 31.4614C71.88 31.3174 71.8396 30.6864 71.6954 30.0608C71.5512 29.4352 71.1173 28.6078 70.7319 28.223L70.0312 27.5234L70.1188 28.3105C70.1673 28.7437 70.4032 29.6101 70.6444 30.2357C70.8856 30.8614 71.2009 31.452 71.3451 31.5475C71.4892 31.6444 71.6873 31.604 71.783 31.4601V31.4614Z" fill="#E63822"/>
<path d="M67.4907 42.2243C67.7319 43.0907 68.0863 43.8778 68.279 43.9746C68.5243 44.0971 68.5768 43.6787 68.4542 42.5741C68.3572 41.7077 68.1995 40.6838 68.1039 40.299C68.0068 39.9143 67.771 38.694 67.5783 37.5867C67.3802 36.4458 67.0003 35.309 66.7025 34.9619C66.4127 34.6255 66.1379 34.4278 66.0893 34.5246C66.0408 34.6215 66.2389 36.0382 66.5273 37.6742C66.817 39.3102 67.2509 41.3579 67.4907 42.2243Z" fill="#E63822"/>
<path d="M69.6781 40.9997C69.7751 41.5769 69.9718 42.5227 70.116 43.0999C70.2602 43.677 70.6159 44.3067 70.9043 44.5004L71.4298 44.8502L71.3422 43.3622C71.2937 42.5442 71.0175 40.8113 70.7291 39.513C70.4394 38.2134 70.085 36.5209 69.9408 35.7513C69.7966 34.9818 69.5204 34.2337 69.3277 34.0884C69.0528 33.8826 68.9585 34.1113 68.8898 35.1378C68.8413 35.8603 68.9598 37.238 69.1525 38.1999C69.3452 39.1619 69.5824 40.4225 69.6781 40.9997Z" fill="#E63822"/>
<path d="M81.4218 19.1268C81.3248 19.03 81.1671 19.3461 81.0715 19.8264C80.9745 20.3081 81.1335 21.6468 81.4218 22.8011C81.7115 23.9554 82.105 25.0977 82.2977 25.3385L82.648 25.7758L82.7356 24.9887C82.7841 24.5555 82.547 23.0984 82.2101 21.7517C81.8732 20.405 81.5175 19.2237 81.4218 19.1268Z" fill="#E63822"/>
<path d="M68.9789 30.9362C68.9789 30.4075 68.8603 29.6985 68.7162 29.3608C68.572 29.0244 68.2162 28.5118 67.9279 28.2239L67.4023 27.6992L67.4899 29.011C67.5384 29.7334 67.7743 30.6389 68.0155 31.0237C68.2567 31.4085 68.572 31.7636 68.7162 31.8107C68.8603 31.8578 68.9789 31.465 68.9789 30.9362Z" fill="#E63822"/>
<path d="M63.4587 31.1108C63.5072 30.6775 63.4277 29.8905 63.2835 29.3604C63.1394 28.8317 62.9022 28.3191 62.758 28.2235C62.6058 28.1226 62.4575 28.4926 62.4077 29.0981C62.3551 29.7277 62.5303 30.4986 62.8456 31.0233L63.3711 31.8978L63.4587 31.1108Z" fill="#E63822"/>
<path d="M76.2521 42.9222C76.3963 43.5963 76.6725 44.5797 76.8652 45.1098C77.0579 45.6386 77.4123 46.1902 77.6535 46.3341L78.0914 46.5965L78.0038 45.6345C77.9553 45.1058 77.5619 43.2155 77.128 41.4342C76.6941 39.6543 76.2602 37.8824 76.1645 37.4976C76.0688 37.1128 75.7522 35.9706 75.4638 34.9602C75.1741 33.9498 74.8197 33.0834 74.6755 33.0349C74.5313 32.9865 74.3737 33.4197 74.3252 33.9969C74.2767 34.5741 74.4343 35.9127 74.6755 36.9716C74.9167 38.0304 75.3102 39.5265 75.5514 40.296C75.7926 41.0656 76.1079 42.2468 76.2521 42.9209V42.9222Z" fill="#E63822"/>
<path d="M87.5552 23.937C87.3625 22.9266 87.0081 21.3915 86.7669 20.5251C86.5257 19.6586 86.1323 18.7922 85.8911 18.5998L85.4531 18.25L85.5407 19.3869C85.5892 20.0125 85.7078 20.8399 85.8035 21.2247C85.8992 21.6094 86.2158 23.2239 86.5042 24.8115C86.7939 26.399 87.3059 29.0764 87.6428 30.7608C87.9797 32.4452 88.4931 34.9261 88.7814 36.2728C89.0739 37.633 89.5024 38.8789 89.7449 39.0726L90.1828 39.4224L90.2704 38.1107C90.3189 37.3882 89.9241 34.7902 89.3946 32.3362C88.865 29.8822 88.3125 27.4013 88.1683 26.8242C88.0242 26.247 87.7479 24.9474 87.5552 23.937Z" fill="#E63822"/>
<path d="M83.6989 18.686C83.3418 18.2703 83.145 18.1869 83.0857 18.4237C83.0372 18.6161 83.4711 21.3728 84.0492 24.5479C84.6273 27.7244 85.3765 31.622 85.7147 33.2095C86.0516 34.7971 86.4464 36.53 86.5906 37.0587C86.7348 37.5874 87.0501 38.1781 87.2913 38.3704L87.7292 38.7202L87.4664 36.7075C87.3223 35.6003 87.046 33.9078 86.8533 32.9458C86.6606 31.9839 86.2658 29.9362 85.9775 28.3957C85.6878 26.8553 85.1757 24.1779 84.8388 22.4464C84.4615 20.5064 84.0236 19.0614 83.7002 18.6847L83.6989 18.686Z" fill="#E63822"/>
<path d="M82.3866 28.0508C82.3381 28.0508 82.2195 28.3656 82.1238 28.7504C82.0281 29.1352 81.9877 29.8052 82.0362 30.2384C82.0847 30.6716 82.3205 31.6954 82.5617 32.5134C82.8029 33.3314 83.1573 34.6701 83.35 35.4881C83.5427 36.3061 83.8971 37.1335 84.1383 37.3259L84.5762 37.6757L84.6638 36.8886C84.7123 36.4554 84.4361 34.7226 84.0507 33.0395C83.6653 31.3551 83.1519 29.5442 82.9121 29.0154C82.6709 28.4867 82.4351 28.0535 82.3866 28.0535V28.0508Z" fill="#E63822"/>
<path d="M92.4653 28.3999C92.6579 29.6511 92.9342 31.423 93.0784 32.3365C93.2225 33.2514 93.5783 35.2977 93.8667 36.8866C94.1564 38.4742 94.5108 39.9313 94.6549 40.1236C94.7991 40.316 95.0363 40.5528 95.1805 40.6483C95.3354 40.7519 95.4796 40.5017 95.5308 40.0362C95.5793 39.603 95.4607 38.1459 95.268 36.7992C95.0754 35.4524 94.8382 33.955 94.7425 33.4747C94.6455 32.9931 94.2911 31.2212 93.9542 29.5381C93.6174 27.8537 93.0649 25.4131 92.728 24.1135C92.3911 22.8139 91.9572 21.5936 91.7646 21.4012C91.5058 21.1429 91.46 21.4833 91.5894 22.7129C91.6864 23.6278 91.8441 24.7687 91.9397 25.2504C92.0367 25.732 92.2726 27.1487 92.4653 28.3999Z" fill="#E63822"/>
<path d="M89.3964 20.3493C89.2523 19.9645 88.976 19.5313 88.7833 19.3874C88.5906 19.2434 88.3939 19.125 88.3454 19.125C88.2969 19.125 88.2578 19.5582 88.2578 20.087C88.2578 20.6157 88.5341 22.545 88.8709 24.3747C89.2078 26.2044 89.7994 29.1562 90.1847 30.9362C90.5701 32.7161 91.1617 35.4338 91.4985 36.9729C91.8354 38.5134 92.2693 39.8911 92.462 40.0351C92.7342 40.2382 92.8124 40.0229 92.8124 39.0731C92.8124 38.3991 92.7328 37.3752 92.6372 36.798C92.5402 36.2209 92.1858 34.3696 91.8489 32.6865C91.512 31.0021 90.88 27.6951 90.4461 25.3367C90.0123 22.9782 89.5393 20.7341 89.3951 20.3493H89.3964Z" fill="#E63822"/>
<path d="M76.6035 29.7988L77.0414 30.1486L77.129 29.449C77.1775 29.0643 77.0199 28.2772 76.7787 27.6987C76.5375 27.1215 76.144 26.4515 75.9028 26.2107L75.4648 25.7734V26.7354C75.4648 27.2641 75.6225 28.0915 75.8152 28.5732C76.0079 29.0548 76.3623 29.6051 76.6035 29.7975V29.7988Z" fill="#E63822"/>
<path d="M79.8453 44.0619C79.9423 43.9179 80.0595 43.4457 80.1081 43.0125C80.1566 42.5793 79.9585 41.2016 79.6701 39.9504C79.3804 38.6992 78.9465 37.0457 78.7067 36.2761C78.4668 35.5065 78.1111 34.2863 77.9184 33.5638C77.7257 32.8413 77.4104 32.1727 77.2177 32.0758C76.9616 31.948 76.8431 32.1135 76.7797 32.688C76.7312 33.1212 76.9684 34.6172 77.3053 36.0124C77.6421 37.4076 78.3132 39.8495 78.7956 41.437C79.278 43.0246 79.751 44.2058 79.8466 44.0619H79.8453Z" fill="#E63822"/>
<path d="M66.0003 32.2481L66.1754 31.6359C66.2725 31.2996 66.3115 30.6686 66.263 30.2354C66.2145 29.8021 65.9383 29.1725 65.6499 28.8348C65.3602 28.4985 65.0853 28.2227 65.0368 28.2227C64.9883 28.2227 64.9492 28.7339 64.9492 29.3595C64.9492 29.9851 65.1864 30.8906 65.4747 31.3722L66.0003 32.2467V32.2481Z" fill="#E63822"/>
<path d="M64.1561 65.5835L63.543 65.4961L63.7181 66.1082C63.8152 66.4446 64.1305 66.9182 64.4188 67.1577C64.7086 67.3985 65.2206 67.5559 65.5575 67.5075C65.9563 67.4509 66.2326 67.2061 66.3458 66.8078L66.5209 66.1957L65.6451 65.9333C65.1627 65.7894 64.493 65.632 64.1547 65.5835H64.1561Z" fill="#E63822"/>
<path d="M61.5312 65.7576C61.29 65.5167 60.6203 65.3203 60.0409 65.3203C59.3335 65.3203 58.9319 65.4629 58.8147 65.7576C58.7176 65.9984 58.7581 66.7854 58.9023 67.5079C59.0464 68.2304 59.4413 69.4103 59.7781 70.1328C60.115 70.8552 60.5489 71.5629 60.7416 71.7082C60.9343 71.8522 61.2887 72.0096 61.5299 72.058C61.7711 72.1065 62.1255 71.9087 62.3182 71.6208C62.5109 71.3315 62.6685 70.5445 62.6685 69.8704C62.6685 69.1964 62.5109 68.0945 62.3182 67.4205C62.1255 66.7464 61.7711 65.9984 61.5299 65.7576H61.5312Z" fill="#E63822"/>
<path d="M56.4484 66.458C56.3042 66.1217 55.9094 65.7665 55.5725 65.671C55.2356 65.5741 54.7222 65.4961 54.4339 65.4961C54.1455 65.4961 53.7898 65.6925 53.6456 65.9333C53.5014 66.1742 53.3828 66.8038 53.3828 67.3339C53.3828 67.864 53.4623 68.7694 53.558 69.3466C53.6537 69.9238 53.8908 71.1844 54.0835 72.1464C54.2762 73.1083 54.6306 74.1321 54.8718 74.4214C55.113 74.7107 55.5469 74.9851 55.8353 75.0336C56.125 75.082 56.5589 74.8842 56.7987 74.5963C57.0399 74.3071 57.2757 73.4016 57.3242 72.5836C57.3728 71.7656 57.2542 70.1902 57.0615 69.0842C56.8688 67.977 56.5925 66.7957 56.4484 66.4594V66.458Z" fill="#E63822"/>
<path d="M51.2781 66.0226L49.9643 65.9351L48.6505 65.8477L48.4753 66.4598C48.3783 66.7962 48.3002 67.5052 48.3002 68.0353C48.3002 68.5653 48.2611 69.3524 48.2126 69.7856C48.1641 70.2188 48.125 71.2427 48.125 72.0607C48.125 72.8787 48.2827 74.0209 48.4753 74.5981C48.6761 75.1981 49.0885 75.7982 49.4388 75.9986C49.7757 76.191 50.2096 76.3094 50.4023 76.261C50.595 76.2125 50.8712 75.8197 51.0154 75.3865C51.1596 74.9533 51.3576 73.694 51.4533 72.5867C51.5503 71.4795 51.6285 69.8663 51.6285 68.9999C51.6285 68.1335 51.549 67.1096 51.4533 66.7249L51.2781 66.0252V66.0226Z" fill="#E63822"/>
<path d="M92.0239 62.6953C91.8797 62.6953 91.5644 62.9711 91.3232 63.3075C91.082 63.6438 90.6481 64.4712 90.3598 65.1453C90.07 65.8193 89.2427 67.945 88.5191 69.8703C87.7955 71.7955 87.1648 73.8419 87.1163 74.4204C87.0678 74.9989 87.1864 75.7066 87.3791 75.9958C87.5718 76.2851 87.848 76.4425 87.9922 76.3456C88.1364 76.2488 89.2413 73.4934 90.446 70.2214C91.6507 66.9494 92.6761 64.1147 92.7246 63.9223C92.7731 63.7299 92.6936 63.3761 92.5494 63.1353C92.4053 62.8944 92.1681 62.698 92.0239 62.698V62.6953Z" fill="#E63822"/>
<path d="M63.8081 39.425C63.9523 40.0991 64.1894 41.0825 64.3336 41.6126C64.4778 42.1414 64.754 42.732 64.9467 42.9244L65.2971 43.2742L65.3846 42.3122C65.4332 41.7835 65.196 40.0116 64.8591 38.3756C64.5222 36.7396 64.0883 35.1642 63.8957 34.8763C63.703 34.587 63.5062 34.3516 63.4577 34.3516C63.4092 34.3516 63.3311 34.9032 63.2825 35.5759C63.234 36.2486 63.2731 37.1163 63.3701 37.5011C63.4672 37.8859 63.6639 38.7523 63.8081 39.4264V39.425Z" fill="#E63822"/>
<path d="M83.6128 63.7472C83.4687 63.6503 83.0738 63.8091 82.737 64.097C82.2748 64.4926 82.1454 64.8585 82.2114 65.585C82.2599 66.1137 82.4176 66.6654 82.5618 66.8093C82.7451 66.9923 82.958 66.7003 83.2625 65.8474C83.5037 65.1733 83.7395 64.4656 83.788 64.2719C83.8365 64.0795 83.757 63.8427 83.6128 63.7472Z" fill="#E63822"/>
<path d="M87.8197 64.0107C87.8709 63.5533 87.7604 63.186 87.557 63.1362C87.3643 63.0878 86.9304 63.2855 86.5935 63.5735C86.2566 63.8627 85.7823 64.6498 85.5425 65.3238C85.3013 65.9979 84.986 67.2962 84.8418 68.211C84.6976 69.1259 84.6181 70.2668 84.6666 70.7484C84.7151 71.2301 84.8337 71.6633 84.9294 71.7104C85.025 71.7575 85.3013 71.4036 85.5425 70.9233C85.7837 70.4417 86.2957 69.1824 86.6811 68.1236C87.0665 67.0647 87.4613 65.8835 87.557 65.4987C87.654 65.1139 87.7712 64.4439 87.8197 64.0107Z" fill="#E63822"/>
<path d="M12.8059 68.0329C12.5647 67.2149 12.1308 66.3485 11.8425 66.1077C11.5528 65.8669 11.2374 65.6314 11.1418 65.583C11.0461 65.5345 10.8871 65.692 10.7914 65.9328C10.6944 66.1736 10.7739 67.079 10.9666 67.9455C11.1593 68.8119 11.5932 70.2286 11.9301 71.095C12.2669 71.9615 12.7008 72.8669 12.8935 73.1077L13.2439 73.545L13.419 72.4956C13.5161 71.9184 13.5161 71.013 13.419 70.4829C13.322 69.9542 13.0471 68.8509 12.8059 68.0329Z" fill="#E63822"/>
<path d="M14.9135 65.6701C14.6723 65.4777 14.357 65.3203 14.2128 65.3203C14.0686 65.3203 13.9109 65.6741 13.8624 66.1074C13.8139 66.5406 13.9325 67.3276 14.1252 67.8577C14.3179 68.3865 14.6723 68.9771 14.9135 69.1695L15.3514 69.5193L15.5266 68.6448C15.6236 68.1631 15.6236 67.3761 15.5266 66.8944C15.4296 66.4128 15.1547 65.8625 14.9135 65.6701Z" fill="#E63822"/>
<path d="M35.9396 67.7727C35.6984 67.5803 35.3049 67.3839 35.0637 67.3354C34.8225 67.287 34.3886 67.4848 34.1002 67.7727C33.8105 68.0619 33.4952 68.6916 33.3995 69.1732C33.285 69.745 33.3766 70.1998 33.6623 70.485C33.9035 70.7258 34.3374 70.8832 34.6258 70.8348C34.9141 70.7864 35.3494 70.5105 35.5892 70.2226C35.8304 69.9334 36.1067 69.3427 36.2023 68.9109C36.3182 68.3902 36.2293 68.0054 35.9396 67.774V67.7727Z" fill="#E63822"/>
<path d="M40.7601 67.5977C40.2777 67.5977 39.608 67.7161 39.2698 67.86C38.8763 68.0282 38.4371 68.6242 38.0436 69.5229C37.7067 70.2925 37.3914 71.3957 37.3429 71.9729C37.2944 72.55 37.413 73.22 37.6057 73.4609C37.7983 73.7017 38.2322 73.8591 38.5691 73.8107C38.906 73.7622 39.4585 73.4084 39.7953 73.0236C40.1322 72.6388 40.5661 71.8518 40.7588 71.2733C40.9515 70.6961 41.1887 69.8297 41.2843 69.348C41.3813 68.8664 41.4986 68.2757 41.5471 68.0363C41.6158 67.6932 41.446 67.599 40.7588 67.599L40.7601 67.5977Z" fill="#E63822"/>
<path d="M30.7693 66.8084C30.5752 67.0506 30.5362 67.4018 30.6817 67.5955C30.8259 67.7879 31.1816 67.9063 31.47 67.8578C31.7597 67.8094 32.1141 67.4946 32.2583 67.1582L32.521 66.5461L31.8203 66.4586C31.4228 66.4089 30.9674 66.5609 30.7693 66.8084Z" fill="#E63822"/>
<path d="M44.3556 66.6348C44.1144 66.9711 43.6414 68.5076 43.3045 70.0467C42.9676 71.5872 42.6914 73.3981 42.6914 74.0708C42.6914 74.7865 42.8733 75.4767 43.1293 75.7337C43.3705 75.9745 43.8044 76.1319 44.0928 76.0835C44.3973 76.0323 44.8393 75.591 45.1439 75.0341C45.4336 74.5053 45.7489 73.6779 45.8445 73.1962C45.9402 72.7146 46.0992 71.5737 46.1949 70.6588C46.2906 69.744 46.3701 68.3663 46.3701 67.5967V66.1962L45.5818 66.1087C45.001 66.0442 44.6776 66.1827 44.3556 66.6334V66.6348Z" fill="#E63822"/>
<path d="M18.5901 56.6591C18.7343 56.9955 19.0106 57.4287 19.2032 57.6211L19.5536 57.9709L19.6412 56.3954C19.6897 55.529 19.6506 54.3477 19.5536 53.7706C19.4566 53.1934 19.024 50.9493 18.5901 48.7832C18.1562 46.6171 17.6038 44.0582 17.3639 43.0962C17.1227 42.1343 16.8074 40.8737 16.6632 40.2965C16.519 39.7193 16.0851 38.2232 15.6998 36.972C15.3144 35.7208 14.8414 34.4212 14.6487 34.0848C14.456 33.7485 14.2593 33.4727 14.2108 33.4727C14.1623 33.4727 14.0046 33.7485 13.8604 34.0848C13.7162 34.4212 13.5977 35.0912 13.5977 35.5728C13.5977 36.0545 13.8739 37.3931 14.2108 38.5475C14.5476 39.7018 14.9034 40.9624 14.9991 41.3472C15.0947 41.732 15.6863 44.0945 16.3129 46.5969C16.9394 49.0994 17.6496 52.2489 17.8908 53.597C18.132 54.9437 18.4473 56.3228 18.5915 56.6591H18.5901Z" fill="#E63822"/>
<path d="M28.056 41.0882C28.1045 41.329 28.2231 41.5645 28.3187 41.6129C28.4144 41.6613 28.6125 41.2281 28.7567 40.651C28.9009 40.0738 29.2566 38.2629 29.545 36.6269C29.8347 34.9909 30.0314 33.2984 29.9829 32.8652C29.9344 32.432 29.8562 32.0781 29.8077 32.0781C29.7592 32.0781 29.6016 32.2355 29.4574 32.4279C29.3132 32.6203 28.9979 33.998 28.7567 35.49C28.5155 36.9821 28.2392 38.754 28.1436 39.4266C28.0466 40.1007 28.0075 40.8487 28.056 41.0895V41.0882Z" fill="#E63822"/>
<path d="M10.0896 17.9897C9.67596 18.5575 8.77717 20.9281 7.89861 23.7642C7.07933 26.4105 6.17246 29.3247 5.88275 30.2382C5.59304 31.153 5.08099 32.8455 4.74412 33.9999C4.40724 35.1542 4.0515 36.5723 3.95583 37.1494C3.86016 37.7266 3.81973 38.3172 3.86824 38.4612C3.91675 38.6052 4.23207 38.2903 4.56894 37.7616C4.90582 37.2329 5.53779 35.6574 5.97169 34.2622C6.40558 32.8671 7.31245 30.0323 7.98754 27.9631C8.66264 25.8939 9.49 23.2556 9.82822 22.1013C10.1651 20.9469 10.5599 19.4508 10.7041 18.7768C10.8483 18.1028 10.9278 17.4341 10.8793 17.2888C10.8308 17.1448 10.4764 17.4597 10.091 17.9884L10.0896 17.9897Z" fill="#E63822"/>
<path d="M4.744 46.2493C5.37059 48.6549 6.00121 50.9783 6.14674 51.4116C6.29227 51.8448 6.88248 53.6947 7.46055 55.5231C8.03863 57.3515 8.5911 59.0843 8.68678 59.3722C8.78245 59.6601 9.05868 60.0543 9.29989 60.2467L9.73782 60.5965L9.82541 59.5471C9.87392 58.97 9.55861 57.0407 9.12471 55.2594C8.69082 53.4794 7.98069 50.7617 7.54679 49.2226C7.1129 47.6821 6.44319 45.5174 6.05646 44.4102C5.67108 43.3029 5.1186 42.0046 4.83024 41.5229C4.54053 41.0413 4.22521 40.6484 4.12954 40.6484C4.03387 40.6484 3.87486 40.9242 3.77919 41.2606C3.68217 41.5969 4.11607 43.8411 4.74265 46.248L4.744 46.2493Z" fill="#E63822"/>
<path d="M29.9818 27.1754C30.223 26.5014 30.4588 25.7534 30.5073 25.5125C30.5558 25.2717 30.5167 24.9569 30.4197 24.8129C30.316 24.6582 30.1004 24.8371 29.8942 25.2502C29.7015 25.635 29.3862 26.5014 29.1935 27.1754C29.0008 27.8495 28.8041 28.6365 28.7556 28.9258L28.668 29.4505L29.1059 28.9258C29.3471 28.6365 29.7406 27.8495 29.9818 27.1754Z" fill="#E63822"/>
<path d="M20.1683 30.3267C20.2168 29.7495 20.1373 29.0405 19.9931 28.7513C19.8489 28.462 19.6912 28.2266 19.6427 28.2266C19.5942 28.2266 19.3975 28.5024 19.2048 28.8387C19.0121 29.1751 18.8544 30.5931 18.8544 31.9883C18.8544 33.3834 18.6968 35.5105 18.5041 36.7133C18.3114 37.9161 18.1928 39.2157 18.2413 39.6005C18.2898 39.9853 18.4475 40.3795 18.5917 40.475C18.7359 40.5719 18.9339 40.4535 19.0296 40.2126C19.1266 39.9718 19.3234 38.5148 19.4676 36.9756C19.6117 35.4352 19.8098 33.5462 19.9055 32.7753C20.0025 32.0058 20.1197 30.9025 20.1683 30.3254V30.3267Z" fill="#E63822"/>
<path d="M27.8793 23.6758C27.8307 23.6758 27.5545 24.4238 27.2661 25.3387C26.9764 26.2535 26.6611 27.3164 26.5654 27.7012C26.4684 28.086 26.4294 28.4412 26.4779 28.4882C26.5264 28.5353 26.5264 28.6941 26.4779 28.838C26.4294 28.982 26.587 28.943 26.8282 28.7506C27.0694 28.5582 27.5033 27.4953 27.7917 26.3881C28.0814 25.2808 28.239 24.218 28.142 24.0256C28.045 23.8332 27.9278 23.6758 27.8793 23.6758Z" fill="#E63822"/>
<path d="M19.9045 15.1891C19.8075 15.1407 19.5717 15.4165 19.379 15.8013C19.1863 16.186 18.7133 17.6821 18.3279 19.1257C17.9426 20.5693 17.3119 22.8525 16.9252 24.2005C16.5385 25.5486 16.145 27.0447 16.0493 27.525C15.9523 28.0066 15.9523 28.3605 16.0493 28.312C16.1463 28.2636 16.4212 27.8304 16.6624 27.3501C16.9036 26.8684 17.4157 25.3724 17.8011 24.0256C18.1865 22.6789 18.6999 20.9851 18.9397 20.2639C19.1809 19.5414 19.4962 18.4786 19.6404 17.9014C19.7846 17.3242 19.9422 16.4968 19.9908 16.0636C20.0393 15.6304 20.0002 15.2362 19.9032 15.1891H19.9045Z" fill="#E63822"/>
<path d="M17.2769 14.0508L16.9265 14.7504C16.7338 15.1352 16.0628 17.3403 15.4362 19.6503C14.8096 21.9603 13.9809 24.8341 13.5955 26.0369C13.2101 27.2396 12.7371 28.8151 12.5444 29.5362C12.3518 30.2587 12.1146 31.2812 12.0189 31.8113L11.8438 32.7732L12.3693 32.4234C12.6779 32.2176 13.0754 31.4251 13.3327 30.4982C13.5739 29.6317 14.2841 27.1912 14.9107 25.0736C15.5372 22.9559 16.3659 19.9638 16.7513 18.4246C17.1367 16.8842 17.413 15.271 17.3644 14.8378L17.2769 14.0508Z" fill="#E63822"/>
<path d="M14.2958 15.1892C14.0209 14.9833 13.8309 15.1354 13.4199 15.8888C13.1302 16.4175 12.8149 17.1656 12.7192 17.5517C12.6222 17.9365 12.3069 19.0787 12.0185 20.0891C11.7288 21.0995 11.2167 22.9104 10.8799 24.1132C10.543 25.3159 10.0687 27.0098 9.82883 27.8749C9.58763 28.7413 9.19416 30.2764 8.95295 31.2868C8.71175 32.2972 8.47594 33.5968 8.42743 34.174L8.33984 35.2234L8.86537 34.6112C9.15508 34.2749 9.50947 33.6843 9.65365 33.2995C9.79784 32.9147 10.1927 31.6151 10.5295 30.4123C10.8664 29.2095 11.5375 26.847 12.0199 25.1626C12.5023 23.4781 13.0938 21.4305 13.3337 20.6125C13.5749 19.7945 13.9293 18.6522 14.122 18.0751C14.3146 17.4979 14.5114 16.6705 14.5599 16.2372C14.6084 15.804 14.4898 15.3318 14.2971 15.1878L14.2958 15.1892Z" fill="#E63822"/>
<path d="M9.82692 70.3951C9.58572 69.8179 9.15183 68.7551 8.86346 68.0326C8.56162 67.2778 8.07787 66.5715 7.72483 66.3697C7.25186 66.0993 7.07129 66.1195 6.93654 66.4572C6.83952 66.698 6.80044 67.2886 6.84895 67.7689C6.89746 68.2506 7.25186 69.4318 7.63724 70.3938C8.02262 71.3557 8.5751 72.8518 8.86346 73.7182C9.15317 74.5847 9.66522 75.8049 10.0021 76.4305C10.3686 77.11 10.7567 77.5324 10.9656 77.4799C11.1582 77.4315 11.355 76.9202 11.4035 76.3431C11.452 75.7659 11.2148 74.4272 10.878 73.3684C10.5411 72.3096 10.0668 70.9709 9.82692 70.3938V70.3951Z" fill="#E63822"/>
<path d="M33.8393 35.9234C33.6951 36.9822 33.4971 38.3209 33.4014 38.8981C33.3044 39.4752 33.2653 40.3027 33.3138 40.7359C33.3623 41.1691 33.52 41.5633 33.6641 41.6104C33.8083 41.6588 34.0455 41.344 34.1897 40.9108C34.3339 40.4776 34.571 39.0609 34.7152 37.7612C34.8594 36.4616 35.0575 35.0059 35.1531 34.5242C35.2501 34.0426 35.2501 33.5313 35.1531 33.3874C35.0561 33.2434 34.9389 33.125 34.8904 33.125C34.8419 33.125 34.6451 33.3214 34.4524 33.5623C34.2597 33.8031 33.9835 34.8659 33.8393 35.9248V35.9234Z" fill="#E63822"/>
<path d="M34.8885 25.7741C34.8373 25.5709 34.6164 25.7929 34.363 26.2988C34.1218 26.7804 33.6879 27.7639 33.3996 28.4864C33.1112 29.2089 32.835 30.0739 32.7865 30.4116C32.7379 30.748 32.777 30.9848 32.874 30.9363C32.9711 30.8879 33.3645 30.3376 33.7499 29.712C34.1353 29.0864 34.5692 28.0236 34.7134 27.3495C34.8576 26.6755 34.9371 25.9678 34.8885 25.7741Z" fill="#E63822"/>
<path d="M30.7725 41.2627C30.8735 41.6179 31.0581 41.8009 31.2104 41.7C31.3546 41.6031 31.5527 41.2493 31.6484 40.9129C31.7454 40.5766 32.0203 38.8827 32.2615 37.1512C32.5027 35.4183 32.6212 33.7258 32.5242 33.3895C32.4272 33.0531 32.31 32.7773 32.2615 32.7773C32.213 32.7773 32.0162 33.1312 31.8235 33.5644C31.6308 33.9976 31.3937 35.0995 31.298 36.0143C31.201 36.9292 31.0433 38.0701 30.9477 38.5518C30.8506 39.0334 30.7334 39.7021 30.6849 40.0398C30.6364 40.3775 30.6755 40.9277 30.7725 41.2641V41.2627Z" fill="#E63822"/>
<path d="M30.9473 30.4121C31.0443 30.3637 31.2411 30.0489 31.3853 29.7125C31.5294 29.3762 31.8447 28.5097 32.0859 27.7873C32.3272 27.0648 32.563 26.2387 32.6115 25.9495C32.66 25.6602 32.6209 25.3454 32.5239 25.2499C32.4269 25.153 32.152 25.4288 31.9108 25.862C31.6696 26.2952 31.2761 27.3191 31.0349 28.1371C30.7937 28.9551 30.636 29.8215 30.6846 30.0623C30.7331 30.3031 30.8516 30.4605 30.9473 30.4121Z" fill="#E63822"/>
<path d="M25.599 39.6858C25.5504 40.3114 25.5895 40.941 25.6865 41.0863C25.7836 41.2303 25.9803 41.2706 26.1245 41.1738C26.2687 41.0769 26.4667 40.6047 26.5624 40.1244C26.6594 39.6427 26.8952 38.0686 27.0879 36.625C27.2806 35.1814 27.4774 33.4485 27.5259 32.7758C27.5744 32.1032 27.4949 31.4331 27.3507 31.2878C27.1688 31.1062 27.0071 31.2138 26.8252 31.6376C26.681 31.974 26.3657 33.6678 26.1245 35.3994C25.8833 37.1322 25.6475 39.0615 25.599 39.6871V39.6858Z" fill="#E63822"/>
<path d="M22.185 29.1885C22.088 29.1401 21.8912 29.4549 21.7471 29.8881C21.6029 30.3213 21.3657 31.699 21.2215 32.9502C21.0773 34.2014 20.8793 35.6975 20.7836 36.2747C20.6879 36.8519 20.5693 37.9551 20.5208 38.7246C20.4723 39.4942 20.5114 40.2422 20.6084 40.3875C20.7054 40.5315 20.8631 40.6109 20.9588 40.5624C21.0558 40.514 21.2134 40.1992 21.3091 39.8628C21.4061 39.5265 21.5234 38.6601 21.5719 37.9376C21.6204 37.2151 21.8171 35.68 22.0098 34.5257C22.2025 33.3713 22.4397 31.9533 22.5353 31.3761C22.6324 30.7989 22.6324 30.0899 22.5353 29.8007C22.4383 29.5114 22.2807 29.2369 22.185 29.1885Z" fill="#E63822"/>
<path d="M17.452 34.7007C17.5491 33.8343 17.6272 32.4956 17.6272 31.726C17.6272 30.9565 17.4696 30.2084 17.2769 30.0631C17.0842 29.9192 16.8874 29.8008 16.8389 29.8008C16.7904 29.8008 16.6718 30.273 16.5762 30.8502C16.4805 31.4274 16.4791 32.688 16.5762 33.6499C16.6732 34.6119 16.8699 35.5967 17.0141 35.8375C17.2122 36.1672 17.32 35.886 17.452 34.7007Z" fill="#E63822"/>
<path d="M84.6628 57.7959C84.807 57.8928 85.1223 57.695 85.3635 57.3587C85.6047 57.0223 86.4725 54.9356 87.2918 52.7211C88.1111 50.5066 89.1365 47.6329 89.5704 46.3346C90.0043 45.0363 90.4382 43.4998 90.5339 42.9226C90.6295 42.3455 90.67 41.7939 90.6215 41.6983C90.573 41.6015 90.4544 41.5234 90.3587 41.5234C90.263 41.5234 89.9868 41.9176 89.7456 42.3979C89.5044 42.8796 88.6366 45.1237 87.8173 47.3853C86.998 49.6469 86.0117 52.4816 85.6263 53.6844C85.2409 54.8872 84.807 56.2649 84.6628 56.7465C84.5186 57.2282 84.5186 57.7004 84.6628 57.7959Z" fill="#E63822"/>
<path d="M89.9215 54.472C90.5481 53.0284 91.3364 51.2175 91.6746 50.4479C92.0128 49.6783 92.5249 48.4581 92.8132 47.7356C93.1029 47.0131 93.4573 46.0686 93.6015 45.6354C93.7457 45.2022 93.9438 44.4542 94.0394 43.9725C94.1365 43.4909 94.1755 42.9406 94.127 42.7482C94.0785 42.5558 93.9599 42.3594 93.8643 42.311C93.7686 42.2625 93.4519 42.4993 93.1636 42.8357C92.8739 43.172 92.2823 44.5107 91.8498 45.8103C91.4159 47.11 90.6276 49.2747 90.0967 50.6228C89.5658 51.9709 88.857 53.8598 88.5188 54.8231C88.1819 55.7851 87.8666 56.8883 87.8181 57.2731L87.7305 57.9727L88.256 57.5354C88.5457 57.2946 89.2949 55.9169 89.9215 54.4733V54.472Z" fill="#E63822"/>
<path d="M60.1274 27.8763C60.0789 27.8763 60.0008 28.428 59.9523 29.1007C59.9038 29.7733 60.0223 30.6801 60.215 31.1134C60.4077 31.5466 60.684 32.0188 60.8281 32.1628C61.0128 32.3471 61.1179 32.2166 61.1785 31.7255C61.227 31.3407 61.1879 30.6317 61.0909 30.1501C60.9939 29.6684 60.7581 28.9607 60.5654 28.5746C60.3727 28.1898 60.176 27.875 60.1274 27.875V27.8763Z" fill="#E63822"/>
<path d="M78.0925 24.5503C77.8028 24.0686 77.5279 23.6758 77.4794 23.6758C77.4309 23.6758 77.3527 24.0296 77.3042 24.4628C77.2557 24.896 77.4538 25.8809 77.7421 26.6504C78.0318 27.42 78.4657 28.129 78.7056 28.2259C78.9993 28.3429 79.1732 28.2568 79.2311 27.9635C79.2796 27.7227 79.161 27.0541 78.9684 26.4755C78.7757 25.8984 78.3808 25.0319 78.0925 24.5503Z" fill="#E63822"/>
<path d="M79.7576 22.0115C79.5164 21.7706 79.2806 21.5742 79.2321 21.5742C79.1836 21.5742 79.1445 21.9684 79.1445 22.4487C79.1445 22.929 79.4208 23.9542 79.7576 24.7238C80.0945 25.4933 80.4893 26.2817 80.6335 26.4741C80.8424 26.7526 80.9138 26.68 80.9839 26.1243C81.0324 25.7395 80.8747 24.7547 80.6335 23.9367C80.3923 23.1187 79.9988 22.2523 79.7576 22.0115Z" fill="#E63822"/>
<path d="M22.8828 39.5968C22.8828 40.174 22.9623 40.7646 23.058 40.9086C23.155 41.0525 23.3127 41.1319 23.4083 41.0835C23.504 41.035 23.663 40.7202 23.7587 40.3839C23.8557 40.0475 24.0134 39.0627 24.109 38.1963C24.2061 37.3298 24.4419 35.6763 24.6346 34.522C24.8273 33.3676 24.9849 32.029 24.9849 31.5473C24.9849 31.0657 24.8663 30.5544 24.7221 30.4105C24.5564 30.245 24.3624 30.3096 24.1966 30.5854C24.0524 30.8262 23.6967 32.7165 23.4083 34.7857C23.1186 36.8549 22.8828 39.021 22.8828 39.5981V39.5968Z" fill="#E63822"/>
<path d="M79.3167 56.7466L79.667 56.2219C79.8597 55.9327 80.4122 54.516 80.8932 53.0724C81.3743 51.6288 82.1248 49.503 82.5587 48.3474C82.9926 47.193 83.7028 45.2637 84.1367 44.0596C84.5705 42.8568 84.9654 41.5181 85.0125 41.0849C85.061 40.6517 84.9815 40.2575 84.8374 40.2104C84.6932 40.162 84.3779 40.3598 84.1367 40.6477C83.8954 40.9369 83.5411 41.4872 83.3484 41.872C83.1557 42.2568 82.6827 43.5564 82.2973 44.7592C81.9119 45.962 81.3595 47.6558 81.0711 48.5209C80.7814 49.3873 80.3084 50.9224 80.02 51.9328C79.7303 52.9432 79.415 54.2428 79.3193 54.82C79.2223 55.3972 79.1833 56.0672 79.2318 56.308L79.3193 56.7453L79.3167 56.7466Z" fill="#E63822"/>
<path d="M81.9469 57.8002L82.3849 57.2755C82.6261 56.9863 82.9414 56.3956 83.0856 55.9638C83.2298 55.5305 83.4669 54.7045 83.6111 54.126C83.7553 53.5488 84.1501 52.3285 84.487 51.4137C84.8238 50.4988 85.4949 48.6879 85.9773 47.3896C86.4597 46.0899 87.0903 44.4755 87.38 43.8028C87.6698 43.1287 87.9446 42.3027 87.9932 41.965C88.0417 41.6286 87.9231 41.2344 87.7304 41.0905C87.5377 40.9465 87.3005 40.8281 87.2049 40.8281C87.1092 40.8281 86.872 41.1429 86.6793 41.5277C86.4867 41.9125 86.0918 43.0547 85.8035 44.0651C85.5138 45.0755 84.9222 46.768 84.4897 47.8268C84.0558 48.8857 83.2284 51.1298 82.649 52.8142C82.0709 54.4986 81.5575 56.0727 81.5103 56.3136C81.4618 56.5544 81.5413 56.9876 81.6855 57.2755L81.9483 57.8002H81.9469Z" fill="#E63822"/>
<path d="M14.8245 54.3854C15.0172 55.2034 15.3325 56.4237 15.5252 57.0977C15.7178 57.7718 16.0722 58.4404 16.3134 58.5857C16.5546 58.7297 16.8309 58.8091 16.9266 58.7606C17.0236 58.7122 17.1408 58.3584 17.1893 57.9736C17.2378 57.5888 16.843 55.7779 16.3134 53.9495C15.7839 52.1211 15.1519 49.7976 14.9107 48.7872C14.6695 47.7769 14.2356 45.9256 13.9472 44.6757C13.6575 43.4245 13.1455 41.3378 12.8086 40.0382C12.4717 38.7385 11.9974 37.3218 11.7576 36.8886C11.5164 36.4554 11.1229 36.1016 10.8817 36.1016C10.6405 36.1016 10.3642 36.298 10.2686 36.5388C10.1716 36.7796 10.1325 37.3312 10.181 37.7631C10.2295 38.1963 10.623 39.613 11.0569 40.9127C11.4908 42.2123 12.1605 44.2587 12.5472 45.4628C12.9339 46.6669 13.3274 47.9652 13.4231 48.35C13.5201 48.7348 13.795 49.916 14.0362 50.9748C14.2774 52.0337 14.6318 53.5688 14.8245 54.3868V54.3854Z" fill="#E63822"/>
<path d="M21.2194 18.0756C21.1709 18.0756 20.9741 18.5088 20.7814 19.0375C20.5887 19.5663 20.1939 20.9049 19.9056 22.0122C19.6158 23.1194 19.2615 24.3787 19.1173 24.8119C18.9731 25.2451 18.8154 25.7564 18.7669 25.9488C18.7184 26.1412 18.7575 26.417 18.8545 26.5609C18.9515 26.7049 19.3059 26.1936 19.6428 25.4241C19.9797 24.6545 20.4136 23.4733 20.6063 22.7992C20.7989 22.1252 21.0752 21.1013 21.2194 20.5242C21.3635 19.947 21.4431 19.1599 21.3945 18.7738C21.346 18.3877 21.2679 18.0742 21.2194 18.0742V18.0756Z" fill="#E63822"/>
<path d="M23.9351 27.4387C24.1277 27.2948 24.4821 26.7041 24.7233 26.127C24.9645 25.5498 25.2408 24.604 25.3364 24.0268C25.4335 23.4496 25.393 22.7796 25.2489 22.5388L24.9861 22.1016L24.1978 24.3766C23.7639 25.6278 23.4486 26.8871 23.4971 27.1764C23.5631 27.5746 23.6696 27.6378 23.9351 27.4387Z" fill="#E63822"/>
<path d="M11.9318 51.4088C11.4023 49.3396 10.5345 45.9532 10.0036 43.884C9.47399 41.8148 8.80294 39.7671 8.51322 39.3339C8.22351 38.9007 7.83004 38.5469 7.63735 38.5469C7.44466 38.5469 7.2075 38.8227 7.11183 39.159C7.01481 39.4954 7.01481 40.1654 7.11183 40.647C7.20885 41.1287 7.48374 42.0341 7.72494 42.6597C7.96614 43.2853 8.47819 45.0962 8.86357 46.6838C9.24896 48.2714 10.1167 51.5393 10.7918 53.9462C11.4669 56.3518 12.2552 58.7143 12.5449 59.1959C12.8441 59.6937 13.1836 59.9951 13.3332 59.8955C13.4774 59.7987 13.6351 59.3264 13.6836 58.8461C13.7321 58.3658 13.5744 57.3406 13.3332 56.5711C13.092 55.8015 12.4614 53.478 11.9305 51.4088H11.9318Z" fill="#E63822"/>
<path d="M22.8846 20.875L22.5342 21.4872C22.3415 21.8235 21.9871 22.7693 21.7459 23.5873C21.5047 24.4053 21.2689 25.5475 21.2204 26.1247L21.1328 27.1741L21.5707 26.562C21.812 26.2256 22.2458 25.0834 22.5342 24.0246C22.8239 22.9657 23.0207 21.8235 22.9721 21.4872L22.8846 20.875Z" fill="#E63822"/>
<path d="M79.7559 30.4125C79.6117 30.3641 79.4137 30.6009 79.318 30.9372C79.2223 31.2736 79.2614 32.14 79.4056 32.8625C79.5497 33.585 79.7869 34.4904 79.9311 34.8752C80.0753 35.26 80.2734 35.8896 80.369 36.2757C80.4647 36.6619 80.7019 37.6844 80.8946 38.5508C81.0872 39.4172 81.3635 40.2837 81.5077 40.4761C81.7084 40.7424 81.8122 40.5756 81.9456 39.7765C82.044 39.1899 81.8122 37.2982 81.4201 35.4887C81.0347 33.7087 80.5617 31.8575 80.369 31.3772C80.1763 30.8955 79.9001 30.4623 79.7559 30.4152V30.4125Z" fill="#E63822"/>
</svg>
