<svg width="16" height="13" viewBox="0 0 16 13" fill="none" xmlns="http://www.w3.org/2000/svg">
<path d="M15.3611 3.37178L11.1612 3.06641L7.68164 6.20895L7.90317 12.6027C8.12289 12.5551 8.32986 12.4358 8.48577 12.2447L15.1314 4.09841C15.3039 3.887 15.3785 3.62644 15.3611 3.37178Z" fill="#FFC0FE"/>
<path d="M0.0024634 3.37244C-0.0149429 3.6271 0.0597136 3.88766 0.232214 4.0991L6.87783 12.2454C7.03374 12.4365 7.24071 12.5558 7.46043 12.6034L7.68196 5.61914L4.20245 3.37247L2.46857 2.89062L0.0024634 3.37244Z" fill="#EB2BE8"/>
<path d="M3.06952 0.160156C2.82337 0.263406 2.59706 0.414125 2.40465 0.606562L0.302992 2.70819C0.119336 2.89184 0.0194922 3.12891 0.00292969 3.37131H5.15681L3.06952 0.160156Z" fill="#FFC0FE"/>
<path d="M15.061 2.70816L12.9593 0.606531C12.7669 0.414125 12.5406 0.263406 12.2944 0.160156L10.5654 3.37131H15.361C15.3445 3.12888 15.2446 2.89181 15.061 2.70816Z" fill="#FFAAFC"/>
<path d="M10.4773 1.43834L7.68165 0L5.2918 1.09897L4.20215 3.37266L7.46012 4.4485C7.60593 4.48009 7.75737 4.48009 7.90321 4.4485L11.1612 3.37266L10.4773 1.43834Z" fill="#FFC0FE"/>
<path d="M4.20215 3.37109L7.46013 12.602C7.60594 12.6336 7.75741 12.6336 7.90323 12.602L11.1612 3.37109H4.20215Z" fill="#FFAAFC"/>
<path d="M12.2945 0.161531C12.0427 0.0559375 11.7701 0 11.4918 0H7.68164L11.1611 3.37269L12.2945 0.161531Z" fill="#FC7DF8"/>
<path d="M3.06934 0.1615C3.32115 0.0559062 3.59371 0 3.87205 0H7.68221L4.20271 3.37266L3.06934 0.1615Z" fill="#FFAAFC"/>
</svg>
