<svg width="24" height="24" viewBox="0 0 24 24" fill="none" xmlns="http://www.w3.org/2000/svg">
<path d="M18.332 3.98438C17.2335 3.98438 16.3398 4.87805 16.3398 5.97656C16.3398 7.07508 17.2335 7.96875 18.332 7.96875C18.6791 7.96875 19.0057 7.87931 19.2902 7.72261L18.8662 7.29867C18.6374 7.06983 18.6374 6.69886 18.8662 6.47002C19.0951 6.24117 19.466 6.24117 19.6949 6.47002L20.1061 6.88125C20.2452 6.60956 20.3243 6.3022 20.3243 5.97661C20.3242 4.87805 19.4305 3.98438 18.332 3.98438Z" fill="#F871F6"/>
<path d="M11.5078 6.70388H12.9212L12.2178 4.83984L11.5078 6.70388Z" fill="#F871F6"/>
<path d="M21.7734 0H5.83594C4.60622 0 3.60938 0.996844 3.60938 2.22656V9.72656C3.60938 10.9563 4.60622 11.9531 5.83594 11.9531H7.82812V14.5028C7.82812 15.1292 8.58548 15.4429 9.02845 15L12.0753 11.9531H21.7734C23.0032 11.9531 24 10.9563 24 9.72656V2.22656C24 0.996844 23.0032 0 21.7734 0ZM8.83791 6.51366H7.5V8.55469C7.5 8.87827 7.23764 9.14062 6.91406 9.14062C6.59048 9.14062 6.32812 8.87827 6.32812 8.55469V3.39844C6.32812 3.07486 6.59048 2.8125 6.91406 2.8125H9.00389C9.32747 2.8125 9.58983 3.07486 9.58983 3.39844C9.58983 3.72202 9.32747 3.98438 9.00389 3.98438H7.5V5.34178H8.83791C9.16153 5.34178 9.42384 5.60414 9.42384 5.92772C9.42384 6.2513 9.16153 6.51366 8.83791 6.51366ZM14.4533 9.10289C14.3852 9.12858 14.3152 9.14077 14.2465 9.14077C14.0097 9.14081 13.7867 8.9962 13.6982 8.76155L13.3635 7.87453H11.0615L10.723 8.76324C10.6078 9.06563 10.2693 9.21741 9.96684 9.10223C9.66445 8.98706 9.51267 8.64848 9.62784 8.34609L11.564 3.2625C11.5658 3.25805 11.5675 3.25364 11.5693 3.24919C11.6777 2.98416 11.9328 2.81273 12.2191 2.8125H12.2198C12.5059 2.8125 12.7609 2.98341 12.8697 3.24802C12.8719 3.25327 12.874 3.25866 12.876 3.264L14.7946 8.34783C14.9089 8.65055 14.7561 8.98866 14.4533 9.10289ZM21.344 8.9482C21.1152 9.17705 20.7442 9.17705 20.5154 8.9482L20.1388 8.57161C19.626 8.92978 19.0032 9.14067 18.3316 9.14067C16.587 9.14067 15.1676 7.7213 15.1676 5.97661C15.1676 4.23192 16.587 2.81255 18.3316 2.81255C20.0763 2.81255 21.4957 4.23192 21.4957 5.97661C21.4957 6.62719 21.2982 7.23239 20.9602 7.73573L21.344 8.11955C21.5728 8.34834 21.5728 8.71936 21.344 8.9482Z" fill="#F871F6"/>
<path d="M10.0228 15.9941C9.62348 16.3934 9.09558 16.6134 8.53636 16.6134C7.37044 16.6134 6.42192 15.6664 6.42192 14.5026V13.3591H5.83598C3.83278 13.3591 2.20312 11.7294 2.20312 9.7263V8.79297C0.984281 8.80563 0 9.79712 0 11.0189V18.5189C0 19.7486 0.996844 20.7455 2.22656 20.7455H3.28125V23.2952C3.28125 23.9216 4.03861 24.2353 4.48158 23.7924L7.52845 20.7455H17.2266C18.4563 20.7455 19.4531 19.7486 19.4531 18.5189V13.3591H12.6578L10.0228 15.9941Z" fill="#F871F6"/>
</svg>
