<svg width="24" height="24" viewBox="0 0 24 24" fill="none" xmlns="http://www.w3.org/2000/svg">
<path fill-rule="evenodd" clip-rule="evenodd" d="M4.80825 1.84766C2.82558 1.84766 1.21289 3.45838 1.21289 5.441V15.0306C1.21289 17.0127 2.82563 18.626 4.80825 18.626H17.7621C18.3105 18.626 18.806 18.8303 19.1946 19.2171L22.0097 22.0165C22.2997 22.3051 22.7868 22.1029 22.7868 21.6938V5.441C22.7868 3.45838 21.1735 1.84766 19.1911 1.84766H4.80825ZM16.4623 9.83825C16.4623 8.86841 17.2519 8.07875 18.2227 8.07875C19.1934 8.07875 19.983 8.86836 19.983 9.83825C19.983 10.8084 19.1934 11.5986 18.2227 11.5986C17.2519 11.5986 16.4623 10.8084 16.4623 9.83825ZM11.9998 8.0788C12.97 8.0788 13.7602 8.86841 13.7602 9.83825C13.7602 10.8084 12.97 11.5986 11.9998 11.5986C11.0291 11.5986 10.2395 10.8084 10.2395 9.83825C10.2395 8.86841 11.0291 8.0788 11.9998 8.0788ZM5.77697 8.0788C6.74714 8.0788 7.53731 8.86841 7.53731 9.8383C7.53731 10.8085 6.74709 11.5986 5.77697 11.5986C4.80623 11.5986 4.01634 10.8085 4.01634 9.8383C4.01634 8.86841 4.80623 8.0788 5.77697 8.0788Z" fill="#F871F6"/>
</svg>
