<svg width="30" height="30" viewBox="0 0 30 30" fill="none" xmlns="http://www.w3.org/2000/svg">
<g clip-path="url(#clip0_4222_1225)">
<path d="M29.6731 18.3175C31.4999 10.2311 26.4255 2.19494 18.3391 0.368148C10.2527 -1.45864 2.21652 3.61574 0.38973 11.7021C-1.43706 19.7885 3.63733 27.8247 11.7237 29.6514C19.8101 31.4782 27.8463 26.4038 29.6731 18.3175Z" fill="#FFEAFB"/>
<mask id="mask0_4222_1225" style="mask-type:luminance" maskUnits="userSpaceOnUse" x="0" y="-1" width="31" height="32">
<path d="M29.6731 18.3175C31.4999 10.2311 26.4255 2.19494 18.3391 0.368148C10.2527 -1.45864 2.21652 3.61574 0.38973 11.7021C-1.43706 19.7885 3.63733 27.8247 11.7237 29.6514C19.8101 31.4782 27.8463 26.4038 29.6731 18.3175Z" fill="white"/>
</mask>
<g mask="url(#mask0_4222_1225)">
<path d="M10.5511 7.42109C10.5511 7.42109 9.8741 11.2892 5.22011 14.0981C0.258155 17.0928 3.08559 26.6052 11.775 26.8149C21.2131 27.0432 26.0104 15.2503 20.5546 5.62109L10.5511 7.42109Z" fill="#F5E20F"/>
<path d="M26.2248 23.9753C25.739 22.6797 24.2523 20.978 21.3744 20.5266L16.0089 19.4727L10.6434 20.5266C7.7655 20.978 6.27877 22.6797 5.79293 23.9753L4.66992 29.0514H9.59205L9.95046 29.4629L15.9239 30.639L22.0646 29.0541H27.3478L26.2222 23.978L26.2248 23.9753Z" fill="white"/>
<path d="M10.4766 20.585L16.2934 19.4062L21.7226 20.5691L21.6031 20.6567C18.2845 23.0434 13.8217 22.9346 10.4766 20.5877V20.585Z" fill="#FFE0CF"/>
<path d="M13.1081 11.978C13.1426 12.8435 12.4656 13.5736 11.6001 13.6081C10.7346 13.6426 10.0045 12.9656 9.97001 12.1001C9.9355 11.2346 10.6125 10.5045 11.478 10.47C12.3435 10.4355 13.0736 11.1125 13.1081 11.978Z" fill="#FFE0CF"/>
<path d="M10.6445 11.8267C10.6445 11.8267 11.2658 11.5161 11.8711 12.5939" stroke="#B9635E" stroke-width="0.3" stroke-linecap="round" stroke-linejoin="round"/>
<path d="M18.84 11.9627C18.8479 12.8309 19.5594 13.5264 20.4276 13.5158C21.2957 13.5079 21.9913 12.7964 21.9807 11.9282C21.9727 11.0601 21.2612 10.3645 20.3931 10.3751C19.5249 10.3831 18.8293 11.0946 18.84 11.9627Z" fill="#FFE0CF"/>
<path d="M21.2929 11.6914C21.2929 11.6914 20.6584 11.4127 20.1035 12.5197" stroke="#B9635E" stroke-width="0.3" stroke-linecap="round" stroke-linejoin="round"/>
<path d="M15.9437 13.2145C18.9274 13.1838 21.3228 10.9018 21.2942 8.11756C21.2655 5.33331 18.8235 3.10114 15.8399 3.13187C12.8562 3.16259 10.4607 5.44458 10.4894 8.22883C10.5181 11.0131 12.9601 13.2452 15.9437 13.2145Z" fill="#F5E20F"/>
<path d="M17.5224 15.1078C17.5224 15.1078 16.8507 15.7396 16.2321 15.8989C15.6136 16.0582 15.0056 15.5963 14.9976 15.591C14.9897 15.5857 14.2675 15.0547 14.2675 15.0547L14.0312 20.2264L14.1136 20.3113C15.1782 21.4317 16.6914 21.4317 17.7401 20.3113L17.8941 20.1467L17.5224 15.1078Z" fill="#FFE0CF"/>
<path d="M13.7722 14.375C13.7722 14.375 14.6748 17.3856 16.2279 17.3405C17.5049 17.3033 17.8315 14.4838 17.8315 14.4838L13.7695 14.375H13.7722Z" fill="#1E0B02"/>
<path d="M20.1839 9.01067C20.2105 10.7098 19.9795 12.1779 19.7432 13.2239C19.5122 14.2461 18.8246 14.9682 17.8476 15.5576L17.6697 15.6638C16.637 16.285 15.291 16.3222 14.2211 15.754C13.1432 15.1806 12.3839 14.416 12.137 13.3275C11.6883 11.347 11.6087 9.14607 11.6087 9.14607C11.6087 9.14607 11.2025 4.55581 15.8273 4.56642C20.4521 4.5797 20.1813 9.01333 20.1813 9.01333L20.1839 9.01067Z" fill="#FFE0CF"/>
<path d="M15.5469 11.4102L15.5548 12.0739L16.0088 12.0686" stroke="#B9635E" stroke-width="0.3" stroke-linecap="round" stroke-linejoin="round"/>
<path d="M12.3828 9.05184L14.8253 8.80493C14.8253 8.80493 14.5996 8.17307 13.612 8.28723C12.6005 8.40405 12.3828 9.05184 12.3828 9.05184Z" fill="#F5E20F"/>
<path d="M19.106 8.98388L16.6582 8.78741C16.6582 8.78741 16.8706 8.1529 17.8609 8.24317C18.8724 8.33874 19.106 8.98122 19.106 8.98122V8.98388Z" fill="#F5E20F"/>
<path d="M14.2975 10.5201C14.2975 10.7272 14.1329 10.8971 13.9258 10.8971C13.7187 10.8971 13.5488 10.7325 13.5488 10.5254C13.5488 10.3183 13.7134 10.1484 13.9205 10.1484C14.1276 10.1484 14.2975 10.313 14.2975 10.5201Z" fill="#1E0B02"/>
<path d="M17.9694 10.4811C17.9694 10.6881 17.8048 10.858 17.5977 10.858C17.3906 10.858 17.2207 10.6934 17.2207 10.4864C17.2207 10.2793 17.3853 10.1094 17.5924 10.1094C17.7995 10.1094 17.9694 10.274 17.9694 10.4811Z" fill="#1E0B02"/>
<path d="M14.4199 13.0253C14.4199 13.0253 15.4659 13.5802 17.1359 12.9961" stroke="black" stroke-width="0.66" stroke-linecap="round" stroke-linejoin="round"/>
<path d="M20.1715 7.96741C20.1715 7.96741 13.3671 8.29396 13.614 4.29838C13.614 4.29838 19.529 2.55679 20.1715 7.96741Z" fill="#F5E20F"/>
<path d="M11.4967 8.05725C11.4967 8.05725 13.8781 7.03247 13.8516 4.58203C13.8516 4.58203 11.4038 4.89 11.4967 8.05725Z" fill="#F5E20F"/>
<mask id="mask1_4222_1225" style="mask-type:luminance" maskUnits="userSpaceOnUse" x="4" y="20" width="24" height="10">
<path d="M10.3369 21.0928C13.7963 23.4597 18.357 23.5678 21.8008 21.126C24.1431 21.6588 25.3408 23.0987 25.7461 24.1621L26.7275 28.6426H5.29004L6.27246 24.1621C6.68479 23.0794 7.91448 21.601 10.3369 21.0928Z" fill="white" stroke="white"/>
</mask>
<g mask="url(#mask1_4222_1225)">
<path d="M4.01758 21.1523H27.8344" stroke="#FFFAFD" stroke-miterlimit="10"/>
<path d="M4.01758 22.3945H27.8344" stroke="#FFFAFD" stroke-miterlimit="10"/>
<path d="M4.01758 23.6406H27.8344" stroke="#FFFAFD" stroke-miterlimit="10"/>
<path d="M4.01758 24.8828H27.8344" stroke="#FFFAFD" stroke-miterlimit="10"/>
<path d="M4.01758 26.125H27.8344" stroke="#FFFAFD" stroke-miterlimit="10"/>
<path d="M4.01758 27.3711H27.8344" stroke="#FFFAFD" stroke-miterlimit="10"/>
<path d="M4.01758 28.6133H27.8344" stroke="#FFFAFD" stroke-miterlimit="10"/>
</g>
</g>
</g>
<defs>
<clipPath id="clip0_4222_1225">
<rect width="30" height="30" fill="white"/>
</clipPath>
</defs>
</svg>
