<svg width="30" height="30" viewBox="0 0 30 30" fill="none" xmlns="http://www.w3.org/2000/svg">
<g clip-path="url(#clip0_4222_1199)">
<path d="M25.6666 25.6258C31.5286 19.7638 31.5286 10.2596 25.6666 4.39761C19.8046 -1.4644 10.3004 -1.4644 4.43834 4.39761C-1.42368 10.2596 -1.42368 19.7638 4.43834 25.6258C10.3004 31.4878 19.8046 31.4878 25.6666 25.6258Z" fill="#BACDF7"/>
<mask id="mask0_4222_1199" style="mask-type:luminance" maskUnits="userSpaceOnUse" x="0" y="0" width="31" height="31">
<path d="M25.6666 25.6258C31.5286 19.7638 31.5286 10.2596 25.6666 4.39761C19.8046 -1.4644 10.3004 -1.4644 4.43834 4.39761C-1.42368 10.2596 -1.42368 19.7638 4.43834 25.6258C10.3004 31.4878 19.8046 31.4878 25.6666 25.6258Z" fill="white"/>
</mask>
<g mask="url(#mask0_4222_1199)">
<path d="M29.7706 30.818H0.808594C2.14399 24.8233 5.72807 23.626 5.72807 23.626L12.636 20.395L15.2537 20.3711H15.3254L17.9458 20.395L24.8538 23.626C24.8538 23.626 28.4352 24.8233 29.7706 30.818Z" fill="white"/>
<path d="M16.873 3.17501C16.873 3.17501 19.2837 2.09979 20.1385 4.13076C20.9615 6.08474 17.6934 7.94846 17.6934 7.94846L16.873 3.17236V3.17501Z" fill="#1E0B02"/>
<path d="M12.3646 11.2796C12.3911 12.1823 11.6796 12.9362 10.777 12.9601C9.8743 12.9867 9.12032 12.2752 9.09642 11.3725C9.06987 10.4699 9.78138 9.71589 10.684 9.69199C11.5867 9.6681 12.3407 10.3769 12.3646 11.2796Z" fill="#C67D69"/>
<path d="M9.80078 11.0993C9.80078 11.0993 10.4512 10.7834 11.0698 11.9117" stroke="#A8523F" stroke-width="0.3" stroke-linecap="round" stroke-linejoin="round"/>
<path d="M19.9713 12.9622C20.8745 12.9622 21.6067 12.23 21.6067 11.3268C21.6067 10.4236 20.8745 9.69141 19.9713 9.69141C19.0681 9.69141 18.3359 10.4236 18.3359 11.3268C18.3359 12.23 19.0681 12.9622 19.9713 12.9622Z" fill="#C67D69"/>
<path d="M20.8923 11.0698C20.8923 11.0698 20.2339 10.7725 19.6445 11.9194" stroke="#A8523F" stroke-width="0.3" stroke-linecap="round" stroke-linejoin="round"/>
<path d="M17.45 15.0967C17.45 15.0967 16.5288 15.7471 15.6872 15.9091C14.8456 16.0684 14.0305 15.5825 14.0199 15.5772C14.0093 15.5719 13.0376 15.0117 13.0376 15.0117L12.6367 20.3958L12.7456 20.4861C14.1712 21.6622 16.2234 21.6754 17.665 20.5206L17.8748 20.3507L17.45 15.0993V15.0967Z" fill="#C67D69"/>
<path d="M12.6367 14.4453C12.6367 14.4453 13.5526 17.4453 15.6633 17.4108C17.3969 17.3843 17.6757 14.4453 17.6757 14.4453H12.6367Z" fill="#1E0B02"/>
<path d="M19.7673 8.48076C19.7779 10.3286 19.5204 11.9268 19.2628 13.0604C19.0106 14.1701 18.2885 14.948 17.2637 15.5772L17.0779 15.6914C15.9947 16.3578 14.5929 16.379 13.4858 15.7498C12.3708 15.1153 11.5876 14.2737 11.3407 13.0843C10.8947 10.9232 10.8336 8.5259 10.8336 8.5259C10.8336 8.5259 10.2044 3.52413 15.023 3.5905C19.8389 3.65687 19.7646 8.48076 19.7646 8.48076H19.7673Z" fill="#C67D69"/>
<path d="M13.2223 10.3391C13.4378 10.3391 13.6126 10.1644 13.6126 9.94886C13.6126 9.73332 13.4378 9.55859 13.2223 9.55859C13.0068 9.55859 12.832 9.73332 12.832 9.94886C12.832 10.1644 13.0068 10.3391 13.2223 10.3391Z" fill="#1E0B02"/>
<path d="M17.0485 10.3391C17.264 10.3391 17.4387 10.1644 17.4387 9.94886C17.4387 9.73332 17.264 9.55859 17.0485 9.55859C16.8329 9.55859 16.6582 9.73332 16.6582 9.94886C16.6582 10.1644 16.8329 10.3391 17.0485 10.3391Z" fill="#1E0B02"/>
<path d="M14.7812 10.5156V11.5908H15.4768" stroke="#A8523F" stroke-width="0.3" stroke-linecap="round" stroke-linejoin="round"/>
<path d="M11.7702 8.30045L14.3163 8.07213C14.3163 8.07213 14.0879 7.41107 13.0578 7.51992C12.0039 7.62877 11.7676 8.3031 11.7676 8.3031L11.7702 8.30045Z" fill="black"/>
<path d="M18.3351 8.30045L15.7891 8.07213C15.7891 8.07213 16.0174 7.41107 17.0475 7.51992C18.1015 7.62877 18.3377 8.3031 18.3377 8.3031L18.3351 8.30045Z" fill="black"/>
<path d="M13.9102 12.4844H16.4217C16.4217 12.4844 16.3048 13.2543 15.1287 13.2543C13.9526 13.2543 13.9102 12.4844 13.9102 12.4844Z" fill="white"/>
<path d="M11.0011 10.8938C11.0011 10.8938 11.7153 5.48579 11.3648 4.59375C11.3648 4.59375 8.93826 6.60083 11.0011 10.8938Z" fill="#1E0B02"/>
<path d="M19.5867 10.8497C19.5867 10.8497 18.7849 5.68329 19.0079 4.19922C19.0079 4.19922 21.3495 6.27532 19.5867 10.8497Z" fill="#1E0B02"/>
<path d="M18.8369 3.82759L16.6148 3.49042L16.4183 3.10547L15.2449 3.28334L14.0714 3.10547L13.8749 3.49042L11.6528 3.82759L11.3555 5.01697L11.4298 6.38688C11.4298 6.38688 11.7802 4.83379 13.0041 5.14175C13.2935 5.21343 13.6387 5.33556 14.0422 5.41786C14.4192 5.50016 14.7803 5.53733 15.1174 5.54264C15.1572 5.54264 15.1997 5.54264 15.2395 5.54264C15.2794 5.54264 15.3218 5.54264 15.3617 5.54264C15.7015 5.53733 16.0599 5.50016 16.4369 5.41786C16.8404 5.33556 17.1935 5.23998 17.4749 5.14175C18.6086 4.74618 19.028 6.3152 19.028 6.3152L19.1236 5.01697L18.8263 3.82759H18.8369Z" fill="#1E0B02"/>
<path d="M18.7934 5.17997C18.7934 5.17997 17.3491 6.47024 15.4987 5.47732C15.4987 5.47732 10.7916 8.37643 9.46151 5.21979C8.35443 2.58882 12.9527 -0.984631 17.6969 3.04015L18.7934 5.17732V5.17997Z" fill="#1E0B02"/>
<path d="M12.6362 20.3967L11.0938 21.1055C11.0938 21.1055 11.0778 23.694 15.2699 23.5586C19.5708 23.4206 19.5442 21.1454 19.5442 21.1454L17.8743 20.3516L12.6362 20.3967Z" fill="#C67D69"/>
</g>
</g>
<defs>
<clipPath id="clip0_4222_1199">
<rect width="30" height="30" fill="white"/>
</clipPath>
</defs>
</svg>
