<svg width="30" height="30" viewBox="0 0 30 30" fill="none" xmlns="http://www.w3.org/2000/svg">
<g clip-path="url(#clip0_4222_1262)">
<path d="M15.0106 30.0212C23.3008 30.0212 30.0213 23.3008 30.0213 15.0106C30.0213 6.72048 23.3008 0 15.0106 0C6.72049 0 0 6.72048 0 15.0106C0 23.3008 6.72049 30.0212 15.0106 30.0212Z" fill="#581153"/>
<mask id="mask0_4222_1262" style="mask-type:luminance" maskUnits="userSpaceOnUse" x="0" y="0" width="31" height="31">
<path d="M15.0106 30.0212C23.3008 30.0212 30.0213 23.3008 30.0213 15.0106C30.0213 6.72048 23.3008 0 15.0106 0C6.72049 0 0 6.72048 0 15.0106C0 23.3008 6.72049 30.0212 15.0106 30.0212Z" fill="white"/>
</mask>
<g mask="url(#mask0_4222_1262)">
<path d="M12.1712 10.0883C12.1978 10.991 11.4863 11.745 10.5836 11.7689C9.68094 11.7954 8.92696 11.0839 8.90306 10.1813C8.87651 9.2786 9.58802 8.52461 10.4907 8.50072C11.3933 8.47417 12.1473 9.18568 12.1712 10.0883Z" fill="#FFE0CF"/>
<path d="M9.60938 9.90399C9.60938 9.90399 10.2598 9.58806 10.8784 10.7164" stroke="#C47268" stroke-width="0.3" stroke-linecap="round" stroke-linejoin="round"/>
<path d="M18.1445 10.1315C18.1445 11.0341 18.8773 11.7669 19.7799 11.7669C20.6826 11.7669 21.4153 11.0341 21.4153 10.1315C21.4153 9.22884 20.6826 8.49609 19.7799 8.49609C18.8773 8.49609 18.1445 9.22884 18.1445 10.1315Z" fill="#FFE0CF"/>
<path d="M20.7009 9.87842C20.7009 9.87842 20.0425 9.58107 19.4531 10.728" stroke="#C47268" stroke-width="0.3" stroke-linecap="round" stroke-linejoin="round"/>
<path d="M17.2547 13.9014C17.2547 13.9014 16.3334 14.5518 15.4919 14.7138C14.6503 14.873 13.8352 14.3872 13.8246 14.3819C13.814 14.3766 12.8423 13.8164 12.8423 13.8164L12.4414 19.2005L12.5503 19.2907C13.9759 20.4668 16.0281 20.4801 17.4697 19.3253L17.6795 19.1553L17.2547 13.904V13.9014Z" fill="#FFE0CF"/>
<path d="M12.4414 13.25C12.4414 13.25 13.3573 16.25 15.468 16.2155C17.2016 16.1889 17.4804 13.25 17.4804 13.25H12.4414Z" fill="#1E0B02"/>
<path d="M19.7046 6.31214C19.7152 8.15993 19.3276 10.7325 19.0701 11.8661C18.8179 12.9759 17.8409 13.7537 16.8188 14.3829L16.6329 14.4971C15.5497 15.1635 14.655 15.1847 13.548 14.5555C12.4329 13.921 11.3949 13.0794 11.1506 11.89C10.7046 9.72895 10.3648 8.51568 10.2453 7.36878C10.0462 5.48117 10.1258 1.42188 14.963 1.42188C19.7816 1.42188 19.7046 6.31214 19.7046 6.31214Z" fill="#FFE0CF"/>
<path d="M13.4212 8.75355C13.4212 8.96859 13.2459 9.14381 13.0309 9.14381C12.8158 9.14381 12.6406 8.96859 12.6406 8.75355C12.6406 8.5385 12.8158 8.36328 13.0309 8.36328C13.2459 8.36328 13.4212 8.5385 13.4212 8.75355Z" fill="#1E0B02"/>
<path d="M17.2434 8.75355C17.2434 8.96859 17.0682 9.14381 16.8532 9.14381C16.6381 9.14381 16.4629 8.96859 16.4629 8.75355C16.4629 8.5385 16.6381 8.36328 16.8532 8.36328C17.0682 8.36328 17.2434 8.5385 17.2434 8.75355Z" fill="#1E0B02"/>
<path d="M14.5898 9.76953V10.3961H15.0969" stroke="#C47268" stroke-width="0.3" stroke-linecap="round" stroke-linejoin="round"/>
<path d="M11.5788 7.10514L14.1248 6.87682C14.1248 6.87682 13.8965 6.21576 12.8664 6.3246C11.8125 6.43345 11.5762 7.10779 11.5762 7.10779L11.5788 7.10514Z" fill="black"/>
<path d="M18.1437 7.10514L15.5977 6.87682C15.5977 6.87682 15.826 6.21576 16.8561 6.3246C17.91 6.43345 18.1463 7.10779 18.1463 7.10779L18.1437 7.10514Z" fill="black"/>
<path d="M27.6751 30.5528H2.34766C2.8096 28.636 3.28483 26.9315 3.75474 25.6041C4.45031 23.6448 5.4512 22.4979 6.27952 21.8448C7.10519 21.1891 7.75828 21.0245 7.75828 21.0245L9.51581 20.2891L20.6344 20.2997L22.2645 21.0245C22.2645 21.0245 24.8769 21.6829 26.268 25.6041C26.738 26.9315 27.2132 28.636 27.6751 30.5528Z" fill="white"/>
<path d="M15.2096 17.9453L20.6362 20.2975C20.6362 20.2975 15.0609 25.3365 9.51758 20.2869L15.2096 17.9453Z" fill="#FFE0CF"/>
<path d="M9.51562 20.2891C9.51562 20.2891 11.4484 22.5749 15.0617 22.5749C18.6749 22.5749 20.6342 20.2997 20.6342 20.2997" stroke="white" stroke-width="1.94" stroke-miterlimit="10"/>
<path d="M19.1945 9.70036C19.1945 9.70036 19.1096 9.65523 18.8096 10.1331C18.5096 10.611 18.268 11.8906 18.268 11.8906C18.268 11.8906 17.9839 11.2933 17.2379 10.9083C16.5556 10.5579 15.122 10.7517 14.8777 10.7889C14.4981 10.7225 13.6034 10.6136 13.0273 10.9083C12.2812 11.2933 11.9972 11.8906 11.9972 11.8906C11.9972 11.8906 11.7556 10.611 11.4556 10.1331C11.1556 9.65523 11.0706 9.70036 11.0706 9.70036C11.0706 9.70036 10.914 12.1906 11.583 13.6694C12.1697 14.9676 14.4211 15.5066 14.9574 15.5331C14.9574 15.5331 18.0105 15.1481 18.6795 13.6694C19.3485 12.1906 19.1919 9.70036 19.1919 9.70036H19.1945Z" fill="#A74B22"/>
<path d="M13.7188 11.2891H16.2303C16.2303 11.2891 16.1134 12.059 14.9373 12.059C13.7612 12.059 13.7188 11.2891 13.7188 11.2891Z" fill="white"/>
</g>
</g>
<defs>
<clipPath id="clip0_4222_1262">
<rect width="30" height="30" fill="white"/>
</clipPath>
</defs>
</svg>
