<svg width="20" height="20" viewBox="0 0 20 20" fill="none" xmlns="http://www.w3.org/2000/svg">
<path d="M9.50007 9.75781C8.88323 9.75931 8.2734 9.62711 7.71257 9.37031C7.65492 9.08642 7.62561 8.7975 7.62507 8.50781C7.62389 8.30905 7.63852 8.11051 7.66882 7.91406C7.81225 6.86694 8.3299 5.90713 9.12609 5.21205C9.92227 4.51697 10.9432 4.1336 12.0001 4.13281C12.1251 4.13281 12.2501 4.13281 12.3751 4.13281C12.8645 4.16804 13.3433 4.29304 13.7876 4.50156C13.9184 5.13773 13.9059 5.79503 13.7511 6.42578C13.5963 7.05653 13.303 7.6449 12.8924 8.14818C12.4819 8.65145 11.9645 9.05702 11.3777 9.33544C10.7909 9.61385 10.1495 9.75814 9.50007 9.75781ZM16.0501 13.5078H13.8751C12.7124 13.5085 11.5785 13.8694 10.6294 14.541C9.68032 15.2125 8.96262 16.1616 8.57507 17.2578C8.42868 17.6612 8.33214 18.081 8.28757 18.5078H15.1251C15.6223 18.5078 16.0993 18.3103 16.4509 17.9586C16.8025 17.607 17.0001 17.1301 17.0001 16.6328C17.0017 15.5198 16.6709 14.4316 16.0501 13.5078Z" fill="#FBA6F9"/>
<path d="M16.05 13.507C15.5339 12.7405 14.838 12.1119 14.0231 11.6761C13.2083 11.2404 12.2991 11.0107 11.375 11.007H7.625C6.13316 11.007 4.70242 11.5997 3.64752 12.6546C2.59263 13.7095 2 15.1402 2 16.632C2 17.1293 2.19754 17.6062 2.54917 17.9579C2.90081 18.3095 3.37772 18.507 3.875 18.507H15.125C15.6223 18.507 16.0992 18.3095 16.4508 17.9579C16.8025 17.6062 17 17.1293 17 16.632C17.0017 15.519 16.6709 14.4308 16.05 13.507ZM15.125 17.257H3.875C3.70924 17.257 3.55027 17.1912 3.43306 17.074C3.31585 16.9568 3.25 16.7978 3.25 16.632C3.25 15.4717 3.71094 14.3589 4.53141 13.5385C5.35188 12.718 6.46468 12.257 7.625 12.257H11.375C12.025 12.2595 12.666 12.4091 13.25 12.6945C13.6891 12.8926 14.0892 13.1678 14.4312 13.507C14.848 13.9139 15.1793 14.3999 15.4058 14.9365C15.6322 15.4732 15.7493 16.0496 15.75 16.632C15.75 16.7978 15.6842 16.9568 15.5669 17.074C15.4497 17.1912 15.2908 17.257 15.125 17.257ZM13.7875 4.51954C13.6407 3.78336 13.307 3.09733 12.8184 2.52743C12.3298 1.95753 11.7028 1.52293 10.9977 1.26544C10.2925 1.00794 9.53301 0.936214 8.79214 1.05715C8.05128 1.17808 7.35399 1.4876 6.76734 1.95596C6.1807 2.42431 5.72443 3.03573 5.44242 3.73142C5.16041 4.4271 5.06214 5.18365 5.15708 5.92829C5.25201 6.67294 5.53695 7.38063 5.98449 7.9833C6.43203 8.58598 7.02711 9.06336 7.7125 9.36954C8.27334 9.62634 8.88317 9.75854 9.5 9.75704C10.1475 9.7568 10.787 9.61282 11.3721 9.33549C11.9572 9.05816 12.4735 8.6544 12.8837 8.15334C13.2939 7.65228 13.5877 7.06641 13.744 6.43802C13.9003 5.80963 13.9152 5.15437 13.7875 4.51954ZM9.5 8.50704C8.6712 8.50704 7.87634 8.1778 7.29029 7.59175C6.70424 7.0057 6.375 6.21084 6.375 5.38204C6.375 4.55324 6.70424 3.75839 7.29029 3.17233C7.87634 2.58628 8.6712 2.25704 9.5 2.25704C10.3288 2.25704 11.1237 2.58628 11.7097 3.17233C12.2958 3.75839 12.625 4.55324 12.625 5.38204C12.625 6.21084 12.2958 7.0057 11.7097 7.59175C11.1237 8.1778 10.3288 8.50704 9.5 8.50704Z" fill="#231F20"/>
</svg>
