<svg width="172" height="50" viewBox="0 0 172 50" fill="none" xmlns="http://www.w3.org/2000/svg">
<g clip-path="url(#clip0_2434_1187)">
<path d="M46.2227 9.77539H3.83984C1.74023 9.77539 0.03125 11.4844 0.03125 13.584V27.9297C0.03125 30.0293 1.74023 31.7383 3.83984 31.7383H5.44141H44.6309H46.2227C48.3223 31.7383 50.0312 30.0293 50.0312 27.9297V13.5742C50.0312 11.4746 48.3223 9.77539 46.2227 9.77539ZM6.21289 30.166V28.2324C6.21289 27.7832 6.57422 27.4219 7.02344 27.4219H43.0391C43.4883 27.4219 43.8496 27.7832 43.8496 28.2324V30.166H6.21289ZM48.4688 27.9199C48.4688 29.1602 47.4629 30.166 46.2227 30.166H45.4023V28.2324C45.4023 26.9238 44.3379 25.8594 43.0293 25.8594H7.02344C5.71484 25.8594 4.65039 26.9238 4.65039 28.2324V30.166H3.83984C2.59961 30.166 1.59375 29.1602 1.59375 27.9199V13.5742C1.59375 12.334 2.59961 11.3281 3.83984 11.3281H46.2227C47.4629 11.3281 48.4688 12.334 48.4688 13.5742V27.9199Z" fill="#231F20"/>
<path d="M28.5254 13.7695H21.5234C21.0938 13.7695 20.7422 14.1211 20.7422 14.5508C20.7422 14.9805 21.0938 15.332 21.5234 15.332H28.5254C28.9551 15.332 29.3066 14.9805 29.3066 14.5508C29.3066 14.1211 28.9551 13.7695 28.5254 13.7695Z" fill="#231F20"/>
<path d="M43.5566 24.2871C44.1445 24.2871 44.6211 23.8105 44.6211 23.2227C44.6211 22.6348 44.1445 22.1582 43.5566 22.1582C42.9688 22.1582 42.4922 22.6348 42.4922 23.2227C42.4922 23.8105 42.9688 24.2871 43.5566 24.2871Z" fill="#231F20"/>
<path d="M39.8457 24.2871C40.4336 24.2871 40.9102 23.8105 40.9102 23.2227C40.9102 22.6348 40.4336 22.1582 39.8457 22.1582C39.2578 22.1582 38.7812 22.6348 38.7812 23.2227C38.7812 23.8105 39.2578 24.2871 39.8457 24.2871Z" fill="#231F20"/>
<path d="M10.2779 32.5782C9.84817 32.6563 9.56497 33.0567 9.64309 33.4864C9.65286 33.5157 10.1216 36.4453 7.03567 38.8282C6.69387 39.0918 6.63528 39.5801 6.89895 39.9219C7.0552 40.1172 7.27981 40.2246 7.51419 40.2246C7.6802 40.2246 7.84622 40.1758 7.9927 40.0586C11.8208 37.0996 11.2154 33.3594 11.1861 33.2032C11.1079 32.7832 10.6978 32.5 10.2779 32.5782Z" fill="#231F20"/>
<path d="M25.0312 32.5684C24.6016 32.5684 24.25 32.9199 24.25 33.3496V39.4531C24.25 39.8828 24.6016 40.2344 25.0312 40.2344C25.4609 40.2344 25.8125 39.8828 25.8125 39.4531V33.3496C25.8125 32.9199 25.4609 32.5684 25.0312 32.5684Z" fill="#231F20"/>
<path d="M18.6666 32.5684C18.2369 32.5293 17.856 32.8516 17.8267 33.2813C17.8267 33.3106 17.524 36.7188 16.1958 39.0625C15.981 39.4336 16.1177 39.9121 16.4888 40.127C16.606 40.1953 16.7427 40.2246 16.8697 40.2246C17.1431 40.2246 17.4068 40.0782 17.5533 39.8243C19.0474 37.1778 19.3599 33.5547 19.3794 33.4082C19.4185 32.9883 19.0962 32.6075 18.6666 32.5684Z" fill="#231F20"/>
<path d="M43.0303 38.8281C39.9834 36.4746 40.4033 33.6133 40.4228 33.4766C40.4912 33.0567 40.208 32.6465 39.7881 32.5781C39.3584 32.5 38.958 32.7832 38.8799 33.2129C38.8506 33.3692 38.2451 37.1094 42.0732 40.0684C42.2197 40.1758 42.3857 40.2344 42.5517 40.2344C42.7861 40.2344 43.0205 40.127 43.167 39.9317C43.4307 39.5801 43.3721 39.0918 43.0303 38.8281Z" fill="#231F20"/>
<path d="M32.2356 33.2813C32.1966 32.8516 31.8255 32.5293 31.3958 32.5684C30.9661 32.6075 30.6438 32.9786 30.6829 33.4082C30.6927 33.5645 31.0149 37.1875 32.5091 39.8243C32.6556 40.0782 32.9192 40.2246 33.1927 40.2246C33.3196 40.2246 33.4563 40.1953 33.5735 40.127C33.9446 39.9121 34.0813 39.4336 33.8665 39.0625C32.5384 36.7188 32.2356 33.3203 32.2356 33.2813Z" fill="#231F20"/>
</g>
<path d="M70.0312 30L74.4973 20.13H76.0093L80.5313 30H78.6973L77.4933 27.228L78.2213 27.718H72.2993L73.0553 27.228L71.8513 30H70.0312ZM75.2393 22.062L73.2653 26.738L72.9013 26.304H77.6053L77.3113 26.738L75.2953 22.062H75.2393ZM81.4833 30V22.93H83.2333V30H81.4833ZM81.3853 21.6V19.892H83.3313V21.6H81.3853ZM85.1196 30V24.736C85.1196 24.4373 85.1103 24.134 85.0916 23.826C85.0823 23.518 85.059 23.2193 85.0216 22.93H86.7156L86.9116 24.862H86.6316C86.725 24.3953 86.879 24.008 87.0936 23.7C87.3176 23.392 87.5883 23.1633 87.9056 23.014C88.223 22.8647 88.5683 22.79 88.9416 22.79C89.1096 22.79 89.245 22.7993 89.3476 22.818C89.4503 22.8273 89.553 22.8507 89.6556 22.888L89.6416 24.428C89.4643 24.3533 89.3103 24.3067 89.1796 24.288C89.0583 24.2693 88.9043 24.26 88.7176 24.26C88.3163 24.26 87.9756 24.344 87.6956 24.512C87.425 24.68 87.2196 24.9133 87.0796 25.212C86.949 25.5107 86.8836 25.8513 86.8836 26.234V30H85.1196ZM93.7684 30.14C93.0404 30.14 92.401 29.9907 91.8504 29.692C91.309 29.3933 90.889 28.9687 90.5904 28.418C90.2917 27.858 90.1424 27.1953 90.1424 26.43C90.1424 25.6647 90.2917 25.0113 90.5904 24.47C90.8984 23.9287 91.323 23.5133 91.8644 23.224C92.4057 22.9347 93.0404 22.79 93.7684 22.79C94.235 22.79 94.6877 22.8647 95.1264 23.014C95.5744 23.154 95.9384 23.3593 96.2184 23.63L95.6864 24.848C95.4344 24.6147 95.1497 24.442 94.8324 24.33C94.5244 24.2087 94.221 24.148 93.9224 24.148C93.297 24.148 92.807 24.344 92.4524 24.736C92.107 25.128 91.9344 25.6973 91.9344 26.444C91.9344 27.1907 92.107 27.7647 92.4524 28.166C92.807 28.5673 93.297 28.768 93.9224 28.768C94.2117 28.768 94.5104 28.712 94.8184 28.6C95.1357 28.488 95.425 28.3153 95.6864 28.082L96.2184 29.286C95.929 29.5567 95.5604 29.7667 95.1124 29.916C94.6737 30.0653 94.2257 30.14 93.7684 30.14ZM100.63 30.14C99.9023 30.14 99.2723 29.9907 98.7403 29.692C98.2083 29.3933 97.793 28.9687 97.4943 28.418C97.205 27.8673 97.0603 27.214 97.0603 26.458C97.0603 25.702 97.205 25.0533 97.4943 24.512C97.793 23.9613 98.2083 23.5367 98.7403 23.238C99.2723 22.9393 99.9023 22.79 100.63 22.79C101.358 22.79 101.988 22.9393 102.52 23.238C103.062 23.5367 103.477 23.9613 103.766 24.512C104.065 25.0533 104.214 25.702 104.214 26.458C104.214 27.214 104.065 27.8673 103.766 28.418C103.477 28.9687 103.062 29.3933 102.52 29.692C101.988 29.9907 101.358 30.14 100.63 30.14ZM100.63 28.796C101.181 28.796 101.62 28.6047 101.946 28.222C102.273 27.83 102.436 27.242 102.436 26.458C102.436 25.674 102.273 25.0907 101.946 24.708C101.62 24.3253 101.181 24.134 100.63 24.134C100.08 24.134 99.641 24.3253 99.3143 24.708C98.9877 25.0907 98.8243 25.674 98.8243 26.458C98.8243 27.242 98.9877 27.83 99.3143 28.222C99.641 28.6047 100.08 28.796 100.63 28.796ZM105.723 30V24.694C105.723 24.4047 105.714 24.1107 105.695 23.812C105.677 23.5133 105.649 23.2193 105.611 22.93H107.305L107.445 24.33H107.277C107.501 23.8353 107.833 23.4573 108.271 23.196C108.71 22.9253 109.219 22.79 109.797 22.79C110.628 22.79 111.253 23.0233 111.673 23.49C112.093 23.9567 112.303 24.6847 112.303 25.674V30H110.553V25.758C110.553 25.1887 110.441 24.7827 110.217 24.54C110.003 24.288 109.676 24.162 109.237 24.162C108.696 24.162 108.267 24.33 107.949 24.666C107.632 25.002 107.473 25.45 107.473 26.01V30H105.723ZM116.903 30.14C116.287 30.14 115.741 29.9953 115.265 29.706C114.798 29.4073 114.434 28.9827 114.173 28.432C113.912 27.8813 113.781 27.2233 113.781 26.458C113.781 25.6927 113.912 25.0393 114.173 24.498C114.434 23.9473 114.798 23.5273 115.265 23.238C115.741 22.9393 116.287 22.79 116.903 22.79C117.491 22.79 118.009 22.9347 118.457 23.224C118.914 23.504 119.218 23.8867 119.367 24.372H119.185V19.696H120.935V30H119.213V28.502H119.381C119.232 29.006 118.928 29.4073 118.471 29.706C118.023 29.9953 117.5 30.14 116.903 30.14ZM117.393 28.796C117.944 28.796 118.387 28.6047 118.723 28.222C119.059 27.83 119.227 27.242 119.227 26.458C119.227 25.674 119.059 25.0907 118.723 24.708C118.387 24.3253 117.944 24.134 117.393 24.134C116.842 24.134 116.394 24.3253 116.049 24.708C115.713 25.0907 115.545 25.674 115.545 26.458C115.545 27.242 115.713 27.83 116.049 28.222C116.394 28.6047 116.842 28.796 117.393 28.796ZM122.841 30V22.93H124.591V30H122.841ZM122.743 21.6V19.892H124.689V21.6H122.743ZM129.515 30.14C128.675 30.14 128.04 29.9207 127.611 29.482C127.182 29.0433 126.967 28.3853 126.967 27.508V24.246H125.609V22.93H126.967V21.124L128.717 20.676V22.93H130.607V24.246H128.717V27.396C128.717 27.8813 128.81 28.222 128.997 28.418C129.184 28.614 129.44 28.712 129.767 28.712C129.944 28.712 130.094 28.698 130.215 28.67C130.346 28.642 130.472 28.6047 130.593 28.558V29.944C130.434 30.0093 130.257 30.056 130.061 30.084C129.874 30.1213 129.692 30.14 129.515 30.14ZM131.796 30V22.93H133.546V30H131.796ZM131.698 21.6V19.892H133.644V21.6H131.698ZM138.638 30.14C137.91 30.14 137.28 29.9907 136.748 29.692C136.216 29.3933 135.801 28.9687 135.502 28.418C135.213 27.8673 135.068 27.214 135.068 26.458C135.068 25.702 135.213 25.0533 135.502 24.512C135.801 23.9613 136.216 23.5367 136.748 23.238C137.28 22.9393 137.91 22.79 138.638 22.79C139.366 22.79 139.996 22.9393 140.528 23.238C141.069 23.5367 141.485 23.9613 141.774 24.512C142.073 25.0533 142.222 25.702 142.222 26.458C142.222 27.214 142.073 27.8673 141.774 28.418C141.485 28.9687 141.069 29.3933 140.528 29.692C139.996 29.9907 139.366 30.14 138.638 30.14ZM138.638 28.796C139.189 28.796 139.627 28.6047 139.954 28.222C140.281 27.83 140.444 27.242 140.444 26.458C140.444 25.674 140.281 25.0907 139.954 24.708C139.627 24.3253 139.189 24.134 138.638 24.134C138.087 24.134 137.649 24.3253 137.322 24.708C136.995 25.0907 136.832 25.674 136.832 26.458C136.832 27.242 136.995 27.83 137.322 28.222C137.649 28.6047 138.087 28.796 138.638 28.796ZM143.731 30V24.694C143.731 24.4047 143.722 24.1107 143.703 23.812C143.685 23.5133 143.657 23.2193 143.619 22.93H145.313L145.453 24.33H145.285C145.509 23.8353 145.841 23.4573 146.279 23.196C146.718 22.9253 147.227 22.79 147.805 22.79C148.636 22.79 149.261 23.0233 149.681 23.49C150.101 23.9567 150.311 24.6847 150.311 25.674V30H148.561V25.758C148.561 25.1887 148.449 24.7827 148.225 24.54C148.011 24.288 147.684 24.162 147.245 24.162C146.704 24.162 146.275 24.33 145.957 24.666C145.64 25.002 145.481 25.45 145.481 26.01V30H143.731ZM152.167 30V22.93H153.917V30H152.167ZM152.069 21.6V19.892H154.015V21.6H152.069ZM155.817 30V24.694C155.817 24.4047 155.808 24.1107 155.789 23.812C155.771 23.5133 155.743 23.2193 155.705 22.93H157.399L157.539 24.33H157.371C157.595 23.8353 157.927 23.4573 158.365 23.196C158.804 22.9253 159.313 22.79 159.891 22.79C160.722 22.79 161.347 23.0233 161.767 23.49C162.187 23.9567 162.397 24.6847 162.397 25.674V30H160.647V25.758C160.647 25.1887 160.535 24.7827 160.311 24.54C160.097 24.288 159.77 24.162 159.331 24.162C158.79 24.162 158.361 24.33 158.043 24.666C157.726 25.002 157.567 25.45 157.567 26.01V30H155.817ZM167.529 33.136C166.875 33.136 166.283 33.066 165.751 32.926C165.228 32.786 164.761 32.5713 164.351 32.282L164.729 31.022C164.999 31.1993 165.279 31.344 165.569 31.456C165.858 31.568 166.157 31.652 166.465 31.708C166.773 31.764 167.085 31.792 167.403 31.792C168.056 31.792 168.541 31.6287 168.859 31.302C169.185 30.9847 169.349 30.5273 169.349 29.93V28.236H169.489C169.339 28.7213 169.036 29.1087 168.579 29.398C168.131 29.6873 167.613 29.832 167.025 29.832C166.39 29.832 165.835 29.692 165.359 29.412C164.892 29.1227 164.528 28.712 164.267 28.18C164.005 27.648 163.875 27.0227 163.875 26.304C163.875 25.5853 164.005 24.9647 164.267 24.442C164.528 23.91 164.892 23.504 165.359 23.224C165.835 22.9347 166.39 22.79 167.025 22.79C167.622 22.79 168.14 22.9347 168.579 23.224C169.027 23.504 169.325 23.8867 169.475 24.372L169.349 24.288L169.489 22.93H171.183C171.145 23.2193 171.117 23.5133 171.099 23.812C171.08 24.1107 171.071 24.4047 171.071 24.694V29.72C171.071 30.8307 170.767 31.6753 170.161 32.254C169.563 32.842 168.686 33.136 167.529 33.136ZM167.501 28.488C168.061 28.488 168.504 28.3013 168.831 27.928C169.167 27.5453 169.335 27.004 169.335 26.304C169.335 25.604 169.167 25.0673 168.831 24.694C168.504 24.3207 168.061 24.134 167.501 24.134C166.931 24.134 166.479 24.3207 166.143 24.694C165.807 25.0673 165.639 25.604 165.639 26.304C165.639 27.004 165.807 27.5453 166.143 27.928C166.479 28.3013 166.931 28.488 167.501 28.488Z" fill="#4D4D4D"/>
<path d="M70.0312 30L74.4973 20.13H76.0093L80.5313 30H78.6973L77.4933 27.228L78.2213 27.718H72.2993L73.0553 27.228L71.8513 30H70.0312ZM75.2393 22.062L73.2653 26.738L72.9013 26.304H77.6053L77.3113 26.738L75.2953 22.062H75.2393ZM81.4833 30V22.93H83.2333V30H81.4833ZM81.3853 21.6V19.892H83.3313V21.6H81.3853ZM85.1196 30V24.736C85.1196 24.4373 85.1103 24.134 85.0916 23.826C85.0823 23.518 85.059 23.2193 85.0216 22.93H86.7156L86.9116 24.862H86.6316C86.725 24.3953 86.879 24.008 87.0936 23.7C87.3176 23.392 87.5883 23.1633 87.9056 23.014C88.223 22.8647 88.5683 22.79 88.9416 22.79C89.1096 22.79 89.245 22.7993 89.3476 22.818C89.4503 22.8273 89.553 22.8507 89.6556 22.888L89.6416 24.428C89.4643 24.3533 89.3103 24.3067 89.1796 24.288C89.0583 24.2693 88.9043 24.26 88.7176 24.26C88.3163 24.26 87.9756 24.344 87.6956 24.512C87.425 24.68 87.2196 24.9133 87.0796 25.212C86.949 25.5107 86.8836 25.8513 86.8836 26.234V30H85.1196ZM93.7684 30.14C93.0404 30.14 92.401 29.9907 91.8504 29.692C91.309 29.3933 90.889 28.9687 90.5904 28.418C90.2917 27.858 90.1424 27.1953 90.1424 26.43C90.1424 25.6647 90.2917 25.0113 90.5904 24.47C90.8984 23.9287 91.323 23.5133 91.8644 23.224C92.4057 22.9347 93.0404 22.79 93.7684 22.79C94.235 22.79 94.6877 22.8647 95.1264 23.014C95.5744 23.154 95.9384 23.3593 96.2184 23.63L95.6864 24.848C95.4344 24.6147 95.1497 24.442 94.8324 24.33C94.5244 24.2087 94.221 24.148 93.9224 24.148C93.297 24.148 92.807 24.344 92.4524 24.736C92.107 25.128 91.9344 25.6973 91.9344 26.444C91.9344 27.1907 92.107 27.7647 92.4524 28.166C92.807 28.5673 93.297 28.768 93.9224 28.768C94.2117 28.768 94.5104 28.712 94.8184 28.6C95.1357 28.488 95.425 28.3153 95.6864 28.082L96.2184 29.286C95.929 29.5567 95.5604 29.7667 95.1124 29.916C94.6737 30.0653 94.2257 30.14 93.7684 30.14ZM100.63 30.14C99.9023 30.14 99.2723 29.9907 98.7403 29.692C98.2083 29.3933 97.793 28.9687 97.4943 28.418C97.205 27.8673 97.0603 27.214 97.0603 26.458C97.0603 25.702 97.205 25.0533 97.4943 24.512C97.793 23.9613 98.2083 23.5367 98.7403 23.238C99.2723 22.9393 99.9023 22.79 100.63 22.79C101.358 22.79 101.988 22.9393 102.52 23.238C103.062 23.5367 103.477 23.9613 103.766 24.512C104.065 25.0533 104.214 25.702 104.214 26.458C104.214 27.214 104.065 27.8673 103.766 28.418C103.477 28.9687 103.062 29.3933 102.52 29.692C101.988 29.9907 101.358 30.14 100.63 30.14ZM100.63 28.796C101.181 28.796 101.62 28.6047 101.946 28.222C102.273 27.83 102.436 27.242 102.436 26.458C102.436 25.674 102.273 25.0907 101.946 24.708C101.62 24.3253 101.181 24.134 100.63 24.134C100.08 24.134 99.641 24.3253 99.3143 24.708C98.9877 25.0907 98.8243 25.674 98.8243 26.458C98.8243 27.242 98.9877 27.83 99.3143 28.222C99.641 28.6047 100.08 28.796 100.63 28.796ZM105.723 30V24.694C105.723 24.4047 105.714 24.1107 105.695 23.812C105.677 23.5133 105.649 23.2193 105.611 22.93H107.305L107.445 24.33H107.277C107.501 23.8353 107.833 23.4573 108.271 23.196C108.71 22.9253 109.219 22.79 109.797 22.79C110.628 22.79 111.253 23.0233 111.673 23.49C112.093 23.9567 112.303 24.6847 112.303 25.674V30H110.553V25.758C110.553 25.1887 110.441 24.7827 110.217 24.54C110.003 24.288 109.676 24.162 109.237 24.162C108.696 24.162 108.267 24.33 107.949 24.666C107.632 25.002 107.473 25.45 107.473 26.01V30H105.723ZM116.903 30.14C116.287 30.14 115.741 29.9953 115.265 29.706C114.798 29.4073 114.434 28.9827 114.173 28.432C113.912 27.8813 113.781 27.2233 113.781 26.458C113.781 25.6927 113.912 25.0393 114.173 24.498C114.434 23.9473 114.798 23.5273 115.265 23.238C115.741 22.9393 116.287 22.79 116.903 22.79C117.491 22.79 118.009 22.9347 118.457 23.224C118.914 23.504 119.218 23.8867 119.367 24.372H119.185V19.696H120.935V30H119.213V28.502H119.381C119.232 29.006 118.928 29.4073 118.471 29.706C118.023 29.9953 117.5 30.14 116.903 30.14ZM117.393 28.796C117.944 28.796 118.387 28.6047 118.723 28.222C119.059 27.83 119.227 27.242 119.227 26.458C119.227 25.674 119.059 25.0907 118.723 24.708C118.387 24.3253 117.944 24.134 117.393 24.134C116.842 24.134 116.394 24.3253 116.049 24.708C115.713 25.0907 115.545 25.674 115.545 26.458C115.545 27.242 115.713 27.83 116.049 28.222C116.394 28.6047 116.842 28.796 117.393 28.796ZM122.841 30V22.93H124.591V30H122.841ZM122.743 21.6V19.892H124.689V21.6H122.743ZM129.515 30.14C128.675 30.14 128.04 29.9207 127.611 29.482C127.182 29.0433 126.967 28.3853 126.967 27.508V24.246H125.609V22.93H126.967V21.124L128.717 20.676V22.93H130.607V24.246H128.717V27.396C128.717 27.8813 128.81 28.222 128.997 28.418C129.184 28.614 129.44 28.712 129.767 28.712C129.944 28.712 130.094 28.698 130.215 28.67C130.346 28.642 130.472 28.6047 130.593 28.558V29.944C130.434 30.0093 130.257 30.056 130.061 30.084C129.874 30.1213 129.692 30.14 129.515 30.14ZM131.796 30V22.93H133.546V30H131.796ZM131.698 21.6V19.892H133.644V21.6H131.698ZM138.638 30.14C137.91 30.14 137.28 29.9907 136.748 29.692C136.216 29.3933 135.801 28.9687 135.502 28.418C135.213 27.8673 135.068 27.214 135.068 26.458C135.068 25.702 135.213 25.0533 135.502 24.512C135.801 23.9613 136.216 23.5367 136.748 23.238C137.28 22.9393 137.91 22.79 138.638 22.79C139.366 22.79 139.996 22.9393 140.528 23.238C141.069 23.5367 141.485 23.9613 141.774 24.512C142.073 25.0533 142.222 25.702 142.222 26.458C142.222 27.214 142.073 27.8673 141.774 28.418C141.485 28.9687 141.069 29.3933 140.528 29.692C139.996 29.9907 139.366 30.14 138.638 30.14ZM138.638 28.796C139.189 28.796 139.627 28.6047 139.954 28.222C140.281 27.83 140.444 27.242 140.444 26.458C140.444 25.674 140.281 25.0907 139.954 24.708C139.627 24.3253 139.189 24.134 138.638 24.134C138.087 24.134 137.649 24.3253 137.322 24.708C136.995 25.0907 136.832 25.674 136.832 26.458C136.832 27.242 136.995 27.83 137.322 28.222C137.649 28.6047 138.087 28.796 138.638 28.796ZM143.731 30V24.694C143.731 24.4047 143.722 24.1107 143.703 23.812C143.685 23.5133 143.657 23.2193 143.619 22.93H145.313L145.453 24.33H145.285C145.509 23.8353 145.841 23.4573 146.279 23.196C146.718 22.9253 147.227 22.79 147.805 22.79C148.636 22.79 149.261 23.0233 149.681 23.49C150.101 23.9567 150.311 24.6847 150.311 25.674V30H148.561V25.758C148.561 25.1887 148.449 24.7827 148.225 24.54C148.011 24.288 147.684 24.162 147.245 24.162C146.704 24.162 146.275 24.33 145.957 24.666C145.64 25.002 145.481 25.45 145.481 26.01V30H143.731ZM152.167 30V22.93H153.917V30H152.167ZM152.069 21.6V19.892H154.015V21.6H152.069ZM155.817 30V24.694C155.817 24.4047 155.808 24.1107 155.789 23.812C155.771 23.5133 155.743 23.2193 155.705 22.93H157.399L157.539 24.33H157.371C157.595 23.8353 157.927 23.4573 158.365 23.196C158.804 22.9253 159.313 22.79 159.891 22.79C160.722 22.79 161.347 23.0233 161.767 23.49C162.187 23.9567 162.397 24.6847 162.397 25.674V30H160.647V25.758C160.647 25.1887 160.535 24.7827 160.311 24.54C160.097 24.288 159.77 24.162 159.331 24.162C158.79 24.162 158.361 24.33 158.043 24.666C157.726 25.002 157.567 25.45 157.567 26.01V30H155.817ZM167.529 33.136C166.875 33.136 166.283 33.066 165.751 32.926C165.228 32.786 164.761 32.5713 164.351 32.282L164.729 31.022C164.999 31.1993 165.279 31.344 165.569 31.456C165.858 31.568 166.157 31.652 166.465 31.708C166.773 31.764 167.085 31.792 167.403 31.792C168.056 31.792 168.541 31.6287 168.859 31.302C169.185 30.9847 169.349 30.5273 169.349 29.93V28.236H169.489C169.339 28.7213 169.036 29.1087 168.579 29.398C168.131 29.6873 167.613 29.832 167.025 29.832C166.39 29.832 165.835 29.692 165.359 29.412C164.892 29.1227 164.528 28.712 164.267 28.18C164.005 27.648 163.875 27.0227 163.875 26.304C163.875 25.5853 164.005 24.9647 164.267 24.442C164.528 23.91 164.892 23.504 165.359 23.224C165.835 22.9347 166.39 22.79 167.025 22.79C167.622 22.79 168.14 22.9347 168.579 23.224C169.027 23.504 169.325 23.8867 169.475 24.372L169.349 24.288L169.489 22.93H171.183C171.145 23.2193 171.117 23.5133 171.099 23.812C171.08 24.1107 171.071 24.4047 171.071 24.694V29.72C171.071 30.8307 170.767 31.6753 170.161 32.254C169.563 32.842 168.686 33.136 167.529 33.136ZM167.501 28.488C168.061 28.488 168.504 28.3013 168.831 27.928C169.167 27.5453 169.335 27.004 169.335 26.304C169.335 25.604 169.167 25.0673 168.831 24.694C168.504 24.3207 168.061 24.134 167.501 24.134C166.931 24.134 166.479 24.3207 166.143 24.694C165.807 25.0673 165.639 25.604 165.639 26.304C165.639 27.004 165.807 27.5453 166.143 27.928C166.479 28.3013 166.931 28.488 167.501 28.488Z" fill="black" fill-opacity="0.2"/>
<defs>
<clipPath id="clip0_2434_1187">
<rect width="50" height="50" fill="white" transform="translate(0.03125)"/>
</clipPath>
</defs>
</svg>
