<svg width="26" height="36" viewBox="0 0 26 36" fill="none" xmlns="http://www.w3.org/2000/svg">
<g clip-path="url(#clip0_4222_1188)">
<path d="M25.7843 29.8643L25.7843 20.2066C25.7843 19.9309 25.7607 19.6552 25.7173 19.3913C25.4338 19.7458 25.1108 20.0766 24.7484 20.3681L23.0705 21.7309L22.1764 22.4517V29.8564L22.1961 29.8604C22.1961 30.7269 21.4832 31.4398 20.6167 31.4398L5.8702 31.4398C5.00368 31.4398 4.29077 30.7269 4.29077 29.8604L4.29077 20.2027C4.29077 19.73 4.50347 19.281 4.8737 18.9738L6.3901 17.741L12.2351 12.9909C12.5305 12.7585 12.8772 12.6403 13.2356 12.6364C13.5901 12.6364 13.9406 12.7585 14.236 12.9909L18.9822 16.8469L19.2027 16.6657L20.7152 15.4368C20.7467 15.4132 20.794 15.358 20.794 15.2872L20.794 13.7038L16.5008 10.2141C15.5555 9.44999 14.3975 9.06399 13.2435 9.06006C12.0894 9.06399 10.9314 9.44999 9.98615 10.2141L4.29471 14.8421L2.61682 16.2049C2.07722 16.6342 1.65578 17.1659 1.33674 17.7528C0.934996 18.4933 0.718368 19.3322 0.718368 20.2066L0.722308 29.8604C0.722308 32.712 3.03433 35.024 5.88201 35.0201L20.6246 35.024C23.4683 35.024 25.7843 32.7081 25.7843 29.8643ZM22.1883 14.8381L22.1883 15.2872C22.1843 15.7637 21.9677 16.2088 21.6014 16.5121L20.085 17.7449L19.4942 18.2254L21.1287 19.5528C21.3217 19.7143 21.436 19.9545 21.4399 20.2027L21.436 21.2543L22.1764 20.6477L22.1764 20.6635L22.1922 20.6477L23.8701 19.2849C24.3979 18.8517 24.8351 18.3278 25.1502 17.7449C25.225 17.607 25.2959 17.4653 25.355 17.3195C25.418 17.1856 25.4692 17.0478 25.5165 16.906L25.5125 16.902C25.1935 16.4254 24.7996 15.9922 24.3388 15.6259L22.1961 13.885L22.1961 14.846L22.1883 14.8381Z" fill="white"/>
<path d="M23.8717 19.2871L22.1939 20.6499L20.7011 21.8591L16.4985 25.274C15.5571 26.042 14.3952 26.4241 13.2372 26.4241C12.0793 26.4241 10.9252 26.042 9.98386 25.274L6.41145 22.3633C6.37601 22.3357 6.34843 22.3081 6.31692 22.2766C6.11211 22.0718 5.9585 21.8237 5.87185 21.5322C5.86791 21.5204 5.86397 21.5086 5.86003 21.4967C5.84822 21.4613 5.83246 21.414 5.82853 21.3786C5.82459 21.351 5.82065 21.3313 5.82065 21.2998C5.78914 21.095 5.79308 20.8941 5.82459 20.6972C5.95456 20 6.48629 19.4132 7.22283 19.2674C7.69941 19.169 8.17599 19.2674 8.55017 19.5156C8.59744 19.5471 8.6447 19.5786 8.69196 19.618L12.2447 22.5011C12.8276 22.9738 13.6626 22.9738 14.2416 22.5051L18.905 18.7081L20.0866 17.7471L21.603 16.5143C21.9693 16.211 22.186 15.7659 22.1899 15.2893L22.186 5.63557C22.1899 5.19838 22.0087 4.80451 21.7212 4.51698C21.4337 4.22946 21.0437 4.05221 20.6066 4.05615L5.87185 4.04434C5.00533 4.04434 4.29243 4.75724 4.29243 5.62376L4.29243 12.3117C4.29243 12.6898 4.12306 13.0561 3.82372 13.2924L2.65787 14.2456L1.67713 15.0373C1.61411 15.0924 1.55109 15.1397 1.49989 15.1909L1.43293 15.2578L0.712144 15.8289C0.712144 15.6399 0.720022 15.4587 0.716083 15.2815L0.716082 5.62376C0.716083 2.78001 3.03204 0.464053 5.87579 0.464052L20.6144 0.47193C22.0363 0.467991 23.3321 1.04698 24.2656 1.98045C25.1991 2.91393 25.7702 4.20189 25.7702 5.6277L25.7741 15.2815C25.7702 15.506 25.7544 15.7344 25.7308 15.955C25.6442 16.5852 25.4512 17.1957 25.1518 17.7471C24.8367 18.33 24.3995 18.8539 23.8717 19.2871Z" fill="white"/>
<path d="M25.5176 16.9063L25.5137 16.9023C25.4665 17.044 25.4153 17.1817 25.3563 17.3194C25.4192 17.1856 25.4704 17.0479 25.5176 16.9063ZM25.5176 16.9063L25.5137 16.9023C25.4665 17.044 25.4153 17.1817 25.3563 17.3194C25.4192 17.1856 25.4704 17.0479 25.5176 16.9063Z" fill="white"/>
<path d="M23.8717 19.2871L22.1939 20.6499L22.1781 20.6657L20.7011 21.8591L16.4985 25.274C15.5571 26.042 14.3952 26.4241 13.2372 26.4241C12.0793 26.4241 10.9252 26.042 9.98386 25.274L6.41145 22.3633C6.37601 22.3357 6.34843 22.3081 6.31692 22.2766C6.11211 22.0718 5.9585 21.8237 5.87185 21.5322C5.86791 21.5204 5.86397 21.5086 5.86003 21.4967C5.84822 21.4613 5.83246 21.414 5.82853 21.3786C5.82459 21.351 5.82065 21.3313 5.82065 21.2998C5.78914 21.095 5.79308 20.8941 5.82459 20.6972C5.95456 20 6.48629 19.4132 7.22283 19.2674C7.69941 19.169 8.17599 19.2674 8.55017 19.5156C8.59744 19.5471 8.6447 19.5786 8.69196 19.618L12.2447 22.5011C12.8276 22.9738 13.6626 22.9738 14.2416 22.5051L18.905 18.7081L20.0866 17.7471L21.603 16.5143C21.9693 16.211 22.186 15.7659 22.1899 15.2893V14.8403L22.186 5.63557C22.1899 5.19838 22.0087 4.80451 21.7212 4.51698C21.4337 4.22946 21.0437 4.05221 20.6066 4.05615L5.87185 4.04434C5.00533 4.04434 4.29243 4.75724 4.29243 5.62376L4.29243 12.3117C4.29243 12.6898 4.12306 13.0561 3.82372 13.2924L2.65787 14.2456L1.67713 15.0373C1.61411 15.0924 1.55109 15.1397 1.49989 15.1909L1.43293 15.2578L0.712144 15.8289C0.712144 15.6399 0.720022 15.4587 0.716083 15.2815L0.716082 5.62376C0.716083 2.78001 3.03204 0.464053 5.87579 0.464052L20.6144 0.47193C22.0363 0.467991 23.3321 1.04698 24.2656 1.98045C25.1991 2.91393 25.7702 4.20189 25.7702 5.6277L25.7741 15.2815C25.7702 15.506 25.7544 15.7344 25.7308 15.955C25.6835 16.278 25.6166 16.597 25.5142 16.9042L25.5181 16.9082C25.4709 17.0499 25.4197 17.1878 25.3566 17.3217C25.2976 17.4674 25.2267 17.6092 25.1518 17.7471C24.8367 18.33 24.3995 18.8539 23.8717 19.2871Z" fill="white"/>
</g>
<defs>
<clipPath id="clip0_4222_1188">
<rect width="25.8688" height="35.3994" fill="white"/>
</clipPath>
</defs>
</svg>
