<svg width="115" height="50" viewBox="0 0 115 50" fill="none" xmlns="http://www.w3.org/2000/svg">
<g clip-path="url(#clip0_3402_13910)">
<g clip-path="url(#clip1_3402_13910)">
<path d="M26.1702 34.9638L26.1702 25.1858C26.1702 24.9067 26.1463 24.6276 26.1024 24.3604C25.8153 24.7193 25.4883 25.0543 25.1214 25.3493L23.4226 26.7291L22.5174 27.4589L22.5174 34.9558L22.5373 34.9598C22.5373 35.8371 21.8156 36.5589 20.9383 36.5589L6.00815 36.5589C5.13085 36.5589 4.40907 35.8371 4.40907 34.9598L4.40907 25.1819C4.40907 24.7033 4.62441 24.2487 4.99926 23.9377L6.53454 22.6895L12.4523 17.8803C12.7514 17.645 13.1023 17.5254 13.4652 17.5214C13.8241 17.5214 14.179 17.645 14.4781 17.8803L19.2833 21.7843L19.5067 21.6009L21.038 20.3567C21.0699 20.3328 21.1177 20.2769 21.1177 20.2052L21.1177 18.6021L16.7711 15.069C15.814 14.2953 14.6416 13.9045 13.4732 13.9005C12.3048 13.9045 11.1324 14.2953 10.1753 15.069L4.41306 19.7545L2.71428 21.1343C2.16796 21.569 1.74127 22.1073 1.41827 22.7015C1.01152 23.4512 0.792191 24.3006 0.792192 25.1859L0.796179 34.9598C0.796178 37.8469 3.13698 40.1877 6.02012 40.1837L20.9462 40.1877C23.8254 40.1877 26.1702 37.8429 26.1702 34.9638ZM22.5294 19.7506L22.5294 20.2052C22.5254 20.6877 22.3061 21.1383 21.9352 21.4453L20.3999 22.6935L19.8018 23.18L21.4567 24.5239C21.6521 24.6874 21.7677 24.9306 21.7717 25.1819L21.7677 26.2466L22.5174 25.6325L22.5174 25.6484L22.5334 25.6325L24.2321 24.2527C24.7665 23.8141 25.2091 23.2837 25.5281 22.6935C25.6039 22.5539 25.6757 22.4104 25.7355 22.2628C25.7993 22.1273 25.8512 21.9877 25.899 21.8441L25.895 21.8401C25.572 21.3576 25.1732 20.919 24.7067 20.5481L22.5373 18.7855L22.5373 19.7585L22.5294 19.7506Z" fill="#231F20"/>
<path d="M24.2345 24.2531L22.5357 25.6328L21.0244 26.8571L16.7694 30.3144C15.8164 31.092 14.64 31.4788 13.4676 31.4788C12.2952 31.4788 11.1268 31.092 10.1737 30.3144L6.55684 27.3675C6.52094 27.3396 6.49303 27.3117 6.46113 27.2798C6.25376 27.0724 6.09824 26.8212 6.01051 26.5261C6.00653 26.5141 6.00254 26.5021 5.99855 26.4902C5.98659 26.4543 5.97064 26.4064 5.96665 26.3705C5.96266 26.3426 5.95867 26.3227 5.95867 26.2908C5.92677 26.0834 5.93076 25.8801 5.96266 25.6807C6.09426 24.9748 6.6326 24.3807 7.37831 24.2331C7.86083 24.1334 8.34334 24.2331 8.72218 24.4843C8.77003 24.5162 8.81788 24.5481 8.86574 24.588L12.4627 27.5071C13.0529 27.9856 13.8983 27.9856 14.4845 27.511L19.206 23.6669L20.4023 22.6939L21.9376 21.4457C22.3084 21.1386 22.5277 20.688 22.5317 20.2055L22.5277 10.4315C22.5317 9.98891 22.3483 9.59013 22.0572 9.29903C21.7661 9.00792 21.3713 8.82847 20.9287 8.83246L6.01051 8.8205C5.13321 8.8205 4.41143 9.54228 4.41143 10.4196L4.41143 17.1908C4.41143 17.5736 4.23996 17.9445 3.93689 18.1837L2.75652 19.1487L1.76357 19.9503C1.69977 20.0061 1.63596 20.054 1.58412 20.1058L1.51633 20.1736L0.786573 20.7518C0.786572 20.5604 0.794548 20.377 0.790561 20.1975L0.790561 10.4196C0.790561 7.54043 3.13535 5.19564 6.0145 5.19564L20.9366 5.20362C22.3762 5.19963 23.6882 5.78583 24.6333 6.73092C25.5784 7.67602 26.1566 8.98001 26.1566 10.4236L26.1606 20.1975C26.1566 20.4248 26.1406 20.6561 26.1167 20.8794C26.029 21.5175 25.8336 22.1356 25.5305 22.6938C25.2115 23.284 24.7689 23.8144 24.2345 24.2531Z" fill="#231F20"/>
<path d="M25.9024 21.8441L25.8984 21.8401C25.8506 21.9836 25.7987 22.1232 25.7389 22.2628C25.8027 22.1272 25.8546 21.9876 25.9024 21.8441ZM25.9024 21.8441L25.8984 21.8401C25.8506 21.9836 25.7987 22.1232 25.7389 22.2628C25.8027 22.1272 25.8546 21.9876 25.9024 21.8441Z" fill="#231F20"/>
<path d="M24.2345 24.2531L22.5357 25.6328L22.5198 25.6488L21.0244 26.8571L16.7694 30.3144C15.8164 31.092 14.64 31.4788 13.4676 31.4788C12.2952 31.4788 11.1268 31.092 10.1737 30.3144L6.55684 27.3675C6.52094 27.3396 6.49303 27.3117 6.46113 27.2798C6.25376 27.0724 6.09824 26.8212 6.01051 26.5261C6.00653 26.5141 6.00254 26.5021 5.99855 26.4902C5.98659 26.4543 5.97064 26.4064 5.96665 26.3705C5.96266 26.3426 5.95867 26.3227 5.95867 26.2908C5.92677 26.0834 5.93076 25.8801 5.96266 25.6807C6.09426 24.9748 6.6326 24.3807 7.37831 24.2331C7.86083 24.1334 8.34334 24.2331 8.72218 24.4843C8.77003 24.5162 8.81788 24.5481 8.86574 24.588L12.4627 27.5071C13.0529 27.9856 13.8983 27.9856 14.4845 27.511L19.206 23.6669L20.4023 22.6939L21.9376 21.4457C22.3084 21.1386 22.5277 20.688 22.5317 20.2055L22.5317 19.7509L22.5277 10.4315C22.5317 9.98891 22.3483 9.59013 22.0572 9.29903C21.7661 9.00792 21.3713 8.82847 20.9287 8.83246L6.01051 8.8205C5.13321 8.8205 4.41143 9.54228 4.41143 10.4196L4.41143 17.1908C4.41143 17.5736 4.23996 17.9445 3.93689 18.1837L2.75652 19.1487L1.76357 19.9503C1.69977 20.0061 1.63596 20.054 1.58412 20.1058L1.51633 20.1736L0.786573 20.7518C0.786572 20.5604 0.794548 20.377 0.790561 20.1975L0.790561 10.4196C0.790561 7.54043 3.13535 5.19564 6.0145 5.19564L20.9366 5.20362C22.3762 5.19963 23.6882 5.78583 24.6333 6.73092C25.5784 7.67602 26.1566 8.98001 26.1566 10.4236L26.1606 20.1975C26.1566 20.4248 26.1406 20.6561 26.1167 20.8794C26.0689 21.2064 26.0011 21.5294 25.8974 21.8405L25.9014 21.8445C25.8535 21.988 25.8017 22.1276 25.7379 22.2632C25.6781 22.4107 25.6063 22.5543 25.5305 22.6938C25.2115 23.284 24.7689 23.8144 24.2345 24.2531Z" fill="#F74DF4"/>
</g>
<g clip-path="url(#clip2_3402_13910)">
<path d="M36.4315 20.0754C35.8825 20.0754 35.608 19.8181 35.608 19.3034V6.0857C35.608 5.57099 35.8825 5.31364 36.4315 5.31364H39.9315C42.5668 5.31364 44.3443 5.63962 45.2639 6.29158C46.1904 6.93668 46.6536 7.93178 46.6536 9.27689C46.6536 10.2171 46.307 10.9445 45.6139 11.4592C44.9276 11.974 44.2619 12.2725 43.6168 12.3548V12.3857C44.2414 12.4269 44.9757 12.7426 45.8198 13.3328C46.6639 13.923 47.086 14.7568 47.086 15.8343C47.086 17.097 46.5713 18.1196 45.5418 18.9019C44.5124 19.6843 42.8139 20.0754 40.4462 20.0754H36.4315ZM38.6139 17.5637H40.1168C41.5717 17.5637 42.56 17.4367 43.0815 17.1828C43.61 16.9289 43.8742 16.4142 43.8742 15.6387C43.8742 14.9112 43.5688 14.4102 42.958 14.1357C42.3541 13.8543 41.407 13.7137 40.1168 13.7137H38.6139V17.5637ZM38.6139 11.2842H39.9624C40.8477 11.2842 41.6747 11.1298 42.4433 10.821C43.2188 10.5122 43.6065 10.0318 43.6065 9.37983C43.6065 8.87198 43.3904 8.48767 42.958 8.22688C42.5325 7.95924 41.534 7.82541 39.9624 7.82541H38.6139V11.2842ZM48.9904 17.1931C48.9904 15.8205 49.6458 14.8254 50.9566 14.2078C52.2674 13.5901 53.7634 13.2607 55.4448 13.2195V12.8078C55.4448 12.1764 55.287 11.7303 54.9713 11.4695C54.6556 11.2088 54.2164 11.0784 53.6536 11.0784C53.2556 11.0784 52.9022 11.1367 52.5933 11.2534C52.2914 11.3632 52.0272 11.4936 51.8007 11.6445C51.5811 11.7887 51.3821 11.9362 51.2036 12.0872C50.8879 12.3617 50.6272 12.3754 50.4213 12.1284L49.5669 11.0784C49.3541 10.8176 49.4056 10.5499 49.7213 10.2754C49.9615 10.0627 50.2394 9.87738 50.5551 9.71953C50.8776 9.56169 51.3031 9.41414 51.8316 9.27689C52.36 9.13277 53.0463 9.06071 53.8904 9.06071C55.3178 9.06071 56.4125 9.39012 57.1742 10.0489C57.9429 10.7078 58.3272 11.6789 58.3272 12.9622V19.4578C58.3272 19.8696 58.1213 20.0754 57.7095 20.0754H56.0213C55.6507 20.0754 55.4654 19.8696 55.4654 19.4578V19.149H55.4448C55.0399 19.5401 54.5527 19.8284 53.983 20.0137C53.4203 20.1921 52.9022 20.2813 52.4286 20.2813C51.3031 20.2813 50.4487 20.0068 49.8654 19.4578C49.2821 18.9019 48.9904 18.147 48.9904 17.1931ZM52.0374 17.1313C52.0374 17.3715 52.0855 17.5808 52.1816 17.7593C52.2776 17.9308 52.4286 18.0578 52.6345 18.1401C52.8404 18.2225 53.0703 18.2637 53.3242 18.2637C53.6742 18.2637 54.0139 18.2156 54.3433 18.1196C54.6727 18.0235 55.0399 17.797 55.4448 17.4401V15.2063C54.2919 15.3367 53.5198 15.5048 53.1286 15.7107C52.7375 15.9166 52.4561 16.1294 52.2845 16.349C52.1198 16.5686 52.0374 16.8294 52.0374 17.1313ZM61.7551 20.0754C61.3434 20.0754 61.1375 19.8696 61.1375 19.4578V7.30041C61.1375 6.99159 61.2095 6.71021 61.3536 6.45629L62.1463 5.06658C62.2973 4.8058 62.4757 4.6754 62.6816 4.6754H63.4022C63.8139 4.6754 64.0198 4.88129 64.0198 5.29305V19.4578C64.0198 19.8696 63.8139 20.0754 63.4022 20.0754H61.7551ZM67.4375 20.0754C67.0257 20.0754 66.8198 19.8696 66.8198 19.4578V9.88424C66.8198 9.47247 67.0257 9.26659 67.4375 9.26659H69.0845C69.4963 9.26659 69.7022 9.47247 69.7022 9.88424V19.4578C69.7022 19.8696 69.4963 20.0754 69.0845 20.0754H67.4375ZM67.4375 7.68129C67.0257 7.68129 66.8198 7.47541 66.8198 7.06364V5.74599C66.8198 5.33423 67.0257 5.12835 67.4375 5.12835H69.0845C69.4963 5.12835 69.7022 5.33423 69.7022 5.74599V7.06364C69.7022 7.47541 69.4963 7.68129 69.0845 7.68129H67.4375Z" fill="#231F20"/>
<path d="M36.3286 39.4839C35.8482 39.4839 35.608 39.2265 35.608 38.7118V25.4941C35.608 24.9794 35.8482 24.7221 36.3286 24.7221H37.9962C38.408 24.7221 38.6139 24.9794 38.6139 25.4941V36.9309H44.6154C45.1301 36.9309 45.3874 37.154 45.3874 37.6001V38.8148C45.3874 39.2608 45.1301 39.4839 44.6154 39.4839H36.3286ZM47.9404 39.4839C47.5286 39.4839 47.3227 39.278 47.3227 38.8662V29.2927C47.3227 28.8809 47.5286 28.675 47.9404 28.675H49.5874C49.9992 28.675 50.2051 28.8809 50.2051 29.2927V38.8662C50.2051 39.278 49.9992 39.4839 49.5874 39.4839H47.9404ZM47.9404 27.0897C47.5286 27.0897 47.3227 26.8839 47.3227 26.4721V25.1544C47.3227 24.7427 47.5286 24.5368 47.9404 24.5368H49.5874C49.9992 24.5368 50.2051 24.7427 50.2051 25.1544V26.4721C50.2051 26.8839 49.9992 27.0897 49.5874 27.0897H47.9404ZM52.7889 38.7633C52.4526 38.5231 52.36 38.2657 52.511 37.9912L53.036 37.0339C53.2213 36.6907 53.5095 36.6496 53.9007 36.9104C54.2919 37.1711 54.7517 37.3633 55.2801 37.4868C55.8154 37.6104 56.3027 37.6721 56.7419 37.6721C57.0507 37.6721 57.3389 37.6412 57.6066 37.5795C57.8742 37.5177 58.1007 37.3976 58.286 37.2192C58.4713 37.0407 58.5639 36.78 58.5639 36.4368C58.5639 36.2309 58.509 36.0559 58.3992 35.9118C58.2894 35.7677 58.1487 35.6579 57.9772 35.5824C57.8056 35.5069 57.6237 35.4452 57.4316 35.3971C57.1777 35.3353 56.8105 35.2324 56.3301 35.0883C55.8566 34.9442 55.4002 34.776 54.961 34.5839C54.5973 34.426 54.2404 34.2064 53.8904 33.9251C53.5473 33.6368 53.2933 33.3177 53.1286 32.9677C52.9708 32.6177 52.8919 32.1853 52.8919 31.6706C52.8919 30.9775 53.0909 30.3701 53.4889 29.8486C53.8938 29.327 54.4154 28.9667 55.0536 28.7677C55.6919 28.5687 56.4879 28.4692 57.4419 28.4692C58.087 28.4692 58.7149 28.5618 59.3257 28.7471C59.9365 28.9324 60.3723 29.1074 60.6331 29.2721C61.0448 29.5329 61.1478 29.8108 60.9419 30.1059L60.3139 31.0221C60.1218 31.2966 59.813 31.3172 59.3875 31.0839C59.0649 30.9054 58.7458 30.7613 58.4301 30.6515C58.1213 30.5417 57.7747 30.4868 57.3904 30.4868C57.1296 30.4868 56.8791 30.5143 56.6389 30.5692C56.3987 30.6241 56.1929 30.727 56.0213 30.878C55.8566 31.029 55.7742 31.228 55.7742 31.475C55.7742 31.7358 55.8497 31.9417 56.0007 32.0927C56.1585 32.2368 56.337 32.3432 56.536 32.4118C56.7419 32.4804 56.9375 32.5456 57.1228 32.6074C57.5071 32.7309 57.8948 32.851 58.286 32.9677C58.6772 33.0775 59.0752 33.2113 59.4801 33.3692C59.8301 33.5064 60.1698 33.702 60.4992 33.9559C60.8286 34.2099 61.0688 34.5324 61.2198 34.9236C61.3708 35.3148 61.4463 35.7608 61.4463 36.2618C61.4463 36.9275 61.2473 37.5452 60.8492 38.1148C60.4512 38.6844 59.9262 39.0893 59.2742 39.3295C58.6223 39.5697 57.8639 39.6898 56.9992 39.6898C56.0316 39.6898 55.208 39.6211 54.5286 39.4839C53.8492 39.3466 53.2693 39.1064 52.7889 38.7633ZM63.0007 30.7339C62.5958 30.7339 62.3934 30.5623 62.3934 30.2192V29.1897C62.3934 28.8466 62.5958 28.675 63.0007 28.675H63.7007V28.3147C63.7007 28.0059 63.7728 27.7245 63.9169 27.4706L64.7095 26.0809C64.8605 25.8201 65.039 25.6897 65.2448 25.6897H65.9654C66.3772 25.6897 66.5831 25.8956 66.5831 26.3074V28.675H68.2507C68.6556 28.675 68.8581 28.8466 68.8581 29.1897V30.2192C68.8581 30.5623 68.6556 30.7339 68.2507 30.7339H66.5831V35.8398C66.5831 36.5398 66.6311 37.0442 66.7272 37.353C66.8301 37.655 67.0909 37.8059 67.5095 37.8059C67.7223 37.8059 67.9625 37.7716 68.2301 37.703C68.4978 37.6275 68.7071 37.5555 68.8581 37.4868C69.0983 37.377 69.2561 37.4559 69.3316 37.7236L69.6404 38.8971C69.7022 39.1305 69.613 39.302 69.3728 39.4118C69.1463 39.5148 68.8341 39.6074 68.436 39.6898C68.0448 39.779 67.6502 39.8236 67.2522 39.8236C66.2708 39.8236 65.4336 39.6211 64.7404 39.2162C64.0473 38.8113 63.7007 37.9775 63.7007 36.7148V30.7339H63.0007ZM72.1934 39.4839C71.7816 39.4839 71.5757 39.278 71.5757 38.8662V29.2927C71.5757 28.8809 71.7816 28.675 72.1934 28.675H73.8404C74.2522 28.675 74.4581 28.8809 74.4581 29.2927V38.8662C74.4581 39.278 74.2522 39.4839 73.8404 39.4839H72.1934ZM72.1934 27.0897C71.7816 27.0897 71.5757 26.8839 71.5757 26.4721V25.1544C71.5757 24.7427 71.7816 24.5368 72.1934 24.5368H73.8404C74.2522 24.5368 74.4581 24.7427 74.4581 25.1544V26.4721C74.4581 26.8839 74.2522 27.0897 73.8404 27.0897H72.1934ZM77.8757 39.4839C77.464 39.4839 77.2581 39.278 77.2581 38.8662V29.2927C77.2581 28.8809 77.464 28.675 77.8757 28.675H79.5022C79.914 28.675 80.1199 28.8809 80.1199 29.2927V29.8897H80.161C80.4767 29.3476 80.8782 28.977 81.3655 28.778C81.8527 28.5721 82.4395 28.4692 83.1258 28.4692C84.1963 28.4692 85.0816 28.8054 85.7816 29.478C86.4816 30.1505 86.8316 31.379 86.8316 33.1633V38.8662C86.8316 39.278 86.6258 39.4839 86.214 39.4839H84.5669C84.1552 39.4839 83.9493 39.278 83.9493 38.8662V33.9045C83.9493 32.4084 83.8463 31.4648 83.6405 31.0736C83.4346 30.6824 82.9919 30.4868 82.3125 30.4868C81.5919 30.4868 81.0498 30.7682 80.686 31.3309C80.3223 31.8868 80.1405 33.0466 80.1405 34.8103V38.8662C80.1405 39.278 79.9346 39.4839 79.5228 39.4839H77.8757ZM89.0346 34.0795C89.0346 32.5697 89.3606 31.2589 90.0125 30.1471C90.6714 29.0285 91.8071 28.4692 93.4199 28.4692C94.0375 28.4692 94.566 28.5584 95.0052 28.7368C95.4444 28.9152 95.8424 29.2995 96.1993 29.8897H96.2405L96.2817 29.2927C96.3091 28.8809 96.4944 28.675 96.8375 28.675H98.464C98.8758 28.675 99.0817 28.8809 99.0817 29.2927V39.3707C99.0817 41.052 98.6287 42.2118 97.7228 42.8501C96.817 43.4883 95.5062 43.8074 93.7905 43.8074C93.063 43.8074 92.3905 43.7697 91.7728 43.6942C91.1552 43.6187 90.5307 43.43 89.8993 43.128C89.5699 42.9702 89.515 42.6716 89.7346 42.2324L90.1052 41.4912C90.2562 41.1893 90.5067 41.1207 90.8567 41.2854C91.138 41.4158 91.4846 41.5324 91.8964 41.6354C92.315 41.7383 92.8434 41.7898 93.4817 41.7898C94.3601 41.7898 95.0326 41.6251 95.4993 41.2957C95.966 40.9731 96.1993 40.2628 96.1993 39.1648V38.9898C96.1993 38.7153 96.213 38.4407 96.2405 38.1662H96.1993C95.8424 38.7564 95.4444 39.1407 95.0052 39.3192C94.566 39.4976 94.0375 39.5868 93.4199 39.5868C91.8071 39.5868 90.6714 39.0309 90.0125 37.9192C89.3606 36.8005 89.0346 35.5206 89.0346 34.0795ZM92.0817 34.0795C92.0817 35.1089 92.2223 35.9496 92.5037 36.6015C92.792 37.2466 93.3993 37.5692 94.3258 37.5692C94.8405 37.5692 95.2797 37.2809 95.6434 36.7045C96.014 36.1211 96.1993 35.3662 96.1993 34.4398V33.6162C96.1993 32.6898 96.014 31.9383 95.6434 31.3618C95.2797 30.7785 94.8405 30.4868 94.3258 30.4868C93.3993 30.4868 92.792 30.8128 92.5037 31.4648C92.2223 32.1099 92.0817 32.9814 92.0817 34.0795ZM101.666 38.7633C101.329 38.5231 101.237 38.2657 101.388 37.9912L101.913 37.0339C102.098 36.6907 102.386 36.6496 102.777 36.9104C103.168 37.1711 103.628 37.3633 104.157 37.4868C104.692 37.6104 105.179 37.6721 105.618 37.6721C105.927 37.6721 106.216 37.6412 106.483 37.5795C106.751 37.5177 106.977 37.3976 107.163 37.2192C107.348 37.0407 107.441 36.78 107.441 36.4368C107.441 36.2309 107.386 36.0559 107.276 35.9118C107.166 35.7677 107.025 35.6579 106.854 35.5824C106.682 35.5069 106.5 35.4452 106.308 35.3971C106.054 35.3353 105.687 35.2324 105.207 35.0883C104.733 34.9442 104.277 34.776 103.838 34.5839C103.474 34.426 103.117 34.2064 102.767 33.9251C102.424 33.6368 102.17 33.3177 102.005 32.9677C101.847 32.6177 101.768 32.1853 101.768 31.6706C101.768 30.9775 101.967 30.3701 102.366 29.8486C102.77 29.327 103.292 28.9667 103.93 28.7677C104.568 28.5687 105.365 28.4692 106.318 28.4692C106.964 28.4692 107.591 28.5618 108.202 28.7471C108.813 28.9324 109.249 29.1074 109.51 29.2721C109.921 29.5329 110.024 29.8108 109.818 30.1059L109.191 31.0221C108.998 31.2966 108.69 31.3172 108.264 31.0839C107.941 30.9054 107.622 30.7613 107.307 30.6515C106.998 30.5417 106.651 30.4868 106.267 30.4868C106.006 30.4868 105.756 30.5143 105.516 30.5692C105.275 30.6241 105.069 30.727 104.898 30.878C104.733 31.029 104.651 31.228 104.651 31.475C104.651 31.7358 104.726 31.9417 104.877 32.0927C105.035 32.2368 105.214 32.3432 105.413 32.4118C105.618 32.4804 105.814 32.5456 105.999 32.6074C106.384 32.7309 106.771 32.851 107.163 32.9677C107.554 33.0775 107.952 33.2113 108.357 33.3692C108.707 33.5064 109.046 33.702 109.376 33.9559C109.705 34.2099 109.945 34.5324 110.096 34.9236C110.247 35.3148 110.323 35.7608 110.323 36.2618C110.323 36.9275 110.124 37.5452 109.726 38.1148C109.328 38.6844 108.803 39.0893 108.151 39.3295C107.499 39.5697 106.741 39.6898 105.876 39.6898C104.908 39.6898 104.085 39.6211 103.405 39.4839C102.726 39.3466 102.146 39.1064 101.666 38.7633Z" fill="#231F20"/>
</g>
</g>
<defs>
<clipPath id="clip0_3402_13910">
<rect width="114.407" height="50" fill="white"/>
</clipPath>
<clipPath id="clip1_3402_13910">
<rect width="26.1908" height="35.8401" fill="white" transform="translate(0.0625 4.72656)"/>
</clipPath>
<clipPath id="clip2_3402_13910">
<rect width="79.5861" height="40.5836" fill="white" transform="translate(35.0156 4.72656)"/>
</clipPath>
</defs>
</svg>
