<svg width="183" height="44" viewBox="0 0 183 44" fill="none" xmlns="http://www.w3.org/2000/svg">
<rect x="1" y="1" width="181" height="42" rx="9" stroke="#F74DF4" stroke-width="2"/>
<g clip-path="url(#clip0_845_742)">
<path d="M29 7.9375C21.2459 7.9375 14.9375 14.2459 14.9375 22C14.9375 24.7278 15.7198 27.3586 17.2048 29.6424L15.0135 34.7556C14.8624 35.1081 14.9412 35.5168 15.2122 35.7878C15.3916 35.9673 15.6315 36.0625 15.875 36.0625C15.9995 36.0625 16.1254 36.0378 16.2444 35.9865L21.3576 33.7952C23.6419 35.2802 26.2726 36.0625 29 36.0625C36.7545 36.0625 43.0625 29.7541 43.0625 22C43.0625 14.2459 36.7545 7.9375 29 7.9375ZM29 34.1875C26.485 34.1875 24.0639 33.4189 21.9985 31.9651C21.8378 31.852 21.6492 31.7943 21.4588 31.7943C21.3338 31.7943 21.2079 31.8195 21.0894 31.8703L17.6598 33.3402L19.1297 29.9106C19.2579 29.6117 19.2222 29.2675 19.0349 29.0015C17.5811 26.9365 16.8125 24.5159 16.8125 22C16.8125 15.2796 22.2796 9.8125 29 9.8125C35.72 9.8125 41.1875 15.2796 41.1875 22C41.1875 28.7204 35.72 34.1875 29 34.1875Z" fill="#F74DF4"/>
<path d="M36.2189 27.0342C36.2189 27.0342 35.047 28.5339 34.2029 28.8809C32.056 29.7717 29.0279 28.8809 25.5686 25.4312C22.1189 21.9714 21.2281 18.9437 22.1189 16.7968C22.4654 15.9527 23.9655 14.7808 23.9655 14.7808C24.3688 14.4622 25.0065 14.4998 25.3718 14.8651L27.0687 16.5624C27.4344 16.9277 27.4344 17.5283 27.0687 17.8936L25.9998 18.9529C25.9998 18.9529 25.5686 20.2465 28.1563 22.8439C30.7532 25.4312 32.0469 24.9999 32.0469 24.9999L33.1061 23.9306C33.4714 23.5653 34.072 23.5653 34.4373 23.9306L36.1347 25.628C36.5 25.9933 36.5375 26.6213 36.2189 27.0342Z" fill="#F74DF4"/>
</g>
<path d="M61.308 28.68C59.988 28.68 58.854 28.416 57.906 27.888C56.97 27.348 56.25 26.592 55.746 25.62C55.242 24.636 54.99 23.478 54.99 22.146C54.99 20.814 55.242 19.662 55.746 18.69C56.25 17.718 56.97 16.968 57.906 16.44C58.854 15.9 59.988 15.63 61.308 15.63C62.196 15.63 62.994 15.756 63.702 16.008C64.422 16.26 65.04 16.632 65.556 17.124L64.8 18.96C64.236 18.504 63.69 18.18 63.162 17.988C62.646 17.784 62.052 17.682 61.38 17.682C60.096 17.682 59.112 18.072 58.428 18.852C57.756 19.62 57.42 20.718 57.42 22.146C57.42 23.574 57.756 24.678 58.428 25.458C59.112 26.238 60.096 26.628 61.38 26.628C62.052 26.628 62.646 26.532 63.162 26.34C63.69 26.136 64.236 25.8 64.8 25.332L65.556 27.168C65.04 27.648 64.422 28.02 63.702 28.284C62.994 28.548 62.196 28.68 61.308 28.68ZM67.5463 28.5V15.252H69.7963V21.228H69.5443C69.8203 20.58 70.2463 20.088 70.8223 19.752C71.3983 19.404 72.0583 19.23 72.8023 19.23C73.8823 19.23 74.6863 19.536 75.2143 20.148C75.7423 20.748 76.0063 21.666 76.0063 22.902V28.5H73.7563V23.01C73.7563 22.302 73.6183 21.792 73.3423 21.48C73.0783 21.156 72.6523 20.994 72.0643 20.994C71.3803 20.994 70.8283 21.21 70.4083 21.642C70.0003 22.062 69.7963 22.626 69.7963 23.334V28.5H67.5463ZM81.902 28.68C81.11 28.68 80.414 28.494 79.814 28.122C79.214 27.738 78.746 27.192 78.41 26.484C78.074 25.776 77.906 24.93 77.906 23.946C77.906 22.962 78.074 22.122 78.41 21.426C78.746 20.718 79.214 20.178 79.814 19.806C80.414 19.422 81.11 19.23 81.902 19.23C82.67 19.23 83.342 19.422 83.918 19.806C84.506 20.178 84.896 20.682 85.088 21.318H84.89L85.088 19.41H87.248C87.212 19.782 87.176 20.16 87.14 20.544C87.116 20.928 87.104 21.306 87.104 21.678V28.5H84.872L84.854 26.628H85.07C84.878 27.252 84.488 27.75 83.9 28.122C83.312 28.494 82.646 28.68 81.902 28.68ZM82.532 26.952C83.24 26.952 83.81 26.706 84.242 26.214C84.674 25.71 84.89 24.954 84.89 23.946C84.89 22.938 84.674 22.188 84.242 21.696C83.81 21.204 83.24 20.958 82.532 20.958C81.824 20.958 81.254 21.204 80.822 21.696C80.39 22.188 80.174 22.938 80.174 23.946C80.174 24.954 80.384 25.71 80.804 26.214C81.236 26.706 81.812 26.952 82.532 26.952ZM93.4421 28.68C92.3621 28.68 91.5461 28.398 90.9941 27.834C90.4421 27.27 90.1661 26.424 90.1661 25.296V21.102H88.4201V19.41H90.1661V17.088L92.4161 16.512V19.41H94.8461V21.102H92.4161V25.152C92.4161 25.776 92.5361 26.214 92.7761 26.466C93.0161 26.718 93.3461 26.844 93.7661 26.844C93.9941 26.844 94.1861 26.826 94.3421 26.79C94.5101 26.754 94.6721 26.706 94.8281 26.646V28.428C94.6241 28.512 94.3961 28.572 94.1441 28.608C93.9041 28.656 93.6701 28.68 93.4421 28.68ZM101.08 22.146C101.08 20.814 101.32 19.662 101.8 18.69C102.292 17.718 102.994 16.968 103.906 16.44C104.818 15.9 105.904 15.63 107.164 15.63C108.412 15.63 109.492 15.9 110.404 16.44C111.316 16.968 112.018 17.718 112.51 18.69C113.014 19.662 113.266 20.808 113.266 22.128C113.266 23.46 113.014 24.618 112.51 25.602C112.018 26.574 111.316 27.33 110.404 27.87C109.492 28.41 108.412 28.68 107.164 28.68C105.904 28.68 104.818 28.41 103.906 27.87C103.006 27.33 102.31 26.574 101.818 25.602C101.326 24.618 101.08 23.466 101.08 22.146ZM103.51 22.146C103.51 23.574 103.816 24.69 104.428 25.494C105.04 26.298 105.952 26.7 107.164 26.7C108.34 26.7 109.246 26.298 109.882 25.494C110.518 24.69 110.836 23.574 110.836 22.146C110.836 20.706 110.518 19.59 109.882 18.798C109.258 18.006 108.352 17.61 107.164 17.61C105.952 17.61 105.04 18.006 104.428 18.798C103.816 19.59 103.51 20.706 103.51 22.146ZM118.002 28.5L114.456 19.41H116.778L119.334 26.484H118.866L121.458 19.41H123.06L125.634 26.484H125.22L127.758 19.41H129.954L126.408 28.5H124.428L121.71 21.264H122.664L120 28.5H118.002ZM131.372 28.5V21.678C131.372 21.306 131.36 20.928 131.336 20.544C131.312 20.16 131.276 19.782 131.228 19.41H133.406L133.586 21.21H133.37C133.658 20.574 134.084 20.088 134.648 19.752C135.212 19.404 135.866 19.23 136.61 19.23C137.678 19.23 138.482 19.53 139.022 20.13C139.562 20.73 139.832 21.666 139.832 22.938V28.5H137.582V23.046C137.582 22.314 137.438 21.792 137.15 21.48C136.874 21.156 136.454 20.994 135.89 20.994C135.194 20.994 134.642 21.21 134.234 21.642C133.826 22.074 133.622 22.65 133.622 23.37V28.5H131.372ZM146.61 28.68C145.086 28.68 143.892 28.26 143.028 27.42C142.164 26.58 141.732 25.428 141.732 23.964C141.732 23.016 141.918 22.188 142.29 21.48C142.662 20.772 143.178 20.22 143.838 19.824C144.51 19.428 145.29 19.23 146.178 19.23C147.054 19.23 147.786 19.416 148.374 19.788C148.962 20.16 149.406 20.682 149.706 21.354C150.018 22.026 150.174 22.812 150.174 23.712V24.306H143.55V23.118H148.572L148.266 23.37C148.266 22.53 148.086 21.888 147.726 21.444C147.378 21 146.868 20.778 146.196 20.778C145.452 20.778 144.876 21.042 144.468 21.57C144.072 22.098 143.874 22.836 143.874 23.784V24.018C143.874 25.002 144.114 25.74 144.594 26.232C145.086 26.712 145.776 26.952 146.664 26.952C147.18 26.952 147.66 26.886 148.104 26.754C148.56 26.61 148.992 26.382 149.4 26.07L150.066 27.582C149.634 27.93 149.118 28.2 148.518 28.392C147.918 28.584 147.282 28.68 146.61 28.68ZM152.061 28.5V21.732C152.061 21.348 152.049 20.958 152.025 20.562C152.013 20.166 151.983 19.782 151.935 19.41H154.113L154.365 21.894H154.005C154.125 21.294 154.323 20.796 154.599 20.4C154.887 20.004 155.235 19.71 155.643 19.518C156.051 19.326 156.495 19.23 156.975 19.23C157.191 19.23 157.365 19.242 157.497 19.266C157.629 19.278 157.761 19.308 157.893 19.356L157.875 21.336C157.647 21.24 157.449 21.18 157.281 21.156C157.125 21.132 156.927 21.12 156.687 21.12C156.171 21.12 155.733 21.228 155.373 21.444C155.025 21.66 154.761 21.96 154.581 22.344C154.413 22.728 154.329 23.166 154.329 23.658V28.5H152.061Z" fill="#F74DF4"/>
<defs>
<clipPath id="clip0_845_742">
<rect width="30" height="30" fill="white" transform="translate(14 7)"/>
</clipPath>
</defs>
</svg>
