<svg width="150" height="50" viewBox="0 0 150 50" fill="none" xmlns="http://www.w3.org/2000/svg">
<g clip-path="url(#clip0_2434_1208)">
<mask id="mask0_2434_1208" style="mask-type:luminance" maskUnits="userSpaceOnUse" x="0" y="0" width="51" height="50">
<path d="M0.0390625 6.48499e-05H50.039V50H0.0390625V6.48499e-05Z" fill="white"/>
</mask>
<g mask="url(#mask0_2434_1208)">
<path d="M1.01562 48.0737H49.0624" stroke="#4D4D4D" stroke-width="1.95312" stroke-miterlimit="10" stroke-linecap="round" stroke-linejoin="round"/>
<path d="M1.01562 48.0737H49.0624" stroke="black" stroke-opacity="0.2" stroke-width="1.95312" stroke-miterlimit="10" stroke-linecap="round" stroke-linejoin="round"/>
<path d="M16.1443 27.6743V48.0737H11.6562V27.6743" stroke="#4D4D4D" stroke-width="1.95312" stroke-miterlimit="10" stroke-linecap="round" stroke-linejoin="round"/>
<path d="M16.1443 27.6743V48.0737H11.6562V27.6743" stroke="black" stroke-opacity="0.2" stroke-width="1.95312" stroke-miterlimit="10" stroke-linecap="round" stroke-linejoin="round"/>
<path d="M26.7636 14.8006C26.7636 21.9107 20.9998 27.6746 13.8896 27.6746C6.77949 27.6746 1.01562 21.9107 1.01562 14.8006C1.01562 7.69041 6.77949 1.92655 13.8896 1.92655C20.9998 1.92655 26.7636 7.69041 26.7636 14.8006Z" stroke="#4D4D4D" stroke-width="1.95312" stroke-miterlimit="10" stroke-linecap="round" stroke-linejoin="round"/>
<path d="M26.7636 14.8006C26.7636 21.9107 20.9998 27.6746 13.8896 27.6746C6.77949 27.6746 1.01562 21.9107 1.01562 14.8006C1.01562 7.69041 6.77949 1.92655 13.8896 1.92655C20.9998 1.92655 26.7636 7.69041 26.7636 14.8006Z" stroke="black" stroke-opacity="0.2" stroke-width="1.95312" stroke-miterlimit="10" stroke-linecap="round" stroke-linejoin="round"/>
<path d="M47.4835 43.4143H22.1406V34.7946H47.4835V43.4143Z" stroke="#4D4D4D" stroke-width="1.95312" stroke-miterlimit="10" stroke-linecap="round" stroke-linejoin="round"/>
<path d="M47.4835 43.4143H22.1406V34.7946H47.4835V43.4143Z" stroke="black" stroke-opacity="0.2" stroke-width="1.95312" stroke-miterlimit="10" stroke-linecap="round" stroke-linejoin="round"/>
<path d="M28.2019 48.0737H24.0234V43.4143H28.2019V48.0737Z" stroke="#4D4D4D" stroke-width="1.95312" stroke-miterlimit="10" stroke-linecap="round" stroke-linejoin="round"/>
<path d="M28.2019 48.0737H24.0234V43.4143H28.2019V48.0737Z" stroke="black" stroke-opacity="0.2" stroke-width="1.95312" stroke-miterlimit="10" stroke-linecap="round" stroke-linejoin="round"/>
<path d="M45.5926 48.0737H41.4141V43.4143H45.5926V48.0737Z" stroke="#4D4D4D" stroke-width="1.95312" stroke-miterlimit="10" stroke-linecap="round" stroke-linejoin="round"/>
<path d="M45.5926 48.0737H41.4141V43.4143H45.5926V48.0737Z" stroke="black" stroke-opacity="0.2" stroke-width="1.95312" stroke-miterlimit="10" stroke-linecap="round" stroke-linejoin="round"/>
<path d="M46.0079 34.7944H23.5938L26.5234 25.2657H43.0782L46.0079 34.7944Z" stroke="#4D4D4D" stroke-width="1.95312" stroke-miterlimit="10" stroke-linecap="round" stroke-linejoin="round"/>
<path d="M46.0079 34.7944H23.5938L26.5234 25.2657H43.0782L46.0079 34.7944Z" stroke="black" stroke-opacity="0.2" stroke-width="1.95312" stroke-miterlimit="10" stroke-linecap="round" stroke-linejoin="round"/>
<path d="M24.7204 30.6431H22.2188" stroke="#4D4D4D" stroke-width="1.95312" stroke-miterlimit="10" stroke-linecap="round" stroke-linejoin="round"/>
<path d="M24.7204 30.6431H22.2188" stroke="black" stroke-opacity="0.2" stroke-width="1.95312" stroke-miterlimit="10" stroke-linecap="round" stroke-linejoin="round"/>
<path d="M47.4001 30.6431H44.8984" stroke="#4D4D4D" stroke-width="1.95312" stroke-miterlimit="10" stroke-linecap="round" stroke-linejoin="round"/>
<path d="M47.4001 30.6431H44.8984" stroke="black" stroke-opacity="0.2" stroke-width="1.95312" stroke-miterlimit="10" stroke-linecap="round" stroke-linejoin="round"/>
<path d="M39.9219 39.6191H43.1716" stroke="#4D4D4D" stroke-width="1.95312" stroke-miterlimit="10" stroke-linecap="round" stroke-linejoin="round"/>
<path d="M39.9219 39.6191H43.1716" stroke="black" stroke-opacity="0.2" stroke-width="1.95312" stroke-miterlimit="10" stroke-linecap="round" stroke-linejoin="round"/>
<path d="M26.4375 39.6191H29.6871" stroke="#4D4D4D" stroke-width="1.95312" stroke-miterlimit="10" stroke-linecap="round" stroke-linejoin="round"/>
<path d="M26.4375 39.6191H29.6871" stroke="black" stroke-opacity="0.2" stroke-width="1.95312" stroke-miterlimit="10" stroke-linecap="round" stroke-linejoin="round"/>
<path d="M11.8125 10.1818V20.675" stroke="#4D4D4D" stroke-width="1.95312" stroke-miterlimit="10" stroke-linecap="round" stroke-linejoin="round"/>
<path d="M11.8125 10.1818V20.675" stroke="black" stroke-opacity="0.2" stroke-width="1.95312" stroke-miterlimit="10" stroke-linecap="round" stroke-linejoin="round"/>
<path d="M17.7535 13.1429C17.7535 14.7783 16.3697 16.1041 14.7343 16.1041C13.9232 16.1041 11.8329 16.1172 11.8329 16.1172C11.8329 16.1172 11.8198 13.9672 11.8198 13.1429C11.8198 12.4658 11.8125 10.1816 11.8125 10.1816H14.7343C16.3697 10.1816 17.7535 11.5074 17.7535 13.1429Z" stroke="#4D4D4D" stroke-width="1.95312" stroke-miterlimit="10" stroke-linecap="round" stroke-linejoin="round"/>
<path d="M17.7535 13.1429C17.7535 14.7783 16.3697 16.1041 14.7343 16.1041C13.9232 16.1041 11.8329 16.1172 11.8329 16.1172C11.8329 16.1172 11.8198 13.9672 11.8198 13.1429C11.8198 12.4658 11.8125 10.1816 11.8125 10.1816H14.7343C16.3697 10.1816 17.7535 11.5074 17.7535 13.1429Z" stroke="black" stroke-opacity="0.2" stroke-width="1.95312" stroke-miterlimit="10" stroke-linecap="round" stroke-linejoin="round"/>
</g>
</g>
<path d="M75.7153 30.14C74.6886 30.14 73.8066 29.9347 73.0693 29.524C72.3413 29.104 71.7813 28.516 71.3893 27.76C70.9973 26.9947 70.8013 26.094 70.8013 25.058C70.8013 24.022 70.9973 23.126 71.3893 22.37C71.7813 21.614 72.3413 21.0307 73.0693 20.62C73.8066 20.2 74.6886 19.99 75.7153 19.99C76.4059 19.99 77.0266 20.088 77.5773 20.284C78.1373 20.48 78.6179 20.7693 79.0193 21.152L78.4313 22.58C77.9926 22.2253 77.5679 21.9733 77.1573 21.824C76.7559 21.6653 76.2939 21.586 75.7713 21.586C74.7726 21.586 74.0073 21.8893 73.4753 22.496C72.9526 23.0933 72.6913 23.9473 72.6913 25.058C72.6913 26.1687 72.9526 27.0273 73.4753 27.634C74.0073 28.2407 74.7726 28.544 75.7713 28.544C76.2939 28.544 76.7559 28.4693 77.1573 28.32C77.5679 28.1613 77.9926 27.9 78.4313 27.536L79.0193 28.964C78.6179 29.3373 78.1373 29.6267 77.5773 29.832C77.0266 30.0373 76.4059 30.14 75.7153 30.14ZM83.0511 30.14C82.4351 30.14 81.8938 29.9953 81.4271 29.706C80.9605 29.4073 80.5965 28.9827 80.3351 28.432C80.0738 27.8813 79.9431 27.2233 79.9431 26.458C79.9431 25.6927 80.0738 25.0393 80.3351 24.498C80.5965 23.9473 80.9605 23.5273 81.4271 23.238C81.8938 22.9393 82.4351 22.79 83.0511 22.79C83.6485 22.79 84.1711 22.9393 84.6191 23.238C85.0765 23.5273 85.3798 23.9193 85.5291 24.414H85.3751L85.5291 22.93H87.2091C87.1811 23.2193 87.1531 23.5133 87.1251 23.812C87.1065 24.1107 87.0971 24.4047 87.0971 24.694V30H85.3611L85.3471 28.544H85.5151C85.3658 29.0293 85.0625 29.4167 84.6051 29.706C84.1478 29.9953 83.6298 30.14 83.0511 30.14ZM83.5411 28.796C84.0918 28.796 84.5351 28.6047 84.8711 28.222C85.2071 27.83 85.3751 27.242 85.3751 26.458C85.3751 25.674 85.2071 25.0907 84.8711 24.708C84.5351 24.3253 84.0918 24.134 83.5411 24.134C82.9905 24.134 82.5471 24.3253 82.2111 24.708C81.8751 25.0907 81.7071 25.674 81.7071 26.458C81.7071 27.242 81.8705 27.83 82.1971 28.222C82.5331 28.6047 82.9811 28.796 83.5411 28.796ZM88.9888 30V24.736C88.9888 24.4373 88.9794 24.134 88.9608 23.826C88.9514 23.518 88.9281 23.2193 88.8908 22.93H90.5848L90.7808 24.862H90.5008C90.5941 24.3953 90.7481 24.008 90.9628 23.7C91.1868 23.392 91.4574 23.1633 91.7748 23.014C92.0921 22.8647 92.4374 22.79 92.8108 22.79C92.9788 22.79 93.1141 22.7993 93.2168 22.818C93.3194 22.8273 93.4221 22.8507 93.5248 22.888L93.5108 24.428C93.3334 24.3533 93.1794 24.3067 93.0488 24.288C92.9274 24.2693 92.7734 24.26 92.5868 24.26C92.1854 24.26 91.8448 24.344 91.5648 24.512C91.2941 24.68 91.0888 24.9133 90.9488 25.212C90.8181 25.5107 90.7528 25.8513 90.7528 26.234V30H88.9888ZM98.3407 33.024V24.694C98.3407 24.4047 98.3313 24.1107 98.3127 23.812C98.294 23.5133 98.266 23.2193 98.2287 22.93H99.9227L100.077 24.414H99.9227C100.063 23.9193 100.357 23.5273 100.805 23.238C101.262 22.9393 101.789 22.79 102.387 22.79C103.012 22.79 103.558 22.9393 104.025 23.238C104.491 23.5273 104.855 23.9473 105.117 24.498C105.378 25.0393 105.509 25.6927 105.509 26.458C105.509 27.2233 105.378 27.8813 105.117 28.432C104.855 28.9827 104.491 29.4073 104.025 29.706C103.558 29.9953 103.012 30.14 102.387 30.14C101.799 30.14 101.281 29.9953 100.833 29.706C100.385 29.4167 100.086 29.0293 99.9367 28.544H100.091V33.024H98.3407ZM101.897 28.796C102.457 28.796 102.905 28.6047 103.241 28.222C103.577 27.83 103.745 27.242 103.745 26.458C103.745 25.674 103.577 25.0907 103.241 24.708C102.905 24.3253 102.457 24.134 101.897 24.134C101.346 24.134 100.903 24.3253 100.567 24.708C100.231 25.0907 100.063 25.674 100.063 26.458C100.063 27.242 100.231 27.83 100.567 28.222C100.903 28.6047 101.346 28.796 101.897 28.796ZM109.752 30.14C109.136 30.14 108.595 29.9953 108.128 29.706C107.662 29.4073 107.298 28.9827 107.036 28.432C106.775 27.8813 106.644 27.2233 106.644 26.458C106.644 25.6927 106.775 25.0393 107.036 24.498C107.298 23.9473 107.662 23.5273 108.128 23.238C108.595 22.9393 109.136 22.79 109.752 22.79C110.35 22.79 110.872 22.9393 111.32 23.238C111.778 23.5273 112.081 23.9193 112.23 24.414H112.076L112.23 22.93H113.91C113.882 23.2193 113.854 23.5133 113.826 23.812C113.808 24.1107 113.798 24.4047 113.798 24.694V30H112.062L112.048 28.544H112.216C112.067 29.0293 111.764 29.4167 111.306 29.706C110.849 29.9953 110.331 30.14 109.752 30.14ZM110.242 28.796C110.793 28.796 111.236 28.6047 111.572 28.222C111.908 27.83 112.076 27.242 112.076 26.458C112.076 25.674 111.908 25.0907 111.572 24.708C111.236 24.3253 110.793 24.134 110.242 24.134C109.692 24.134 109.248 24.3253 108.912 24.708C108.576 25.0907 108.408 25.674 108.408 26.458C108.408 27.242 108.572 27.83 108.898 28.222C109.234 28.6047 109.682 28.796 110.242 28.796ZM115.69 30V24.736C115.69 24.4373 115.681 24.134 115.662 23.826C115.653 23.518 115.629 23.2193 115.592 22.93H117.286L117.482 24.862H117.202C117.295 24.3953 117.449 24.008 117.664 23.7C117.888 23.392 118.159 23.1633 118.476 23.014C118.793 22.8647 119.139 22.79 119.512 22.79C119.68 22.79 119.815 22.7993 119.918 22.818C120.021 22.8273 120.123 22.8507 120.226 22.888L120.212 24.428C120.035 24.3533 119.881 24.3067 119.75 24.288C119.629 24.2693 119.475 24.26 119.288 24.26C118.887 24.26 118.546 24.344 118.266 24.512C117.995 24.68 117.79 24.9133 117.65 25.212C117.519 25.5107 117.454 25.8513 117.454 26.234V30H115.69ZM121.2 30V19.696H122.95V25.94H122.978L125.848 22.93H127.962L124.392 26.668L124.406 25.968L128.214 30H126.044L122.978 26.836H122.95V30H121.2ZM128.925 30V22.93H130.675V30H128.925ZM128.827 21.6V19.892H130.773V21.6H128.827ZM132.575 30V24.694C132.575 24.4047 132.566 24.1107 132.547 23.812C132.528 23.5133 132.5 23.2193 132.463 22.93H134.157L134.297 24.33H134.129C134.353 23.8353 134.684 23.4573 135.123 23.196C135.562 22.9253 136.07 22.79 136.649 22.79C137.48 22.79 138.105 23.0233 138.525 23.49C138.945 23.9567 139.155 24.6847 139.155 25.674V30H137.405V25.758C137.405 25.1887 137.293 24.7827 137.069 24.54C136.854 24.288 136.528 24.162 136.089 24.162C135.548 24.162 135.118 24.33 134.801 24.666C134.484 25.002 134.325 25.45 134.325 26.01V30H132.575ZM144.287 33.136C143.633 33.136 143.041 33.066 142.509 32.926C141.986 32.786 141.519 32.5713 141.109 32.282L141.487 31.022C141.757 31.1993 142.037 31.344 142.327 31.456C142.616 31.568 142.915 31.652 143.223 31.708C143.531 31.764 143.843 31.792 144.161 31.792C144.814 31.792 145.299 31.6287 145.617 31.302C145.943 30.9847 146.107 30.5273 146.107 29.93V28.236H146.247C146.097 28.7213 145.794 29.1087 145.337 29.398C144.889 29.6873 144.371 29.832 143.783 29.832C143.148 29.832 142.593 29.692 142.117 29.412C141.65 29.1227 141.286 28.712 141.025 28.18C140.763 27.648 140.633 27.0227 140.633 26.304C140.633 25.5853 140.763 24.9647 141.025 24.442C141.286 23.91 141.65 23.504 142.117 23.224C142.593 22.9347 143.148 22.79 143.783 22.79C144.38 22.79 144.898 22.9347 145.337 23.224C145.785 23.504 146.083 23.8867 146.233 24.372L146.107 24.288L146.247 22.93H147.941C147.903 23.2193 147.875 23.5133 147.857 23.812C147.838 24.1107 147.829 24.4047 147.829 24.694V29.72C147.829 30.8307 147.525 31.6753 146.919 32.254C146.321 32.842 145.444 33.136 144.287 33.136ZM144.259 28.488C144.819 28.488 145.262 28.3013 145.589 27.928C145.925 27.5453 146.093 27.004 146.093 26.304C146.093 25.604 145.925 25.0673 145.589 24.694C145.262 24.3207 144.819 24.134 144.259 24.134C143.689 24.134 143.237 24.3207 142.901 24.694C142.565 25.0673 142.397 25.604 142.397 26.304C142.397 27.004 142.565 27.5453 142.901 27.928C143.237 28.3013 143.689 28.488 144.259 28.488Z" fill="#4D4D4D"/>
<path d="M75.7153 30.14C74.6886 30.14 73.8066 29.9347 73.0693 29.524C72.3413 29.104 71.7813 28.516 71.3893 27.76C70.9973 26.9947 70.8013 26.094 70.8013 25.058C70.8013 24.022 70.9973 23.126 71.3893 22.37C71.7813 21.614 72.3413 21.0307 73.0693 20.62C73.8066 20.2 74.6886 19.99 75.7153 19.99C76.4059 19.99 77.0266 20.088 77.5773 20.284C78.1373 20.48 78.6179 20.7693 79.0193 21.152L78.4313 22.58C77.9926 22.2253 77.5679 21.9733 77.1573 21.824C76.7559 21.6653 76.2939 21.586 75.7713 21.586C74.7726 21.586 74.0073 21.8893 73.4753 22.496C72.9526 23.0933 72.6913 23.9473 72.6913 25.058C72.6913 26.1687 72.9526 27.0273 73.4753 27.634C74.0073 28.2407 74.7726 28.544 75.7713 28.544C76.2939 28.544 76.7559 28.4693 77.1573 28.32C77.5679 28.1613 77.9926 27.9 78.4313 27.536L79.0193 28.964C78.6179 29.3373 78.1373 29.6267 77.5773 29.832C77.0266 30.0373 76.4059 30.14 75.7153 30.14ZM83.0511 30.14C82.4351 30.14 81.8938 29.9953 81.4271 29.706C80.9605 29.4073 80.5965 28.9827 80.3351 28.432C80.0738 27.8813 79.9431 27.2233 79.9431 26.458C79.9431 25.6927 80.0738 25.0393 80.3351 24.498C80.5965 23.9473 80.9605 23.5273 81.4271 23.238C81.8938 22.9393 82.4351 22.79 83.0511 22.79C83.6485 22.79 84.1711 22.9393 84.6191 23.238C85.0765 23.5273 85.3798 23.9193 85.5291 24.414H85.3751L85.5291 22.93H87.2091C87.1811 23.2193 87.1531 23.5133 87.1251 23.812C87.1065 24.1107 87.0971 24.4047 87.0971 24.694V30H85.3611L85.3471 28.544H85.5151C85.3658 29.0293 85.0625 29.4167 84.6051 29.706C84.1478 29.9953 83.6298 30.14 83.0511 30.14ZM83.5411 28.796C84.0918 28.796 84.5351 28.6047 84.8711 28.222C85.2071 27.83 85.3751 27.242 85.3751 26.458C85.3751 25.674 85.2071 25.0907 84.8711 24.708C84.5351 24.3253 84.0918 24.134 83.5411 24.134C82.9905 24.134 82.5471 24.3253 82.2111 24.708C81.8751 25.0907 81.7071 25.674 81.7071 26.458C81.7071 27.242 81.8705 27.83 82.1971 28.222C82.5331 28.6047 82.9811 28.796 83.5411 28.796ZM88.9888 30V24.736C88.9888 24.4373 88.9794 24.134 88.9608 23.826C88.9514 23.518 88.9281 23.2193 88.8908 22.93H90.5848L90.7808 24.862H90.5008C90.5941 24.3953 90.7481 24.008 90.9628 23.7C91.1868 23.392 91.4574 23.1633 91.7748 23.014C92.0921 22.8647 92.4374 22.79 92.8108 22.79C92.9788 22.79 93.1141 22.7993 93.2168 22.818C93.3194 22.8273 93.4221 22.8507 93.5248 22.888L93.5108 24.428C93.3334 24.3533 93.1794 24.3067 93.0488 24.288C92.9274 24.2693 92.7734 24.26 92.5868 24.26C92.1854 24.26 91.8448 24.344 91.5648 24.512C91.2941 24.68 91.0888 24.9133 90.9488 25.212C90.8181 25.5107 90.7528 25.8513 90.7528 26.234V30H88.9888ZM98.3407 33.024V24.694C98.3407 24.4047 98.3313 24.1107 98.3127 23.812C98.294 23.5133 98.266 23.2193 98.2287 22.93H99.9227L100.077 24.414H99.9227C100.063 23.9193 100.357 23.5273 100.805 23.238C101.262 22.9393 101.789 22.79 102.387 22.79C103.012 22.79 103.558 22.9393 104.025 23.238C104.491 23.5273 104.855 23.9473 105.117 24.498C105.378 25.0393 105.509 25.6927 105.509 26.458C105.509 27.2233 105.378 27.8813 105.117 28.432C104.855 28.9827 104.491 29.4073 104.025 29.706C103.558 29.9953 103.012 30.14 102.387 30.14C101.799 30.14 101.281 29.9953 100.833 29.706C100.385 29.4167 100.086 29.0293 99.9367 28.544H100.091V33.024H98.3407ZM101.897 28.796C102.457 28.796 102.905 28.6047 103.241 28.222C103.577 27.83 103.745 27.242 103.745 26.458C103.745 25.674 103.577 25.0907 103.241 24.708C102.905 24.3253 102.457 24.134 101.897 24.134C101.346 24.134 100.903 24.3253 100.567 24.708C100.231 25.0907 100.063 25.674 100.063 26.458C100.063 27.242 100.231 27.83 100.567 28.222C100.903 28.6047 101.346 28.796 101.897 28.796ZM109.752 30.14C109.136 30.14 108.595 29.9953 108.128 29.706C107.662 29.4073 107.298 28.9827 107.036 28.432C106.775 27.8813 106.644 27.2233 106.644 26.458C106.644 25.6927 106.775 25.0393 107.036 24.498C107.298 23.9473 107.662 23.5273 108.128 23.238C108.595 22.9393 109.136 22.79 109.752 22.79C110.35 22.79 110.872 22.9393 111.32 23.238C111.778 23.5273 112.081 23.9193 112.23 24.414H112.076L112.23 22.93H113.91C113.882 23.2193 113.854 23.5133 113.826 23.812C113.808 24.1107 113.798 24.4047 113.798 24.694V30H112.062L112.048 28.544H112.216C112.067 29.0293 111.764 29.4167 111.306 29.706C110.849 29.9953 110.331 30.14 109.752 30.14ZM110.242 28.796C110.793 28.796 111.236 28.6047 111.572 28.222C111.908 27.83 112.076 27.242 112.076 26.458C112.076 25.674 111.908 25.0907 111.572 24.708C111.236 24.3253 110.793 24.134 110.242 24.134C109.692 24.134 109.248 24.3253 108.912 24.708C108.576 25.0907 108.408 25.674 108.408 26.458C108.408 27.242 108.572 27.83 108.898 28.222C109.234 28.6047 109.682 28.796 110.242 28.796ZM115.69 30V24.736C115.69 24.4373 115.681 24.134 115.662 23.826C115.653 23.518 115.629 23.2193 115.592 22.93H117.286L117.482 24.862H117.202C117.295 24.3953 117.449 24.008 117.664 23.7C117.888 23.392 118.159 23.1633 118.476 23.014C118.793 22.8647 119.139 22.79 119.512 22.79C119.68 22.79 119.815 22.7993 119.918 22.818C120.021 22.8273 120.123 22.8507 120.226 22.888L120.212 24.428C120.035 24.3533 119.881 24.3067 119.75 24.288C119.629 24.2693 119.475 24.26 119.288 24.26C118.887 24.26 118.546 24.344 118.266 24.512C117.995 24.68 117.79 24.9133 117.65 25.212C117.519 25.5107 117.454 25.8513 117.454 26.234V30H115.69ZM121.2 30V19.696H122.95V25.94H122.978L125.848 22.93H127.962L124.392 26.668L124.406 25.968L128.214 30H126.044L122.978 26.836H122.95V30H121.2ZM128.925 30V22.93H130.675V30H128.925ZM128.827 21.6V19.892H130.773V21.6H128.827ZM132.575 30V24.694C132.575 24.4047 132.566 24.1107 132.547 23.812C132.528 23.5133 132.5 23.2193 132.463 22.93H134.157L134.297 24.33H134.129C134.353 23.8353 134.684 23.4573 135.123 23.196C135.562 22.9253 136.07 22.79 136.649 22.79C137.48 22.79 138.105 23.0233 138.525 23.49C138.945 23.9567 139.155 24.6847 139.155 25.674V30H137.405V25.758C137.405 25.1887 137.293 24.7827 137.069 24.54C136.854 24.288 136.528 24.162 136.089 24.162C135.548 24.162 135.118 24.33 134.801 24.666C134.484 25.002 134.325 25.45 134.325 26.01V30H132.575ZM144.287 33.136C143.633 33.136 143.041 33.066 142.509 32.926C141.986 32.786 141.519 32.5713 141.109 32.282L141.487 31.022C141.757 31.1993 142.037 31.344 142.327 31.456C142.616 31.568 142.915 31.652 143.223 31.708C143.531 31.764 143.843 31.792 144.161 31.792C144.814 31.792 145.299 31.6287 145.617 31.302C145.943 30.9847 146.107 30.5273 146.107 29.93V28.236H146.247C146.097 28.7213 145.794 29.1087 145.337 29.398C144.889 29.6873 144.371 29.832 143.783 29.832C143.148 29.832 142.593 29.692 142.117 29.412C141.65 29.1227 141.286 28.712 141.025 28.18C140.763 27.648 140.633 27.0227 140.633 26.304C140.633 25.5853 140.763 24.9647 141.025 24.442C141.286 23.91 141.65 23.504 142.117 23.224C142.593 22.9347 143.148 22.79 143.783 22.79C144.38 22.79 144.898 22.9347 145.337 23.224C145.785 23.504 146.083 23.8867 146.233 24.372L146.107 24.288L146.247 22.93H147.941C147.903 23.2193 147.875 23.5133 147.857 23.812C147.838 24.1107 147.829 24.4047 147.829 24.694V29.72C147.829 30.8307 147.525 31.6753 146.919 32.254C146.321 32.842 145.444 33.136 144.287 33.136ZM144.259 28.488C144.819 28.488 145.262 28.3013 145.589 27.928C145.925 27.5453 146.093 27.004 146.093 26.304C146.093 25.604 145.925 25.0673 145.589 24.694C145.262 24.3207 144.819 24.134 144.259 24.134C143.689 24.134 143.237 24.3207 142.901 24.694C142.565 25.0673 142.397 25.604 142.397 26.304C142.397 27.004 142.565 27.5453 142.901 27.928C143.237 28.3013 143.689 28.488 144.259 28.488Z" fill="black" fill-opacity="0.2"/>
<defs>
<clipPath id="clip0_2434_1208">
<rect width="49.9999" height="49.9999" fill="white" transform="translate(0.03125)"/>
</clipPath>
</defs>
</svg>
