<svg width="150" height="50" viewBox="0 0 150 50" fill="none" xmlns="http://www.w3.org/2000/svg">
<g clip-path="url(#clip0_2434_1201)">
<path d="M31.8063 27.6625L27.1001 25.4895C24.2397 24.1677 20.623 25.5666 18.0105 28.6677L13.9032 26.4229C12.9918 25.9989 11.7084 26.775 11.099 28.0895C10.8033 28.6985 10.6963 29.3819 10.7918 30.052C10.817 30.3073 10.9034 30.5528 11.0438 30.7675C11.1842 30.9822 11.3743 31.1599 11.598 31.2854L15.4011 33.3687C13.8272 38.1166 15.0084 42.8656 18.3615 44.4104L23.0668 46.5823C23.8043 46.9213 24.6071 47.0952 25.4188 47.0916C26.772 47.0603 28.0916 46.6644 29.2386 45.9458C31.4176 44.5754 33.136 42.5835 34.172 40.227C36.5813 35.0177 35.5199 29.375 31.8063 27.6625ZM12.373 29.9343C12.3535 29.8887 12.3398 29.8407 12.3324 29.7916C12.2931 29.4339 12.357 29.0724 12.5168 28.75C12.6631 28.3713 12.9438 28.0598 13.3053 27.875L17.0615 29.9302C16.6585 30.5393 16.302 31.1779 15.9949 31.8406C15.9865 31.8604 15.9793 31.8802 15.9699 31.9L12.373 29.9343ZM17.4136 32.5C19.4615 28.0656 23.5115 25.5593 26.4459 26.9114L27.599 27.4448C26.9108 27.6459 26.2507 27.9332 25.6345 28.3C23.4555 29.67 21.7371 31.6615 20.7011 34.0177C19.5798 36.3349 19.1778 38.9346 19.547 41.4823C19.6685 42.1888 19.8785 42.8772 20.172 43.5312L19.0261 43C16.0855 41.6416 15.3657 36.9312 17.4136 32.5ZM32.7543 39.5833C31.8502 41.6521 30.3484 43.4034 28.4418 44.6125C27.7618 45.0869 26.9752 45.3861 26.1519 45.4835C25.3285 45.5809 24.4938 45.4735 23.722 45.1708C22.991 44.7788 22.3681 44.2124 21.9086 43.5219C21.4491 42.8314 21.167 42.0381 21.0876 41.2125C20.7709 38.9768 21.13 36.6976 22.1188 34.6677C23.0224 32.5986 24.5243 30.8471 26.4313 29.6385C27.3377 29.0666 28.3809 28.7482 29.4522 28.7166C30.0367 28.7131 30.615 28.8368 31.147 29.0791C34.0824 30.4343 34.8022 35.1448 32.7543 39.5833Z" fill="#4D4D4D"/>
<path d="M31.8063 27.6625L27.1001 25.4895C24.2397 24.1677 20.623 25.5666 18.0105 28.6677L13.9032 26.4229C12.9918 25.9989 11.7084 26.775 11.099 28.0895C10.8033 28.6985 10.6963 29.3819 10.7918 30.052C10.817 30.3073 10.9034 30.5528 11.0438 30.7675C11.1842 30.9822 11.3743 31.1599 11.598 31.2854L15.4011 33.3687C13.8272 38.1166 15.0084 42.8656 18.3615 44.4104L23.0668 46.5823C23.8043 46.9213 24.6071 47.0952 25.4188 47.0916C26.772 47.0603 28.0916 46.6644 29.2386 45.9458C31.4176 44.5754 33.136 42.5835 34.172 40.227C36.5813 35.0177 35.5199 29.375 31.8063 27.6625ZM12.373 29.9343C12.3535 29.8887 12.3398 29.8407 12.3324 29.7916C12.2931 29.4339 12.357 29.0724 12.5168 28.75C12.6631 28.3713 12.9438 28.0598 13.3053 27.875L17.0615 29.9302C16.6585 30.5393 16.302 31.1779 15.9949 31.8406C15.9865 31.8604 15.9793 31.8802 15.9699 31.9L12.373 29.9343ZM17.4136 32.5C19.4615 28.0656 23.5115 25.5593 26.4459 26.9114L27.599 27.4448C26.9108 27.6459 26.2507 27.9332 25.6345 28.3C23.4555 29.67 21.7371 31.6615 20.7011 34.0177C19.5798 36.3349 19.1778 38.9346 19.547 41.4823C19.6685 42.1888 19.8785 42.8772 20.172 43.5312L19.0261 43C16.0855 41.6416 15.3657 36.9312 17.4136 32.5ZM32.7543 39.5833C31.8502 41.6521 30.3484 43.4034 28.4418 44.6125C27.7618 45.0869 26.9752 45.3861 26.1519 45.4835C25.3285 45.5809 24.4938 45.4735 23.722 45.1708C22.991 44.7788 22.3681 44.2124 21.9086 43.5219C21.4491 42.8314 21.167 42.0381 21.0876 41.2125C20.7709 38.9768 21.13 36.6976 22.1188 34.6677C23.0224 32.5986 24.5243 30.8471 26.4313 29.6385C27.3377 29.0666 28.3809 28.7482 29.4522 28.7166C30.0367 28.7131 30.615 28.8368 31.147 29.0791C34.0824 30.4343 34.8022 35.1448 32.7543 39.5833Z" fill="black" fill-opacity="0.2"/>
<path d="M13.0141 36.9844C12.4072 37.2969 11.7393 37.4731 11.0572 37.5006C10.3752 37.5281 9.69528 37.4063 9.06515 37.1437C7.36932 36.3604 6.33702 34.3573 6.30473 31.7844C6.30199 31.579 6.21848 31.3829 6.07226 31.2387C5.92604 31.0944 5.72889 31.0135 5.52348 31.0135H5.51307C5.41047 31.0149 5.30914 31.0365 5.21488 31.077C5.12061 31.1175 5.03525 31.1762 4.96367 31.2497C4.89209 31.3232 4.83569 31.4101 4.7977 31.5054C4.7597 31.6007 4.74086 31.7026 4.74223 31.8052C4.74497 33.0804 5.01168 34.3412 5.52557 35.5083L4.3589 34.9708C3.62794 34.5787 3.005 34.0123 2.5453 33.3218C2.08559 32.6314 1.80331 31.8382 1.72348 31.0125C1.40764 28.7768 1.76711 26.4977 2.75577 24.4677C3.65963 22.3988 5.16145 20.6474 7.06827 19.4385C7.74839 18.965 8.53469 18.6662 9.35768 18.5686C10.1807 18.4711 11.015 18.5777 11.787 18.8792C11.8026 18.887 11.8186 18.8939 11.8349 18.9L12.9672 19.4208C11.4197 19.9721 10.0044 20.8407 8.8121 21.9708C7.61977 23.1008 6.67668 24.4676 6.04327 25.9833C5.58809 26.9631 5.24495 27.9912 5.02036 29.0479C4.97746 29.2506 5.01678 29.4619 5.12968 29.6356C5.24259 29.8092 5.41983 29.9309 5.62244 29.974C5.67624 29.9851 5.73104 29.9907 5.78598 29.9906C5.96487 29.9904 6.13825 29.9287 6.27706 29.8158C6.41588 29.703 6.5117 29.5459 6.54848 29.3708C6.74937 28.4288 7.05545 27.5123 7.46098 26.6385C9.5089 22.2052 13.5599 19.6927 16.4933 21.051C17.2562 21.4644 17.9016 22.0649 18.3688 22.7961C18.836 23.5273 19.1096 24.3652 19.1641 25.2312C19.1787 25.3328 19.2132 25.4305 19.2656 25.5187C19.318 25.607 19.3873 25.684 19.4695 25.7455C19.5516 25.807 19.6451 25.8517 19.7445 25.877C19.844 25.9024 19.9474 25.9079 20.049 25.8932C20.1506 25.8786 20.2483 25.8441 20.3365 25.7917C20.4247 25.7393 20.5018 25.6701 20.5633 25.5879C20.6247 25.5057 20.6694 25.4122 20.6948 25.3128C20.7201 25.2134 20.7256 25.1099 20.711 25.0083C20.6172 23.8849 20.2416 22.8033 19.6189 21.8636C18.9962 20.9239 18.1465 20.1565 17.1485 19.6323L12.4443 17.4583C12.4273 17.4502 12.41 17.4429 12.3922 17.4365C11.3961 17.037 10.3172 16.888 9.25009 17.0024C8.18298 17.1168 7.1602 17.4912 6.2714 18.0927C4.0927 19.463 2.37441 21.4545 1.33807 23.8104C-1.07131 29.0344 -0.0108926 34.675 3.70369 36.3906L8.40994 38.5625C9.14504 38.8982 9.94452 39.0696 10.7526 39.0646C11.7545 39.0529 12.7426 38.8304 13.6526 38.4115C13.8419 38.3268 13.9897 38.1704 14.0637 37.9767C14.1376 37.783 14.1316 37.5679 14.0469 37.3786C13.9622 37.1894 13.8059 37.0415 13.6122 36.9676C13.4185 36.8937 13.2034 36.8997 13.0141 36.9844Z" fill="#4D4D4D"/>
<path d="M13.0141 36.9844C12.4072 37.2969 11.7393 37.4731 11.0572 37.5006C10.3752 37.5281 9.69528 37.4063 9.06515 37.1437C7.36932 36.3604 6.33702 34.3573 6.30473 31.7844C6.30199 31.579 6.21848 31.3829 6.07226 31.2387C5.92604 31.0944 5.72889 31.0135 5.52348 31.0135H5.51307C5.41047 31.0149 5.30914 31.0365 5.21488 31.077C5.12061 31.1175 5.03525 31.1762 4.96367 31.2497C4.89209 31.3232 4.83569 31.4101 4.7977 31.5054C4.7597 31.6007 4.74086 31.7026 4.74223 31.8052C4.74497 33.0804 5.01168 34.3412 5.52557 35.5083L4.3589 34.9708C3.62794 34.5787 3.005 34.0123 2.5453 33.3218C2.08559 32.6314 1.80331 31.8382 1.72348 31.0125C1.40764 28.7768 1.76711 26.4977 2.75577 24.4677C3.65963 22.3988 5.16145 20.6474 7.06827 19.4385C7.74839 18.965 8.53469 18.6662 9.35768 18.5686C10.1807 18.4711 11.015 18.5777 11.787 18.8792C11.8026 18.887 11.8186 18.8939 11.8349 18.9L12.9672 19.4208C11.4197 19.9721 10.0044 20.8407 8.8121 21.9708C7.61977 23.1008 6.67668 24.4676 6.04327 25.9833C5.58809 26.9631 5.24495 27.9912 5.02036 29.0479C4.97746 29.2506 5.01678 29.4619 5.12968 29.6356C5.24259 29.8092 5.41983 29.9309 5.62244 29.974C5.67624 29.9851 5.73104 29.9907 5.78598 29.9906C5.96487 29.9904 6.13825 29.9287 6.27706 29.8158C6.41588 29.703 6.5117 29.5459 6.54848 29.3708C6.74937 28.4288 7.05545 27.5123 7.46098 26.6385C9.5089 22.2052 13.5599 19.6927 16.4933 21.051C17.2562 21.4644 17.9016 22.0649 18.3688 22.7961C18.836 23.5273 19.1096 24.3652 19.1641 25.2312C19.1787 25.3328 19.2132 25.4305 19.2656 25.5187C19.318 25.607 19.3873 25.684 19.4695 25.7455C19.5516 25.807 19.6451 25.8517 19.7445 25.877C19.844 25.9024 19.9474 25.9079 20.049 25.8932C20.1506 25.8786 20.2483 25.8441 20.3365 25.7917C20.4247 25.7393 20.5018 25.6701 20.5633 25.5879C20.6247 25.5057 20.6694 25.4122 20.6948 25.3128C20.7201 25.2134 20.7256 25.1099 20.711 25.0083C20.6172 23.8849 20.2416 22.8033 19.6189 21.8636C18.9962 20.9239 18.1465 20.1565 17.1485 19.6323L12.4443 17.4583C12.4273 17.4502 12.41 17.4429 12.3922 17.4365C11.3961 17.037 10.3172 16.888 9.25009 17.0024C8.18298 17.1168 7.1602 17.4912 6.2714 18.0927C4.0927 19.463 2.37441 21.4545 1.33807 23.8104C-1.07131 29.0344 -0.0108926 34.675 3.70369 36.3906L8.40994 38.5625C9.14504 38.8982 9.94452 39.0696 10.7526 39.0646C11.7545 39.0529 12.7426 38.8304 13.6526 38.4115C13.8419 38.3268 13.9897 38.1704 14.0637 37.9767C14.1376 37.783 14.1316 37.5679 14.0469 37.3786C13.9622 37.1894 13.8059 37.0415 13.6122 36.9676C13.4185 36.8937 13.2034 36.8997 13.0141 36.9844Z" fill="black" fill-opacity="0.2"/>
<path d="M36.7574 31.8355C36.5502 31.8379 36.3525 31.9226 36.2077 32.0709C36.063 32.2192 35.983 32.4189 35.9855 32.6261C35.988 32.8333 36.0727 33.031 36.221 33.1758C36.3692 33.3205 36.569 33.4004 36.7762 33.398H36.8001C37.8184 33.3725 38.8111 33.0738 39.6742 32.533C40.5374 31.9922 41.2394 31.2294 41.7065 30.3242C42.1737 29.4191 42.389 28.405 42.3297 27.3882C42.2705 26.3713 41.939 25.3891 41.3699 24.5443C40.8008 23.6995 40.0151 23.0233 39.095 22.5864C38.1749 22.1495 37.1542 21.968 36.1399 22.0609C35.1255 22.1538 34.1548 22.5177 33.3294 23.1145C32.504 23.7113 31.8542 24.5191 31.448 25.4532C31.3651 25.6431 31.3611 25.8582 31.4368 26.0511C31.5125 26.244 31.6617 26.3989 31.8517 26.4818C32.0416 26.5647 32.2567 26.5687 32.4496 26.493C32.6425 26.4173 32.7974 26.2681 32.8803 26.0782C33.1747 25.401 33.6457 24.8153 34.244 24.3826C34.8424 23.9499 35.5461 23.686 36.2814 23.6186C37.0167 23.5511 37.7567 23.6826 38.4238 23.9992C39.0908 24.3159 39.6605 24.806 40.0732 25.4184C40.4859 26.0307 40.7263 26.7427 40.7694 27.4799C40.8124 28.217 40.6565 28.9522 40.318 29.6085C39.9794 30.2647 39.4707 30.8179 38.845 31.21C38.2193 31.6022 37.4997 31.8189 36.7616 31.8375L36.7574 31.8355Z" fill="#4D4D4D"/>
<path d="M36.7574 31.8355C36.5502 31.8379 36.3525 31.9226 36.2077 32.0709C36.063 32.2192 35.983 32.4189 35.9855 32.6261C35.988 32.8333 36.0727 33.031 36.221 33.1758C36.3692 33.3205 36.569 33.4004 36.7762 33.398H36.8001C37.8184 33.3725 38.8111 33.0738 39.6742 32.533C40.5374 31.9922 41.2394 31.2294 41.7065 30.3242C42.1737 29.4191 42.389 28.405 42.3297 27.3882C42.2705 26.3713 41.939 25.3891 41.3699 24.5443C40.8008 23.6995 40.0151 23.0233 39.095 22.5864C38.1749 22.1495 37.1542 21.968 36.1399 22.0609C35.1255 22.1538 34.1548 22.5177 33.3294 23.1145C32.504 23.7113 31.8542 24.5191 31.448 25.4532C31.3651 25.6431 31.3611 25.8582 31.4368 26.0511C31.5125 26.244 31.6617 26.3989 31.8517 26.4818C32.0416 26.5647 32.2567 26.5687 32.4496 26.493C32.6425 26.4173 32.7974 26.2681 32.8803 26.0782C33.1747 25.401 33.6457 24.8153 34.244 24.3826C34.8424 23.9499 35.5461 23.686 36.2814 23.6186C37.0167 23.5511 37.7567 23.6826 38.4238 23.9992C39.0908 24.3159 39.6605 24.806 40.0732 25.4184C40.4859 26.0307 40.7263 26.7427 40.7694 27.4799C40.8124 28.217 40.6565 28.9522 40.318 29.6085C39.9794 30.2647 39.4707 30.8179 38.845 31.21C38.2193 31.6022 37.4997 31.8189 36.7616 31.8375L36.7574 31.8355Z" fill="black" fill-opacity="0.2"/>
<path d="M48.7069 6.78017C47.9506 5.59048 46.9055 4.6115 45.669 3.93434C44.4325 3.25718 43.0448 2.90385 41.6351 2.90725H31.7653C30.3563 2.90748 28.9701 3.26248 27.7344 3.93951C26.4987 4.61654 25.4534 5.5938 24.6949 6.78117C23.9364 7.96853 23.489 9.32778 23.3941 10.7336C23.2991 12.1393 23.5597 13.5464 24.1517 14.825L26.7861 20.5114C26.1872 21.3323 25.6921 22.2242 25.3122 23.1666C25.2401 23.3579 25.2458 23.5698 25.3281 23.7568C25.4104 23.9439 25.5628 24.0913 25.7525 24.1673C25.9422 24.2434 26.1542 24.2421 26.3429 24.1636C26.5317 24.0852 26.6822 23.936 26.7622 23.7479C27.1374 22.8148 27.6416 21.9389 28.2601 21.1458C28.2686 21.1358 28.2766 21.1254 28.284 21.1145C28.9754 20.233 29.8023 19.4669 30.734 18.8448C30.7403 18.8448 30.7434 18.8364 30.7497 18.8343C31.9371 18.0514 33.2691 17.514 34.6674 17.2536C36.0657 16.9933 37.5019 17.0153 38.8915 17.3185C40.2811 17.6216 41.596 18.1997 42.7589 19.0187C43.9217 19.8377 44.9089 20.8811 45.6624 22.0874C46.4159 23.2937 46.9204 24.6386 47.1462 26.0429C47.3721 27.4471 47.3147 28.8823 46.9775 30.2641C46.6402 31.6458 46.03 32.9461 45.1826 34.0884C44.3352 35.2308 43.2679 36.192 42.0434 36.9156H36.6976C36.4904 36.9156 36.2917 36.9979 36.1451 37.1444C35.9986 37.2909 35.9163 37.4896 35.9163 37.6968C35.9163 37.904 35.9986 38.1027 36.1451 38.2493C36.2917 38.3958 36.4904 38.4781 36.6976 38.4781H42.2486C42.3829 38.4769 42.5146 38.441 42.6309 38.3739C44.1318 37.5357 45.4385 36.3894 46.4649 35.0104C47.4914 33.6314 48.2145 32.0508 48.5868 30.3724C48.9591 28.6941 48.9721 26.956 48.6249 25.2722C48.2778 23.5885 47.5783 21.9973 46.5726 20.6031L49.2497 14.8239C49.8449 13.5462 50.1073 12.1387 50.0124 10.7323C49.9175 9.3259 49.4684 7.96637 48.7069 6.78017ZM47.8319 14.1677L45.4674 19.2718C44.9969 18.7837 44.4868 18.3353 43.9424 17.9312L46.0642 13.3479C46.4088 12.6043 46.5604 11.7858 46.5052 10.9682C46.45 10.1505 46.1897 9.35986 45.7484 8.6693C45.307 7.97874 44.6988 7.41047 43.9799 7.01695C43.2611 6.62343 42.4546 6.41733 41.6351 6.41767H40.6559C40.4487 6.41767 40.25 6.49998 40.1035 6.64649C39.957 6.793 39.8747 6.99172 39.8747 7.19892C39.8747 7.40612 39.957 7.60483 40.1035 7.75135C40.25 7.89786 40.4487 7.98017 40.6559 7.98017H41.632C42.1893 7.97969 42.7378 8.11969 43.2268 8.38723C43.7157 8.65477 44.1294 9.04122 44.4295 9.51088C44.7297 9.98054 44.9066 10.5183 44.944 11.0744C44.9813 11.6305 44.878 12.1871 44.6434 12.6927L42.6226 17.0625C40.8128 16.046 38.7738 15.5077 36.6982 15.4984C34.6226 15.4891 32.5788 16.0091 30.7601 17.0093L28.7601 12.6927C28.5255 12.1871 28.4222 11.6307 28.4595 11.0746C28.4968 10.5186 28.6737 9.98096 28.9737 9.51132C29.2737 9.04169 29.6872 8.65522 30.176 8.38761C30.6648 8.12 31.2132 7.97987 31.7705 7.98017H38.3236C38.5308 7.98017 38.7295 7.89786 38.876 7.75135C39.0226 7.60483 39.1049 7.40612 39.1049 7.19892C39.1049 6.99172 39.0226 6.793 38.876 6.64649C38.7295 6.49998 38.5308 6.41767 38.3236 6.41767H31.7653C30.9457 6.41789 30.1395 6.62444 29.4208 7.01829C28.7021 7.41214 28.0941 7.9806 27.6529 8.67126C27.2118 9.36191 26.9516 10.1525 26.8964 10.9702C26.8412 11.7879 26.9928 12.6063 27.3372 13.35L29.4267 17.8593C28.8804 18.2592 28.3686 18.7042 27.8965 19.1895L25.5705 14.1666C25.0881 13.1262 24.8755 11.9811 24.9524 10.8369C25.0293 9.69272 25.3932 8.58633 26.0105 7.61987C26.6278 6.6534 27.4786 5.858 28.4844 5.30708C29.4902 4.75616 30.6185 4.46748 31.7653 4.46767H41.6351C42.7818 4.46748 43.9101 4.7561 44.9159 5.30689C45.9216 5.85768 46.7725 6.6529 47.3899 7.61919C48.0074 8.58548 48.3715 9.69171 48.4488 10.8358C48.526 11.9799 48.3139 13.1251 47.8319 14.1656V14.1677Z" fill="#4D4D4D"/>
<path d="M48.7069 6.78017C47.9506 5.59048 46.9055 4.6115 45.669 3.93434C44.4325 3.25718 43.0448 2.90385 41.6351 2.90725H31.7653C30.3563 2.90748 28.9701 3.26248 27.7344 3.93951C26.4987 4.61654 25.4534 5.5938 24.6949 6.78117C23.9364 7.96853 23.489 9.32778 23.3941 10.7336C23.2991 12.1393 23.5597 13.5464 24.1517 14.825L26.7861 20.5114C26.1872 21.3323 25.6921 22.2242 25.3122 23.1666C25.2401 23.3579 25.2458 23.5698 25.3281 23.7568C25.4104 23.9439 25.5628 24.0913 25.7525 24.1673C25.9422 24.2434 26.1542 24.2421 26.3429 24.1636C26.5317 24.0852 26.6822 23.936 26.7622 23.7479C27.1374 22.8148 27.6416 21.9389 28.2601 21.1458C28.2686 21.1358 28.2766 21.1254 28.284 21.1145C28.9754 20.233 29.8023 19.4669 30.734 18.8448C30.7403 18.8448 30.7434 18.8364 30.7497 18.8343C31.9371 18.0514 33.2691 17.514 34.6674 17.2536C36.0657 16.9933 37.5019 17.0153 38.8915 17.3185C40.2811 17.6216 41.596 18.1997 42.7589 19.0187C43.9217 19.8377 44.9089 20.8811 45.6624 22.0874C46.4159 23.2937 46.9204 24.6386 47.1462 26.0429C47.3721 27.4471 47.3147 28.8823 46.9775 30.2641C46.6402 31.6458 46.03 32.9461 45.1826 34.0884C44.3352 35.2308 43.2679 36.192 42.0434 36.9156H36.6976C36.4904 36.9156 36.2917 36.9979 36.1451 37.1444C35.9986 37.2909 35.9163 37.4896 35.9163 37.6968C35.9163 37.904 35.9986 38.1027 36.1451 38.2493C36.2917 38.3958 36.4904 38.4781 36.6976 38.4781H42.2486C42.3829 38.4769 42.5146 38.441 42.6309 38.3739C44.1318 37.5357 45.4385 36.3894 46.4649 35.0104C47.4914 33.6314 48.2145 32.0508 48.5868 30.3724C48.9591 28.6941 48.9721 26.956 48.6249 25.2722C48.2778 23.5885 47.5783 21.9973 46.5726 20.6031L49.2497 14.8239C49.8449 13.5462 50.1073 12.1387 50.0124 10.7323C49.9175 9.3259 49.4684 7.96637 48.7069 6.78017ZM47.8319 14.1677L45.4674 19.2718C44.9969 18.7837 44.4868 18.3353 43.9424 17.9312L46.0642 13.3479C46.4088 12.6043 46.5604 11.7858 46.5052 10.9682C46.45 10.1505 46.1897 9.35986 45.7484 8.6693C45.307 7.97874 44.6988 7.41047 43.9799 7.01695C43.2611 6.62343 42.4546 6.41733 41.6351 6.41767H40.6559C40.4487 6.41767 40.25 6.49998 40.1035 6.64649C39.957 6.793 39.8747 6.99172 39.8747 7.19892C39.8747 7.40612 39.957 7.60483 40.1035 7.75135C40.25 7.89786 40.4487 7.98017 40.6559 7.98017H41.632C42.1893 7.97969 42.7378 8.11969 43.2268 8.38723C43.7157 8.65477 44.1294 9.04122 44.4295 9.51088C44.7297 9.98054 44.9066 10.5183 44.944 11.0744C44.9813 11.6305 44.878 12.1871 44.6434 12.6927L42.6226 17.0625C40.8128 16.046 38.7738 15.5077 36.6982 15.4984C34.6226 15.4891 32.5788 16.0091 30.7601 17.0093L28.7601 12.6927C28.5255 12.1871 28.4222 11.6307 28.4595 11.0746C28.4968 10.5186 28.6737 9.98096 28.9737 9.51132C29.2737 9.04169 29.6872 8.65522 30.176 8.38761C30.6648 8.12 31.2132 7.97987 31.7705 7.98017H38.3236C38.5308 7.98017 38.7295 7.89786 38.876 7.75135C39.0226 7.60483 39.1049 7.40612 39.1049 7.19892C39.1049 6.99172 39.0226 6.793 38.876 6.64649C38.7295 6.49998 38.5308 6.41767 38.3236 6.41767H31.7653C30.9457 6.41789 30.1395 6.62444 29.4208 7.01829C28.7021 7.41214 28.0941 7.9806 27.6529 8.67126C27.2118 9.36191 26.9516 10.1525 26.8964 10.9702C26.8412 11.7879 26.9928 12.6063 27.3372 13.35L29.4267 17.8593C28.8804 18.2592 28.3686 18.7042 27.8965 19.1895L25.5705 14.1666C25.0881 13.1262 24.8755 11.9811 24.9524 10.8369C25.0293 9.69272 25.3932 8.58633 26.0105 7.61987C26.6278 6.6534 27.4786 5.858 28.4844 5.30708C29.4902 4.75616 30.6185 4.46748 31.7653 4.46767H41.6351C42.7818 4.46748 43.9101 4.7561 44.9159 5.30689C45.9216 5.85768 46.7725 6.6529 47.3899 7.61919C48.0074 8.58548 48.3715 9.69171 48.4488 10.8358C48.526 11.9799 48.3139 13.1251 47.8319 14.1656V14.1677Z" fill="black" fill-opacity="0.2"/>
</g>
<path d="M75.8833 30.14C74.7726 30.14 73.8393 29.9347 73.0833 29.524C72.3273 29.1133 71.7579 28.53 71.3753 27.774C70.9926 27.018 70.8013 26.122 70.8013 25.086C70.8013 24.0407 71.0066 23.14 71.4173 22.384C71.8279 21.6187 72.4159 21.0307 73.1813 20.62C73.9559 20.2 74.8846 19.99 75.9673 19.99C76.6859 19.99 77.3159 20.088 77.8573 20.284C78.3986 20.4707 78.8746 20.746 79.2853 21.11L78.6833 22.51C78.3846 22.2767 78.0999 22.09 77.8293 21.95C77.5586 21.81 77.2786 21.712 76.9893 21.656C76.6999 21.5907 76.3639 21.558 75.9813 21.558C74.8986 21.558 74.0773 21.866 73.5173 22.482C72.9666 23.0887 72.6913 23.9613 72.6913 25.1C72.6913 26.2387 72.9526 27.1067 73.4753 27.704C74.0073 28.3013 74.8379 28.6 75.9673 28.6C76.3499 28.6 76.7326 28.5627 77.1153 28.488C77.5073 28.4133 77.8899 28.306 78.2632 28.166L77.9273 28.922V25.968H75.6173V24.652H79.4253V29.398C78.9679 29.6313 78.4219 29.8133 77.7873 29.944C77.1526 30.0747 76.5179 30.14 75.8833 30.14ZM81.2065 33.178L80.8005 31.792C81.2392 31.6987 81.6079 31.5913 81.9065 31.47C82.2052 31.3487 82.4525 31.19 82.6485 30.994C82.8445 30.798 83.0079 30.546 83.1385 30.238L83.4885 29.412L83.4465 30.098L80.3665 22.93H82.2285L84.4405 28.446H84.0345L86.2605 22.93H88.0245L84.8045 30.392C84.5899 30.896 84.3565 31.3113 84.1045 31.638C83.8525 31.974 83.5819 32.24 83.2925 32.436C83.0032 32.6413 82.6859 32.8 82.3405 32.912C81.9952 33.024 81.6172 33.1127 81.2065 33.178ZM88.9481 30V24.694C88.9481 24.4047 88.9388 24.1107 88.9201 23.812C88.9014 23.5133 88.8734 23.2193 88.8361 22.93H90.5301L90.6701 24.33H90.5021C90.6981 23.8447 90.9968 23.4667 91.3981 23.196C91.8088 22.9253 92.2941 22.79 92.8541 22.79C93.4141 22.79 93.8761 22.9253 94.2401 23.196C94.6134 23.4573 94.8748 23.868 95.0241 24.428H94.8001C94.9961 23.924 95.3181 23.5273 95.7661 23.238C96.2141 22.9393 96.7274 22.79 97.3061 22.79C98.0994 22.79 98.6921 23.0233 99.0841 23.49C99.4761 23.9567 99.6721 24.6847 99.6721 25.674V30H97.9221V25.744C97.9221 25.184 97.8288 24.7827 97.6421 24.54C97.4554 24.288 97.1568 24.162 96.7461 24.162C96.2608 24.162 95.8781 24.3347 95.5981 24.68C95.3181 25.016 95.1781 25.4733 95.1781 26.052V30H93.4281V25.744C93.4281 25.184 93.3348 24.7827 93.1481 24.54C92.9614 24.288 92.6628 24.162 92.2521 24.162C91.7668 24.162 91.3841 24.3347 91.1041 24.68C90.8334 25.016 90.6981 25.4733 90.6981 26.052V30H88.9481Z" fill="#4D4D4D"/>
<path d="M75.8833 30.14C74.7726 30.14 73.8393 29.9347 73.0833 29.524C72.3273 29.1133 71.7579 28.53 71.3753 27.774C70.9926 27.018 70.8013 26.122 70.8013 25.086C70.8013 24.0407 71.0066 23.14 71.4173 22.384C71.8279 21.6187 72.4159 21.0307 73.1813 20.62C73.9559 20.2 74.8846 19.99 75.9673 19.99C76.6859 19.99 77.3159 20.088 77.8573 20.284C78.3986 20.4707 78.8746 20.746 79.2853 21.11L78.6833 22.51C78.3846 22.2767 78.0999 22.09 77.8293 21.95C77.5586 21.81 77.2786 21.712 76.9893 21.656C76.6999 21.5907 76.3639 21.558 75.9813 21.558C74.8986 21.558 74.0773 21.866 73.5173 22.482C72.9666 23.0887 72.6913 23.9613 72.6913 25.1C72.6913 26.2387 72.9526 27.1067 73.4753 27.704C74.0073 28.3013 74.8379 28.6 75.9673 28.6C76.3499 28.6 76.7326 28.5627 77.1153 28.488C77.5073 28.4133 77.8899 28.306 78.2632 28.166L77.9273 28.922V25.968H75.6173V24.652H79.4253V29.398C78.9679 29.6313 78.4219 29.8133 77.7873 29.944C77.1526 30.0747 76.5179 30.14 75.8833 30.14ZM81.2065 33.178L80.8005 31.792C81.2392 31.6987 81.6079 31.5913 81.9065 31.47C82.2052 31.3487 82.4525 31.19 82.6485 30.994C82.8445 30.798 83.0079 30.546 83.1385 30.238L83.4885 29.412L83.4465 30.098L80.3665 22.93H82.2285L84.4405 28.446H84.0345L86.2605 22.93H88.0245L84.8045 30.392C84.5899 30.896 84.3565 31.3113 84.1045 31.638C83.8525 31.974 83.5819 32.24 83.2925 32.436C83.0032 32.6413 82.6859 32.8 82.3405 32.912C81.9952 33.024 81.6172 33.1127 81.2065 33.178ZM88.9481 30V24.694C88.9481 24.4047 88.9388 24.1107 88.9201 23.812C88.9014 23.5133 88.8734 23.2193 88.8361 22.93H90.5301L90.6701 24.33H90.5021C90.6981 23.8447 90.9968 23.4667 91.3981 23.196C91.8088 22.9253 92.2941 22.79 92.8541 22.79C93.4141 22.79 93.8761 22.9253 94.2401 23.196C94.6134 23.4573 94.8748 23.868 95.0241 24.428H94.8001C94.9961 23.924 95.3181 23.5273 95.7661 23.238C96.2141 22.9393 96.7274 22.79 97.3061 22.79C98.0994 22.79 98.6921 23.0233 99.0841 23.49C99.4761 23.9567 99.6721 24.6847 99.6721 25.674V30H97.9221V25.744C97.9221 25.184 97.8288 24.7827 97.6421 24.54C97.4554 24.288 97.1568 24.162 96.7461 24.162C96.2608 24.162 95.8781 24.3347 95.5981 24.68C95.3181 25.016 95.1781 25.4733 95.1781 26.052V30H93.4281V25.744C93.4281 25.184 93.3348 24.7827 93.1481 24.54C92.9614 24.288 92.6628 24.162 92.2521 24.162C91.7668 24.162 91.3841 24.3347 91.1041 24.68C90.8334 25.016 90.6981 25.4733 90.6981 26.052V30H88.9481Z" fill="black" fill-opacity="0.2"/>
<defs>
<clipPath id="clip0_2434_1201">
<rect width="50" height="50" fill="white" transform="translate(0.03125)"/>
</clipPath>
</defs>
</svg>
