<svg width="55" height="54" viewBox="0 0 55 54" fill="none" xmlns="http://www.w3.org/2000/svg">
<rect x="0.5" width="54" height="54" rx="27" fill="#FBA6F9" fill-opacity="0.2"/>
<path d="M27.5 17.163C30.704 17.163 31.084 17.175 32.35 17.233C35.602 17.381 37.121 18.924 37.269 22.152C37.327 23.417 37.338 23.797 37.338 27.001C37.338 30.206 37.326 30.585 37.269 31.85C37.12 35.075 35.605 36.621 32.35 36.769C31.084 36.827 30.706 36.839 27.5 36.839C24.296 36.839 23.916 36.827 22.651 36.769C19.391 36.62 17.88 35.07 17.732 31.849C17.674 30.584 17.662 30.205 17.662 27C17.662 23.796 17.675 23.417 17.732 22.151C17.881 18.924 19.396 17.38 22.651 17.232C23.917 17.175 24.296 17.163 27.5 17.163ZM27.5 15C24.241 15 23.833 15.014 22.553 15.072C18.195 15.272 15.773 17.69 15.573 22.052C15.514 23.333 15.5 23.741 15.5 27C15.5 30.259 15.514 30.668 15.572 31.948C15.772 36.306 18.19 38.728 22.552 38.928C23.833 38.986 24.241 39 27.5 39C30.759 39 31.168 38.986 32.448 38.928C36.802 38.728 39.23 36.31 39.427 31.948C39.486 30.668 39.5 30.259 39.5 27C39.5 23.741 39.486 23.333 39.428 22.053C39.232 17.699 36.811 15.273 32.449 15.073C31.168 15.014 30.759 15 27.5 15V15ZM27.5 20.838C24.097 20.838 21.338 23.597 21.338 27C21.338 30.403 24.097 33.163 27.5 33.163C30.903 33.163 33.662 30.404 33.662 27C33.662 23.597 30.903 20.838 27.5 20.838ZM27.5 31C25.291 31 23.5 29.21 23.5 27C23.5 24.791 25.291 23 27.5 23C29.709 23 31.5 24.791 31.5 27C31.5 29.21 29.709 31 27.5 31ZM33.906 19.155C33.11 19.155 32.465 19.8 32.465 20.595C32.465 21.39 33.11 22.035 33.906 22.035C34.701 22.035 35.345 21.39 35.345 20.595C35.345 19.8 34.701 19.155 33.906 19.155Z" fill="#F74DF4"/>
</svg>
