<svg width="55" height="54" viewBox="0 0 55 54" fill="none" xmlns="http://www.w3.org/2000/svg">
<rect x="0.5" width="54" height="54" rx="27" fill="#FBA6F9" fill-opacity="0.2"/>
<path d="M37.2922 20.2719C34.773 20.2719 32.7235 18.2223 32.7235 15.7031C32.7235 15.3148 32.4087 15 32.0204 15H28.2547C27.8664 15 27.5516 15.3148 27.5516 15.7031V31.1422C27.5516 32.6232 26.3467 33.8281 24.8656 33.8281C23.3846 33.8281 22.1797 32.6232 22.1797 31.1422C22.1797 29.6611 23.3846 28.4562 24.8656 28.4562C25.2539 28.4562 25.5687 28.1414 25.5687 27.7531V23.9874C25.5687 23.5991 25.2539 23.2843 24.8656 23.2843C20.5328 23.2843 17.0078 26.8093 17.0078 31.1422C17.0079 35.475 20.5328 39 24.8657 39C29.1985 39 32.7235 35.475 32.7235 31.1422V24.3083C34.123 25.0543 35.6801 25.4438 37.2922 25.4438C37.6805 25.4438 37.9953 25.129 37.9953 24.7407V20.975C37.9953 20.5867 37.6805 20.2719 37.2922 20.2719Z" fill="#F74DF4"/>
</svg>
