<svg width="53" height="54" viewBox="0 0 53 54" fill="none" xmlns="http://www.w3.org/2000/svg">
<rect width="53" height="54" rx="26.5" fill="#FBA6F9" fill-opacity="0.2"/>
<g clip-path="url(#clip0_2434_2981)">
<path d="M16.3815 37.5584C18.2235 39.4806 21.2101 39.4806 23.052 37.5584L28.2498 32.1346C26.4138 32.3569 25.3067 31.7113 24.9366 31.6144L21.1462 35.5697C20.3579 36.3922 19.0756 36.3922 18.2873 35.5697C17.4991 34.7473 17.4991 33.409 18.2873 32.5867C18.4328 32.4347 24.4195 26.1877 24.2303 26.3853C24.9993 25.5828 26.3003 25.5623 27.089 26.3853C27.1529 26.452 27.201 26.5276 27.2543 26.6003C27.5386 26.5719 27.8099 26.6276 28.042 26.3853L29.4146 24.9531C29.2816 24.7635 29.1593 24.5682 28.9949 24.3966C27.1678 22.4899 24.1154 22.5277 22.3243 24.3966L16.3815 30.5978C14.5395 32.5199 14.5395 35.6363 16.3815 37.5584Z" fill="#F74DF4"/>
<path d="M36.6203 16.4415C34.7784 14.5195 31.7917 14.5195 29.9498 16.4415L24.9773 21.6302C26.8133 21.4079 27.9204 22.0537 28.2905 22.1504L31.8558 18.4302C32.644 17.6077 33.9262 17.6077 34.7145 18.4302C35.5027 19.2527 35.5027 20.5909 34.7145 21.4134L30.093 26.2358L28.9968 27.3795C28.2278 28.1822 26.9268 28.2027 26.1381 27.3795C26.0742 27.313 26.0261 27.2374 25.9728 27.1647C25.6885 27.1931 25.4172 27.1372 25.1851 27.3795L23.8125 28.8117C23.9455 29.0013 24.0678 29.1968 24.2322 29.3684C26.0593 31.2751 29.1117 31.2371 30.9028 29.3684L36.6203 23.4021C38.4623 21.48 38.4623 18.3636 36.6203 16.4415Z" fill="#F74DF4"/>
</g>
<defs>
<clipPath id="clip0_2434_2981">
<rect width="23" height="24" fill="white" transform="translate(15 15)"/>
</clipPath>
</defs>
</svg>
