<svg width="121" height="50" viewBox="0 0 121 50" fill="none" xmlns="http://www.w3.org/2000/svg">
<g clip-path="url(#clip0_2434_1160)">
<path d="M49.1979 10.8345H30.8646C30.4044 10.8345 30.0312 11.2076 30.0312 11.6678V31.6678H25.8646V30.8345H26.6979C27.1581 30.8345 27.5312 30.4613 27.5312 30.0011C27.5312 29.5409 27.1581 29.1678 26.6979 29.1678H18.3646C17.9044 29.1678 17.5312 29.5409 17.5312 30.0011C17.5312 30.4613 17.9044 30.8345 18.3646 30.8345H19.1979V31.6678H10.8646V30.8345H11.6979C12.1581 30.8345 12.5312 30.4613 12.5312 30.0011C12.5312 29.5409 12.1581 29.1678 11.6979 29.1678H3.36458C2.90437 29.1678 2.53125 29.5409 2.53125 30.0011C2.53125 30.4613 2.90437 30.8345 3.36458 30.8345H4.19792V31.6678H0.864583C0.404375 31.6678 0.03125 32.0409 0.03125 32.5011V49.1678C0.03125 49.628 0.404375 50.0011 0.864583 50.0011H49.1979C49.6581 50.0011 50.0312 49.628 50.0312 49.1678V11.6678C50.0312 11.2076 49.6581 10.8345 49.1979 10.8345ZM20.8646 30.8345H24.1979V31.6678H20.8646V30.8345ZM5.86458 30.8345H9.19792V31.6678H5.86458V30.8345ZM13.3646 48.3345H1.69792V38.3345H13.3646V48.3345ZM13.3646 36.6678H1.69792V33.3345H13.3646V36.6678ZM30.0312 48.3345H15.0312V33.3345H30.0312V48.3345ZM48.3646 48.3345H31.6979V25.8345H48.3646V48.3345ZM48.3646 24.1678H31.6979V12.5011H48.3646V24.1678Z" fill="#4D4D4D"/>
<path d="M49.1979 10.8345H30.8646C30.4044 10.8345 30.0312 11.2076 30.0312 11.6678V31.6678H25.8646V30.8345H26.6979C27.1581 30.8345 27.5312 30.4613 27.5312 30.0011C27.5312 29.5409 27.1581 29.1678 26.6979 29.1678H18.3646C17.9044 29.1678 17.5312 29.5409 17.5312 30.0011C17.5312 30.4613 17.9044 30.8345 18.3646 30.8345H19.1979V31.6678H10.8646V30.8345H11.6979C12.1581 30.8345 12.5312 30.4613 12.5312 30.0011C12.5312 29.5409 12.1581 29.1678 11.6979 29.1678H3.36458C2.90437 29.1678 2.53125 29.5409 2.53125 30.0011C2.53125 30.4613 2.90437 30.8345 3.36458 30.8345H4.19792V31.6678H0.864583C0.404375 31.6678 0.03125 32.0409 0.03125 32.5011V49.1678C0.03125 49.628 0.404375 50.0011 0.864583 50.0011H49.1979C49.6581 50.0011 50.0312 49.628 50.0312 49.1678V11.6678C50.0312 11.2076 49.6581 10.8345 49.1979 10.8345ZM20.8646 30.8345H24.1979V31.6678H20.8646V30.8345ZM5.86458 30.8345H9.19792V31.6678H5.86458V30.8345ZM13.3646 48.3345H1.69792V38.3345H13.3646V48.3345ZM13.3646 36.6678H1.69792V33.3345H13.3646V36.6678ZM30.0312 48.3345H15.0312V33.3345H30.0312V48.3345ZM48.3646 48.3345H31.6979V25.8345H48.3646V48.3345ZM48.3646 24.1678H31.6979V12.5011H48.3646V24.1678Z" fill="black" fill-opacity="0.2"/>
<path d="M17.5286 46.6657H27.5286C27.9889 46.6657 28.362 46.2926 28.362 45.8324V35.8324C28.362 35.3721 27.9889 34.999 27.5286 34.999H17.5286C17.0684 34.999 16.6953 35.3721 16.6953 35.8324V45.8324C16.6953 46.2926 17.0684 46.6657 17.5286 46.6657ZM18.362 36.6657H26.6953V44.999H18.362V36.6657Z" fill="#4D4D4D"/>
<path d="M17.5286 46.6657H27.5286C27.9889 46.6657 28.362 46.2926 28.362 45.8324V35.8324C28.362 35.3721 27.9889 34.999 27.5286 34.999H17.5286C17.0684 34.999 16.6953 35.3721 16.6953 35.8324V45.8324C16.6953 46.2926 17.0684 46.6657 17.5286 46.6657ZM18.362 36.6657H26.6953V44.999H18.362V36.6657Z" fill="black" fill-opacity="0.2"/>
<path d="M33.3646 23.3323C33.8248 23.3323 34.1979 22.9592 34.1979 22.4989V19.1656C34.1979 18.7054 33.8248 18.3323 33.3646 18.3323C32.9044 18.3323 32.5312 18.7054 32.5312 19.1656V22.4989C32.5312 22.9592 32.9044 23.3323 33.3646 23.3323Z" fill="#4D4D4D"/>
<path d="M33.3646 23.3323C33.8248 23.3323 34.1979 22.9592 34.1979 22.4989V19.1656C34.1979 18.7054 33.8248 18.3323 33.3646 18.3323C32.9044 18.3323 32.5312 18.7054 32.5312 19.1656V22.4989C32.5312 22.9592 32.9044 23.3323 33.3646 23.3323Z" fill="black" fill-opacity="0.2"/>
<path d="M33.3646 31.6655C33.8248 31.6655 34.1979 31.2924 34.1979 30.8322V27.4989C34.1979 27.0387 33.8248 26.6655 33.3646 26.6655C32.9044 26.6655 32.5312 27.0387 32.5312 27.4989V30.8322C32.5312 31.2924 32.9044 31.6655 33.3646 31.6655Z" fill="#4D4D4D"/>
<path d="M33.3646 31.6655C33.8248 31.6655 34.1979 31.2924 34.1979 30.8322V27.4989C34.1979 27.0387 33.8248 26.6655 33.3646 26.6655C32.9044 26.6655 32.5312 27.0387 32.5312 27.4989V30.8322C32.5312 31.2924 32.9044 31.6655 33.3646 31.6655Z" fill="black" fill-opacity="0.2"/>
<path d="M1.99447 14.8062C2.14468 14.9317 2.33415 15.0002 2.52988 15H27.5299C27.9901 15.0006 28.3637 14.6281 28.3645 14.1679C28.3648 13.9723 28.2961 13.7827 28.1707 13.6325L19.8374 3.6325C19.6787 3.4426 19.4439 3.33302 19.1966 3.33333H18.3632V0.833333C18.3632 0.373125 17.9901 0 17.5299 0H12.5299C12.0697 0 11.6966 0.373125 11.6966 0.833333V3.33333H10.8632C10.6158 3.33302 10.381 3.4426 10.2224 3.6325L1.88905 13.6325C1.59405 13.9857 1.64124 14.5112 1.99447 14.8062ZM13.3632 1.66667H16.6966V3.33333H13.3632V1.66667ZM11.2541 5H18.8057L25.7507 13.3333H4.30905L11.2541 5Z" fill="#4D4D4D"/>
<path d="M1.99447 14.8062C2.14468 14.9317 2.33415 15.0002 2.52988 15H27.5299C27.9901 15.0006 28.3637 14.6281 28.3645 14.1679C28.3648 13.9723 28.2961 13.7827 28.1707 13.6325L19.8374 3.6325C19.6787 3.4426 19.4439 3.33302 19.1966 3.33333H18.3632V0.833333C18.3632 0.373125 17.9901 0 17.5299 0H12.5299C12.0697 0 11.6966 0.373125 11.6966 0.833333V3.33333H10.8632C10.6158 3.33302 10.381 3.4426 10.2224 3.6325L1.88905 13.6325C1.59405 13.9857 1.64124 14.5112 1.99447 14.8062ZM13.3632 1.66667H16.6966V3.33333H13.3632V1.66667ZM11.2541 5H18.8057L25.7507 13.3333H4.30905L11.2541 5Z" fill="black" fill-opacity="0.2"/>
</g>
<path d="M71.1233 30V20.13H72.9293V24.498H72.9573L77.2553 20.13H79.4393L74.2873 25.268L74.3013 24.484L79.7753 30H77.5213L72.9573 25.436H72.9293V30H71.1233ZM80.3075 30V22.93H82.0575V30H80.3075ZM80.2095 21.6V19.892H82.1555V21.6H80.2095ZM86.9819 30.14C86.1419 30.14 85.5072 29.9207 85.0779 29.482C84.6485 29.0433 84.4339 28.3853 84.4339 27.508V24.246H83.0759V22.93H84.4339V21.124L86.1839 20.676V22.93H88.0739V24.246H86.1839V27.396C86.1839 27.8813 86.2772 28.222 86.4639 28.418C86.6505 28.614 86.9072 28.712 87.2339 28.712C87.4112 28.712 87.5605 28.698 87.6819 28.67C87.8125 28.642 87.9385 28.6047 88.0599 28.558V29.944C87.9012 30.0093 87.7239 30.056 87.5279 30.084C87.3412 30.1213 87.1592 30.14 86.9819 30.14ZM92.4422 30.14C91.7142 30.14 91.0749 29.9907 90.5242 29.692C89.9829 29.3933 89.5629 28.9687 89.2642 28.418C88.9655 27.858 88.8162 27.1953 88.8162 26.43C88.8162 25.6647 88.9655 25.0113 89.2642 24.47C89.5722 23.9287 89.9969 23.5133 90.5382 23.224C91.0795 22.9347 91.7142 22.79 92.4422 22.79C92.9089 22.79 93.3615 22.8647 93.8002 23.014C94.2482 23.154 94.6122 23.3593 94.8922 23.63L94.3602 24.848C94.1082 24.6147 93.8235 24.442 93.5062 24.33C93.1982 24.2087 92.8949 24.148 92.5962 24.148C91.9709 24.148 91.4809 24.344 91.1262 24.736C90.7809 25.128 90.6082 25.6973 90.6082 26.444C90.6082 27.1907 90.7809 27.7647 91.1262 28.166C91.4809 28.5673 91.9709 28.768 92.5962 28.768C92.8855 28.768 93.1842 28.712 93.4922 28.6C93.8095 28.488 94.0989 28.3153 94.3602 28.082L94.8922 29.286C94.6029 29.5567 94.2342 29.7667 93.7862 29.916C93.3475 30.0653 92.8995 30.14 92.4422 30.14ZM96.2489 30V19.696H97.9989V24.344H97.8029C98.0175 23.84 98.3489 23.4573 98.7969 23.196C99.2449 22.9253 99.7582 22.79 100.337 22.79C101.177 22.79 101.802 23.028 102.213 23.504C102.624 23.9707 102.829 24.6847 102.829 25.646V30H101.079V25.73C101.079 25.1793 100.972 24.7827 100.757 24.54C100.552 24.288 100.22 24.162 99.7629 24.162C99.2309 24.162 98.8015 24.33 98.4749 24.666C98.1575 24.9927 97.9989 25.4313 97.9989 25.982V30H96.2489ZM108.1 30.14C106.915 30.14 105.986 29.8133 105.314 29.16C104.642 28.5067 104.306 27.6107 104.306 26.472C104.306 25.7347 104.451 25.0907 104.74 24.54C105.03 23.9893 105.431 23.56 105.944 23.252C106.467 22.944 107.074 22.79 107.764 22.79C108.446 22.79 109.015 22.9347 109.472 23.224C109.93 23.5133 110.275 23.9193 110.508 24.442C110.751 24.9647 110.872 25.576 110.872 26.276V26.738H105.72V25.814H109.626L109.388 26.01C109.388 25.3567 109.248 24.8573 108.968 24.512C108.698 24.1667 108.301 23.994 107.778 23.994C107.2 23.994 106.752 24.1993 106.434 24.61C106.126 25.0207 105.972 25.5947 105.972 26.332V26.514C105.972 27.2793 106.159 27.8533 106.532 28.236C106.915 28.6093 107.452 28.796 108.142 28.796C108.544 28.796 108.917 28.7447 109.262 28.642C109.617 28.53 109.953 28.3527 110.27 28.11L110.788 29.286C110.452 29.5567 110.051 29.7667 109.584 29.916C109.118 30.0653 108.623 30.14 108.1 30.14ZM112.354 30V24.694C112.354 24.4047 112.345 24.1107 112.326 23.812C112.308 23.5133 112.28 23.2193 112.242 22.93H113.936L114.076 24.33H113.908C114.132 23.8353 114.464 23.4573 114.902 23.196C115.341 22.9253 115.85 22.79 116.428 22.79C117.259 22.79 117.884 23.0233 118.304 23.49C118.724 23.9567 118.934 24.6847 118.934 25.674V30H117.184V25.758C117.184 25.1887 117.072 24.7827 116.848 24.54C116.634 24.288 116.307 24.162 115.868 24.162C115.327 24.162 114.898 24.33 114.58 24.666C114.263 25.002 114.104 25.45 114.104 26.01V30H112.354Z" fill="#4D4D4D"/>
<path d="M71.1233 30V20.13H72.9293V24.498H72.9573L77.2553 20.13H79.4393L74.2873 25.268L74.3013 24.484L79.7753 30H77.5213L72.9573 25.436H72.9293V30H71.1233ZM80.3075 30V22.93H82.0575V30H80.3075ZM80.2095 21.6V19.892H82.1555V21.6H80.2095ZM86.9819 30.14C86.1419 30.14 85.5072 29.9207 85.0779 29.482C84.6485 29.0433 84.4339 28.3853 84.4339 27.508V24.246H83.0759V22.93H84.4339V21.124L86.1839 20.676V22.93H88.0739V24.246H86.1839V27.396C86.1839 27.8813 86.2772 28.222 86.4639 28.418C86.6505 28.614 86.9072 28.712 87.2339 28.712C87.4112 28.712 87.5605 28.698 87.6819 28.67C87.8125 28.642 87.9385 28.6047 88.0599 28.558V29.944C87.9012 30.0093 87.7239 30.056 87.5279 30.084C87.3412 30.1213 87.1592 30.14 86.9819 30.14ZM92.4422 30.14C91.7142 30.14 91.0749 29.9907 90.5242 29.692C89.9829 29.3933 89.5629 28.9687 89.2642 28.418C88.9655 27.858 88.8162 27.1953 88.8162 26.43C88.8162 25.6647 88.9655 25.0113 89.2642 24.47C89.5722 23.9287 89.9969 23.5133 90.5382 23.224C91.0795 22.9347 91.7142 22.79 92.4422 22.79C92.9089 22.79 93.3615 22.8647 93.8002 23.014C94.2482 23.154 94.6122 23.3593 94.8922 23.63L94.3602 24.848C94.1082 24.6147 93.8235 24.442 93.5062 24.33C93.1982 24.2087 92.8949 24.148 92.5962 24.148C91.9709 24.148 91.4809 24.344 91.1262 24.736C90.7809 25.128 90.6082 25.6973 90.6082 26.444C90.6082 27.1907 90.7809 27.7647 91.1262 28.166C91.4809 28.5673 91.9709 28.768 92.5962 28.768C92.8855 28.768 93.1842 28.712 93.4922 28.6C93.8095 28.488 94.0989 28.3153 94.3602 28.082L94.8922 29.286C94.6029 29.5567 94.2342 29.7667 93.7862 29.916C93.3475 30.0653 92.8995 30.14 92.4422 30.14ZM96.2489 30V19.696H97.9989V24.344H97.8029C98.0175 23.84 98.3489 23.4573 98.7969 23.196C99.2449 22.9253 99.7582 22.79 100.337 22.79C101.177 22.79 101.802 23.028 102.213 23.504C102.624 23.9707 102.829 24.6847 102.829 25.646V30H101.079V25.73C101.079 25.1793 100.972 24.7827 100.757 24.54C100.552 24.288 100.22 24.162 99.7629 24.162C99.2309 24.162 98.8015 24.33 98.4749 24.666C98.1575 24.9927 97.9989 25.4313 97.9989 25.982V30H96.2489ZM108.1 30.14C106.915 30.14 105.986 29.8133 105.314 29.16C104.642 28.5067 104.306 27.6107 104.306 26.472C104.306 25.7347 104.451 25.0907 104.74 24.54C105.03 23.9893 105.431 23.56 105.944 23.252C106.467 22.944 107.074 22.79 107.764 22.79C108.446 22.79 109.015 22.9347 109.472 23.224C109.93 23.5133 110.275 23.9193 110.508 24.442C110.751 24.9647 110.872 25.576 110.872 26.276V26.738H105.72V25.814H109.626L109.388 26.01C109.388 25.3567 109.248 24.8573 108.968 24.512C108.698 24.1667 108.301 23.994 107.778 23.994C107.2 23.994 106.752 24.1993 106.434 24.61C106.126 25.0207 105.972 25.5947 105.972 26.332V26.514C105.972 27.2793 106.159 27.8533 106.532 28.236C106.915 28.6093 107.452 28.796 108.142 28.796C108.544 28.796 108.917 28.7447 109.262 28.642C109.617 28.53 109.953 28.3527 110.27 28.11L110.788 29.286C110.452 29.5567 110.051 29.7667 109.584 29.916C109.118 30.0653 108.623 30.14 108.1 30.14ZM112.354 30V24.694C112.354 24.4047 112.345 24.1107 112.326 23.812C112.308 23.5133 112.28 23.2193 112.242 22.93H113.936L114.076 24.33H113.908C114.132 23.8353 114.464 23.4573 114.902 23.196C115.341 22.9253 115.85 22.79 116.428 22.79C117.259 22.79 117.884 23.0233 118.304 23.49C118.724 23.9567 118.934 24.6847 118.934 25.674V30H117.184V25.758C117.184 25.1887 117.072 24.7827 116.848 24.54C116.634 24.288 116.307 24.162 115.868 24.162C115.327 24.162 114.898 24.33 114.58 24.666C114.263 25.002 114.104 25.45 114.104 26.01V30H112.354Z" fill="black" fill-opacity="0.2"/>
<defs>
<clipPath id="clip0_2434_1160">
<rect width="50" height="50" fill="white" transform="translate(0.03125)"/>
</clipPath>
</defs>
</svg>
