<svg width="152" height="50" viewBox="0 0 152 50" fill="none" xmlns="http://www.w3.org/2000/svg">
<g clip-path="url(#clip0_2434_1105)">
<mask id="mask0_2434_1105" style="mask-type:luminance" maskUnits="userSpaceOnUse" x="1" y="0" width="51" height="50">
<path d="M1.03125 3.8147e-06H51.0312V50H1.03125V3.8147e-06Z" fill="white"/>
</mask>
<g mask="url(#mask0_2434_1105)">
<path d="M31.7583 39.5938C31.7583 39.5938 30.8988 43.7962 32.9344 46.2417" stroke="#4D4D4D" stroke-width="1.875" stroke-miterlimit="10" stroke-linecap="round" stroke-linejoin="round"/>
<path d="M31.7583 39.5938C31.7583 39.5938 30.8988 43.7962 32.9344 46.2417" stroke="black" stroke-opacity="0.2" stroke-width="1.875" stroke-miterlimit="10" stroke-linecap="round" stroke-linejoin="round"/>
<path d="M40.5198 39.5938C40.5198 39.5938 41.3794 43.7962 39.3438 46.2417" stroke="#4D4D4D" stroke-width="1.875" stroke-miterlimit="10" stroke-linecap="round" stroke-linejoin="round"/>
<path d="M40.5198 39.5938C40.5198 39.5938 41.3794 43.7962 39.3438 46.2417" stroke="black" stroke-opacity="0.2" stroke-width="1.875" stroke-miterlimit="10" stroke-linecap="round" stroke-linejoin="round"/>
<path d="M36.1406 39.5938V46.2417" stroke="#4D4D4D" stroke-width="1.875" stroke-miterlimit="10" stroke-linecap="round" stroke-linejoin="round"/>
<path d="M36.1406 39.5938V46.2417" stroke="black" stroke-opacity="0.2" stroke-width="1.875" stroke-miterlimit="10" stroke-linecap="round" stroke-linejoin="round"/>
<path d="M16.1824 33.6082C16.1824 33.6082 14.7399 36.6159 15.1406 46.2417" stroke="#4D4D4D" stroke-width="1.875" stroke-miterlimit="10" stroke-linecap="round" stroke-linejoin="round"/>
<path d="M16.1824 33.6082C16.1824 33.6082 14.7399 36.6159 15.1406 46.2417" stroke="black" stroke-opacity="0.2" stroke-width="1.875" stroke-miterlimit="10" stroke-linecap="round" stroke-linejoin="round"/>
<path d="M23.2001 33.6082C23.2001 33.6082 23.9809 41.5269 19.8438 46.2417" stroke="#4D4D4D" stroke-width="1.875" stroke-miterlimit="10" stroke-linecap="round" stroke-linejoin="round"/>
<path d="M23.2001 33.6082C23.2001 33.6082 23.9809 41.5269 19.8438 46.2417" stroke="black" stroke-opacity="0.2" stroke-width="1.875" stroke-miterlimit="10" stroke-linecap="round" stroke-linejoin="round"/>
<path d="M8.86818 33.6082C8.86818 33.6082 7.11672 41.5269 11.2539 46.2417" stroke="#4D4D4D" stroke-width="1.875" stroke-miterlimit="10" stroke-linecap="round" stroke-linejoin="round"/>
<path d="M8.86818 33.6082C8.86818 33.6082 7.11672 41.5269 11.2539 46.2417" stroke="black" stroke-opacity="0.2" stroke-width="1.875" stroke-miterlimit="10" stroke-linecap="round" stroke-linejoin="round"/>
<path d="M44.0921 6.34551C42.2909 1.02949 33.2772 4.08945 40.0675 13.83C40.1473 13.9444 40.2795 14.0117 40.4192 14.0087C52.2901 13.7514 49.4481 4.6667 44.0921 6.34551Z" stroke="#4D4D4D" stroke-width="1.875" stroke-miterlimit="10" stroke-linecap="round" stroke-linejoin="round"/>
<path d="M44.0921 6.34551C42.2909 1.02949 33.2772 4.08945 40.0675 13.83C40.1473 13.9444 40.2795 14.0117 40.4192 14.0087C52.2901 13.7514 49.4481 4.6667 44.0921 6.34551Z" stroke="black" stroke-opacity="0.2" stroke-width="1.875" stroke-miterlimit="10" stroke-linecap="round" stroke-linejoin="round"/>
<path d="M44.9234 37.7634C44.1877 36.0646 43.2218 34.8739 42.4268 34.1021C40.2989 35.4116 37.6446 35.8459 35.0606 35.0799C33.6287 34.6554 32.3794 33.9101 31.3679 32.9457H31.325C31.325 32.9457 26.418 35.6212 26.2275 43.1657C26.1849 44.8531 27.5483 46.2417 29.2362 46.2417H43.0426C44.7305 46.2417 46.0939 44.8531 46.0514 43.1657C46.0271 42.2055 45.9256 41.3256 45.7683 40.5186" stroke="#4D4D4D" stroke-width="1.875" stroke-miterlimit="10" stroke-linecap="round" stroke-linejoin="round"/>
<path d="M44.9234 37.7634C44.1877 36.0646 43.2218 34.8739 42.4268 34.1021C40.2989 35.4116 37.6446 35.8459 35.0606 35.0799C33.6287 34.6554 32.3794 33.9101 31.3679 32.9457H31.325C31.325 32.9457 26.418 35.6212 26.2275 43.1657C26.1849 44.8531 27.5483 46.2417 29.2362 46.2417H43.0426C44.7305 46.2417 46.0939 44.8531 46.0514 43.1657C46.0271 42.2055 45.9256 41.3256 45.7683 40.5186" stroke="black" stroke-opacity="0.2" stroke-width="1.875" stroke-miterlimit="10" stroke-linecap="round" stroke-linejoin="round"/>
<path d="M50.2897 21.2647C50.2749 20.9435 50.115 20.649 49.8539 20.4615C47.9579 19.1002 45.6859 18.716 43.8203 19.644C45.8796 21.5429 46.9932 24.3345 46.719 27.2034C46.9993 27.1132 47.273 26.9975 47.538 26.8538C49.4312 25.8264 50.4008 23.6599 50.2897 21.2647Z" stroke="#4D4D4D" stroke-width="1.875" stroke-miterlimit="10" stroke-linecap="round" stroke-linejoin="round"/>
<path d="M50.2897 21.2647C50.2749 20.9435 50.115 20.649 49.8539 20.4615C47.9579 19.1002 45.6859 18.716 43.8203 19.644C45.8796 21.5429 46.9932 24.3345 46.719 27.2034C46.9993 27.1132 47.273 26.9975 47.538 26.8538C49.4312 25.8264 50.4008 23.6599 50.2897 21.2647Z" stroke="black" stroke-opacity="0.2" stroke-width="1.875" stroke-miterlimit="10" stroke-linecap="round" stroke-linejoin="round"/>
<path d="M29.5832 22.1216C30.9168 19.5667 33.372 17.8332 36.1335 17.3634C35.075 15.5686 32.9607 14.6524 30.6292 14.7605C30.308 14.7753 30.0135 14.9352 29.826 15.1963C28.4275 17.144 28.0597 19.489 29.087 21.3821C29.2309 21.647 29.3974 21.8933 29.5832 22.1216Z" stroke="#4D4D4D" stroke-width="1.875" stroke-miterlimit="10" stroke-linecap="round" stroke-linejoin="round"/>
<path d="M29.5832 22.1216C30.9168 19.5667 33.372 17.8332 36.1335 17.3634C35.075 15.5686 32.9607 14.6524 30.6292 14.7605C30.308 14.7753 30.0135 14.9352 29.826 15.1963C28.4275 17.144 28.0597 19.489 29.087 21.3821C29.2309 21.647 29.3974 21.8933 29.5832 22.1216Z" stroke="black" stroke-opacity="0.2" stroke-width="1.875" stroke-miterlimit="10" stroke-linecap="round" stroke-linejoin="round"/>
<path d="M46.3843 28.9355C44.9543 33.7589 39.8849 36.5099 35.0616 35.0799C30.2382 33.6499 27.4872 28.5807 28.9172 23.7572C30.3471 18.9338 35.4164 16.1828 40.2398 17.6128C45.0633 19.0427 47.8142 24.112 46.3843 28.9355Z" stroke="#4D4D4D" stroke-width="1.875" stroke-miterlimit="10" stroke-linecap="round" stroke-linejoin="round"/>
<path d="M46.3843 28.9355C44.9543 33.7589 39.8849 36.5099 35.0616 35.0799C30.2382 33.6499 27.4872 28.5807 28.9172 23.7572C30.3471 18.9338 35.4164 16.1828 40.2398 17.6128C45.0633 19.0427 47.8142 24.112 46.3843 28.9355Z" stroke="black" stroke-opacity="0.2" stroke-width="1.875" stroke-miterlimit="10" stroke-linecap="round" stroke-linejoin="round"/>
<path d="M30.8243 14.754C32.5073 14.7169 34.0636 15.2176 35.1724 16.2L35.173 16.1998C35.9586 5.42505 26.4297 9.77915 26.4297 9.77915L26.4312 9.78228C28.3552 11.003 29.8609 12.7375 30.8021 14.755L30.8243 14.754Z" stroke="#4D4D4D" stroke-width="1.875" stroke-miterlimit="10" stroke-linecap="round" stroke-linejoin="round"/>
<path d="M30.8243 14.754C32.5073 14.7169 34.0636 15.2176 35.1724 16.2L35.173 16.1998C35.9586 5.42505 26.4297 9.77915 26.4297 9.77915L26.4312 9.78228C28.3552 11.003 29.8609 12.7375 30.8021 14.755L30.8243 14.754Z" stroke="black" stroke-opacity="0.2" stroke-width="1.875" stroke-miterlimit="10" stroke-linecap="round" stroke-linejoin="round"/>
<path d="M7.46459 16.8961L7.46469 16.896C8.81889 14.7047 10.2819 12.9118 11.7064 11.4582C13.5077 9.62034 15.8001 8.4845 18.212 8.09466L18.2155 8.09183C18.2155 8.09183 13.2111 2.72796 6.87807 8.5181C0.545158 14.3082 5.1559 18.4436 7.46459 16.8961Z" stroke="#4D4D4D" stroke-width="1.875" stroke-miterlimit="10" stroke-linecap="round" stroke-linejoin="round"/>
<path d="M7.46459 16.8961L7.46469 16.896C8.81889 14.7047 10.2819 12.9118 11.7064 11.4582C13.5077 9.62034 15.8001 8.4845 18.212 8.09466L18.2155 8.09183C18.2155 8.09183 13.2111 2.72796 6.87807 8.5181C0.545158 14.3082 5.1559 18.4436 7.46459 16.8961Z" stroke="black" stroke-opacity="0.2" stroke-width="1.875" stroke-miterlimit="10" stroke-linecap="round" stroke-linejoin="round"/>
<path d="M4.26184 23.601C3.31643 26.2392 2.56272 29.2412 2.10793 32.6514C1.72336 35.5361 1.67991 38.1833 1.89241 40.6049C2.17248 43.7968 4.85217 46.2419 8.05627 46.2419H29.238V46.2418C27.5501 46.2418 26.1866 44.8532 26.2292 43.1659C26.4196 35.6213 31.3268 32.9458 31.3268 32.9458H31.3696C28.974 30.6618 27.9125 27.1487 28.918 23.7573C29.0888 23.1811 29.3119 22.635 29.58 22.1217C29.3941 21.8934 29.2276 21.647 29.0838 21.3822C28.0565 19.4891 28.4243 17.1442 29.8228 15.1964C30.0103 14.9353 30.3048 14.7754 30.626 14.7606C30.6836 14.7579 30.7409 14.7564 30.7983 14.7549C29.7659 12.5421 28.0563 10.6677 25.8584 9.44077C21.2247 6.85415 15.4231 7.66831 11.7086 11.4583C9.49895 13.713 7.19699 16.7841 5.35158 20.8931" stroke="#4D4D4D" stroke-width="1.875" stroke-miterlimit="10" stroke-linecap="round" stroke-linejoin="round"/>
<path d="M4.26184 23.601C3.31643 26.2392 2.56272 29.2412 2.10793 32.6514C1.72336 35.5361 1.67991 38.1833 1.89241 40.6049C2.17248 43.7968 4.85217 46.2419 8.05627 46.2419H29.238V46.2418C27.5501 46.2418 26.1866 44.8532 26.2292 43.1659C26.4196 35.6213 31.3268 32.9458 31.3268 32.9458H31.3696C28.974 30.6618 27.9125 27.1487 28.918 23.7573C29.0888 23.1811 29.3119 22.635 29.58 22.1217C29.3941 21.8934 29.2276 21.647 29.0838 21.3822C28.0565 19.4891 28.4243 17.1442 29.8228 15.1964C30.0103 14.9353 30.3048 14.7754 30.626 14.7606C30.6836 14.7579 30.7409 14.7564 30.7983 14.7549C29.7659 12.5421 28.0563 10.6677 25.8584 9.44077C21.2247 6.85415 15.4231 7.66831 11.7086 11.4583C9.49895 13.713 7.19699 16.7841 5.35158 20.8931" stroke="black" stroke-opacity="0.2" stroke-width="1.875" stroke-miterlimit="10" stroke-linecap="round" stroke-linejoin="round"/>
<path d="M14.2015 14.7101L13.9141 15.8223" stroke="#4D4D4D" stroke-width="1.875" stroke-miterlimit="10" stroke-linecap="round" stroke-linejoin="round"/>
<path d="M14.2015 14.7101L13.9141 15.8223" stroke="black" stroke-opacity="0.2" stroke-width="1.875" stroke-miterlimit="10" stroke-linecap="round" stroke-linejoin="round"/>
<path d="M25.7796 17.7021L25.4922 18.8145" stroke="#4D4D4D" stroke-width="1.875" stroke-miterlimit="10" stroke-linecap="round" stroke-linejoin="round"/>
<path d="M25.7796 17.7021L25.4922 18.8145" stroke="black" stroke-opacity="0.2" stroke-width="1.875" stroke-miterlimit="10" stroke-linecap="round" stroke-linejoin="round"/>
<path d="M19.2943 18.9705C19.1031 19.7104 18.3482 20.1552 17.6082 19.9639C16.8682 19.7727 16.4234 19.0177 16.6147 18.2778" stroke="#4D4D4D" stroke-width="1.875" stroke-miterlimit="10" stroke-linecap="round"/>
<path d="M19.2943 18.9705C19.1031 19.7104 18.3482 20.1552 17.6082 19.9639C16.8682 19.7727 16.4234 19.0177 16.6147 18.2778" stroke="black" stroke-opacity="0.2" stroke-width="1.875" stroke-miterlimit="10" stroke-linecap="round"/>
<path d="M21.974 19.6632C21.7827 20.4033 21.0278 20.8481 20.2878 20.6568C19.5479 20.4656 19.1031 19.7106 19.2944 18.9707L19.6483 17.6017" stroke="#4D4D4D" stroke-width="1.875" stroke-miterlimit="10" stroke-linecap="round"/>
<path d="M21.974 19.6632C21.7827 20.4033 21.0278 20.8481 20.2878 20.6568C19.5479 20.4656 19.1031 19.7106 19.2944 18.9707L19.6483 17.6017" stroke="black" stroke-opacity="0.2" stroke-width="1.875" stroke-miterlimit="10" stroke-linecap="round"/>
<path d="M18.6094 17.3321L20.6926 17.8706" stroke="#4D4D4D" stroke-width="1.875" stroke-miterlimit="10" stroke-linecap="round"/>
<path d="M18.6094 17.3321L20.6926 17.8706" stroke="black" stroke-opacity="0.2" stroke-width="1.875" stroke-miterlimit="10" stroke-linecap="round"/>
<path d="M32.9384 23.379L32.6797 24.3799" stroke="#4D4D4D" stroke-width="1.875" stroke-miterlimit="10" stroke-linecap="round" stroke-linejoin="round"/>
<path d="M32.9384 23.379L32.6797 24.3799" stroke="black" stroke-opacity="0.2" stroke-width="1.875" stroke-miterlimit="10" stroke-linecap="round" stroke-linejoin="round"/>
<path d="M43.3603 26.0719L43.1016 27.0728" stroke="#4D4D4D" stroke-width="1.875" stroke-miterlimit="10" stroke-linecap="round" stroke-linejoin="round"/>
<path d="M43.3603 26.0719L43.1016 27.0728" stroke="black" stroke-opacity="0.2" stroke-width="1.875" stroke-miterlimit="10" stroke-linecap="round" stroke-linejoin="round"/>
<path d="M37.5215 27.213C37.3494 27.8788 36.6701 28.2791 36.0043 28.1071C35.3384 27.935 34.9382 27.2557 35.1102 26.5898" stroke="#4D4D4D" stroke-width="1.875" stroke-miterlimit="10" stroke-linecap="round"/>
<path d="M37.5215 27.213C37.3494 27.8788 36.6701 28.2791 36.0043 28.1071C35.3384 27.935 34.9382 27.2557 35.1102 26.5898" stroke="black" stroke-opacity="0.2" stroke-width="1.875" stroke-miterlimit="10" stroke-linecap="round"/>
<path d="M39.9356 27.8366C39.7634 28.5024 39.0841 28.9027 38.4183 28.7306C37.7524 28.5585 37.3522 27.8792 37.5243 27.2133" stroke="#4D4D4D" stroke-width="1.875" stroke-miterlimit="10" stroke-linecap="round"/>
<path d="M39.9356 27.8366C39.7634 28.5024 39.0841 28.9027 38.4183 28.7306C37.7524 28.5585 37.3522 27.8792 37.5243 27.2133" stroke="black" stroke-opacity="0.2" stroke-width="1.875" stroke-miterlimit="10" stroke-linecap="round"/>
</g>
</g>
<path d="M72.1233 30V20.13H76.5053C77.5879 20.13 78.4139 20.3913 78.9833 20.914C79.5526 21.4367 79.8373 22.1553 79.8373 23.07C79.8373 23.9753 79.5526 24.694 78.9833 25.226C78.4139 25.758 77.5879 26.024 76.5053 26.024H73.9293V30H72.1233ZM73.9293 24.596H76.2953C76.8926 24.596 77.3406 24.4653 77.6393 24.204C77.9379 23.9333 78.0873 23.5553 78.0873 23.07C78.0873 22.5847 77.9379 22.2113 77.6393 21.95C77.3406 21.6793 76.8926 21.544 76.2953 21.544H73.9293V24.596ZM84.3817 30.14C83.1963 30.14 82.2677 29.8133 81.5957 29.16C80.9237 28.5067 80.5877 27.6107 80.5877 26.472C80.5877 25.7347 80.7323 25.0907 81.0217 24.54C81.311 23.9893 81.7123 23.56 82.2257 23.252C82.7483 22.944 83.355 22.79 84.0457 22.79C84.727 22.79 85.2963 22.9347 85.7537 23.224C86.211 23.5133 86.5563 23.9193 86.7897 24.442C87.0323 24.9647 87.1537 25.576 87.1537 26.276V26.738H82.0017V25.814H85.9077L85.6697 26.01C85.6697 25.3567 85.5297 24.8573 85.2497 24.512C84.979 24.1667 84.5823 23.994 84.0597 23.994C83.481 23.994 83.033 24.1993 82.7157 24.61C82.4077 25.0207 82.2537 25.5947 82.2537 26.332V26.514C82.2537 27.2793 82.4403 27.8533 82.8137 28.236C83.1963 28.6093 83.733 28.796 84.4237 28.796C84.825 28.796 85.1983 28.7447 85.5437 28.642C85.8983 28.53 86.2343 28.3527 86.5517 28.11L87.0697 29.286C86.7337 29.5567 86.3323 29.7667 85.8657 29.916C85.399 30.0653 84.9043 30.14 84.3817 30.14ZM91.6323 30.14C90.7923 30.14 90.1576 29.9207 89.7283 29.482C89.2989 29.0433 89.0843 28.3853 89.0843 27.508V24.246H87.7263V22.93H89.0843V21.124L90.8343 20.676V22.93H92.7243V24.246H90.8343V27.396C90.8343 27.8813 90.9276 28.222 91.1143 28.418C91.3009 28.614 91.5576 28.712 91.8843 28.712C92.0616 28.712 92.2109 28.698 92.3323 28.67C92.4629 28.642 92.5889 28.6047 92.7103 28.558V29.944C92.5516 30.0093 92.3743 30.056 92.1783 30.084C91.9916 30.1213 91.8096 30.14 91.6323 30.14ZM97.8947 30V20.13H104.405V21.544H99.7007V24.344H104.083V25.758H99.7007V30H97.8947ZM105.616 30V24.736C105.616 24.4373 105.606 24.134 105.588 23.826C105.578 23.518 105.555 23.2193 105.518 22.93H107.212L107.408 24.862H107.128C107.221 24.3953 107.375 24.008 107.59 23.7C107.814 23.392 108.084 23.1633 108.402 23.014C108.719 22.8647 109.064 22.79 109.438 22.79C109.606 22.79 109.741 22.7993 109.844 22.818C109.946 22.8273 110.049 22.8507 110.152 22.888L110.138 24.428C109.96 24.3533 109.806 24.3067 109.676 24.288C109.554 24.2693 109.4 24.26 109.214 24.26C108.812 24.26 108.472 24.344 108.192 24.512C107.921 24.68 107.716 24.9133 107.576 25.212C107.445 25.5107 107.38 25.8513 107.38 26.234V30H105.616ZM111.126 30V22.93H112.876V30H111.126ZM111.028 21.6V19.892H112.974V21.6H111.028ZM118.192 30.14C117.007 30.14 116.078 29.8133 115.406 29.16C114.734 28.5067 114.398 27.6107 114.398 26.472C114.398 25.7347 114.543 25.0907 114.832 24.54C115.122 23.9893 115.523 23.56 116.036 23.252C116.559 22.944 117.166 22.79 117.856 22.79C118.538 22.79 119.107 22.9347 119.564 23.224C120.022 23.5133 120.367 23.9193 120.6 24.442C120.843 24.9647 120.964 25.576 120.964 26.276V26.738H115.812V25.814H119.718L119.48 26.01C119.48 25.3567 119.34 24.8573 119.06 24.512C118.79 24.1667 118.393 23.994 117.87 23.994C117.292 23.994 116.844 24.1993 116.526 24.61C116.218 25.0207 116.064 25.5947 116.064 26.332V26.514C116.064 27.2793 116.251 27.8533 116.624 28.236C117.007 28.6093 117.544 28.796 118.234 28.796C118.636 28.796 119.009 28.7447 119.354 28.642C119.709 28.53 120.045 28.3527 120.362 28.11L120.88 29.286C120.544 29.5567 120.143 29.7667 119.676 29.916C119.21 30.0653 118.715 30.14 118.192 30.14ZM122.446 30V24.694C122.446 24.4047 122.437 24.1107 122.418 23.812C122.399 23.5133 122.371 23.2193 122.334 22.93H124.028L124.168 24.33H124C124.224 23.8353 124.555 23.4573 124.994 23.196C125.433 22.9253 125.941 22.79 126.52 22.79C127.351 22.79 127.976 23.0233 128.396 23.49C128.816 23.9567 129.026 24.6847 129.026 25.674V30H127.276V25.758C127.276 25.1887 127.164 24.7827 126.94 24.54C126.725 24.288 126.399 24.162 125.96 24.162C125.419 24.162 124.989 24.33 124.672 24.666C124.355 25.002 124.196 25.45 124.196 26.01V30H122.446ZM133.626 30.14C133.01 30.14 132.464 29.9953 131.988 29.706C131.521 29.4073 131.157 28.9827 130.896 28.432C130.634 27.8813 130.504 27.2233 130.504 26.458C130.504 25.6927 130.634 25.0393 130.896 24.498C131.157 23.9473 131.521 23.5273 131.988 23.238C132.464 22.9393 133.01 22.79 133.626 22.79C134.214 22.79 134.732 22.9347 135.18 23.224C135.637 23.504 135.94 23.8867 136.09 24.372H135.908V19.696H137.658V30H135.936V28.502H136.104C135.954 29.006 135.651 29.4073 135.194 29.706C134.746 29.9953 134.223 30.14 133.626 30.14ZM134.116 28.796C134.666 28.796 135.11 28.6047 135.446 28.222C135.782 27.83 135.95 27.242 135.95 26.458C135.95 25.674 135.782 25.0907 135.446 24.708C135.11 24.3253 134.666 24.134 134.116 24.134C133.565 24.134 133.117 24.3253 132.772 24.708C132.436 25.0907 132.268 25.674 132.268 26.458C132.268 27.242 132.436 27.83 132.772 28.222C133.117 28.6047 133.565 28.796 134.116 28.796ZM139.563 30V19.696H141.313V30H139.563ZM143.074 33.178L142.668 31.792C143.106 31.6987 143.475 31.5913 143.774 31.47C144.072 31.3487 144.32 31.19 144.516 30.994C144.712 30.798 144.875 30.546 145.006 30.238L145.356 29.412L145.314 30.098L142.234 22.93H144.096L146.308 28.446H145.902L148.128 22.93H149.892L146.672 30.392C146.457 30.896 146.224 31.3113 145.972 31.638C145.72 31.974 145.449 32.24 145.16 32.436C144.87 32.6413 144.553 32.8 144.208 32.912C143.862 33.024 143.484 33.1127 143.074 33.178Z" fill="#4D4D4D"/>
<path d="M72.1233 30V20.13H76.5053C77.5879 20.13 78.4139 20.3913 78.9833 20.914C79.5526 21.4367 79.8373 22.1553 79.8373 23.07C79.8373 23.9753 79.5526 24.694 78.9833 25.226C78.4139 25.758 77.5879 26.024 76.5053 26.024H73.9293V30H72.1233ZM73.9293 24.596H76.2953C76.8926 24.596 77.3406 24.4653 77.6393 24.204C77.9379 23.9333 78.0873 23.5553 78.0873 23.07C78.0873 22.5847 77.9379 22.2113 77.6393 21.95C77.3406 21.6793 76.8926 21.544 76.2953 21.544H73.9293V24.596ZM84.3817 30.14C83.1963 30.14 82.2677 29.8133 81.5957 29.16C80.9237 28.5067 80.5877 27.6107 80.5877 26.472C80.5877 25.7347 80.7323 25.0907 81.0217 24.54C81.311 23.9893 81.7123 23.56 82.2257 23.252C82.7483 22.944 83.355 22.79 84.0457 22.79C84.727 22.79 85.2963 22.9347 85.7537 23.224C86.211 23.5133 86.5563 23.9193 86.7897 24.442C87.0323 24.9647 87.1537 25.576 87.1537 26.276V26.738H82.0017V25.814H85.9077L85.6697 26.01C85.6697 25.3567 85.5297 24.8573 85.2497 24.512C84.979 24.1667 84.5823 23.994 84.0597 23.994C83.481 23.994 83.033 24.1993 82.7157 24.61C82.4077 25.0207 82.2537 25.5947 82.2537 26.332V26.514C82.2537 27.2793 82.4403 27.8533 82.8137 28.236C83.1963 28.6093 83.733 28.796 84.4237 28.796C84.825 28.796 85.1983 28.7447 85.5437 28.642C85.8983 28.53 86.2343 28.3527 86.5517 28.11L87.0697 29.286C86.7337 29.5567 86.3323 29.7667 85.8657 29.916C85.399 30.0653 84.9043 30.14 84.3817 30.14ZM91.6323 30.14C90.7923 30.14 90.1576 29.9207 89.7283 29.482C89.2989 29.0433 89.0843 28.3853 89.0843 27.508V24.246H87.7263V22.93H89.0843V21.124L90.8343 20.676V22.93H92.7243V24.246H90.8343V27.396C90.8343 27.8813 90.9276 28.222 91.1143 28.418C91.3009 28.614 91.5576 28.712 91.8843 28.712C92.0616 28.712 92.2109 28.698 92.3323 28.67C92.4629 28.642 92.5889 28.6047 92.7103 28.558V29.944C92.5516 30.0093 92.3743 30.056 92.1783 30.084C91.9916 30.1213 91.8096 30.14 91.6323 30.14ZM97.8947 30V20.13H104.405V21.544H99.7007V24.344H104.083V25.758H99.7007V30H97.8947ZM105.616 30V24.736C105.616 24.4373 105.606 24.134 105.588 23.826C105.578 23.518 105.555 23.2193 105.518 22.93H107.212L107.408 24.862H107.128C107.221 24.3953 107.375 24.008 107.59 23.7C107.814 23.392 108.084 23.1633 108.402 23.014C108.719 22.8647 109.064 22.79 109.438 22.79C109.606 22.79 109.741 22.7993 109.844 22.818C109.946 22.8273 110.049 22.8507 110.152 22.888L110.138 24.428C109.96 24.3533 109.806 24.3067 109.676 24.288C109.554 24.2693 109.4 24.26 109.214 24.26C108.812 24.26 108.472 24.344 108.192 24.512C107.921 24.68 107.716 24.9133 107.576 25.212C107.445 25.5107 107.38 25.8513 107.38 26.234V30H105.616ZM111.126 30V22.93H112.876V30H111.126ZM111.028 21.6V19.892H112.974V21.6H111.028ZM118.192 30.14C117.007 30.14 116.078 29.8133 115.406 29.16C114.734 28.5067 114.398 27.6107 114.398 26.472C114.398 25.7347 114.543 25.0907 114.832 24.54C115.122 23.9893 115.523 23.56 116.036 23.252C116.559 22.944 117.166 22.79 117.856 22.79C118.538 22.79 119.107 22.9347 119.564 23.224C120.022 23.5133 120.367 23.9193 120.6 24.442C120.843 24.9647 120.964 25.576 120.964 26.276V26.738H115.812V25.814H119.718L119.48 26.01C119.48 25.3567 119.34 24.8573 119.06 24.512C118.79 24.1667 118.393 23.994 117.87 23.994C117.292 23.994 116.844 24.1993 116.526 24.61C116.218 25.0207 116.064 25.5947 116.064 26.332V26.514C116.064 27.2793 116.251 27.8533 116.624 28.236C117.007 28.6093 117.544 28.796 118.234 28.796C118.636 28.796 119.009 28.7447 119.354 28.642C119.709 28.53 120.045 28.3527 120.362 28.11L120.88 29.286C120.544 29.5567 120.143 29.7667 119.676 29.916C119.21 30.0653 118.715 30.14 118.192 30.14ZM122.446 30V24.694C122.446 24.4047 122.437 24.1107 122.418 23.812C122.399 23.5133 122.371 23.2193 122.334 22.93H124.028L124.168 24.33H124C124.224 23.8353 124.555 23.4573 124.994 23.196C125.433 22.9253 125.941 22.79 126.52 22.79C127.351 22.79 127.976 23.0233 128.396 23.49C128.816 23.9567 129.026 24.6847 129.026 25.674V30H127.276V25.758C127.276 25.1887 127.164 24.7827 126.94 24.54C126.725 24.288 126.399 24.162 125.96 24.162C125.419 24.162 124.989 24.33 124.672 24.666C124.355 25.002 124.196 25.45 124.196 26.01V30H122.446ZM133.626 30.14C133.01 30.14 132.464 29.9953 131.988 29.706C131.521 29.4073 131.157 28.9827 130.896 28.432C130.634 27.8813 130.504 27.2233 130.504 26.458C130.504 25.6927 130.634 25.0393 130.896 24.498C131.157 23.9473 131.521 23.5273 131.988 23.238C132.464 22.9393 133.01 22.79 133.626 22.79C134.214 22.79 134.732 22.9347 135.18 23.224C135.637 23.504 135.94 23.8867 136.09 24.372H135.908V19.696H137.658V30H135.936V28.502H136.104C135.954 29.006 135.651 29.4073 135.194 29.706C134.746 29.9953 134.223 30.14 133.626 30.14ZM134.116 28.796C134.666 28.796 135.11 28.6047 135.446 28.222C135.782 27.83 135.95 27.242 135.95 26.458C135.95 25.674 135.782 25.0907 135.446 24.708C135.11 24.3253 134.666 24.134 134.116 24.134C133.565 24.134 133.117 24.3253 132.772 24.708C132.436 25.0907 132.268 25.674 132.268 26.458C132.268 27.242 132.436 27.83 132.772 28.222C133.117 28.6047 133.565 28.796 134.116 28.796ZM139.563 30V19.696H141.313V30H139.563ZM143.074 33.178L142.668 31.792C143.106 31.6987 143.475 31.5913 143.774 31.47C144.072 31.3487 144.32 31.19 144.516 30.994C144.712 30.798 144.875 30.546 145.006 30.238L145.356 29.412L145.314 30.098L142.234 22.93H144.096L146.308 28.446H145.902L148.128 22.93H149.892L146.672 30.392C146.457 30.896 146.224 31.3113 145.972 31.638C145.72 31.974 145.449 32.24 145.16 32.436C144.87 32.6413 144.553 32.8 144.208 32.912C143.862 33.024 143.484 33.1127 143.074 33.178Z" fill="black" fill-opacity="0.2"/>
<defs>
<clipPath id="clip0_2434_1105">
<rect width="50" height="50" fill="white" transform="translate(1.03125)"/>
</clipPath>
</defs>
</svg>
