<svg width="101" height="50" viewBox="0 0 101 50" fill="none" xmlns="http://www.w3.org/2000/svg">
<path d="M37.5624 16.9269V14.5314C37.5624 13.6261 36.8262 12.8896 35.9208 12.8896C35.0156 12.8896 34.2792 13.6261 34.2792 14.5314V14.9669C34.2792 15.2146 34.4798 15.4155 34.7278 15.4155C34.9757 15.4155 35.1763 15.2147 35.1763 14.9669V14.5314C35.1763 14.1207 35.5105 13.7866 35.9208 13.7866C36.3312 13.7866 36.6654 14.1207 36.6654 14.5314V16.9309C35.621 16.967 34.708 17.1244 32.96 16.9308V14.5314C32.96 13.6261 32.2238 12.8896 31.3184 12.8896C30.4131 12.8896 29.6764 13.6261 29.6764 14.5314V14.9669C29.6764 15.2146 29.877 15.4155 30.1249 15.4155C30.3729 15.4155 30.5735 15.2147 30.5735 14.9669V14.5314C30.5735 14.1207 30.9076 13.7866 31.3185 13.7866C31.7288 13.7866 32.063 14.1207 32.063 14.5314V16.8053C26.3287 15.8289 25.4657 12.9182 19.5249 12.2541C19.376 11.8761 19.2015 11.5056 18.9995 11.1461V11.1459C16.0494 5.90131 8.85862 5.05024 4.76722 9.38373C4.76692 9.38412 4.76683 9.38461 4.76644 9.385C1.93519 12.3664 1.45452 17.0181 3.90843 20.5771C2.59417 23.0974 1.99173 25.9402 2.19485 28.879C2.7222 36.4905 8.84964 42.7064 16.4479 43.3377C19.8311 43.6186 23.122 42.8327 25.9698 41.0751C31.6837 37.5478 35.5901 38.8242 38.155 38.5701C43.2041 38.069 47.2752 34.0476 47.835 29.008C48.1827 25.8737 47.2253 22.8636 45.1383 20.532C43.1946 18.3605 40.457 17.0649 37.5624 16.9269ZM3.45208 17.399L8.97854 15.9052C9.05862 16.3624 9.22522 16.6864 9.47454 16.9854L5.33138 20.9279C5.32063 20.9162 5.30911 20.9052 5.29847 20.8935C4.41556 19.9216 3.768 18.7172 3.45208 17.399ZM16.8887 9.84457C17.8621 10.8115 18.5492 11.9756 18.9269 13.2843L13.4057 14.7749C13.2792 14.4045 13.0876 14.0944 12.7408 13.7904L16.8887 9.84457ZM17.422 20.6022L13.3642 16.3376C13.397 16.2529 13.4943 16.0765 13.5234 15.672L19.1304 14.1583C19.5282 16.453 18.9057 18.802 17.422 20.6022ZM13.2461 23.2631L11.7558 17.7461C12.23 17.6344 12.5573 17.4263 12.865 17.1136L16.8096 21.2596C15.8058 22.2353 14.6087 22.9091 13.2461 23.2631ZM5.97278 21.556L10.1803 17.5521C10.4585 17.695 10.6478 17.7356 10.8328 17.7688L12.366 23.4448C10.0584 23.7765 7.72806 23.0884 5.97278 21.556ZM12.4526 14.8266C12.8313 15.4986 12.5945 16.3522 11.9187 16.7319C11.2466 17.1095 10.3935 16.8737 10.0139 16.198C9.63519 15.526 9.872 14.6724 10.5478 14.2927C11.2195 13.9145 12.0731 14.151 12.4526 14.8266ZM17.7645 21.5729L17.7649 21.5725C17.765 21.5724 17.765 21.5723 17.765 21.5723C19.3977 19.8147 20.2336 17.5039 20.1375 15.1602C24.7138 16.0115 25.7854 18.7192 32.063 19.6255V22.3665C32.063 22.6142 32.2636 22.8151 32.5116 22.8151C32.7594 22.8151 32.9601 22.6143 32.9601 22.3665V19.7326C34.7951 19.9055 35.9455 19.7552 36.6655 19.7219V22.3665C36.6655 22.6142 36.866 22.8151 37.114 22.8151C37.3618 22.8151 37.5625 22.6143 37.5625 22.3665V19.7317C39.6637 19.867 41.6447 20.8133 43.0588 22.3935C44.6093 24.1262 45.3205 26.3659 45.0609 28.6998C44.6456 32.4383 41.6257 35.4212 37.8792 35.7926C35.9976 35.9805 30.9293 34.7337 24.5035 38.6999C22.1783 40.1359 19.4207 40.7843 16.6789 40.5564C10.4415 40.0382 5.41214 34.9353 4.97981 28.6865C4.83479 26.592 5.19085 24.5587 5.99017 22.7049C9.68763 25.4081 14.7338 24.8416 17.7645 21.5729ZM36.6654 17.8279V18.8249C35.7886 18.8615 34.7532 19.0091 32.96 18.8315V17.832C34.7309 18.0169 35.7466 17.8624 36.6654 17.8279ZM32.063 17.716V18.7199C26.0519 17.8068 24.9461 15.0581 20.0493 14.2455C19.9582 13.62 19.8814 13.385 19.8326 13.2019C25.278 13.9639 26.1809 16.7706 32.063 17.716ZM16.2149 9.24741L11.9242 13.3292C11.8604 13.309 11.8978 13.2945 11.5376 13.2455L10.0135 7.60522C10.4188 7.54243 10.8253 7.50014 11.231 7.50014C13.0293 7.50014 14.7911 8.1143 16.2149 9.24741ZM9.13304 7.7851L10.6252 13.3053C10.2283 13.4152 9.96653 13.5619 9.6639 13.8458L5.72269 9.70229C5.73724 9.68842 5.7512 9.67368 5.76585 9.65991C6.69056 8.79389 7.82132 8.13989 9.13304 7.7851ZM5.10374 10.353L9.13831 14.5943C8.99349 14.9262 9.02464 14.9041 9.00892 14.9678L3.28431 16.5153C3.00364 14.3031 3.66556 12.0594 5.10374 10.353ZM46.9432 28.9089C46.4299 33.5301 42.6969 37.218 38.0665 37.6774C35.7178 37.9105 31.4583 36.6322 25.4985 40.3117C22.8101 41.9714 19.7061 42.7079 16.5224 42.4438C9.36126 41.8488 3.58685 35.9905 3.09017 28.8171C2.90853 26.1915 3.4138 23.6497 4.52044 21.3686C4.96282 21.8754 5.14534 22.0057 5.27024 22.1187C4.3428 24.1635 3.92366 26.4202 4.0844 28.7481C4.54739 35.4351 9.92982 40.8956 16.6042 41.4501C19.6584 41.704 22.5609 40.9531 24.9746 39.4632C31.1762 35.6348 35.8667 36.8935 37.968 36.6851C42.1328 36.2721 45.4908 32.9554 45.9525 28.7987C46.2403 26.2078 45.4501 23.7205 43.7271 21.7951C42.1427 20.0247 39.9191 18.959 37.5624 18.8229V17.8238C40.202 17.961 42.6962 19.1486 44.47 21.1302C46.3843 23.2692 47.2629 26.0316 46.9432 28.9089Z" fill="#4D4D4D"/>
<path d="M37.5624 16.9269V14.5314C37.5624 13.6261 36.8262 12.8896 35.9208 12.8896C35.0156 12.8896 34.2792 13.6261 34.2792 14.5314V14.9669C34.2792 15.2146 34.4798 15.4155 34.7278 15.4155C34.9757 15.4155 35.1763 15.2147 35.1763 14.9669V14.5314C35.1763 14.1207 35.5105 13.7866 35.9208 13.7866C36.3312 13.7866 36.6654 14.1207 36.6654 14.5314V16.9309C35.621 16.967 34.708 17.1244 32.96 16.9308V14.5314C32.96 13.6261 32.2238 12.8896 31.3184 12.8896C30.4131 12.8896 29.6764 13.6261 29.6764 14.5314V14.9669C29.6764 15.2146 29.877 15.4155 30.1249 15.4155C30.3729 15.4155 30.5735 15.2147 30.5735 14.9669V14.5314C30.5735 14.1207 30.9076 13.7866 31.3185 13.7866C31.7288 13.7866 32.063 14.1207 32.063 14.5314V16.8053C26.3287 15.8289 25.4657 12.9182 19.5249 12.2541C19.376 11.8761 19.2015 11.5056 18.9995 11.1461V11.1459C16.0494 5.90131 8.85862 5.05024 4.76722 9.38373C4.76692 9.38412 4.76683 9.38461 4.76644 9.385C1.93519 12.3664 1.45452 17.0181 3.90843 20.5771C2.59417 23.0974 1.99173 25.9402 2.19485 28.879C2.7222 36.4905 8.84964 42.7064 16.4479 43.3377C19.8311 43.6186 23.122 42.8327 25.9698 41.0751C31.6837 37.5478 35.5901 38.8242 38.155 38.5701C43.2041 38.069 47.2752 34.0476 47.835 29.008C48.1827 25.8737 47.2253 22.8636 45.1383 20.532C43.1946 18.3605 40.457 17.0649 37.5624 16.9269ZM3.45208 17.399L8.97854 15.9052C9.05862 16.3624 9.22522 16.6864 9.47454 16.9854L5.33138 20.9279C5.32063 20.9162 5.30911 20.9052 5.29847 20.8935C4.41556 19.9216 3.768 18.7172 3.45208 17.399ZM16.8887 9.84457C17.8621 10.8115 18.5492 11.9756 18.9269 13.2843L13.4057 14.7749C13.2792 14.4045 13.0876 14.0944 12.7408 13.7904L16.8887 9.84457ZM17.422 20.6022L13.3642 16.3376C13.397 16.2529 13.4943 16.0765 13.5234 15.672L19.1304 14.1583C19.5282 16.453 18.9057 18.802 17.422 20.6022ZM13.2461 23.2631L11.7558 17.7461C12.23 17.6344 12.5573 17.4263 12.865 17.1136L16.8096 21.2596C15.8058 22.2353 14.6087 22.9091 13.2461 23.2631ZM5.97278 21.556L10.1803 17.5521C10.4585 17.695 10.6478 17.7356 10.8328 17.7688L12.366 23.4448C10.0584 23.7765 7.72806 23.0884 5.97278 21.556ZM12.4526 14.8266C12.8313 15.4986 12.5945 16.3522 11.9187 16.7319C11.2466 17.1095 10.3935 16.8737 10.0139 16.198C9.63519 15.526 9.872 14.6724 10.5478 14.2927C11.2195 13.9145 12.0731 14.151 12.4526 14.8266ZM17.7645 21.5729L17.7649 21.5725C17.765 21.5724 17.765 21.5723 17.765 21.5723C19.3977 19.8147 20.2336 17.5039 20.1375 15.1602C24.7138 16.0115 25.7854 18.7192 32.063 19.6255V22.3665C32.063 22.6142 32.2636 22.8151 32.5116 22.8151C32.7594 22.8151 32.9601 22.6143 32.9601 22.3665V19.7326C34.7951 19.9055 35.9455 19.7552 36.6655 19.7219V22.3665C36.6655 22.6142 36.866 22.8151 37.114 22.8151C37.3618 22.8151 37.5625 22.6143 37.5625 22.3665V19.7317C39.6637 19.867 41.6447 20.8133 43.0588 22.3935C44.6093 24.1262 45.3205 26.3659 45.0609 28.6998C44.6456 32.4383 41.6257 35.4212 37.8792 35.7926C35.9976 35.9805 30.9293 34.7337 24.5035 38.6999C22.1783 40.1359 19.4207 40.7843 16.6789 40.5564C10.4415 40.0382 5.41214 34.9353 4.97981 28.6865C4.83479 26.592 5.19085 24.5587 5.99017 22.7049C9.68763 25.4081 14.7338 24.8416 17.7645 21.5729ZM36.6654 17.8279V18.8249C35.7886 18.8615 34.7532 19.0091 32.96 18.8315V17.832C34.7309 18.0169 35.7466 17.8624 36.6654 17.8279ZM32.063 17.716V18.7199C26.0519 17.8068 24.9461 15.0581 20.0493 14.2455C19.9582 13.62 19.8814 13.385 19.8326 13.2019C25.278 13.9639 26.1809 16.7706 32.063 17.716ZM16.2149 9.24741L11.9242 13.3292C11.8604 13.309 11.8978 13.2945 11.5376 13.2455L10.0135 7.60522C10.4188 7.54243 10.8253 7.50014 11.231 7.50014C13.0293 7.50014 14.7911 8.1143 16.2149 9.24741ZM9.13304 7.7851L10.6252 13.3053C10.2283 13.4152 9.96653 13.5619 9.6639 13.8458L5.72269 9.70229C5.73724 9.68842 5.7512 9.67368 5.76585 9.65991C6.69056 8.79389 7.82132 8.13989 9.13304 7.7851ZM5.10374 10.353L9.13831 14.5943C8.99349 14.9262 9.02464 14.9041 9.00892 14.9678L3.28431 16.5153C3.00364 14.3031 3.66556 12.0594 5.10374 10.353ZM46.9432 28.9089C46.4299 33.5301 42.6969 37.218 38.0665 37.6774C35.7178 37.9105 31.4583 36.6322 25.4985 40.3117C22.8101 41.9714 19.7061 42.7079 16.5224 42.4438C9.36126 41.8488 3.58685 35.9905 3.09017 28.8171C2.90853 26.1915 3.4138 23.6497 4.52044 21.3686C4.96282 21.8754 5.14534 22.0057 5.27024 22.1187C4.3428 24.1635 3.92366 26.4202 4.0844 28.7481C4.54739 35.4351 9.92982 40.8956 16.6042 41.4501C19.6584 41.704 22.5609 40.9531 24.9746 39.4632C31.1762 35.6348 35.8667 36.8935 37.968 36.6851C42.1328 36.2721 45.4908 32.9554 45.9525 28.7987C46.2403 26.2078 45.4501 23.7205 43.7271 21.7951C42.1427 20.0247 39.9191 18.959 37.5624 18.8229V17.8238C40.202 17.961 42.6962 19.1486 44.47 21.1302C46.3843 23.2692 47.2629 26.0316 46.9432 28.9089Z" fill="black" fill-opacity="0.2"/>
<path d="M24.0596 34.9213C26.8824 34.9213 29.2051 32.6323 29.2051 29.7758C29.2051 26.6621 26.4338 24.2083 23.2722 24.6874C20.7519 25.0689 18.9141 27.261 18.9141 29.7758C18.9142 32.5997 21.2104 34.9213 24.0596 34.9213ZM20.0558 28.3677L21.668 28.5776C21.4373 29.037 21.3346 29.5543 21.4062 30.1145L19.8484 30.3177C19.8472 30.3076 19.8445 30.2979 19.8434 30.2877C19.7669 29.6545 19.8285 29.0045 20.0558 28.3677ZM23.1388 25.6358C23.7915 25.4921 24.2851 25.4828 24.9801 25.6357L24.7769 27.1965C24.297 27.0626 23.8229 27.0625 23.3423 27.1966L23.1388 25.6358ZM28.0635 28.3677C28.2918 29.0138 28.3544 29.6632 28.2706 30.3177L26.713 30.1146C26.7846 29.5543 26.6818 29.037 26.4512 28.5776L28.0635 28.3677ZM25.094 33.8965C24.4422 34.0605 23.7063 34.0676 23.0252 33.8964L23.2302 32.3196C23.7729 32.4969 24.3456 32.4971 24.8889 32.3196L25.094 33.8965ZM24.0596 31.5556C23.078 31.5556 22.2792 30.757 22.2792 29.7752C22.2792 28.7926 23.0781 27.9931 24.0596 27.9931C25.0411 27.9931 25.8399 28.7926 25.8399 29.7752C25.84 30.757 25.0411 31.5556 24.0596 31.5556ZM20.0583 31.1947L21.6737 30.9839C21.8471 31.3247 22.09 31.6239 22.3856 31.8616L22.1624 33.5764C21.1855 33.0866 20.4258 32.2263 20.0583 31.1947ZM25.9567 33.5761L25.7334 31.8616C26.029 31.624 26.272 31.3247 26.4454 30.9839L28.0607 31.1947C27.6939 32.2253 26.9344 33.0859 25.9567 33.5761ZM27.6506 27.517L25.8139 27.756C25.7541 27.7038 25.6918 27.6547 25.6274 27.608L25.8471 25.9212C26.5911 26.2681 27.2157 26.8225 27.6506 27.517ZM22.2717 25.9211L22.4914 27.6082C22.4272 27.6549 22.365 27.7039 22.3054 27.7559L20.4682 27.5169C20.9023 26.823 21.5275 26.2681 22.2717 25.9211Z" fill="#4D4D4D"/>
<path d="M24.0596 34.9213C26.8824 34.9213 29.2051 32.6323 29.2051 29.7758C29.2051 26.6621 26.4338 24.2083 23.2722 24.6874C20.7519 25.0689 18.9141 27.261 18.9141 29.7758C18.9142 32.5997 21.2104 34.9213 24.0596 34.9213ZM20.0558 28.3677L21.668 28.5776C21.4373 29.037 21.3346 29.5543 21.4062 30.1145L19.8484 30.3177C19.8472 30.3076 19.8445 30.2979 19.8434 30.2877C19.7669 29.6545 19.8285 29.0045 20.0558 28.3677ZM23.1388 25.6358C23.7915 25.4921 24.2851 25.4828 24.9801 25.6357L24.7769 27.1965C24.297 27.0626 23.8229 27.0625 23.3423 27.1966L23.1388 25.6358ZM28.0635 28.3677C28.2918 29.0138 28.3544 29.6632 28.2706 30.3177L26.713 30.1146C26.7846 29.5543 26.6818 29.037 26.4512 28.5776L28.0635 28.3677ZM25.094 33.8965C24.4422 34.0605 23.7063 34.0676 23.0252 33.8964L23.2302 32.3196C23.7729 32.4969 24.3456 32.4971 24.8889 32.3196L25.094 33.8965ZM24.0596 31.5556C23.078 31.5556 22.2792 30.757 22.2792 29.7752C22.2792 28.7926 23.0781 27.9931 24.0596 27.9931C25.0411 27.9931 25.8399 28.7926 25.8399 29.7752C25.84 30.757 25.0411 31.5556 24.0596 31.5556ZM20.0583 31.1947L21.6737 30.9839C21.8471 31.3247 22.09 31.6239 22.3856 31.8616L22.1624 33.5764C21.1855 33.0866 20.4258 32.2263 20.0583 31.1947ZM25.9567 33.5761L25.7334 31.8616C26.029 31.624 26.272 31.3247 26.4454 30.9839L28.0607 31.1947C27.6939 32.2253 26.9344 33.0859 25.9567 33.5761ZM27.6506 27.517L25.8139 27.756C25.7541 27.7038 25.6918 27.6547 25.6274 27.608L25.8471 25.9212C26.5911 26.2681 27.2157 26.8225 27.6506 27.517ZM22.2717 25.9211L22.4914 27.6082C22.4272 27.6549 22.365 27.7039 22.3054 27.7559L20.4682 27.5169C20.9023 26.823 21.5275 26.2681 22.2717 25.9211Z" fill="black" fill-opacity="0.2"/>
<path d="M36.3046 28.4893C37.2809 28.0101 38.1012 28.0014 38.8099 28.4625C39.0175 28.5974 39.2951 28.5383 39.4301 28.3312C39.5654 28.1233 39.5062 27.8456 39.2987 27.7105C38.3172 27.0722 37.1771 27.0628 35.8776 27.7012C34.9775 28.2366 34.1923 28.241 33.4096 27.7144C33.2042 27.5764 32.9256 27.631 32.7872 27.8365C32.6492 28.0419 32.7035 28.3207 32.9094 28.4589C33.9789 29.1775 35.1313 29.1892 36.3046 28.4893Z" fill="#4D4D4D"/>
<path d="M36.3046 28.4893C37.2809 28.0101 38.1012 28.0014 38.8099 28.4625C39.0175 28.5974 39.2951 28.5383 39.4301 28.3312C39.5654 28.1233 39.5062 27.8456 39.2987 27.7105C38.3172 27.0722 37.1771 27.0628 35.8776 27.7012C34.9775 28.2366 34.1923 28.241 33.4096 27.7144C33.2042 27.5764 32.9256 27.631 32.7872 27.8365C32.6492 28.0419 32.7035 28.3207 32.9094 28.4589C33.9789 29.1775 35.1313 29.1892 36.3046 28.4893Z" fill="black" fill-opacity="0.2"/>
<path d="M11.5935 28.9291C12.5707 28.4499 13.3901 28.4417 14.0993 28.9023C14.3069 29.0374 14.5845 28.9783 14.7199 28.7707C14.8548 28.563 14.7957 28.2851 14.5881 28.1502C13.6052 27.5115 12.4647 27.5029 11.167 28.1409C10.266 28.6761 9.482 28.6805 8.6985 28.1541C8.49264 28.0163 8.21452 28.071 8.07614 28.2762C7.93815 28.4819 7.99293 28.7604 8.19831 28.8986C9.26754 29.617 10.4203 29.6285 11.5935 28.9291Z" fill="#4D4D4D"/>
<path d="M11.5935 28.9291C12.5707 28.4499 13.3901 28.4417 14.0993 28.9023C14.3069 29.0374 14.5845 28.9783 14.7199 28.7707C14.8548 28.563 14.7957 28.2851 14.5881 28.1502C13.6052 27.5115 12.4647 27.5029 11.167 28.1409C10.266 28.6761 9.482 28.6805 8.6985 28.1541C8.49264 28.0163 8.21452 28.071 8.07614 28.2762C7.93815 28.4819 7.99293 28.7604 8.19831 28.8986C9.26754 29.617 10.4203 29.6285 11.5935 28.9291Z" fill="black" fill-opacity="0.2"/>
<path d="M10.5971 30.4202C10.3917 30.282 10.1127 30.3368 9.9747 30.5422C9.83671 30.7478 9.89101 31.0263 10.0969 31.1647C11.2092 31.9131 12.3677 31.8661 13.4917 31.1952C14.4685 30.7158 15.2874 30.7073 15.9975 31.1684C16.2051 31.3036 16.4827 31.2444 16.6181 31.0368C16.7529 30.8292 16.6938 30.5512 16.4862 30.4164C15.5034 29.7776 14.3638 29.7683 13.0646 30.407C12.1642 30.9428 11.3802 30.9468 10.5971 30.4202Z" fill="#4D4D4D"/>
<path d="M10.5971 30.4202C10.3917 30.282 10.1127 30.3368 9.9747 30.5422C9.83671 30.7478 9.89101 31.0263 10.0969 31.1647C11.2092 31.9131 12.3677 31.8661 13.4917 31.1952C14.4685 30.7158 15.2874 30.7073 15.9975 31.1684C16.2051 31.3036 16.4827 31.2444 16.6181 31.0368C16.7529 30.8292 16.6938 30.5512 16.4862 30.4164C15.5034 29.7776 14.3638 29.7683 13.0646 30.407C12.1642 30.9428 11.3802 30.9468 10.5971 30.4202Z" fill="black" fill-opacity="0.2"/>
<path d="M71.1233 30V20.13H75.5053C76.5879 20.13 77.4139 20.3913 77.9833 20.914C78.5526 21.4367 78.8373 22.1553 78.8373 23.07C78.8373 23.9753 78.5526 24.694 77.9833 25.226C77.4139 25.758 76.5879 26.024 75.5053 26.024H72.9293V30H71.1233ZM72.9293 24.596H75.2953C75.8926 24.596 76.3406 24.4653 76.6393 24.204C76.9379 23.9333 77.0873 23.5553 77.0873 23.07C77.0873 22.5847 76.9379 22.2113 76.6393 21.95C76.3406 21.6793 75.8926 21.544 75.2953 21.544H72.9293V24.596ZM83.1577 30.14C82.4297 30.14 81.7997 29.9907 81.2677 29.692C80.7357 29.3933 80.3203 28.9687 80.0217 28.418C79.7323 27.8673 79.5877 27.214 79.5877 26.458C79.5877 25.702 79.7323 25.0533 80.0217 24.512C80.3203 23.9613 80.7357 23.5367 81.2677 23.238C81.7997 22.9393 82.4297 22.79 83.1577 22.79C83.8857 22.79 84.5157 22.9393 85.0477 23.238C85.589 23.5367 86.0043 23.9613 86.2937 24.512C86.5923 25.0533 86.7417 25.702 86.7417 26.458C86.7417 27.214 86.5923 27.8673 86.2937 28.418C86.0043 28.9687 85.589 29.3933 85.0477 29.692C84.5157 29.9907 83.8857 30.14 83.1577 30.14ZM83.1577 28.796C83.7083 28.796 84.147 28.6047 84.4737 28.222C84.8003 27.83 84.9637 27.242 84.9637 26.458C84.9637 25.674 84.8003 25.0907 84.4737 24.708C84.147 24.3253 83.7083 24.134 83.1577 24.134C82.607 24.134 82.1683 24.3253 81.8417 24.708C81.515 25.0907 81.3517 25.674 81.3517 26.458C81.3517 27.242 81.515 27.83 81.8417 28.222C82.1683 28.6047 82.607 28.796 83.1577 28.796ZM91.4428 30.14C90.7148 30.14 90.0848 29.9907 89.5528 29.692C89.0208 29.3933 88.6055 28.9687 88.3068 28.418C88.0175 27.8673 87.8728 27.214 87.8728 26.458C87.8728 25.702 88.0175 25.0533 88.3068 24.512C88.6055 23.9613 89.0208 23.5367 89.5528 23.238C90.0848 22.9393 90.7148 22.79 91.4428 22.79C92.1708 22.79 92.8008 22.9393 93.3328 23.238C93.8742 23.5367 94.2895 23.9613 94.5788 24.512C94.8775 25.0533 95.0268 25.702 95.0268 26.458C95.0268 27.214 94.8775 27.8673 94.5788 28.418C94.2895 28.9687 93.8742 29.3933 93.3328 29.692C92.8008 29.9907 92.1708 30.14 91.4428 30.14ZM91.4428 28.796C91.9935 28.796 92.4322 28.6047 92.7588 28.222C93.0855 27.83 93.2488 27.242 93.2488 26.458C93.2488 25.674 93.0855 25.0907 92.7588 24.708C92.4322 24.3253 91.9935 24.134 91.4428 24.134C90.8922 24.134 90.4535 24.3253 90.1268 24.708C89.8002 25.0907 89.6368 25.674 89.6368 26.458C89.6368 27.242 89.8002 27.83 90.1268 28.222C90.4535 28.6047 90.8922 28.796 91.4428 28.796ZM96.536 30V19.696H98.286V30H96.536Z" fill="#4D4D4D"/>
<path d="M71.1233 30V20.13H75.5053C76.5879 20.13 77.4139 20.3913 77.9833 20.914C78.5526 21.4367 78.8373 22.1553 78.8373 23.07C78.8373 23.9753 78.5526 24.694 77.9833 25.226C77.4139 25.758 76.5879 26.024 75.5053 26.024H72.9293V30H71.1233ZM72.9293 24.596H75.2953C75.8926 24.596 76.3406 24.4653 76.6393 24.204C76.9379 23.9333 77.0873 23.5553 77.0873 23.07C77.0873 22.5847 76.9379 22.2113 76.6393 21.95C76.3406 21.6793 75.8926 21.544 75.2953 21.544H72.9293V24.596ZM83.1577 30.14C82.4297 30.14 81.7997 29.9907 81.2677 29.692C80.7357 29.3933 80.3203 28.9687 80.0217 28.418C79.7323 27.8673 79.5877 27.214 79.5877 26.458C79.5877 25.702 79.7323 25.0533 80.0217 24.512C80.3203 23.9613 80.7357 23.5367 81.2677 23.238C81.7997 22.9393 82.4297 22.79 83.1577 22.79C83.8857 22.79 84.5157 22.9393 85.0477 23.238C85.589 23.5367 86.0043 23.9613 86.2937 24.512C86.5923 25.0533 86.7417 25.702 86.7417 26.458C86.7417 27.214 86.5923 27.8673 86.2937 28.418C86.0043 28.9687 85.589 29.3933 85.0477 29.692C84.5157 29.9907 83.8857 30.14 83.1577 30.14ZM83.1577 28.796C83.7083 28.796 84.147 28.6047 84.4737 28.222C84.8003 27.83 84.9637 27.242 84.9637 26.458C84.9637 25.674 84.8003 25.0907 84.4737 24.708C84.147 24.3253 83.7083 24.134 83.1577 24.134C82.607 24.134 82.1683 24.3253 81.8417 24.708C81.515 25.0907 81.3517 25.674 81.3517 26.458C81.3517 27.242 81.515 27.83 81.8417 28.222C82.1683 28.6047 82.607 28.796 83.1577 28.796ZM91.4428 30.14C90.7148 30.14 90.0848 29.9907 89.5528 29.692C89.0208 29.3933 88.6055 28.9687 88.3068 28.418C88.0175 27.8673 87.8728 27.214 87.8728 26.458C87.8728 25.702 88.0175 25.0533 88.3068 24.512C88.6055 23.9613 89.0208 23.5367 89.5528 23.238C90.0848 22.9393 90.7148 22.79 91.4428 22.79C92.1708 22.79 92.8008 22.9393 93.3328 23.238C93.8742 23.5367 94.2895 23.9613 94.5788 24.512C94.8775 25.0533 95.0268 25.702 95.0268 26.458C95.0268 27.214 94.8775 27.8673 94.5788 28.418C94.2895 28.9687 93.8742 29.3933 93.3328 29.692C92.8008 29.9907 92.1708 30.14 91.4428 30.14ZM91.4428 28.796C91.9935 28.796 92.4322 28.6047 92.7588 28.222C93.0855 27.83 93.2488 27.242 93.2488 26.458C93.2488 25.674 93.0855 25.0907 92.7588 24.708C92.4322 24.3253 91.9935 24.134 91.4428 24.134C90.8922 24.134 90.4535 24.3253 90.1268 24.708C89.8002 25.0907 89.6368 25.674 89.6368 26.458C89.6368 27.242 89.8002 27.83 90.1268 28.222C90.4535 28.6047 90.8922 28.796 91.4428 28.796ZM96.536 30V19.696H98.286V30H96.536Z" fill="black" fill-opacity="0.2"/>
</svg>
