<svg width="18" height="18" viewBox="0 0 18 18" fill="none" xmlns="http://www.w3.org/2000/svg">
<path fill-rule="evenodd" clip-rule="evenodd" d="M14.0138 14.3228C14.7405 13.6399 15.3195 12.8152 15.7149 11.8997C16.1103 10.9841 16.3137 9.99725 16.3125 9C16.3125 4.96125 13.0388 1.6875 9 1.6875C4.96125 1.6875 1.6875 4.96125 1.6875 9C1.68635 9.99725 1.88975 10.9841 2.28514 11.8997C2.68053 12.8152 3.2595 13.6399 3.98625 14.3228C5.34146 15.6029 7.13576 16.315 9 16.3125C10.8642 16.315 12.6586 15.6029 14.0138 14.3228ZM4.60875 13.359C5.13531 12.7002 5.80351 12.1685 6.56373 11.8034C7.32395 11.4383 8.15666 11.2492 9 11.25C9.84336 11.2492 10.6761 11.4383 11.4363 11.8034C12.1965 12.1685 12.8647 12.7002 13.3913 13.359C12.8168 13.9393 12.1328 14.3997 11.379 14.7136C10.6252 15.0275 9.81655 15.1886 9 15.1875C8.18346 15.1886 7.37483 15.0275 6.62102 14.7136C5.86722 14.3997 5.18324 13.9393 4.60875 13.359ZM11.8125 6.75C11.8125 7.49592 11.5162 8.21129 10.9887 8.73874C10.4613 9.26618 9.74593 9.5625 9 9.5625C8.25408 9.5625 7.53871 9.26618 7.01127 8.73874C6.48382 8.21129 6.1875 7.49592 6.1875 6.75C6.1875 6.00408 6.48382 5.28871 7.01127 4.76126C7.53871 4.23382 8.25408 3.9375 9 3.9375C9.74593 3.9375 10.4613 4.23382 10.9887 4.76126C11.5162 5.28871 11.8125 6.00408 11.8125 6.75Z" fill="#C4C4C4"/>
</svg>
