<svg width="100" height="50" viewBox="0 0 100 50" fill="none" xmlns="http://www.w3.org/2000/svg">
<g clip-path="url(#clip0_2434_1101)">
<path d="M46.3203 28.1491H45.2045V25.7103C45.2045 25.2789 44.8547 24.9291 44.4232 24.9291H44.2289V6.00415C44.2289 4.71187 43.1775 3.6604 41.8852 3.6604C40.5928 3.6604 39.5414 4.71187 39.5414 6.00415V24.9291H39.3472C38.9157 24.9291 38.5659 25.2789 38.5659 25.7103V28.1491H11.4966V25.7103C11.4966 25.2789 11.1468 24.9291 10.7153 24.9291H10.521V6.00415C10.521 4.71187 9.46953 3.6604 8.17725 3.6604C6.88496 3.6604 5.8335 4.71187 5.8335 6.00415V24.9291H5.63916C5.20771 24.9291 4.85791 25.2789 4.85791 25.7103V28.1491H3.74219C1.696 28.1491 0.03125 29.8138 0.03125 31.86V39.526C0.03125 41.5722 1.696 43.237 3.74219 43.237H5.10146L5.73389 45.749C5.82129 46.0961 6.1335 46.3395 6.4915 46.3395H9.86309C10.2211 46.3395 10.5333 46.0961 10.6207 45.749L11.2531 43.237H38.8094L39.4418 45.749C39.5292 46.0961 39.8414 46.3395 40.1994 46.3395H43.571C43.929 46.3395 44.2412 46.0961 44.3286 45.749L44.961 43.237H46.3203C48.3665 43.237 50.0312 41.5722 50.0312 39.526V31.86C50.0312 29.8138 48.3665 28.1491 46.3203 28.1491ZM41.1039 6.00415C41.1039 5.57339 41.4544 5.2229 41.8852 5.2229C42.3159 5.2229 42.6664 5.57339 42.6664 6.00415V24.9291H41.1039V6.00415ZM40.1284 26.4916H43.642V28.1491H40.1284V26.4916ZM7.39609 6.00415C7.39609 5.57339 7.74648 5.2229 8.17734 5.2229C8.6082 5.2229 8.95859 5.57339 8.95859 6.00415V24.9291H7.39609V6.00415ZM6.42051 26.4916H9.93408V28.1491H6.42051V26.4916ZM9.2542 44.777H7.10049L6.7127 43.237H9.64189L9.2542 44.777ZM42.9621 44.777H40.8084L40.4207 43.237H43.3499L42.9621 44.777ZM48.4688 39.526C48.4688 40.7107 47.505 41.6745 46.3203 41.6745H3.74219C2.55752 41.6745 1.59375 40.7107 1.59375 39.526V31.86C1.59375 30.6753 2.55752 29.7116 3.74219 29.7116H46.3203C47.505 29.7116 48.4688 30.6753 48.4688 31.86V39.526ZM29.3078 33.1999C27.9331 33.1999 26.8147 34.3183 26.8147 35.693C26.8147 37.0676 27.9332 38.186 29.3078 38.186C30.6824 38.186 31.8009 37.0676 31.8009 35.693C31.8008 34.3183 30.6824 33.1999 29.3078 33.1999ZM29.3078 36.6235C28.7947 36.6235 28.3772 36.2061 28.3772 35.693C28.3772 35.1798 28.7947 34.7624 29.3078 34.7624C29.8209 34.7624 30.2384 35.1798 30.2384 35.693C30.2383 36.2061 29.8209 36.6235 29.3078 36.6235ZM35.4876 33.1999C34.1129 33.1999 32.9945 34.3183 32.9945 35.693C32.9945 37.0676 34.1129 38.186 35.4876 38.186C36.8623 38.186 37.9807 37.0676 37.9807 35.693C37.9808 34.3183 36.8623 33.1999 35.4876 33.1999ZM35.4876 36.6235C34.9745 36.6235 34.557 36.2061 34.557 35.693C34.557 35.1798 34.9744 34.7624 35.4876 34.7624C36.0008 34.7624 36.4182 35.1798 36.4182 35.693C36.4183 36.2061 36.0008 36.6235 35.4876 36.6235ZM41.6675 33.1999C40.2928 33.1999 39.1744 34.3183 39.1744 35.693C39.1744 37.0676 40.2929 38.186 41.6675 38.186C43.0421 38.186 44.1605 37.0676 44.1605 35.693C44.1605 34.3183 43.0422 33.1999 41.6675 33.1999ZM41.6675 36.6235C41.1544 36.6235 40.7369 36.2061 40.7369 35.693C40.7369 35.1798 41.1544 34.7624 41.6675 34.7624C42.1806 34.7624 42.598 35.1798 42.598 35.693C42.598 36.2061 42.1807 36.6235 41.6675 36.6235ZM5.921 33.8864V37.4997C5.921 37.9311 5.57119 38.2809 5.13975 38.2809C4.7083 38.2809 4.3585 37.9311 4.3585 37.4997V33.8864C4.3585 33.4549 4.7083 33.1051 5.13975 33.1051C5.57119 33.1051 5.921 33.4549 5.921 33.8864ZM8.55771 33.8864V37.4997C8.55771 37.9311 8.20791 38.2809 7.77646 38.2809C7.34502 38.2809 6.99521 37.9311 6.99521 37.4997V33.8864C6.99521 33.4549 7.34502 33.1051 7.77646 33.1051C8.20791 33.1051 8.55771 33.4549 8.55771 33.8864ZM11.1944 33.8864V37.4997C11.1944 37.9311 10.8446 38.2809 10.4132 38.2809C9.98174 38.2809 9.63193 37.9311 9.63193 37.4997V33.8864C9.63193 33.4549 9.98174 33.1051 10.4132 33.1051C10.8446 33.1051 11.1944 33.4549 11.1944 33.8864ZM13.8312 33.8864V37.4997C13.8312 37.9311 13.4813 38.2809 13.0499 38.2809C12.6185 38.2809 12.2687 37.9311 12.2687 37.4997V33.8864C12.2687 33.4549 12.6185 33.1051 13.0499 33.1051C13.4813 33.1051 13.8312 33.4549 13.8312 33.8864ZM16.4679 33.8864V37.4997C16.4679 37.9311 16.1181 38.2809 15.6866 38.2809C15.2552 38.2809 14.9054 37.9311 14.9054 37.4997V33.8864C14.9054 33.4549 15.2552 33.1051 15.6866 33.1051C16.1181 33.1051 16.4679 33.4549 16.4679 33.8864ZM36.1306 11.3096C30.0104 5.1895 20.0521 5.1895 13.9319 11.3096C13.6269 11.6148 13.1322 11.6148 12.8271 11.3096C12.522 11.0045 12.5221 10.5099 12.8271 10.2048C19.5565 3.47544 30.5061 3.47544 37.2355 10.2048C37.5405 10.5099 37.5406 11.0045 37.2355 11.3096C37.0829 11.4622 36.883 11.5384 36.683 11.5384C36.483 11.5384 36.2831 11.4622 36.1306 11.3096ZM32.372 15.0682C28.3243 11.0206 21.7382 11.0206 17.6905 15.0682C17.3854 15.3733 16.8908 15.3733 16.5857 15.0682C16.2807 14.7631 16.2807 14.2685 16.5857 13.9634C21.2427 9.30649 28.8199 9.30649 33.4769 13.9634C33.7819 14.2685 33.7819 14.7631 33.4769 15.0682C33.3243 15.2208 33.1244 15.297 32.9244 15.297C32.7244 15.297 32.5245 15.2208 32.372 15.0682ZM28.6134 18.8269C27.6565 17.8701 26.3844 17.3431 25.0312 17.3431C23.6781 17.3431 22.406 17.8701 21.4491 18.8269C21.144 19.132 20.6494 19.132 20.3443 18.8269C20.0393 18.5218 20.0392 18.0272 20.3443 17.7221C21.5963 16.4702 23.2607 15.7807 25.0312 15.7807C26.8018 15.7807 28.4662 16.4703 29.7182 17.7221C30.0233 18.0272 30.0232 18.5218 29.7182 18.8269C29.5656 18.9794 29.3656 19.0557 29.1657 19.0557C28.9658 19.0557 28.7659 18.9794 28.6134 18.8269ZM23.7231 20.5637C23.3737 20.9131 23.1812 21.3777 23.1812 21.8718C23.1812 22.3661 23.3737 22.8305 23.723 23.1799C24.0725 23.5293 24.537 23.7218 25.0312 23.7218C25.5253 23.7218 25.9898 23.5293 26.3393 23.18C26.6887 22.8306 26.8812 22.3661 26.8812 21.8718C26.8812 21.3777 26.6887 20.9131 26.3393 20.5637C25.6181 19.8425 24.4444 19.8425 23.7231 20.5637ZM25.3187 21.8718C25.3187 21.9164 25.3077 22.0018 25.2344 22.0751C25.1611 22.1484 25.0757 22.1593 25.0312 22.1593C24.9866 22.1593 24.9012 22.1484 24.8278 22.075C24.7546 22.0018 24.7437 21.9164 24.7437 21.8718C24.7437 21.8274 24.7546 21.7418 24.8278 21.6686C24.8839 21.6125 24.9574 21.5846 25.0311 21.5846C25.1046 21.5846 25.1782 21.6126 25.2344 21.6687C25.3078 21.7418 25.3187 21.8274 25.3187 21.8718Z" fill="#4D4D4D"/>
<path d="M46.3203 28.1491H45.2045V25.7103C45.2045 25.2789 44.8547 24.9291 44.4232 24.9291H44.2289V6.00415C44.2289 4.71187 43.1775 3.6604 41.8852 3.6604C40.5928 3.6604 39.5414 4.71187 39.5414 6.00415V24.9291H39.3472C38.9157 24.9291 38.5659 25.2789 38.5659 25.7103V28.1491H11.4966V25.7103C11.4966 25.2789 11.1468 24.9291 10.7153 24.9291H10.521V6.00415C10.521 4.71187 9.46953 3.6604 8.17725 3.6604C6.88496 3.6604 5.8335 4.71187 5.8335 6.00415V24.9291H5.63916C5.20771 24.9291 4.85791 25.2789 4.85791 25.7103V28.1491H3.74219C1.696 28.1491 0.03125 29.8138 0.03125 31.86V39.526C0.03125 41.5722 1.696 43.237 3.74219 43.237H5.10146L5.73389 45.749C5.82129 46.0961 6.1335 46.3395 6.4915 46.3395H9.86309C10.2211 46.3395 10.5333 46.0961 10.6207 45.749L11.2531 43.237H38.8094L39.4418 45.749C39.5292 46.0961 39.8414 46.3395 40.1994 46.3395H43.571C43.929 46.3395 44.2412 46.0961 44.3286 45.749L44.961 43.237H46.3203C48.3665 43.237 50.0312 41.5722 50.0312 39.526V31.86C50.0312 29.8138 48.3665 28.1491 46.3203 28.1491ZM41.1039 6.00415C41.1039 5.57339 41.4544 5.2229 41.8852 5.2229C42.3159 5.2229 42.6664 5.57339 42.6664 6.00415V24.9291H41.1039V6.00415ZM40.1284 26.4916H43.642V28.1491H40.1284V26.4916ZM7.39609 6.00415C7.39609 5.57339 7.74648 5.2229 8.17734 5.2229C8.6082 5.2229 8.95859 5.57339 8.95859 6.00415V24.9291H7.39609V6.00415ZM6.42051 26.4916H9.93408V28.1491H6.42051V26.4916ZM9.2542 44.777H7.10049L6.7127 43.237H9.64189L9.2542 44.777ZM42.9621 44.777H40.8084L40.4207 43.237H43.3499L42.9621 44.777ZM48.4688 39.526C48.4688 40.7107 47.505 41.6745 46.3203 41.6745H3.74219C2.55752 41.6745 1.59375 40.7107 1.59375 39.526V31.86C1.59375 30.6753 2.55752 29.7116 3.74219 29.7116H46.3203C47.505 29.7116 48.4688 30.6753 48.4688 31.86V39.526ZM29.3078 33.1999C27.9331 33.1999 26.8147 34.3183 26.8147 35.693C26.8147 37.0676 27.9332 38.186 29.3078 38.186C30.6824 38.186 31.8009 37.0676 31.8009 35.693C31.8008 34.3183 30.6824 33.1999 29.3078 33.1999ZM29.3078 36.6235C28.7947 36.6235 28.3772 36.2061 28.3772 35.693C28.3772 35.1798 28.7947 34.7624 29.3078 34.7624C29.8209 34.7624 30.2384 35.1798 30.2384 35.693C30.2383 36.2061 29.8209 36.6235 29.3078 36.6235ZM35.4876 33.1999C34.1129 33.1999 32.9945 34.3183 32.9945 35.693C32.9945 37.0676 34.1129 38.186 35.4876 38.186C36.8623 38.186 37.9807 37.0676 37.9807 35.693C37.9808 34.3183 36.8623 33.1999 35.4876 33.1999ZM35.4876 36.6235C34.9745 36.6235 34.557 36.2061 34.557 35.693C34.557 35.1798 34.9744 34.7624 35.4876 34.7624C36.0008 34.7624 36.4182 35.1798 36.4182 35.693C36.4183 36.2061 36.0008 36.6235 35.4876 36.6235ZM41.6675 33.1999C40.2928 33.1999 39.1744 34.3183 39.1744 35.693C39.1744 37.0676 40.2929 38.186 41.6675 38.186C43.0421 38.186 44.1605 37.0676 44.1605 35.693C44.1605 34.3183 43.0422 33.1999 41.6675 33.1999ZM41.6675 36.6235C41.1544 36.6235 40.7369 36.2061 40.7369 35.693C40.7369 35.1798 41.1544 34.7624 41.6675 34.7624C42.1806 34.7624 42.598 35.1798 42.598 35.693C42.598 36.2061 42.1807 36.6235 41.6675 36.6235ZM5.921 33.8864V37.4997C5.921 37.9311 5.57119 38.2809 5.13975 38.2809C4.7083 38.2809 4.3585 37.9311 4.3585 37.4997V33.8864C4.3585 33.4549 4.7083 33.1051 5.13975 33.1051C5.57119 33.1051 5.921 33.4549 5.921 33.8864ZM8.55771 33.8864V37.4997C8.55771 37.9311 8.20791 38.2809 7.77646 38.2809C7.34502 38.2809 6.99521 37.9311 6.99521 37.4997V33.8864C6.99521 33.4549 7.34502 33.1051 7.77646 33.1051C8.20791 33.1051 8.55771 33.4549 8.55771 33.8864ZM11.1944 33.8864V37.4997C11.1944 37.9311 10.8446 38.2809 10.4132 38.2809C9.98174 38.2809 9.63193 37.9311 9.63193 37.4997V33.8864C9.63193 33.4549 9.98174 33.1051 10.4132 33.1051C10.8446 33.1051 11.1944 33.4549 11.1944 33.8864ZM13.8312 33.8864V37.4997C13.8312 37.9311 13.4813 38.2809 13.0499 38.2809C12.6185 38.2809 12.2687 37.9311 12.2687 37.4997V33.8864C12.2687 33.4549 12.6185 33.1051 13.0499 33.1051C13.4813 33.1051 13.8312 33.4549 13.8312 33.8864ZM16.4679 33.8864V37.4997C16.4679 37.9311 16.1181 38.2809 15.6866 38.2809C15.2552 38.2809 14.9054 37.9311 14.9054 37.4997V33.8864C14.9054 33.4549 15.2552 33.1051 15.6866 33.1051C16.1181 33.1051 16.4679 33.4549 16.4679 33.8864ZM36.1306 11.3096C30.0104 5.1895 20.0521 5.1895 13.9319 11.3096C13.6269 11.6148 13.1322 11.6148 12.8271 11.3096C12.522 11.0045 12.5221 10.5099 12.8271 10.2048C19.5565 3.47544 30.5061 3.47544 37.2355 10.2048C37.5405 10.5099 37.5406 11.0045 37.2355 11.3096C37.0829 11.4622 36.883 11.5384 36.683 11.5384C36.483 11.5384 36.2831 11.4622 36.1306 11.3096ZM32.372 15.0682C28.3243 11.0206 21.7382 11.0206 17.6905 15.0682C17.3854 15.3733 16.8908 15.3733 16.5857 15.0682C16.2807 14.7631 16.2807 14.2685 16.5857 13.9634C21.2427 9.30649 28.8199 9.30649 33.4769 13.9634C33.7819 14.2685 33.7819 14.7631 33.4769 15.0682C33.3243 15.2208 33.1244 15.297 32.9244 15.297C32.7244 15.297 32.5245 15.2208 32.372 15.0682ZM28.6134 18.8269C27.6565 17.8701 26.3844 17.3431 25.0312 17.3431C23.6781 17.3431 22.406 17.8701 21.4491 18.8269C21.144 19.132 20.6494 19.132 20.3443 18.8269C20.0393 18.5218 20.0392 18.0272 20.3443 17.7221C21.5963 16.4702 23.2607 15.7807 25.0312 15.7807C26.8018 15.7807 28.4662 16.4703 29.7182 17.7221C30.0233 18.0272 30.0232 18.5218 29.7182 18.8269C29.5656 18.9794 29.3656 19.0557 29.1657 19.0557C28.9658 19.0557 28.7659 18.9794 28.6134 18.8269ZM23.7231 20.5637C23.3737 20.9131 23.1812 21.3777 23.1812 21.8718C23.1812 22.3661 23.3737 22.8305 23.723 23.1799C24.0725 23.5293 24.537 23.7218 25.0312 23.7218C25.5253 23.7218 25.9898 23.5293 26.3393 23.18C26.6887 22.8306 26.8812 22.3661 26.8812 21.8718C26.8812 21.3777 26.6887 20.9131 26.3393 20.5637C25.6181 19.8425 24.4444 19.8425 23.7231 20.5637ZM25.3187 21.8718C25.3187 21.9164 25.3077 22.0018 25.2344 22.0751C25.1611 22.1484 25.0757 22.1593 25.0312 22.1593C24.9866 22.1593 24.9012 22.1484 24.8278 22.075C24.7546 22.0018 24.7437 21.9164 24.7437 21.8718C24.7437 21.8274 24.7546 21.7418 24.8278 21.6686C24.8839 21.6125 24.9574 21.5846 25.0311 21.5846C25.1046 21.5846 25.1782 21.6126 25.2344 21.6687C25.3078 21.7418 25.3187 21.8274 25.3187 21.8718Z" fill="black" fill-opacity="0.2"/>
</g>
<path d="M73.8673 30L70.3813 20.13H72.2573L74.9453 28.222H74.3853L77.2833 20.13H78.6273L81.3153 28.222H80.7973L83.6113 20.13H85.3753L81.8613 30H80.3633L77.7593 22.412H78.0673L75.3653 30H73.8673ZM86.6786 30V22.93H88.4286V30H86.6786ZM86.5806 21.6V19.892H88.5266V21.6H86.5806ZM90.805 30V24.246H89.447V22.93H91.295L90.805 23.378V22.3C90.805 21.4227 91.0243 20.76 91.463 20.312C91.911 19.864 92.5596 19.64 93.409 19.64C93.6143 19.64 93.829 19.654 94.053 19.682C94.2863 19.71 94.487 19.7613 94.655 19.836V21.208C94.5336 21.1613 94.389 21.124 94.221 21.096C94.053 21.068 93.8896 21.054 93.731 21.054C93.367 21.054 93.0776 21.1613 92.863 21.376C92.6483 21.5813 92.541 21.9173 92.541 22.384V23.238L92.289 22.93H97.203V30H95.453V24.246H92.555V30H90.805ZM95.355 21.6V19.892H97.301V21.6H95.355Z" fill="#4D4D4D"/>
<path d="M73.8673 30L70.3813 20.13H72.2573L74.9453 28.222H74.3853L77.2833 20.13H78.6273L81.3153 28.222H80.7973L83.6113 20.13H85.3753L81.8613 30H80.3633L77.7593 22.412H78.0673L75.3653 30H73.8673ZM86.6786 30V22.93H88.4286V30H86.6786ZM86.5806 21.6V19.892H88.5266V21.6H86.5806ZM90.805 30V24.246H89.447V22.93H91.295L90.805 23.378V22.3C90.805 21.4227 91.0243 20.76 91.463 20.312C91.911 19.864 92.5596 19.64 93.409 19.64C93.6143 19.64 93.829 19.654 94.053 19.682C94.2863 19.71 94.487 19.7613 94.655 19.836V21.208C94.5336 21.1613 94.389 21.124 94.221 21.096C94.053 21.068 93.8896 21.054 93.731 21.054C93.367 21.054 93.0776 21.1613 92.863 21.376C92.6483 21.5813 92.541 21.9173 92.541 22.384V23.238L92.289 22.93H97.203V30H95.453V24.246H92.555V30H90.805ZM95.355 21.6V19.892H97.301V21.6H95.355Z" fill="black" fill-opacity="0.2"/>
<defs>
<clipPath id="clip0_2434_1101">
<rect width="50" height="50" fill="white" transform="translate(0.03125)"/>
</clipPath>
</defs>
</svg>
