<svg width="163" height="50" viewBox="0 0 163 50" fill="none" xmlns="http://www.w3.org/2000/svg">
<path d="M44.7367 45.458H41.1951C41.0925 45.4581 40.9909 45.4379 40.8961 45.3987C40.8012 45.3594 40.7151 45.3019 40.6425 45.2293C40.57 45.1568 40.5124 45.0706 40.4732 44.9758C40.434 44.881 40.4138 44.7794 40.4138 44.6768V42.2979H27.1783C27.0757 42.298 26.9741 42.2778 26.8793 42.2386C26.7845 42.1993 26.6983 42.1418 26.6258 42.0692C26.5532 41.9967 26.4957 41.9105 26.4564 41.8157C26.4172 41.7209 26.397 41.6193 26.3971 41.5167V25.8505H9.64832V44.6768C9.64837 44.7794 9.62821 44.881 9.58897 44.9758C9.54972 45.0706 9.49218 45.1568 9.41962 45.2293C9.34707 45.3019 9.26092 45.3594 9.16611 45.3987C9.0713 45.4379 8.96968 45.4581 8.86707 45.458H5.32549C5.22288 45.4581 5.12126 45.4379 5.02645 45.3987C4.93164 45.3594 4.84549 45.3019 4.77293 45.2293C4.70038 45.1568 4.64283 45.0706 4.60359 44.9758C4.56435 44.881 4.54418 44.7794 4.54424 44.6768V25.8505C4.19857 25.9076 3.84489 25.8934 3.50489 25.8088C3.1649 25.7243 2.84578 25.5711 2.56713 25.3588C2.28847 25.1464 2.05617 24.8793 1.88449 24.5739C1.7128 24.2685 1.60536 23.9313 1.56876 23.5828C1.53215 23.2344 1.56716 22.8821 1.67163 22.5477C1.77609 22.2133 1.94782 21.9038 2.17625 21.6382C2.40469 21.3725 2.68501 21.1564 3.00001 21.003C3.31501 20.8497 3.65804 20.7623 4.00802 20.7463L7.30158 20.7464C7.24845 20.4438 7.26123 20.1334 7.33905 19.8362C7.41687 19.539 7.55789 19.2621 7.7525 19.0244C7.9471 18.7867 8.1907 18.5938 8.46667 18.4589C8.74264 18.3239 9.04448 18.2501 9.35158 18.2425H10.3037L7.28168 12.2228C6.98929 12.2273 6.70006 12.1619 6.43809 12.0319C6.17612 11.902 5.949 11.7113 5.77566 11.4758C5.60232 11.2403 5.48777 10.9668 5.44157 10.678C5.39536 10.3893 5.41884 10.0937 5.51003 9.81582C5.60123 9.53798 5.75751 9.28595 5.96585 9.08075C6.17419 8.87555 6.42856 8.72312 6.70775 8.63615C6.98694 8.54918 7.28288 8.5302 7.5709 8.58078C7.85891 8.63136 8.13067 8.75005 8.36352 8.92695L14.7424 5.58679C15.4992 4.88268 16.5011 4.50202 17.5345 4.52597C18.5679 4.54992 19.5511 4.97658 20.2745 5.71499C20.9118 6.36356 20.1583 6.97428 19.6977 7.41632C19.9503 7.89772 20.0425 8.44728 19.9607 8.98476C19.8789 9.52225 19.6274 10.0195 19.243 10.4039C18.8585 10.7884 18.3613 11.0399 17.8238 11.1217C17.2863 11.2035 16.7368 11.1114 16.2554 10.8587C15.9814 11.1072 15.5365 11.7124 15.1201 11.6643C13.6724 11.2405 13.2252 9.10382 13.4127 8.04804L9.08679 10.3124C9.1035 10.7561 8.9624 11.1913 8.68854 11.5408L12.0523 18.2424H13.8002C14.1073 18.2501 14.4092 18.3239 14.6851 18.4588C14.9611 18.5938 15.2047 18.7867 15.3993 19.0244C15.5939 19.2621 15.7349 19.539 15.8127 19.8362C15.8906 20.1334 15.9033 20.4438 15.8502 20.7464H21.2808C20.7645 20.0319 19.9067 17.9599 21.3502 17.7648H26.571V12.1115C26.5719 11.5045 26.8135 10.9226 27.2429 10.4935C27.6723 10.0644 28.2543 9.82314 28.8614 9.82271H41.4575C42.0646 9.82314 42.6467 10.0644 43.0761 10.4935C43.5054 10.9226 43.7471 11.5045 43.7479 12.1115V20.7465H46.0459C46.3968 20.7605 46.7412 20.8463 47.0577 20.9986C47.3743 21.1509 47.6562 21.3664 47.8862 21.6319C48.1162 21.8974 48.2893 22.2072 48.395 22.5422C48.5006 22.8772 48.5364 23.2303 48.5003 23.5797C48.4641 23.9291 48.3568 24.2674 48.1848 24.5737C48.0129 24.8799 47.78 25.1477 47.5005 25.3605C47.2211 25.5733 46.901 25.7266 46.56 25.8109C46.219 25.8951 45.8643 25.9086 45.5179 25.8505V44.6768C45.518 44.7794 45.4978 44.881 45.4586 44.9758C45.4193 45.0706 45.3618 45.1568 45.2892 45.2293C45.2167 45.3019 45.1305 45.3594 45.0357 45.3987C44.9409 45.4379 44.8393 45.4581 44.7367 45.458ZM41.9763 43.8955H43.9554V25.8505H41.9763V43.8955ZM6.10674 43.8955H8.08582V25.8505H6.10674V43.8955ZM27.9596 40.7354H40.4138V34.0734H27.9596V40.7354ZM27.9596 32.5109H40.4138V25.8505H27.9596V32.5109ZM8.08047 22.3089H4.01705C3.76568 22.3261 3.53029 22.4384 3.35872 22.623C3.18714 22.8075 3.09225 23.0504 3.09331 23.3024C3.09438 23.5543 3.19132 23.7964 3.36445 23.9795C3.53757 24.1626 3.7739 24.2729 4.02541 24.288C4.84351 24.2871 7.99165 24.2886 8.87549 24.288C18.4809 24.2872 36.4528 24.2885 46.0397 24.288C46.2919 24.2725 46.5286 24.1613 46.7015 23.9771C46.8744 23.7929 46.9705 23.5497 46.9702 23.2971C46.9698 23.0444 46.873 22.8015 46.6995 22.6178C46.526 22.4342 46.289 22.3237 46.0368 22.3089H42.9667C33.3399 22.3109 17.5665 22.3074 8.08047 22.3089ZM28.1336 20.7464H42.1854V12.1115C42.1849 11.9188 42.108 11.7341 41.9715 11.598C41.8351 11.4619 41.6503 11.3854 41.4576 11.3852H28.8614C28.6687 11.3854 28.4839 11.4619 28.3474 11.598C28.211 11.7341 28.1341 11.9188 28.1336 12.1115L28.1336 20.7464ZM22.275 19.3273C22.4339 19.7443 22.7156 20.1032 23.0829 20.3566C23.4502 20.6099 23.8857 20.7459 24.3319 20.7464H26.5711V19.3273H22.275ZM8.86405 20.7464H14.2877C14.3086 20.3687 14.3201 19.8063 13.8002 19.8049C13.7213 19.7996 11.4743 19.8129 11.4748 19.8049H9.35155C8.83458 19.8053 8.84097 20.3697 8.86405 20.7464ZM6.94827 10.404C6.94046 10.8544 7.77571 10.6768 7.46171 10.2041C7.25532 10.0216 6.89808 10.1874 6.94827 10.404ZM17.47 6.07965C17.0454 6.08525 16.6291 6.19731 16.259 6.40554C15.889 6.61378 15.5772 6.91154 15.3521 7.27154C15.127 7.63154 14.9958 8.04227 14.9706 8.46611C14.9454 8.88994 15.027 9.31332 15.2078 9.69746L18.5442 6.35884C18.2152 6.1772 17.8458 6.0812 17.47 6.07965ZM18.4694 8.64465L17.483 9.63184C17.737 9.60878 17.9748 9.49734 18.1551 9.31695C18.3353 9.13655 18.4466 8.89864 18.4694 8.64465ZM35.3571 38.1857H33.0179C32.8133 38.1818 32.6183 38.0978 32.475 37.9517C32.3316 37.8056 32.2513 37.6091 32.2513 37.4044C32.2513 37.1997 32.3316 37.0032 32.475 36.8572C32.6183 36.7111 32.8133 36.627 33.0179 36.6232H35.357C35.5616 36.627 35.7565 36.711 35.8999 36.8571C36.0433 37.0032 36.1236 37.1997 36.1236 37.4044C36.1236 37.609 36.0433 37.8055 35.9 37.9516C35.7566 38.0977 35.5617 38.1818 35.3571 38.1857ZM35.3571 29.9612H33.0179C32.8133 29.9573 32.6183 29.8733 32.475 29.7272C32.3316 29.5811 32.2513 29.3846 32.2513 29.1799C32.2513 28.9753 32.3316 28.7788 32.475 28.6327C32.6183 28.4866 32.8133 28.4026 33.0179 28.3987H35.357C35.5616 28.4025 35.7565 28.4866 35.8999 28.6326C36.0433 28.7787 36.1236 28.9752 36.1236 29.1799C36.1236 29.3845 36.0433 29.5811 35.9 29.7272C35.7566 29.8733 35.5617 29.9573 35.3571 29.9612ZM35.1586 18.1539C34.8802 18.1617 34.6031 18.1127 34.3442 18.0098C34.0853 17.907 33.8501 17.7524 33.6529 17.5557C33.4557 17.3589 33.3007 17.1241 33.1973 16.8654C33.0939 16.6067 33.0442 16.3297 33.0514 16.0513C33.0684 15.5035 33.2979 14.9839 33.6914 14.6024C34.0849 14.221 34.6114 14.0077 35.1594 14.0077C35.7074 14.0077 36.2339 14.221 36.6274 14.6024C37.0208 14.9839 37.2504 15.5035 37.2674 16.0513C37.2739 16.3297 37.2238 16.6065 37.1201 16.865C37.0164 17.1235 36.8612 17.3582 36.664 17.5548C36.4668 17.7515 36.2316 17.906 35.9729 18.009C35.7141 18.112 35.437 18.1613 35.1586 18.1539ZM34.6139 16.065C34.6157 16.2097 34.6749 16.3477 34.7785 16.4487C34.8821 16.5498 35.0216 16.6055 35.1663 16.6037C35.3109 16.6019 35.449 16.5426 35.55 16.439C35.651 16.3355 35.7067 16.196 35.7049 16.0513C35.7015 15.9077 35.6416 15.7713 35.5382 15.6716C35.4348 15.5719 35.2963 15.517 35.1527 15.5188C35.0091 15.5206 34.872 15.579 34.7711 15.6813C34.6703 15.7835 34.6137 15.9214 34.6139 16.065Z" fill="#4D4D4D"/>
<path d="M44.7367 45.458H41.1951C41.0925 45.4581 40.9909 45.4379 40.8961 45.3987C40.8012 45.3594 40.7151 45.3019 40.6425 45.2293C40.57 45.1568 40.5124 45.0706 40.4732 44.9758C40.434 44.881 40.4138 44.7794 40.4138 44.6768V42.2979H27.1783C27.0757 42.298 26.9741 42.2778 26.8793 42.2386C26.7845 42.1993 26.6983 42.1418 26.6258 42.0692C26.5532 41.9967 26.4957 41.9105 26.4564 41.8157C26.4172 41.7209 26.397 41.6193 26.3971 41.5167V25.8505H9.64832V44.6768C9.64837 44.7794 9.62821 44.881 9.58897 44.9758C9.54972 45.0706 9.49218 45.1568 9.41962 45.2293C9.34707 45.3019 9.26092 45.3594 9.16611 45.3987C9.0713 45.4379 8.96968 45.4581 8.86707 45.458H5.32549C5.22288 45.4581 5.12126 45.4379 5.02645 45.3987C4.93164 45.3594 4.84549 45.3019 4.77293 45.2293C4.70038 45.1568 4.64283 45.0706 4.60359 44.9758C4.56435 44.881 4.54418 44.7794 4.54424 44.6768V25.8505C4.19857 25.9076 3.84489 25.8934 3.50489 25.8088C3.1649 25.7243 2.84578 25.5711 2.56713 25.3588C2.28847 25.1464 2.05617 24.8793 1.88449 24.5739C1.7128 24.2685 1.60536 23.9313 1.56876 23.5828C1.53215 23.2344 1.56716 22.8821 1.67163 22.5477C1.77609 22.2133 1.94782 21.9038 2.17625 21.6382C2.40469 21.3725 2.68501 21.1564 3.00001 21.003C3.31501 20.8497 3.65804 20.7623 4.00802 20.7463L7.30158 20.7464C7.24845 20.4438 7.26123 20.1334 7.33905 19.8362C7.41687 19.539 7.55789 19.2621 7.7525 19.0244C7.9471 18.7867 8.1907 18.5938 8.46667 18.4589C8.74264 18.3239 9.04448 18.2501 9.35158 18.2425H10.3037L7.28168 12.2228C6.98929 12.2273 6.70006 12.1619 6.43809 12.0319C6.17612 11.902 5.949 11.7113 5.77566 11.4758C5.60232 11.2403 5.48777 10.9668 5.44157 10.678C5.39536 10.3893 5.41884 10.0937 5.51003 9.81582C5.60123 9.53798 5.75751 9.28595 5.96585 9.08075C6.17419 8.87555 6.42856 8.72312 6.70775 8.63615C6.98694 8.54918 7.28288 8.5302 7.5709 8.58078C7.85891 8.63136 8.13067 8.75005 8.36352 8.92695L14.7424 5.58679C15.4992 4.88268 16.5011 4.50202 17.5345 4.52597C18.5679 4.54992 19.5511 4.97658 20.2745 5.71499C20.9118 6.36356 20.1583 6.97428 19.6977 7.41632C19.9503 7.89772 20.0425 8.44728 19.9607 8.98476C19.8789 9.52225 19.6274 10.0195 19.243 10.4039C18.8585 10.7884 18.3613 11.0399 17.8238 11.1217C17.2863 11.2035 16.7368 11.1114 16.2554 10.8587C15.9814 11.1072 15.5365 11.7124 15.1201 11.6643C13.6724 11.2405 13.2252 9.10382 13.4127 8.04804L9.08679 10.3124C9.1035 10.7561 8.9624 11.1913 8.68854 11.5408L12.0523 18.2424H13.8002C14.1073 18.2501 14.4092 18.3239 14.6851 18.4588C14.9611 18.5938 15.2047 18.7867 15.3993 19.0244C15.5939 19.2621 15.7349 19.539 15.8127 19.8362C15.8906 20.1334 15.9033 20.4438 15.8502 20.7464H21.2808C20.7645 20.0319 19.9067 17.9599 21.3502 17.7648H26.571V12.1115C26.5719 11.5045 26.8135 10.9226 27.2429 10.4935C27.6723 10.0644 28.2543 9.82314 28.8614 9.82271H41.4575C42.0646 9.82314 42.6467 10.0644 43.0761 10.4935C43.5054 10.9226 43.7471 11.5045 43.7479 12.1115V20.7465H46.0459C46.3968 20.7605 46.7412 20.8463 47.0577 20.9986C47.3743 21.1509 47.6562 21.3664 47.8862 21.6319C48.1162 21.8974 48.2893 22.2072 48.395 22.5422C48.5006 22.8772 48.5364 23.2303 48.5003 23.5797C48.4641 23.9291 48.3568 24.2674 48.1848 24.5737C48.0129 24.8799 47.78 25.1477 47.5005 25.3605C47.2211 25.5733 46.901 25.7266 46.56 25.8109C46.219 25.8951 45.8643 25.9086 45.5179 25.8505V44.6768C45.518 44.7794 45.4978 44.881 45.4586 44.9758C45.4193 45.0706 45.3618 45.1568 45.2892 45.2293C45.2167 45.3019 45.1305 45.3594 45.0357 45.3987C44.9409 45.4379 44.8393 45.4581 44.7367 45.458ZM41.9763 43.8955H43.9554V25.8505H41.9763V43.8955ZM6.10674 43.8955H8.08582V25.8505H6.10674V43.8955ZM27.9596 40.7354H40.4138V34.0734H27.9596V40.7354ZM27.9596 32.5109H40.4138V25.8505H27.9596V32.5109ZM8.08047 22.3089H4.01705C3.76568 22.3261 3.53029 22.4384 3.35872 22.623C3.18714 22.8075 3.09225 23.0504 3.09331 23.3024C3.09438 23.5543 3.19132 23.7964 3.36445 23.9795C3.53757 24.1626 3.7739 24.2729 4.02541 24.288C4.84351 24.2871 7.99165 24.2886 8.87549 24.288C18.4809 24.2872 36.4528 24.2885 46.0397 24.288C46.2919 24.2725 46.5286 24.1613 46.7015 23.9771C46.8744 23.7929 46.9705 23.5497 46.9702 23.2971C46.9698 23.0444 46.873 22.8015 46.6995 22.6178C46.526 22.4342 46.289 22.3237 46.0368 22.3089H42.9667C33.3399 22.3109 17.5665 22.3074 8.08047 22.3089ZM28.1336 20.7464H42.1854V12.1115C42.1849 11.9188 42.108 11.7341 41.9715 11.598C41.8351 11.4619 41.6503 11.3854 41.4576 11.3852H28.8614C28.6687 11.3854 28.4839 11.4619 28.3474 11.598C28.211 11.7341 28.1341 11.9188 28.1336 12.1115L28.1336 20.7464ZM22.275 19.3273C22.4339 19.7443 22.7156 20.1032 23.0829 20.3566C23.4502 20.6099 23.8857 20.7459 24.3319 20.7464H26.5711V19.3273H22.275ZM8.86405 20.7464H14.2877C14.3086 20.3687 14.3201 19.8063 13.8002 19.8049C13.7213 19.7996 11.4743 19.8129 11.4748 19.8049H9.35155C8.83458 19.8053 8.84097 20.3697 8.86405 20.7464ZM6.94827 10.404C6.94046 10.8544 7.77571 10.6768 7.46171 10.2041C7.25532 10.0216 6.89808 10.1874 6.94827 10.404ZM17.47 6.07965C17.0454 6.08525 16.6291 6.19731 16.259 6.40554C15.889 6.61378 15.5772 6.91154 15.3521 7.27154C15.127 7.63154 14.9958 8.04227 14.9706 8.46611C14.9454 8.88994 15.027 9.31332 15.2078 9.69746L18.5442 6.35884C18.2152 6.1772 17.8458 6.0812 17.47 6.07965ZM18.4694 8.64465L17.483 9.63184C17.737 9.60878 17.9748 9.49734 18.1551 9.31695C18.3353 9.13655 18.4466 8.89864 18.4694 8.64465ZM35.3571 38.1857H33.0179C32.8133 38.1818 32.6183 38.0978 32.475 37.9517C32.3316 37.8056 32.2513 37.6091 32.2513 37.4044C32.2513 37.1997 32.3316 37.0032 32.475 36.8572C32.6183 36.7111 32.8133 36.627 33.0179 36.6232H35.357C35.5616 36.627 35.7565 36.711 35.8999 36.8571C36.0433 37.0032 36.1236 37.1997 36.1236 37.4044C36.1236 37.609 36.0433 37.8055 35.9 37.9516C35.7566 38.0977 35.5617 38.1818 35.3571 38.1857ZM35.3571 29.9612H33.0179C32.8133 29.9573 32.6183 29.8733 32.475 29.7272C32.3316 29.5811 32.2513 29.3846 32.2513 29.1799C32.2513 28.9753 32.3316 28.7788 32.475 28.6327C32.6183 28.4866 32.8133 28.4026 33.0179 28.3987H35.357C35.5616 28.4025 35.7565 28.4866 35.8999 28.6326C36.0433 28.7787 36.1236 28.9752 36.1236 29.1799C36.1236 29.3845 36.0433 29.5811 35.9 29.7272C35.7566 29.8733 35.5617 29.9573 35.3571 29.9612ZM35.1586 18.1539C34.8802 18.1617 34.6031 18.1127 34.3442 18.0098C34.0853 17.907 33.8501 17.7524 33.6529 17.5557C33.4557 17.3589 33.3007 17.1241 33.1973 16.8654C33.0939 16.6067 33.0442 16.3297 33.0514 16.0513C33.0684 15.5035 33.2979 14.9839 33.6914 14.6024C34.0849 14.221 34.6114 14.0077 35.1594 14.0077C35.7074 14.0077 36.2339 14.221 36.6274 14.6024C37.0208 14.9839 37.2504 15.5035 37.2674 16.0513C37.2739 16.3297 37.2238 16.6065 37.1201 16.865C37.0164 17.1235 36.8612 17.3582 36.664 17.5548C36.4668 17.7515 36.2316 17.906 35.9729 18.009C35.7141 18.112 35.437 18.1613 35.1586 18.1539ZM34.6139 16.065C34.6157 16.2097 34.6749 16.3477 34.7785 16.4487C34.8821 16.5498 35.0216 16.6055 35.1663 16.6037C35.3109 16.6019 35.449 16.5426 35.55 16.439C35.651 16.3355 35.7067 16.196 35.7049 16.0513C35.7015 15.9077 35.6416 15.7713 35.5382 15.6716C35.4348 15.5719 35.2963 15.517 35.1527 15.5188C35.0091 15.5206 34.872 15.579 34.7711 15.6813C34.6703 15.7835 34.6137 15.9214 34.6139 16.065Z" fill="black" fill-opacity="0.2"/>
<path d="M73.8673 30L70.3813 20.13H72.2573L74.9453 28.222H74.3853L77.2833 20.13H78.6273L81.3153 28.222H80.7973L83.6113 20.13H85.3753L81.8613 30H80.3633L77.7593 22.412H78.0673L75.3653 30H73.8673ZM88.9956 30.14C88.2676 30.14 87.6376 29.9907 87.1056 29.692C86.5736 29.3933 86.1582 28.9687 85.8596 28.418C85.5702 27.8673 85.4256 27.214 85.4256 26.458C85.4256 25.702 85.5702 25.0533 85.8596 24.512C86.1582 23.9613 86.5736 23.5367 87.1056 23.238C87.6376 22.9393 88.2676 22.79 88.9956 22.79C89.7236 22.79 90.3536 22.9393 90.8856 23.238C91.4269 23.5367 91.8422 23.9613 92.1316 24.512C92.4302 25.0533 92.5796 25.702 92.5796 26.458C92.5796 27.214 92.4302 27.8673 92.1316 28.418C91.8422 28.9687 91.4269 29.3933 90.8856 29.692C90.3536 29.9907 89.7236 30.14 88.9956 30.14ZM88.9956 28.796C89.5462 28.796 89.9849 28.6047 90.3116 28.222C90.6382 27.83 90.8016 27.242 90.8016 26.458C90.8016 25.674 90.6382 25.0907 90.3116 24.708C89.9849 24.3253 89.5462 24.134 88.9956 24.134C88.4449 24.134 88.0062 24.3253 87.6796 24.708C87.3529 25.0907 87.1896 25.674 87.1896 26.458C87.1896 27.242 87.3529 27.83 87.6796 28.222C88.0062 28.6047 88.4449 28.796 88.9956 28.796ZM94.0747 30V24.736C94.0747 24.4373 94.0654 24.134 94.0467 23.826C94.0374 23.518 94.0141 23.2193 93.9767 22.93H95.6707L95.8667 24.862H95.5867C95.6801 24.3953 95.8341 24.008 96.0487 23.7C96.2727 23.392 96.5434 23.1633 96.8607 23.014C97.1781 22.8647 97.5234 22.79 97.8967 22.79C98.0647 22.79 98.2001 22.7993 98.3027 22.818C98.4054 22.8273 98.5081 22.8507 98.6107 22.888L98.5967 24.428C98.4194 24.3533 98.2654 24.3067 98.1347 24.288C98.0134 24.2693 97.8594 24.26 97.6727 24.26C97.2714 24.26 96.9307 24.344 96.6507 24.512C96.3801 24.68 96.1747 24.9133 96.0347 25.212C95.9041 25.5107 95.8387 25.8513 95.8387 26.234V30H94.0747ZM99.5848 30V19.696H101.335V25.94H101.363L104.233 22.93H106.347L102.777 26.668L102.791 25.968L106.599 30H104.429L101.363 26.836H101.335V30H99.5848ZM107.309 30V22.93H109.059V30H107.309ZM107.211 21.6V19.892H109.157V21.6H107.211ZM110.96 30V24.694C110.96 24.4047 110.95 24.1107 110.932 23.812C110.913 23.5133 110.885 23.2193 110.848 22.93H112.542L112.682 24.33H112.514C112.738 23.8353 113.069 23.4573 113.508 23.196C113.946 22.9253 114.455 22.79 115.034 22.79C115.864 22.79 116.49 23.0233 116.91 23.49C117.33 23.9567 117.54 24.6847 117.54 25.674V30H115.79V25.758C115.79 25.1887 115.678 24.7827 115.454 24.54C115.239 24.288 114.912 24.162 114.474 24.162C113.932 24.162 113.503 24.33 113.186 24.666C112.868 25.002 112.71 25.45 112.71 26.01V30H110.96ZM122.671 33.136C122.018 33.136 121.425 33.066 120.893 32.926C120.371 32.786 119.904 32.5713 119.493 32.282L119.871 31.022C120.142 31.1993 120.422 31.344 120.711 31.456C121.001 31.568 121.299 31.652 121.607 31.708C121.915 31.764 122.228 31.792 122.545 31.792C123.199 31.792 123.684 31.6287 124.001 31.302C124.328 30.9847 124.491 30.5273 124.491 29.93V28.236H124.631C124.482 28.7213 124.179 29.1087 123.721 29.398C123.273 29.6873 122.755 29.832 122.167 29.832C121.533 29.832 120.977 29.692 120.501 29.412C120.035 29.1227 119.671 28.712 119.409 28.18C119.148 27.648 119.017 27.0227 119.017 26.304C119.017 25.5853 119.148 24.9647 119.409 24.442C119.671 23.91 120.035 23.504 120.501 23.224C120.977 22.9347 121.533 22.79 122.167 22.79C122.765 22.79 123.283 22.9347 123.721 23.224C124.169 23.504 124.468 23.8867 124.617 24.372L124.491 24.288L124.631 22.93H126.325C126.288 23.2193 126.26 23.5133 126.241 23.812C126.223 24.1107 126.213 24.4047 126.213 24.694V29.72C126.213 30.8307 125.91 31.6753 125.303 32.254C124.706 32.842 123.829 33.136 122.671 33.136ZM122.643 28.488C123.203 28.488 123.647 28.3013 123.973 27.928C124.309 27.5453 124.477 27.004 124.477 26.304C124.477 25.604 124.309 25.0673 123.973 24.694C123.647 24.3207 123.203 24.134 122.643 24.134C122.074 24.134 121.621 24.3207 121.285 24.694C120.949 25.0673 120.781 25.604 120.781 26.304C120.781 27.004 120.949 27.5453 121.285 27.928C121.621 28.3013 122.074 28.488 122.643 28.488ZM134.69 30.14C134.074 30.14 133.528 29.9953 133.052 29.706C132.585 29.4073 132.221 28.9827 131.96 28.432C131.699 27.8813 131.568 27.2233 131.568 26.458C131.568 25.6927 131.699 25.0393 131.96 24.498C132.221 23.9473 132.585 23.5273 133.052 23.238C133.528 22.9393 134.074 22.79 134.69 22.79C135.278 22.79 135.796 22.9347 136.244 23.224C136.701 23.504 137.005 23.8867 137.154 24.372H136.972V19.696H138.722V30H137V28.502H137.168C137.019 29.006 136.715 29.4073 136.258 29.706C135.81 29.9953 135.287 30.14 134.69 30.14ZM135.18 28.796C135.731 28.796 136.174 28.6047 136.51 28.222C136.846 27.83 137.014 27.242 137.014 26.458C137.014 25.674 136.846 25.0907 136.51 24.708C136.174 24.3253 135.731 24.134 135.18 24.134C134.629 24.134 134.181 24.3253 133.836 24.708C133.5 25.0907 133.332 25.674 133.332 26.458C133.332 27.242 133.5 27.83 133.836 28.222C134.181 28.6047 134.629 28.796 135.18 28.796ZM144.044 30.14C142.858 30.14 141.93 29.8133 141.258 29.16C140.586 28.5067 140.25 27.6107 140.25 26.472C140.25 25.7347 140.394 25.0907 140.684 24.54C140.973 23.9893 141.374 23.56 141.888 23.252C142.41 22.944 143.017 22.79 143.708 22.79C144.389 22.79 144.958 22.9347 145.416 23.224C145.873 23.5133 146.218 23.9193 146.452 24.442C146.694 24.9647 146.816 25.576 146.816 26.276V26.738H141.664V25.814H145.57L145.332 26.01C145.332 25.3567 145.192 24.8573 144.912 24.512C144.641 24.1667 144.244 23.994 143.722 23.994C143.143 23.994 142.695 24.1993 142.378 24.61C142.07 25.0207 141.916 25.5947 141.916 26.332V26.514C141.916 27.2793 142.102 27.8533 142.476 28.236C142.858 28.6093 143.395 28.796 144.086 28.796C144.487 28.796 144.86 28.7447 145.206 28.642C145.56 28.53 145.896 28.3527 146.214 28.11L146.732 29.286C146.396 29.5567 145.994 29.7667 145.528 29.916C145.061 30.0653 144.566 30.14 144.044 30.14ZM150.818 30.14C150.211 30.14 149.651 30.07 149.138 29.93C148.634 29.7807 148.209 29.5753 147.864 29.314L148.354 28.138C148.708 28.3807 149.1 28.5673 149.53 28.698C149.959 28.8287 150.393 28.894 150.832 28.894C151.298 28.894 151.644 28.8147 151.868 28.656C152.101 28.4973 152.218 28.2827 152.218 28.012C152.218 27.7973 152.143 27.6293 151.994 27.508C151.854 27.3773 151.625 27.2793 151.308 27.214L149.908 26.948C149.31 26.8173 148.853 26.5933 148.536 26.276C148.228 25.9587 148.074 25.5433 148.074 25.03C148.074 24.5913 148.19 24.204 148.424 23.868C148.666 23.532 149.007 23.2707 149.446 23.084C149.894 22.888 150.416 22.79 151.014 22.79C151.536 22.79 152.026 22.86 152.484 23C152.95 23.14 153.342 23.35 153.66 23.63L153.156 24.764C152.866 24.5307 152.535 24.3487 152.162 24.218C151.788 24.0873 151.424 24.022 151.07 24.022C150.584 24.022 150.23 24.1107 150.006 24.288C149.782 24.456 149.67 24.6753 149.67 24.946C149.67 25.1513 149.735 25.324 149.866 25.464C150.006 25.5947 150.22 25.6927 150.51 25.758L151.91 26.024C152.535 26.1453 153.006 26.36 153.324 26.668C153.65 26.9667 153.814 27.3773 153.814 27.9C153.814 28.3667 153.688 28.768 153.436 29.104C153.184 29.44 152.834 29.6967 152.386 29.874C151.938 30.0513 151.415 30.14 150.818 30.14ZM155.311 30V19.696H157.061V25.94H157.089L159.959 22.93H162.073L158.503 26.668L158.517 25.968L162.325 30H160.155L157.089 26.836H157.061V30H155.311Z" fill="#4D4D4D"/>
<path d="M73.8673 30L70.3813 20.13H72.2573L74.9453 28.222H74.3853L77.2833 20.13H78.6273L81.3153 28.222H80.7973L83.6113 20.13H85.3753L81.8613 30H80.3633L77.7593 22.412H78.0673L75.3653 30H73.8673ZM88.9956 30.14C88.2676 30.14 87.6376 29.9907 87.1056 29.692C86.5736 29.3933 86.1582 28.9687 85.8596 28.418C85.5702 27.8673 85.4256 27.214 85.4256 26.458C85.4256 25.702 85.5702 25.0533 85.8596 24.512C86.1582 23.9613 86.5736 23.5367 87.1056 23.238C87.6376 22.9393 88.2676 22.79 88.9956 22.79C89.7236 22.79 90.3536 22.9393 90.8856 23.238C91.4269 23.5367 91.8422 23.9613 92.1316 24.512C92.4302 25.0533 92.5796 25.702 92.5796 26.458C92.5796 27.214 92.4302 27.8673 92.1316 28.418C91.8422 28.9687 91.4269 29.3933 90.8856 29.692C90.3536 29.9907 89.7236 30.14 88.9956 30.14ZM88.9956 28.796C89.5462 28.796 89.9849 28.6047 90.3116 28.222C90.6382 27.83 90.8016 27.242 90.8016 26.458C90.8016 25.674 90.6382 25.0907 90.3116 24.708C89.9849 24.3253 89.5462 24.134 88.9956 24.134C88.4449 24.134 88.0062 24.3253 87.6796 24.708C87.3529 25.0907 87.1896 25.674 87.1896 26.458C87.1896 27.242 87.3529 27.83 87.6796 28.222C88.0062 28.6047 88.4449 28.796 88.9956 28.796ZM94.0747 30V24.736C94.0747 24.4373 94.0654 24.134 94.0467 23.826C94.0374 23.518 94.0141 23.2193 93.9767 22.93H95.6707L95.8667 24.862H95.5867C95.6801 24.3953 95.8341 24.008 96.0487 23.7C96.2727 23.392 96.5434 23.1633 96.8607 23.014C97.1781 22.8647 97.5234 22.79 97.8967 22.79C98.0647 22.79 98.2001 22.7993 98.3027 22.818C98.4054 22.8273 98.5081 22.8507 98.6107 22.888L98.5967 24.428C98.4194 24.3533 98.2654 24.3067 98.1347 24.288C98.0134 24.2693 97.8594 24.26 97.6727 24.26C97.2714 24.26 96.9307 24.344 96.6507 24.512C96.3801 24.68 96.1747 24.9133 96.0347 25.212C95.9041 25.5107 95.8387 25.8513 95.8387 26.234V30H94.0747ZM99.5848 30V19.696H101.335V25.94H101.363L104.233 22.93H106.347L102.777 26.668L102.791 25.968L106.599 30H104.429L101.363 26.836H101.335V30H99.5848ZM107.309 30V22.93H109.059V30H107.309ZM107.211 21.6V19.892H109.157V21.6H107.211ZM110.96 30V24.694C110.96 24.4047 110.95 24.1107 110.932 23.812C110.913 23.5133 110.885 23.2193 110.848 22.93H112.542L112.682 24.33H112.514C112.738 23.8353 113.069 23.4573 113.508 23.196C113.946 22.9253 114.455 22.79 115.034 22.79C115.864 22.79 116.49 23.0233 116.91 23.49C117.33 23.9567 117.54 24.6847 117.54 25.674V30H115.79V25.758C115.79 25.1887 115.678 24.7827 115.454 24.54C115.239 24.288 114.912 24.162 114.474 24.162C113.932 24.162 113.503 24.33 113.186 24.666C112.868 25.002 112.71 25.45 112.71 26.01V30H110.96ZM122.671 33.136C122.018 33.136 121.425 33.066 120.893 32.926C120.371 32.786 119.904 32.5713 119.493 32.282L119.871 31.022C120.142 31.1993 120.422 31.344 120.711 31.456C121.001 31.568 121.299 31.652 121.607 31.708C121.915 31.764 122.228 31.792 122.545 31.792C123.199 31.792 123.684 31.6287 124.001 31.302C124.328 30.9847 124.491 30.5273 124.491 29.93V28.236H124.631C124.482 28.7213 124.179 29.1087 123.721 29.398C123.273 29.6873 122.755 29.832 122.167 29.832C121.533 29.832 120.977 29.692 120.501 29.412C120.035 29.1227 119.671 28.712 119.409 28.18C119.148 27.648 119.017 27.0227 119.017 26.304C119.017 25.5853 119.148 24.9647 119.409 24.442C119.671 23.91 120.035 23.504 120.501 23.224C120.977 22.9347 121.533 22.79 122.167 22.79C122.765 22.79 123.283 22.9347 123.721 23.224C124.169 23.504 124.468 23.8867 124.617 24.372L124.491 24.288L124.631 22.93H126.325C126.288 23.2193 126.26 23.5133 126.241 23.812C126.223 24.1107 126.213 24.4047 126.213 24.694V29.72C126.213 30.8307 125.91 31.6753 125.303 32.254C124.706 32.842 123.829 33.136 122.671 33.136ZM122.643 28.488C123.203 28.488 123.647 28.3013 123.973 27.928C124.309 27.5453 124.477 27.004 124.477 26.304C124.477 25.604 124.309 25.0673 123.973 24.694C123.647 24.3207 123.203 24.134 122.643 24.134C122.074 24.134 121.621 24.3207 121.285 24.694C120.949 25.0673 120.781 25.604 120.781 26.304C120.781 27.004 120.949 27.5453 121.285 27.928C121.621 28.3013 122.074 28.488 122.643 28.488ZM134.69 30.14C134.074 30.14 133.528 29.9953 133.052 29.706C132.585 29.4073 132.221 28.9827 131.96 28.432C131.699 27.8813 131.568 27.2233 131.568 26.458C131.568 25.6927 131.699 25.0393 131.96 24.498C132.221 23.9473 132.585 23.5273 133.052 23.238C133.528 22.9393 134.074 22.79 134.69 22.79C135.278 22.79 135.796 22.9347 136.244 23.224C136.701 23.504 137.005 23.8867 137.154 24.372H136.972V19.696H138.722V30H137V28.502H137.168C137.019 29.006 136.715 29.4073 136.258 29.706C135.81 29.9953 135.287 30.14 134.69 30.14ZM135.18 28.796C135.731 28.796 136.174 28.6047 136.51 28.222C136.846 27.83 137.014 27.242 137.014 26.458C137.014 25.674 136.846 25.0907 136.51 24.708C136.174 24.3253 135.731 24.134 135.18 24.134C134.629 24.134 134.181 24.3253 133.836 24.708C133.5 25.0907 133.332 25.674 133.332 26.458C133.332 27.242 133.5 27.83 133.836 28.222C134.181 28.6047 134.629 28.796 135.18 28.796ZM144.044 30.14C142.858 30.14 141.93 29.8133 141.258 29.16C140.586 28.5067 140.25 27.6107 140.25 26.472C140.25 25.7347 140.394 25.0907 140.684 24.54C140.973 23.9893 141.374 23.56 141.888 23.252C142.41 22.944 143.017 22.79 143.708 22.79C144.389 22.79 144.958 22.9347 145.416 23.224C145.873 23.5133 146.218 23.9193 146.452 24.442C146.694 24.9647 146.816 25.576 146.816 26.276V26.738H141.664V25.814H145.57L145.332 26.01C145.332 25.3567 145.192 24.8573 144.912 24.512C144.641 24.1667 144.244 23.994 143.722 23.994C143.143 23.994 142.695 24.1993 142.378 24.61C142.07 25.0207 141.916 25.5947 141.916 26.332V26.514C141.916 27.2793 142.102 27.8533 142.476 28.236C142.858 28.6093 143.395 28.796 144.086 28.796C144.487 28.796 144.86 28.7447 145.206 28.642C145.56 28.53 145.896 28.3527 146.214 28.11L146.732 29.286C146.396 29.5567 145.994 29.7667 145.528 29.916C145.061 30.0653 144.566 30.14 144.044 30.14ZM150.818 30.14C150.211 30.14 149.651 30.07 149.138 29.93C148.634 29.7807 148.209 29.5753 147.864 29.314L148.354 28.138C148.708 28.3807 149.1 28.5673 149.53 28.698C149.959 28.8287 150.393 28.894 150.832 28.894C151.298 28.894 151.644 28.8147 151.868 28.656C152.101 28.4973 152.218 28.2827 152.218 28.012C152.218 27.7973 152.143 27.6293 151.994 27.508C151.854 27.3773 151.625 27.2793 151.308 27.214L149.908 26.948C149.31 26.8173 148.853 26.5933 148.536 26.276C148.228 25.9587 148.074 25.5433 148.074 25.03C148.074 24.5913 148.19 24.204 148.424 23.868C148.666 23.532 149.007 23.2707 149.446 23.084C149.894 22.888 150.416 22.79 151.014 22.79C151.536 22.79 152.026 22.86 152.484 23C152.95 23.14 153.342 23.35 153.66 23.63L153.156 24.764C152.866 24.5307 152.535 24.3487 152.162 24.218C151.788 24.0873 151.424 24.022 151.07 24.022C150.584 24.022 150.23 24.1107 150.006 24.288C149.782 24.456 149.67 24.6753 149.67 24.946C149.67 25.1513 149.735 25.324 149.866 25.464C150.006 25.5947 150.22 25.6927 150.51 25.758L151.91 26.024C152.535 26.1453 153.006 26.36 153.324 26.668C153.65 26.9667 153.814 27.3773 153.814 27.9C153.814 28.3667 153.688 28.768 153.436 29.104C153.184 29.44 152.834 29.6967 152.386 29.874C151.938 30.0513 151.415 30.14 150.818 30.14ZM155.311 30V19.696H157.061V25.94H157.089L159.959 22.93H162.073L158.503 26.668L158.517 25.968L162.325 30H160.155L157.089 26.836H157.061V30H155.311Z" fill="black" fill-opacity="0.2"/>
</svg>
